<?xml version="1.0" encoding="UTF-8"?>
<svg id="Layer_2" data-name="Layer 2" xmlns="http://www.w3.org/2000/svg" viewBox="0 0 227.4056 364.3453" fill="#EAD7BB">
  <g id="katman_1" data-name="katman 1">
    <path d="M18.431,275.8155c5.0095,9.0445,11.1329,17.489,18.138,25.0923,7.3047,7.9284,15.6096,14.8592,24.6205,20.7682,4.9603,3.2529,10.0386,6.3571,15.0974,9.4531,1.2334,.7548,2.482,1.4849,3.7446,2.1897,1.4057,.7845,2.9564,1.3468,4.4448,1.9559,1.1741,.4805,2.2392,.9424,3.285,1.6662,.9643,.6674,1.8946,1.3951,2.9279,1.9563,.896,.4866,1.8028,.8102,2.7666,1.0143,1.7124,9.6138,1.5896,19.4693,1.2036,29.1911-.0968,2.4384-.2136,4.876-.3291,7.3135-.1166,2.4624,3.7056,2.4545,3.8265,0,.4777-9.7018,.9868-19.4478,.1461-29.1451-.1757-2.027-.4399-4.0302-.7553-6.0201,.5249-.4931,.5611-1.2448,.2711-1.9119-.3429-.7889-.695-1.5742-1.045-2.3605-1.2446-5.9885-3.0632-11.8333-5.302-17.5975-1.3534-3.4846-2.7983-6.9317-4.2674-10.3688,.1514-.2603,.252-.5708,.2621-.9462,.1194-4.4205,2.4612-8.3927,4.7985-12.0033,2.6339-4.0688,5.5838-7.913,8.0705-12.0797,2.4272-4.067,4.7339-8.2395,6.8961-12.4534,2.104-4.1005,3.9802-8.3407,5.4085-12.7263,1.4783-4.5395,2.3179-9.1899,2.823-13.9306,.5292-4.967,.998-9.944,1.4948-14.9146,.4952-4.9543,.8415-9.9368,.3569-14.906-.4808-4.9313-1.5452-9.7761-2.8328-14.5535-1.3044-4.8395-2.7797-9.6294-4.0793-14.4705-1.1567-4.3087-2.5718-8.6956-5.638-12.0537-1.0299-1.1281-2.8771-.4894-3.2874,.8679-.3348,1.1075-.1397,2.1698,.0207,3.2866,.1511,1.0515,.2897,2.1057,.4251,3.1595,.2836,2.206,.5184,4.4214,.5532,6.6472,.0687,4.3941-.2808,8.8289-.8621,13.1819-1.1396,8.5337-3.3583,16.8999-6.064,25.0606-2.8266,8.5253-5.0793,17.2218-8.3859,25.5842-1.5872,4.0139-3.2345,8.0124-4.3914,12.1776-1.1323,4.0764-1.8511,8.2669-2.2272,12.4795-.5476,6.1317-.3178,12.3627,.6622,18.4625-.2543-.6228-.5114-1.2444-.7611-1.8691-3.593-8.9905-6.8373-18.1265-9.4653-27.4479-2.708-9.6058-4.7379-19.3795-6.4839-29.2013-1.7431-9.8061-3.0941-19.6895-3.4834-29.65-.7534-19.2791,1.4548-39.1042,7.2951-57.5315,2.9026-9.1582,6.8945-18.0599,11.1547-26.66,4.3169-8.7148,9.3889-17.0105,14.6376-25.1883,1.181-1.8401,2.3637-3.6773,3.5278-5.5278,.854,.8674,1.674,1.7683,2.549,2.6146,3.6748,3.5548,8.3475,5.9358,13.2644,7.2555,5.58,1.4977,11.604,1.5481,17.3484,1.5271,5.7962-.0212,11.588-.9887,17.2036-2.3733,10.0145-2.4692,20.6089-5.8767,28.4366-12.877,3.2483-2.905,6.2635-6.6498,7.5609-10.8721,.5259-1.7117,.7109-3.6263,.2437-5.3763,.2037-.7573,.358-1.5255,.5959-2.2768,.3865-1.2211,.9544-2.3696,1.3142-3.6025,.7317-2.508,1.2328-5.0863,1.4547-7.6905,.3917-4.5967-.1692-9.6893-2.9574-13.5153-1.3582-1.8637-3.0486-3.4143-5.1003-4.4845-1.938-1.0109-4.0498-1.7007-5.815-3.0231-3.2412-2.4284-5.3534-6.026-7.3104-9.4905-2.0673-3.6599-4.014-7.3506-7.3645-10.0197-3.2609-2.5978-7.1543-4.0824-11.3098-4.3897-2.2294-.1649-4.4363,.1506-6.656,.314-2.4935,.1837-4.9968,.244-7.4868-.024-2.2505-.2422-4.4749-.8694-6.5377-1.7984-1.9036-.8574-3.8141-1.7753-5.4244-3.1224-1.7487-1.4627-3.2774-3.1735-5.0514-4.6063-1.8458-1.4907-3.8445-2.5833-6.1247-3.2578-2.4312-.7192-5.1857-1.0904-7.6144-.1747-2.2387,.8441-4.0006,2.4699-5.6764,4.1266-.3364,.0777-.6748,.1734-1.0159,.2938-2.4406,.8622-4.3172,2.5707-5.8857,4.5855-1.6043,2.0606-3.0554,4.264-4.3147,6.5515-2.7492,4.9939-4.2986,10.3478-5.0556,15.9777-.7627,5.6724-1.0618,11.4885-.8011,17.2072,.2703,5.9327,1.2767,11.7947,3.1798,17.4249,1.8241,5.3962,4.2852,10.5637,6.9503,15.5893,.3119,.5882,.6345,1.1706,.9519,1.7559,.2023,.5989,.4124,1.1964,.7183,1.7566,.399,.7306,.8676,1.4549,1.4084,2.1096,.3068,.5492,.6112,1.0998,.9193,1.6484,.1828,.3256,.4148,.5521,.669,.7106-11.5623,15.5288-20.7414,32.5817-27.8647,50.5708-3.0215,7.6301-5.1216,15.605-6.6737,23.6619-.3697-3.9792-.9126-7.9431-1.6213-11.8742-.6517-3.6147-1.4501-7.2005-2.1783-10.8001-.7302-3.6093-1.2367-7.2585-1.99-10.8624-1.5109-7.2287-3.5108-14.3511-4.8514-21.6181-.3294-1.7856-.4131-3.5915-.563-5.3977-.1452-1.7495-.3814-3.4961-.6052-5.2373-.1975-1.5368-.4148-3.0765-.7257-4.5958,.9045-.141,1.796-.4113,2.4969-.6889,1.06-.42,2.0864-.8784,3.1852-1.1927,1.2541-.3588,2.5327-.6227,3.8048-.9085,2.5898-.5818,5.2123-1.3028,7.4406-2.8003,2.0017-1.3453,4.1074-3.3136,4.1301-5.9118,.0199-2.276-1.4788-4.137-3.7229-4.5304-2.0143-.353-4.168,.0933-6.074,.7579-2.6993,.9412-5.1443,2.3933-7.3912,4.145-.378,.2947-.735,.6037-1.0839,.9186,.7667-2.7049,1.1575-5.5022,1.4848-8.2894,.6452-5.4946,1.1765-11.0329,1.0577-16.5714-.1206-5.6222-.9802-11.1707-3.0057-16.4311-2.0732-5.3845-4.7995-10.3995-7.4097-15.5283-.0292-.0574-.0552-.1154-.084-.1728,.001-.0862-.0057-.1727,.0002-.2586,.0262-.3761-.1981-.6444-.4947-.7788-1.0442-2.3063-1.7416-4.6862-1.9182-7.2565-.1123-1.6332-.0946-3.2708,.0423-4.9021,.1391-1.6567,.6187-3.2253,.8389-4.868,.0971-.7247-.5584-1.4958-1.1723-1.7427-.7256-.2919-1.5066-.1432-2.0832,.3942-1.9114,1.7817-2.8955,4.2609-4.0116,6.5647-1.3606,2.8083-2.6604,5.6439-3.8689,8.5211-2.3869,5.6828-4.2639,11.4582-5.0227,17.5944-.37,2.9922-.4893,5.9889-.1004,8.9847,.3938,3.0341,1.1726,5.9718,2.041,8.9,1.7449,5.8836,3.727,11.5888,6.3963,17.1249,1.3907,2.8842,2.8306,5.7524,4.3145,8.5899,.8839,1.6903,1.8561,3.3711,3.0301,4.886-1.8658-.033-3.7948,.0111-5.5532,.6985-3.0406,1.1888-6.0714,3.4359-7.17,6.6211-.3441,.9977,.398,2.0501,1.3302,2.3429,2.2881,.7184,4.7064,.2562,7.0357,.0658,2.4037-.1964,4.6663-.6863,6.8357-1.7765,.5435-.273,1.0648-.5821,1.5657-.9203,.0556,.2406,.1117,.4811,.1579,.7244,.2952,1.5553,.4641,3.1329,.6574,4.703,.4233,3.4376,.5416,6.8949,1.2524,10.2934,1.4061,6.7228,3.1557,13.3631,4.5975,20.0758,.7249,3.3751,1.2114,6.7934,1.9112,10.1739,.6857,3.3125,1.4611,6.6056,2.1415,9.9192,1.5602,7.5981,2.4557,15.2998,2.5941,23.0572,.0089,.4975,.2238,.8586,.5298,1.0916-.9786,7.3524-1.538,14.7572-1.6181,22.1779-.1251,11.603,.9769,23.2495,2.8313,34.7728-.6895-3.4186-1.2217-6.872-1.7695-10.312-.9339-5.8648-2.1535-11.6756-3.2175-17.517-1.0601-5.8202-1.7089-11.6391-2.2171-17.5296-.5081-5.8896-1.1421-11.7087-2.6518-17.4374-.7484-2.8398-1.5875-5.6558-2.2648-8.5141-.6692-2.8236-1.1668-5.6865-1.7598-8.5266-.5949-2.8491-1.2586-5.688-2.1488-8.461-.9109-2.8378-2.0559-5.5959-3.2531-8.3231-2.2153-5.0466-4.4383-10.1629-7.582-14.7153-3.2298-4.6771-7.4703-8.5316-10.8074-13.1265-1.6834-2.3178-3.2313-4.7293-4.8639-7.0824-1.2619-1.8191-2.4885-3.7225-3.9879-5.3579-.7219-.7873-1.5596-1.5283-2.5229-2.0043-1.1007-.5439-2.9655,.0848-2.775,1.5924,.335,2.6513,1.5306,4.9155,2.9037,7.1715,1.3541,2.2245,2.5094,4.4262,3.4259,6.8699,2.0236,5.3956,3.5371,11.0997,4.7026,16.7406,1.1919,5.7685,1.5373,11.6393,1.8209,17.5091,.2954,6.1142,.6393,12.2258,.9256,18.3405,.2783,5.9446,.5603,11.8481,1.492,17.7352,.912,5.7624,2.318,11.4648,4.3266,16.9453,1.9893,5.4278,4.5151,10.6363,7.1198,15.7902,2.6071,5.1588,5.1433,10.3641,7.9454,15.421,2.7661,4.9915,5.8847,9.7322,9.5117,14.1422,3.1302,3.8061,6.515,7.3889,9.8326,11.0302,.1036,.7124,.5238,1.3285,1.311,1.5448,.035,.0097,.0738,.0102,.1099,.0174,.0195,.0217,.0393,.043,.0588,.0646,.3334,.3718,.6566,.7526,.9872,1.1269,.1365,.5773,.2702,1.156,.409,1.732,4.5872,19.0446,11.9566,36.9895,19.6292,54.9523,.4846,1.1346,.9653,2.2728,1.4393,3.4146-.9141-1.4836-1.8469-2.9561-2.8237-4.4016-5.9357-8.7842-13.0428-16.7272-20.7115-24.0269-3.823-3.639-7.7837-7.1313-11.825-10.5255-4.1887-3.5178-8.4718-6.9247-12.5554-10.5665-7.8012-6.9571-14.5169-15.1191-19.4485-24.3668-5.4539-10.2274-8.2121-21.6565-13.925-31.7652-.6019-1.065-2.2589-1.3479-3.1089-.4006-.9207,1.0258-1.505,2.2614-1.4712,3.6638,.0168,.6976,.2154,1.3047,.3882,1.9613,.1873,.7115,.1444,1.5525,.2087,2.2939,.2689,3.0994,.6493,6.1903,1.127,9.2645,.9086,5.847,2.2467,11.6306,3.8878,17.3138,3.1365,10.8616,7.3352,21.5419,12.8178,31.4406ZM103.5838,14.4948c.0993-1.5398,.033-3.0851,.0103-4.6262-.0013-.0849-.0122-.1634-.0296-.237,1.7896,1.3111,3.2477,3.1833,4.5507,4.942,1.4873,2.0074,2.8224,4.1246,4.1142,6.2615,1.5942,2.637,3.1684,5.264,4.8994,7.7863-.5878,.4234-1.1942,.822-1.7435,1.2974-.8084,.6996-1.4114,1.5714-1.9427,2.4914-1.0914,1.8899-2.1728,3.7898-3.2322,5.6978-2.1993,3.9607-3.7186,8.1656-5.0388,12.4878-1.3263,4.3421-2.6259,8.6992-3.6038,13.1355-1.0082,4.5738-1.5721,9.2141-1.845,13.8876-.1557,2.6661-.2191,5.3397-.16,8.01,.0194,.8759,.066,1.7489,.1266,2.6214-.297-.27-.5994-.5311-.9082-.7822-.1377-.4553-.2744-.9111-.4146-1.3646-.7988-2.5835-1.4832-5.2028-2.0179-7.854-1.1035-5.4718-1.5199-11.0688-.9748-16.6323,.5403-5.5148,1.7804-10.9633,2.7904-16.4053,1.04-5.6039,2.2326-11.1774,3.1405-16.8049,.4954-3.0712,.996-6.1375,1.5886-9.1916,.3029-1.5608,.5881-3.1317,.6905-4.7205Zm17.4013,19.1487c1.9043,2.1726,3.9918,4.1869,6.2147,6.0379-.3265,.6539-.6381,1.3177-.9977,1.9486-.9737,1.7082-2.0756,3.3403-3.1139,5.0092-2.1103,3.392-4.4343,6.639-6.4506,10.0908-2.0689,3.5416-4.0266,7.1518-5.9836,10.7561-1.9132,3.5235-3.8491,7.0629-5.5253,10.7068-1.7322,3.7658-2.9614,7.6461-3.8106,11.6886-.0411-.0433-.0837-.0854-.1249-.1286-.0652-.7923-.1233-1.5852-.1509-2.3798-.0805-2.3192-.0312-4.6499,.0702-6.9677,.2035-4.6538,.6709-9.3139,1.5763-13.8858,.8876-4.481,2.1567-8.8743,3.5002-13.2366,1.306-4.2404,2.5865-8.5331,4.6272-12.4909,1.1301-2.1919,2.4087-4.3056,3.6081-6.4596,.526-.9445,1.0191-1.9421,1.7504-2.7492,.5602-.6182,1.2407-1.1097,1.8994-1.6241,.9141,1.2637,1.8722,2.4989,2.9112,3.6843Zm19.5998,3.4319c.0121,.313,.052,.6266,.1489,.9319,.242,.7621,.6963,1.3694,1.2711,1.7994-.1193,.1248-.2295,.2581-.3522,.3794-.6074,.6006-1.2535,1.1589-1.8856,1.7326-.235,.2133-.3893,.4949-.4813,.7991-.3204-.1323-.6367-.2719-.9514-.4143,.1784-.508,.3548-1.016,.5469-1.5088,.4959-1.271,1.0826-2.5047,1.7035-3.7193Zm-1.2021,9.8791c2.2946,.8089,4.7005,1.3243,6.9577,2.2352,3.442,1.389,5.3193,4.2705,7.2599,7.1671-.2445,.3148-.4702,.6429-.6909,.9746-.5803,.8719-1.1777,1.6536-1.9057,2.4084-1.4128,1.4649-2.8416,2.9146-4.3054,4.3287-2.9666,2.8658-6.1371,5.4259-9.3678,7.9821-3.3087,2.6179-6.6346,5.1767-10.1123,7.5679-3.4066,2.3421-6.8658,4.6052-10.3421,6.8421-1.8926,1.218-3.8182,2.4007-5.8639,3.3469-1.5435,.7139-3.2181,1.4757-4.9251,1.6171,5.0107-4.1485,9.2056-9.1425,12.9712-14.4588,4.9528-6.9923,9.4557-14.3074,13.8789-21.6424,1.2044-1.9972,2.6307-3.8742,3.7843-5.8963,.5425-.951,.9101-1.9628,1.2269-3.0069,.0014-.0046,.003-.009,.0044-.0136,.4729,.1892,.9462,.3774,1.43,.5479Zm23.077,5.3043c.2064,.1292,.4434,.2149,.6828,.251-.7686,.7918-1.5471,1.5727-2.3565,2.3212,.5479-.864,1.106-1.7213,1.6737-2.5722Zm5.3498,14.1059c1.4355,.3687,2.8811,.7086,4.3107,1.1028-.5742,.8394-.9736,1.7577-1.5212,2.6139-.6115,.9563-1.5246,1.7718-2.3454,2.5454-1.7503,1.6497-3.7135,3.0826-5.6046,4.5646-3.9933,3.1294-8.1797,5.9847-12.5506,8.5613-4.325,2.5496-8.8689,4.3064-13.6577,5.7714-4.6792,1.4314-9.386,2.7907-14.2471,3.4477-5.3915,.7286-10.6553,.2292-15.7196-1.6077,1.1506-.1488,2.2671-.5227,3.4644-.9767,2.0131-.7635,3.9111-1.723,5.7563-2.8318,3.7278-2.2401,7.3542-4.6879,10.951-7.1312,3.7828-2.5697,7.4391-5.2688,11.0228-8.1091,3.4109-2.7035,6.8127-5.3631,9.9637-8.3737,1.7487-1.6708,3.4575-3.3879,5.1236-5.1412,.7909-.8322,1.3962-1.7637,2.041-2.7034,.2439,.3411,.4914,.6795,.7494,1.0098,1.5051,1.9275,3.3323,3.6355,5.4877,4.8166,2.1083,1.1554,4.4583,1.8461,6.7756,2.4413Zm-1.331-4.5049c.0975-.0696,.1958-.1379,.2924-.2087-.0106,.0993-.0242,.1985-.0145,.2991-.0931-.0286-.185-.0612-.2779-.0904Zm-30.5553-15.6451c-.3058,.9811-.7108,1.8795-1.2567,2.7503-1.0375,1.6547-2.1761,3.239-3.1896,4.9114-2.1125,3.4858-4.2395,6.9624-6.4113,10.4118-4.1416,6.5779-8.3744,13.2248-13.5241,19.0718-2.5775,2.9266-5.4139,5.6286-8.5396,7.9644,.0088-.0308,.0241-.0544,.0306-.0878,.7551-3.8418,1.8147-7.5689,3.3943-11.1568,1.5829-3.5954,3.4771-7.0716,5.3331-10.5316,1.8868-3.5173,3.7997-7.0237,5.7657-10.4974,1.9755-3.4903,4.2133-6.7866,6.354-10.1732,1.1424-1.8072,2.2648-3.6333,3.3604-5.4693,.4948-.8292,.9308-1.71,1.3782-2.5835,1.1765,.9181,2.3836,1.7961,3.625,2.6204,1.2506,.8303,2.5521,1.5421,3.8947,2.1728-.0765,.2027-.1556,.4068-.2148,.5966Zm44.2568,29.6967c-.4867,1.6395-1.4242,3.2477-2.4811,4.738-5.213,7.3512-14.2899,11.378-22.7982,14.0746-5.3,1.6797-10.7026,3.0936-16.2094,3.8996-5.3077,.7769-10.6994,.6582-16.0423,.3748-4.1881-.2221-8.3294-.9439-12.1829-2.5621,2.965,.665,6.005,.9425,9.0927,.7171,5.3017-.3872,10.4715-1.6868,15.5486-3.2002,4.9029-1.4616,9.7341-3.0185,14.2331-5.4973,4.605-2.5373,9.0055-5.4833,13.1795-8.676,2.2462-1.7183,4.5505-3.4181,6.659-5.3048,.941-.842,1.881-1.7359,2.6629-2.7307,.891-1.1336,1.2526-2.4762,1.886-3.7482,.0069-.0139,.01-.0272,.0162-.041,.3534,.1141,.7086,.2224,1.0577,.3506,1.7962,.6597,4.0972,1.7193,5.0809,3.2782,.0927,.147,.1523,.2448,.2022,.3319-.0092,.0908-.0184,.1815-.0276,.2724-.0466,.4603,.1441,.8967,.449,1.2404,.0544,1.0124-.0333,1.4955-.3264,2.4827Zm3.5216-19.6009c-.0581,2.6542-.5264,5.2633-1.2305,7.8188-.3093,1.123-.7279,2.1844-1.1407,3.2656-.7513-.6222-1.588-1.1588-2.4733-1.6252-2.6537-1.3982-5.5294-2.0993-8.4024-2.8184,.249-.2251,.4898-.464,.7317-.672,.8389-.7211,1.6046-1.4547,2.2588-2.3532,.2678-.3678,.5129-.7541,.7246-1.1559,.5831,.03,1.1743-.1123,1.6657-.4361,.9789-.6451,1.5126-1.8284,1.5776-2.977,.0626-1.1074-.5026-2.0661-1.3635-2.5953-.1073-.1391-.2246-.2655-.3464-.385,1.3556-2.1882,2.4673-4.5036,3.5223-6.9169,.1259-.288,.1151-.5667,.0208-.8058,3.5843,2.7545,4.5494,7.3542,4.4553,11.6564Zm-15.0909-18.4819c1.4543,1.5623,3.15,2.9507,5.0514,3.9311,1.4745,.7604,3.0786,1.3292,4.5141,2.1755-.2711,.0197-.5255,.1719-.676,.5162-1.094,2.5023-2.2381,4.9271-3.6805,7.1968-.108,.0105-.217,.0242-.3299,.0511-.7725,.1843-1.4141,.7634-1.8227,1.4232-.2198,.3552-.3857,.7647-.5134,1.1737-.07,.1277-.1279,.2618-.1609,.4065-.0546,.24-.0595,.46-.0376,.6758-.0009,.0151-.0018,.0294-.0027,.0445-.9829,1.0741-2.048,2.0602-3.1943,2.969-1.1394,.9034-2.2902,1.8087-3.4522,2.6931-1.0524-.4349-2.0158-1.0038-2.8978-1.6823,.2154-.0935,.426-.2169,.6252-.3756,1.626-1.2948,3.0675-2.7869,4.5075-4.2805,.2801-.2905,.6011-.5953,.9194-.9145,1.1242-.3754,2.1053-1.2313,2.4972-2.3236,.0004-.0008,.0009-.0014,.0013-.0021,.2639-.4705,.5435-.9291,.5435-1.4912,0-.3175-.0833-.7059-.1885-1.0168-.2412-.7129-.6835-1.3287-1.3486-1.7012-.6205-.3474-1.292-.3878-1.9692-.2907-.3309-.0038-.6576,.0303-.9822,.0799,1.4393-2.0666,2.8816-4.1312,4.3129-6.2034,.7326-1.0606-.9985-2.0608-1.7253-1.0085-2.0498,2.9677-4.1252,5.9174-6.1732,8.8863-.1953,.2151-.3586,.4501-.4852,.6997-.0616,.0897-.1244,.1785-.186,.2682-.9875,1.4392-2.0016,2.8661-2.8799,4.3757-.3083,.5298-.6305,1.0571-.9757,1.5672-.9577-1.3281-1.8092-2.7371-2.7588-4.0721,.4936-.1234,.9392-.4351,1.2521-.9118,.7368-1.1226,1.5427-2.1952,2.2131-3.3614,.4153-.7224,.8184-1.505,1.112-2.32,.404-.4461,.7-1.0064,.9065-1.5585,.2416-.6461,.4025-1.4316,.3355-2.1186-.0616-.6316-.3041-1.0979-.7012-1.4515-.5768-.9096-1.5289-1.543-2.7118-1.4769-.7334,.0411-1.411,.3395-1.7988,1.0022-.0113,.0194-.0206,.0481-.0317,.0692-.3325,.2493-.6201,.5662-.8477,.926-.1438,.2274-.2473,.4769-.3548,.7231-.0893,.2044-.2156,.4414-.2728,.6409-.0664,.2319-.1431,1.0942-.0345,.3205-.088,.6274-.0338,1.1916,.4403,1.6658,.0842,.0841,.1835,.159,.2895,.2266,.0545,.1538,.1188,.3055,.2008,.4527,.0809,.1453,.1753,.2799,.2792,.4052-.0284,.0531-.0546,.1076-.0835,.1604-.7057,1.2868-1.5875,2.4536-2.3909,3.6775-.0384,.0586-.0619,.1242-.092,.1869-1.0348-1.0231-2.198-1.8957-3.5041-2.5765,.0249-.03,.0513-.0569,.074-.0915,2.2222-3.3829,4.3634-6.8197,6.6375-10.1684,1.0949-1.6122,2.3121-3.1309,3.5068-4.6689,.5474-.7046,1.0912-1.4121,1.6133-2.1357,.2746-.3806,.5438-.7651,.815-1.1481,.0181-.0256,.0386-.0627,.0575-.0925,1.9317,3.4459,3.8497,6.9418,6.559,9.8522Zm-7.4823-11.4886c-.1217,.1422-.2406,.2986-.3687,.4673-.6082,.801-1.1752,1.6321-1.7869,2.4307-1.2964,1.6924-2.672,3.3233-3.9197,5.053-2.5598,3.5489-4.8332,7.3065-7.2449,10.956-.0632,.0958-.1001,.1902-.1247,.2832-1.4317-.5622-2.906-.9952-4.3803-1.4338,.9715-.8912,1.9085-1.7961,2.7177-2.8573,.4271-.56,.8129-1.2204,1.0874-1.9212,.3518-.3177,.6502-.6878,.8885-1.0963,.0334-.0278,.0696-.0482,.1022-.0778,.5451-.4941,1.0183-1.3084,1.0183-2.0573,0-.8846-.6443-1.7207-1.3851-2.1535-.2252-.1315-.4634-.2331-.7087-.3118-.0196-.0117-.0375-.0257-.0574-.037-.8961-.5077-2.0209-.8718-3.0522-.6129-.5481,.1375-1.0778,.4648-1.4351,.9191-.0936,.0392-.1739,.0958-.2613,.1435,.8361-1.4894,1.72-2.953,2.6995-4.3482,1.5726-2.2402,3.4236-4.1579,5.549-5.8766,1.0999-.8894,2.2536-1.6936,3.4172-2.4956,.6962-.4799,1.3284-.8764,2.0335-1.121,.9905,.7238,1.8935,1.5502,2.7204,2.4885,.9819,1.1142,1.7564,2.375,2.4911,3.6594Zm-16.814-9.1393c3.4067-.2878,6.7481,.2337,9.7422,1.83-1.4104,.7338-2.6939,1.7951-3.942,2.7571-2.4101,1.8574-4.5166,3.9063-6.3127,6.3687-1.773,2.431-3.2498,5.083-4.6206,7.757-.7121,1.3891-1.3738,2.8054-1.9443,4.259-.1631,.4154-.3645,.8641-.5487,1.3263-1.4857-.7757-2.9098-1.6591-4.2817-2.6289,.045-.1408,.0439-.306-.0248-.4916-.2088-.5636-.3645-1.1426-.4829-1.7306,.509-1.3667,.9359-2.783,.9116-4.244,.0396-.0647,.0839-.128,.1177-.1943,.0272-.0534,.0443-.1072,.0683-.1608,.1177-.0817,.2295-.1723,.3335-.2725,.1439-.1387,.2717-.2943,.3856-.4597,.2465-.2809,.4762-.5748,.6693-.8775,.5204-.8156,.2284-1.7311-.3121-2.4187-.1513-.1925-.3186-.3595-.4905-.5178-.135-.1926-.2894-.3738-.4686-.5386-.0876-.0805-.1852-.1503-.2811-.2217,.0606-.1975,.1215-.3944,.1844-.5885,.6123-1.8883,1.5128-3.6583,2.546-5.3488,.5029-.8229,1.0345-1.5904,1.3279-2.5192,.0292-.0923,.0868-.3683,.1521-.682,2.4206,.0024,4.85-.1981,7.2716-.4027Zm-14.4913-.4128c1.7892,.4555,3.5929,.685,5.4038,.7724-.1749,.5344-.3693,1.0547-.7053,1.5717-1.221,1.8793-2.2703,3.8601-3.0125,5.9791-.1076,.3072-.194,.6232-.289,.9359-.6247-.2053-1.3091-.2237-1.99,.0414-.7581,.2952-1.1743,.7631-1.3586,1.4605-.1808,.2837-.3244,.5941-.4114,.9322-.095,.3693-.1142,.749-.0815,1.125-.1169,.8102,.0837,1.663,.4326,2.3896,.3109,.6473,.8528,1.1165,1.4808,1.4283-.0449,.2148-.092,.4288-.153,.6414-.1697,.5922-.3921,1.167-.6197,1.7391-.0918-.0802-.186-.1571-.2774-.238-2.4905-2.2017-4.7225-4.6143-6.7345-7.2143,.03-.1724,.0584-.3329,.0653-.4569,.0459-.8232,.0168-1.6548,.0129-2.479-.0079-1.6578,.0215-3.2948,.2834-4.9355,.2515-1.5742,.6246-3.1273,.9827-4.6798,.1249-.5418,.2568-1.0779,.402-1.6085,2.0829,1.1402,4.3166,2.0218,6.5693,2.5954Zm-11.4545-6.0513c1.1418,1.0481,2.41,1.9844,3.7561,2.8085-.1947,.6284-.3593,1.2692-.5208,1.9119-.4724,1.8795-.9464,3.7562-1.2059,5.6795-.2445,1.8128-.2229,3.6335-.1932,5.4585-.6485-.9086-1.277-1.8343-1.8773-2.7848-1.8358-2.9066-3.5514-5.9026-5.4588-8.7645,.0293-.1544,.0626-.3083,.098-.4608,.1717-.739,.3685-1.4625,.5154-2.2085,.3359-1.7062,.6484-3.4563,1.3041-5.0626,1.2112,1.1008,2.3577,2.2988,3.5824,3.4229Zm-14.6802-7.1415c1.9005-.723,4.011-.2215,5.8685,.4018,1.5201,.5101,2.8077,1.3207,3.9973,2.2665-.965,2.1323-1.2526,4.5165-1.8423,6.7983-.0193,.0744-.0401,.1482-.06,.2224-.769-1.0748-1.5739-2.1243-2.4368-3.1328-2.0411-2.3856-4.6525-4.5545-7.6038-5.3692,.6441-.4826,1.3277-.9019,2.0771-1.187Zm-18.6111,54.4279c-1.0836-5.5772-1.2207-11.2938-1.0068-16.9567,.1964-5.1994,.6044-10.4547,2.0237-15.4822,1.3777-4.8801,3.8608-9.3722,6.8403-13.4532,1.1775-1.6128,2.6351-3.2097,4.5955-3.8192,1.7396-.5408,3.3943-.2257,4.9181,.6024-.4511,.0516-.8616,.3672-.8524,.9543,.0455,2.8864-.0117,5.631-.5552,8.4773-.5512,2.8871-1.0493,5.7789-1.5102,8.6818-.912,5.7445-2.0575,11.4394-3.1,17.1608-1.0336,5.673-2.2768,11.3478-2.8623,17.0897-.5726,5.6159-.1395,11.2444,.9699,16.7699,.4812,2.3968,1.0957,4.7603,1.7931,7.1008-4.7818-8.5781-9.3667-17.4127-11.2538-27.1256Zm-31.6878,28.5773c1.8101-1.5751,3.9145-2.9479,6.1477-3.8408,.8935-.3571,1.8227-.6358,2.7658-.8265,.1784-.036,.3574-.0691,.5371-.0981,.0491-.0079,.0732-.0124,.1029-.0176,.0329-.0019,.0711-.0043,.135-.0094,.4032-.0323,.8087-.0463,1.2125-.0144-.0913,.0125,.4399,.1422,.5452,.146,.0302,.0205,.0611,.0424,.0905,.0639-.0022-.0052-.0026-.0109-.0036-.0165,.0106,.0102,.0181,.0181,.0249,.0257,.0021,.0036,.0042,.0073,.0064,.011,.0038,.0028,.0084,.0062,.0119,.0087,.0021,.0068,.0051,.016,.0077,.0243-.0002,0,0,.0004-.0002,.0004,.0003,.0005,.0006,.0011,.0009,.0016,.0092,.0288,.0195,.0612,.0348,.1078,.0262,.1067,.0431,.1501,.0537,.1641-.0049,.0311-.0101,.0803-.0144,.18-.007,.1568,.0008,.1958,.0067,.2029-.0084,.0083-.0294,.0453-.0795,.1855-.0207,.0581-.2289,.4463-.335,.5965-1.0371,1.468-2.9326,2.4682-4.5959,3.0471-2.5639,.8923-5.2786,1.2127-7.8781,1.9757-.3252,.0955-.6435,.2074-.9593,.3254,.6761-.7897,1.386-1.5503,2.1824-2.2432Zm-15.5131-60.5925c1.0598,2.5887,2.4529,5.0029,3.7361,7.4828,.1693,.3271,.3344,.6567,.5017,.9851,.0868,.751,.1604,1.503,.2239,2.2498,.3711,4.3642,.2143,8.7255,.2915,13.0973,.158,8.933,1.621,17.7842,1.8265,26.7128,.0161,.6987,.0216,1.3976,.0241,2.0965-1.1379-4.6114-2.7548-9.1015-4.0455-13.672-2.6978-9.5533-5.3392-19.3065-5.2218-29.3089,.0612-5.2149,.6524-10.4014,1.1766-15.5857,.2353,2.0362,.7087,4.0415,1.4869,5.9423Zm-1.6504-8.1441c-.0263-.0192-.0521-.0388-.0807-.0548,.0241-.0511,.0473-.1024,.0714-.1534,.0018,.0694,.0071,.1388,.0094,.2082Zm4.3885,75.6375c-2.1712,.9456-4.6083,1.0805-6.9355,1.2962-.1762,.0163-.3542,.0295-.5317,.0438,1.0147-.9186,2.3042-1.6513,3.354-2.0184,1.4809-.5178,3.0257-.5058,4.5752-.5087,.5286-.0011,1.0761-.0365,1.6111-.0123-.6401,.4632-1.3233,.8729-2.0732,1.1994Zm.8354-10.9485c-1.2674-2.3228-2.4381-4.7042-3.6266-7.068-1.2906-2.567-2.5616-5.1556-3.6323-7.8236-1.0781-2.6865-1.9735-5.441-2.8204-8.2076-.8297-2.7103-1.678-5.4238-2.274-8.1972-.5988-2.7867-.7762-5.559-.5976-8.4032,.3609-5.7453,1.8835-11.2358,3.9654-16.5796,.5655-1.4518,1.1655-2.8894,1.7899-4.3162-.411,3.9764-.8187,7.9548-.9548,11.9514-.1734,5.0956,.2763,10.098,1.2015,15.1077,.9225,4.9951,2.1999,9.9167,3.5596,14.8083,1.3024,4.6852,2.8792,9.2919,4.1495,13.9839,.664,2.4529,1.149,4.9094,1.3469,7.4431,.0185,.2361,.0368,.4724,.0555,.7086-.8073-1.0692-1.5129-2.2167-2.1628-3.4077Zm5.2124,.7153c-.0669,.2247-.1418,.4467-.2151,.6693-.065-1.8747-.0414-3.753-.06-5.6283-.0443-4.473-.4129-8.9297-.8095-13.383-.3904-4.384-.8051-8.7691-.9593-13.1694-.1451-4.1417,.0375-8.2851-.1521-12.4261,.3272,.7209,.6466,1.4454,.9536,2.1749,2.2072,5.2468,3.4586,10.5765,3.6964,16.2683,.2376,5.6895-.2809,11.377-.9099,17.026-.3178,2.8547-.7228,5.7088-1.544,8.4683Zm-11.297,51.0282c2.3824,5.2435,4.5659,10.4892,5.9076,16.1076,1.3206,5.5294,2.2187,11.1306,3.7225,16.6191,.7609,2.7771,1.5492,5.5507,2.1221,8.3744,.5567,2.7428,.8515,5.5316,1.1198,8.3151,.5668,5.881,.9623,11.7614,1.8858,17.6028,.9022,5.7072,2.1108,11.3594,3.1438,17.0431,.968,5.3259,1.6689,10.6989,2.797,15.9953-1.9242-3.0815-3.8535-6.1592-5.6176-9.3371-4.5075-8.1197-8.1665-16.6875-11.1341-25.4827-1.5292-4.5322-2.953-9.1086-4.051-13.7663-1.1524-4.8884-1.7591-9.8383-2.257-14.8296-.9641-9.6632-1.5583-19.3511-3.2228-28.9309-1.5584-8.9695-3.8471-17.7946-6.7159-26.4304,1.4905,1.7118,3.0214,3.3888,4.4705,5.136,3.3633,4.0551,5.6644,8.8184,7.8294,13.5835Zm21.5477,109.1339c-3.7046-4.2318-7.0503-8.6836-9.9215-13.525-2.9152-4.9158-5.4273-10.0539-7.9864-15.1596-2.5498-5.0873-5.178-10.1488-7.3328-15.4208-4.4122-10.7948-6.3144-22.1781-6.7635-33.7835-.2367-6.1149-.5536-12.2262-.7971-18.3407-.2345-5.8859-.3673-11.7735-1.1594-17.6187-.771-5.69-2.179-11.346-3.8212-16.8444-.3784-1.2668-.7878-2.527-1.2292-3.7759,.6157,.8799,1.2476,1.7474,1.8945,2.6038,.0093,.0514,.0197,.1031,.0391,.1577,3.1908,8.9714,5.76,18.1556,7.5398,27.5124,1.8395,9.6709,2.5431,19.4437,3.4511,29.2308,.4487,4.8369,.8916,9.6988,1.8233,14.4711,.9424,4.8273,2.3017,9.5635,3.8089,14.2417,2.8419,8.8212,6.2893,17.4515,10.5749,25.6754,2.4743,4.748,5.3112,9.2643,8.1327,13.8096,.8862,1.4276,1.736,2.8812,2.6017,4.324,.1914,.657,.3861,1.3137,.5817,1.971,.318,1.0692,.6342,2.1334,.9847,3.1834-.8124-.8993-1.6228-1.8003-2.4211-2.7121Zm26.7224,35.7024c.2548-4.0965,.878-8.161,1.8842-12.1408,1.0494-4.151,2.5931-8.131,4.2103-12.088,1.6763-4.1017,3.2661-8.2125,4.6364-12.428,1.387-4.2663,2.6358-8.5761,4.0196-12.8434,2.6593-8.2003,5.1872-16.3694,6.5758-24.8996,.7847-4.8213,1.2816-9.6917,1.3995-14.5762,0-.0026,0-.0053,0-.0079,.0514,.8189,.0969,1.6385,.1129,2.4617,.0747,3.8586,.5587,7.6975,.4732,11.5581-.168,7.5914-1.7855,15.1078-3.8657,22.3843-1.0992,3.845-2.3346,7.6518-3.5966,11.446-1.2225,3.6758-2.855,7.1862-4.3812,10.741-1.5453,3.5997-2.8181,7.293-4.152,10.9739-1.3661,3.7699-2.8253,7.5136-4.1155,11.3101-1.6656,4.9006-2.6809,9.9607-3.2802,15.079-.084-2.32-.0653-4.6458,.0792-6.9702Zm1.8055,20.8755c-.2796-1.168-.5179-2.344-.7373-3.5234,.0869-.1383,.145-.3043,.1512-.5056,.2325-7.6151,1.0592-15.2147,3.2934-22.5242,1.1609-3.7981,2.6509-7.5023,4.0093-11.2329,1.3575-3.7282,2.6007-7.5102,4.1198-11.1766,1.4696-3.5471,3.133-7.0138,4.465-10.6174,1.4122-3.8209,2.6059-7.7479,3.7666-11.6515,2.1603-7.2653,3.8753-14.7417,4.3343-22.3268,.2571-4.2484-.2528-8.4219-.3535-12.6583,.5181,1.8159,1.0388,3.6309,1.5508,5.4494,1.2758,4.5316,2.4491,9.1194,3.0884,13.79,.6589,4.8131,.516,9.6443,.098,14.4713-.4225,4.8786-1.0091,9.743-1.4626,14.6193-.4346,4.672-1.0676,9.2722-2.3906,13.7856-2.5621,8.7405-7.0913,16.7794-11.6377,24.6183-2.6614,4.5887-5.837,8.8018-8.7359,13.234-1.2869,1.9676-2.5697,4.055-3.559,6.2487Zm-53.4392-33.8523c7.8301,7.4582,16.6165,13.8394,24.6281,21.1003,7.7779,7.0492,15.1717,14.6406,21.4029,23.1088,4.9213,6.688,9.0653,13.8549,12.7477,21.2674-.0393-.0496-.078-.0978-.1177-.1476-.689-.8651-1.499-1.3956-2.4342-1.9622-1.0315-.6249-1.9561-1.395-2.8281-2.2249-3.4721-3.3042-6.3071-7.2246-9.4352-10.839-1.5585-1.8007-3.2162-3.5239-5.0813-5.0109-1.9204-1.5312-4.0159-2.8389-6.0047-4.2791-4.2471-3.0755-8.3201-6.3827-12.2546-9.8479-7.7818-6.8539-14.1178-14.9843-20.6167-23.0162-6.2151-7.6813-11.1104-16.3602-15.0863-25.3846-1.03-2.3379-1.993-4.7027-2.9114-7.0849,4.4573,9.0128,10.73,17.404,17.9914,24.3207ZM4.7856,219.7637c5.3438,18.4233,11.692,36.9572,23.2093,52.5233,3.042,4.1113,6.3445,8.0558,9.589,12.0085,3.2983,4.0184,6.7115,7.9558,10.4784,11.5452,3.782,3.6037,7.8279,6.9628,11.9601,10.1559,2.0511,1.5849,4.1387,3.1221,6.2668,4.6022,2.0758,1.4437,4.0696,2.8686,5.8644,4.6646,3.7955,3.7979,6.8789,8.2492,10.5614,12.1573,.8937,.9485,1.8309,1.8553,2.8553,2.6627,1.0182,.8026,2.331,1.335,3.2207,2.2714,.3307,.3482,.6224,.7247,.9148,1.1-.1928-.1372-.3856-.2764-.5763-.3987-1.2112-.7772-2.5898-1.2217-3.9147-1.7671-1.2833-.5284-2.5401-1.0629-3.7487-1.7472-2.4793-1.4038-4.8419-2.9793-7.2712-4.4624-2.4748-1.5108-4.9538-3.0149-7.409-4.5573-8.871-5.5729-17.1159-11.8974-24.4746-19.3717-6.921-7.0295-12.9991-14.8526-18.0939-23.3002-5.4687-9.0676-9.694-18.819-13.0059-28.8666-1.8014-5.4653-3.313-11.0275-4.4896-16.661-.5908-2.829-1.0949-5.6755-1.4897-8.5387-.1846-1.3383-.3214-2.6787-.4466-4.0201Z"/>
  </g>
</svg>