<svg xmlns="http://www.w3.org/2000/svg" xmlns:xlink="http://www.w3.org/1999/xlink" width="500" zoomAndPan="magnify" viewBox="0 0 375 374.999991" height="500" preserveAspectRatio="xMidYMid meet" version="1.0"><defs><clipPath id="f971dbc9ec"><path d="M 25.746094 52.277344 L 337.746094 52.277344 L 337.746094 323 L 25.746094 323 Z M 25.746094 52.277344 " clip-rule="nonzero"/></clipPath></defs><g clip-path="url(#f971dbc9ec)"><path fill="#EAD7BB" d="M 117.082031 321.484375 C 116.402344 321.09375 113.601562 320.71875 110.855469 320.65625 C 106.632812 320.554688 105.550781 320.292969 103.890625 318.960938 C 100.722656 316.421875 100.722656 314.949219 103.882812 311.222656 C 104.339844 310.683594 105.515625 309.730469 106.492188 309.105469 C 107.707031 308.328125 108.28125 307.40625 108.296875 306.199219 C 108.328125 303.246094 109.714844 302.140625 114.203125 301.492188 C 120.675781 300.558594 125.753906 300.695312 125.753906 301.804688 C 125.753906 303.601562 127.066406 303.515625 129.957031 301.523438 C 133.671875 298.96875 134.820312 296.714844 134.820312 291.976562 C 134.820312 288.34375 133.121094 282.082031 131.769531 280.730469 C 131.410156 280.371094 129.433594 279.640625 127.371094 279.101562 C 125.3125 278.5625 123.152344 277.539062 122.574219 276.824219 C 121.992188 276.109375 119.925781 274.984375 117.972656 274.324219 C 113.792969 272.90625 113.207031 271.375 116.886719 271.492188 C 118.492188 271.539062 120.296875 272.242188 122.066406 273.5 C 123.5625 274.566406 125.871094 275.945312 127.195312 276.566406 C 130.871094 278.289062 135.308594 282.496094 135.796875 284.714844 C 136.03125 285.785156 136.441406 288.621094 136.707031 291.015625 C 137.175781 295.269531 137.203125 295.324219 138.003906 293.425781 C 138.785156 291.578125 138.640625 287.589844 137.675781 284.203125 C 137.425781 283.332031 137.542969 282.746094 137.957031 282.746094 C 138.828125 282.746094 140.097656 285.042969 140.613281 287.550781 C 140.828125 288.59375 141.402344 289.578125 141.894531 289.742188 C 142.597656 289.976562 142.691406 289.464844 142.339844 287.257812 C 141.746094 283.546875 137.164062 277.042969 133.835938 275.179688 C 132.417969 274.386719 130.5625 273.214844 129.710938 272.574219 C 128.023438 271.3125 123.621094 269.820312 121.527344 269.804688 C 119.59375 269.792969 117.144531 267.902344 117.871094 266.984375 C 118.199219 266.574219 118.609375 264.328125 118.789062 261.996094 C 119.101562 257.902344 120.65625 253.609375 121.828125 253.609375 C 122.140625 253.609375 122.246094 254.191406 122.058594 254.90625 C 121.871094 255.617188 121.429688 256.199219 121.070312 256.199219 C 120.714844 256.199219 120.566406 256.933594 120.738281 257.832031 C 120.910156 258.730469 120.871094 259.578125 120.652344 259.714844 C 120.429688 259.847656 120.347656 261.535156 120.464844 263.460938 L 120.679688 266.960938 L 124.511719 267.8125 C 126.621094 268.28125 128.34375 268.917969 128.34375 269.230469 C 128.34375 269.539062 128.601562 269.796875 128.917969 269.796875 C 130.054688 269.796875 137.792969 275.34375 140.445312 278.058594 C 143.578125 281.269531 145.179688 285.789062 145.179688 291.421875 C 145.179688 294.242188 144.875 295.347656 143.820312 296.40625 C 142.148438 298.078125 140.789062 297.199219 141.882812 295.15625 C 143.058594 292.957031 142.765625 291.695312 141.132812 291.925781 C 140.140625 292.066406 139.605469 292.652344 139.453125 293.75 C 139.132812 296.132812 134.300781 302.113281 132.304688 302.605469 C 131.375 302.835938 129.535156 303.578125 128.222656 304.257812 C 126.226562 305.292969 125.589844 305.363281 124.339844 304.695312 C 123.515625 304.257812 122.539062 303.488281 122.167969 302.988281 C 121.460938 302.027344 119.140625 302.140625 113.453125 303.40625 C 111.851562 303.761719 110.296875 304.066406 110.003906 304.082031 C 109.707031 304.097656 109.664062 305.003906 109.902344 306.097656 C 110.417969 308.449219 109.113281 310.214844 105.859375 311.574219 C 104.695312 312.0625 103.742188 312.890625 103.742188 313.410156 C 103.742188 315.007812 104.484375 316.410156 105.328125 316.410156 C 105.769531 316.410156 106.65625 316.992188 107.296875 317.699219 C 108.21875 318.71875 108.964844 318.90625 110.902344 318.597656 C 113.742188 318.140625 119.28125 319.964844 119.28125 321.355469 C 119.28125 322.410156 118.730469 322.445312 117.078125 321.484375 Z M 222.175781 318.398438 C 217.433594 316.589844 215.207031 314.605469 214.625 311.675781 C 214.324219 310.152344 213.589844 308.804688 212.828125 308.386719 C 212.121094 307.996094 210.667969 307.0625 209.597656 306.316406 C 207.761719 305.039062 206.941406 304.972656 194.78125 305.125 C 180.820312 305.304688 180.476562 305.246094 171.371094 301.371094 C 166.125 299.140625 159.421875 295.152344 159.421875 294.265625 C 159.421875 294 158.734375 292.25 157.894531 290.371094 C 154.183594 282.082031 154.195312 282.253906 156.886719 275.296875 C 160.550781 265.824219 160.949219 264.949219 162.242188 263.484375 C 162.949219 262.683594 163.371094 261.875 163.183594 261.683594 C 162.992188 261.496094 159.433594 261.15625 155.277344 260.933594 C 151.121094 260.710938 147.566406 260.285156 147.382812 259.984375 C 146.941406 259.265625 145.824219 259.277344 145.824219 259.996094 C 145.824219 260.90625 151.59375 262.835938 153.324219 262.503906 C 155.148438 262.15625 156.148438 263.183594 154.8125 264.03125 C 152.695312 265.371094 146.160156 264.265625 143.722656 262.15625 C 143.097656 261.617188 142.582031 260.421875 142.574219 259.496094 C 142.546875 256.371094 140.238281 252.578125 136.503906 249.539062 C 132.320312 246.128906 130.609375 245.410156 129.292969 246.503906 C 128.550781 247.121094 128.273438 247.058594 127.941406 246.191406 C 127.644531 245.421875 126.847656 245.136719 125.183594 245.210938 C 121.859375 245.363281 121.417969 245.253906 122.511719 244.5625 C 124.050781 243.585938 129.808594 243.089844 131.601562 243.777344 C 132.503906 244.121094 135.335938 245.953125 137.898438 247.84375 C 141.226562 250.304688 142.832031 251.984375 143.535156 253.742188 C 144.609375 256.417969 145.824219 257 145.824219 254.839844 C 145.824219 251.390625 141.714844 246.136719 138.703125 245.730469 C 137.792969 245.609375 137.085938 245.089844 137.085938 244.542969 C 137.085938 243.824219 137.667969 243.628906 139.351562 243.796875 C 143.863281 244.242188 147.15625 247.671875 148.398438 253.214844 C 149.691406 258.984375 151.140625 260.640625 152.964844 258.441406 C 153.632812 257.636719 153.632812 257.152344 152.953125 255.882812 C 151.953125 254.019531 152.453125 248.332031 153.867188 245.46875 C 155.855469 241.4375 155.824219 240.195312 153.71875 239.105469 C 151.296875 237.851562 145.824219 231.671875 145.824219 230.1875 C 145.824219 228.402344 147.046875 228.164062 147.472656 229.863281 C 147.6875 230.722656 148.703125 232.042969 149.726562 232.800781 L 151.589844 234.175781 L 151.78125 230.464844 C 151.933594 227.535156 152.214844 226.707031 153.109375 226.535156 C 153.789062 226.40625 154.242188 226.71875 154.242188 227.316406 C 154.242188 227.863281 154.824219 228.625 155.535156 229.003906 C 156.292969 229.410156 156.832031 230.359375 156.832031 231.292969 C 156.832031 232.171875 157.125 232.890625 157.480469 232.890625 C 157.835938 232.890625 158.125 232.050781 158.125 231.027344 C 158.125 230.003906 158.296875 228.308594 158.507812 227.261719 C 158.859375 225.507812 158.457031 224.992188 153.453125 220.742188 C 148.816406 216.808594 147.550781 215.265625 144.863281 210.308594 C 143.128906 207.109375 139.890625 202.332031 137.671875 199.695312 C 133.039062 194.1875 130.195312 192.648438 121.238281 190.800781 C 112.382812 188.976562 110.65625 188.371094 106.375 185.605469 C 104.148438 184.164062 100.828125 182.640625 99.003906 182.21875 C 96.648438 181.675781 94.980469 180.75 93.265625 179.035156 C 91.933594 177.703125 89.617188 175.988281 88.117188 175.222656 C 85.117188 173.691406 77.960938 168.066406 73.554688 163.773438 C 72 162.261719 70.601562 161.023438 70.449219 161.023438 C 69.898438 161.023438 66.1875 168 66.1875 169.03125 C 66.1875 169.613281 65.898438 170.085938 65.542969 170.085938 C 65.1875 170.085938 64.894531 170.523438 64.894531 171.058594 C 64.894531 171.589844 64.625 172.027344 64.296875 172.027344 C 63.96875 172.027344 63.507812 172.914062 63.269531 174 C 63.03125 175.082031 62.289062 176.480469 61.617188 177.105469 C 60.054688 178.5625 48.871094 198.785156 45.929688 205.480469 C 44.691406 208.292969 42.917969 211.71875 41.984375 213.09375 C 41.054688 214.464844 40.292969 215.984375 40.292969 216.46875 C 40.292969 216.953125 40.058594 217.351562 39.773438 217.351562 C 39.488281 217.351562 38.890625 218.359375 38.445312 219.597656 C 37.621094 221.867188 36.609375 223.695312 31.613281 231.917969 C 29.421875 235.523438 28.539062 236.449219 27.292969 236.449219 C 26.027344 236.449219 25.742188 236.136719 25.816406 234.832031 C 25.957031 232.425781 27.46875 228.910156 29.226562 226.917969 C 30.960938 224.953125 34.714844 215.515625 35.738281 210.550781 C 36.105469 208.769531 36.511719 200.757812 36.636719 192.746094 C 36.792969 182.925781 37.140625 177.441406 37.707031 175.914062 C 38.171875 174.667969 39.183594 171.945312 39.957031 169.867188 C 42.488281 163.070312 47.324219 158.164062 55.507812 154.097656 C 57.949219 152.882812 58.105469 152.628906 58.289062 149.597656 C 58.527344 145.542969 60.523438 141.382812 64.605469 136.429688 C 67.226562 133.25 68.164062 132.542969 69.761719 132.539062 C 71.433594 132.535156 72.015625 132.027344 73.8125 129.023438 L 75.914062 125.511719 L 73.964844 121.757812 C 71.460938 116.933594 71.410156 113.339844 73.765625 107.453125 C 76.757812 99.972656 82.269531 93.816406 90.933594 88.273438 C 92.957031 86.976562 94.820312 85.917969 95.070312 85.917969 C 95.320312 85.917969 96.480469 85.191406 97.648438 84.300781 C 98.816406 83.410156 100.097656 82.679688 100.496094 82.679688 C 100.894531 82.679688 103.234375 81.367188 105.695312 79.761719 C 108.15625 78.152344 110.90625 76.558594 111.8125 76.214844 C 112.714844 75.871094 113.453125 75.160156 113.453125 74.636719 C 113.453125 74.113281 114.175781 72.902344 115.058594 71.949219 C 115.941406 70.996094 116.523438 69.984375 116.347656 69.699219 C 116.171875 69.414062 116.878906 68.578125 117.921875 67.835938 C 120.441406 66.039062 122.746094 61.171875 123.15625 56.78125 C 123.445312 53.703125 123.6875 53.195312 124.945312 53.015625 C 127.976562 52.585938 128.042969 58.996094 125.0625 64.308594 C 119.988281 73.359375 117.652344 77.320312 116.804688 78.316406 C 116.269531 78.941406 115.515625 79.992188 115.128906 80.648438 C 114.742188 81.308594 113.667969 82.980469 112.746094 84.367188 C 111.824219 85.753906 109.527344 89.800781 107.644531 93.363281 C 102.636719 102.824219 102.160156 103.691406 101.753906 104.046875 C 101.546875 104.226562 96.796875 112.605469 91.191406 122.671875 C 82.449219 138.378906 81.03125 141.308594 81.203125 143.347656 C 81.363281 145.246094 81.726562 145.808594 83.023438 146.167969 C 83.914062 146.410156 86.296875 147.378906 88.324219 148.3125 C 90.347656 149.25 92.589844 150.015625 93.304688 150.015625 C 94.015625 150.015625 94.757812 150.269531 94.949219 150.578125 C 95.140625 150.890625 96.183594 151.320312 97.261719 151.535156 C 99.957031 152.074219 105.757812 155.882812 107.667969 158.371094 C 112.050781 164.070312 112.957031 164.90625 114.757812 164.90625 C 115.757812 164.90625 118.191406 165.523438 120.164062 166.28125 C 122.925781 167.335938 124.445312 167.546875 126.773438 167.199219 L 129.792969 166.746094 L 127.800781 165.015625 C 126.566406 163.945312 125.734375 162.550781 125.621094 161.351562 C 125.386719 158.941406 123.742188 158.503906 121.886719 160.359375 C 120.472656 161.773438 119.28125 161.617188 119.28125 160.011719 C 119.28125 159.5 119.71875 159.078125 120.253906 159.078125 C 120.785156 159.078125 121.222656 158.640625 121.222656 158.109375 C 121.222656 157.574219 120.796875 157.136719 120.277344 157.136719 C 119.101562 157.136719 116.613281 154.546875 117.074219 153.800781 C 117.261719 153.5 117.195312 152.894531 116.921875 152.457031 C 116.296875 151.445312 116.289062 149.246094 116.910156 148.246094 C 117.371094 147.496094 115.050781 145.765625 110.585938 143.523438 C 107.757812 142.101562 108.707031 140.703125 111.671875 141.917969 C 112.636719 142.316406 112.804688 142.007812 112.804688 139.855469 C 112.804688 137.109375 113.699219 135.769531 115.527344 135.769531 C 116.9375 135.769531 117.070312 134.582031 115.71875 134.0625 C 114.261719 133.503906 114.546875 131.652344 116.355469 129.957031 C 117.703125 128.6875 117.8125 128.335938 117.03125 127.738281 C 115.78125 126.785156 114.554688 123.46875 115.449219 123.46875 C 115.820312 123.46875 115.9375 123.175781 115.71875 122.816406 C 115.496094 122.460938 115.914062 121.320312 116.648438 120.289062 C 117.382812 119.257812 117.984375 117.777344 117.984375 117 C 117.984375 116.183594 119.171875 114.433594 120.792969 112.855469 C 122.539062 111.160156 123.765625 109.300781 124.039062 107.9375 C 124.59375 105.15625 126.179688 103.398438 128.132812 103.398438 C 130.875 103.398438 134.609375 101.878906 135.207031 100.519531 C 136.054688 98.597656 141.152344 98.726562 142.464844 100.703125 C 143.367188 102.0625 143.414062 102.066406 145.089844 100.894531 C 147.621094 99.121094 150.121094 98.882812 155.472656 99.90625 C 158.117188 100.414062 161.253906 100.644531 162.4375 100.421875 C 163.625 100.199219 165.3125 100.199219 166.1875 100.417969 C 167.90625 100.851562 171.074219 104.546875 171.351562 106.441406 C 171.449219 107.082031 172.417969 108.128906 173.511719 108.765625 L 175.496094 109.925781 L 177.722656 107.632812 C 180.296875 104.980469 180.789062 104.832031 180.789062 106.695312 C 180.789062 107.507812 180.269531 108.1875 179.492188 108.390625 C 177.800781 108.832031 177.816406 110.519531 179.515625 110.519531 C 181.304688 110.519531 181.578125 111.582031 180.765625 115.382812 C 179.773438 120.046875 179.683594 123.46875 180.558594 123.46875 C 180.964844 123.46875 181.464844 123.90625 181.671875 124.441406 C 182.21875 125.871094 183.257812 125.621094 183.496094 124.007812 C 183.609375 123.234375 184.066406 122.480469 184.511719 122.332031 C 185.769531 121.917969 185.496094 125.054688 183.996094 128.242188 C 183.269531 129.792969 182.730469 131.320312 182.804688 131.636719 C 182.878906 131.953125 182.707031 132.734375 182.429688 133.371094 C 182.152344 134.011719 182.085938 134.691406 182.28125 134.890625 C 182.476562 135.085938 182.101562 136.125 181.449219 137.203125 C 180.003906 139.578125 180.746094 142.59375 182.945312 143.277344 C 183.71875 143.515625 185.078125 144.210938 185.96875 144.824219 C 186.859375 145.4375 189.042969 146.46875 190.824219 147.117188 C 194.351562 148.402344 195.679688 149.214844 195.679688 150.09375 C 195.679688 150.40625 195.097656 150.664062 194.386719 150.664062 C 193.625 150.664062 193.089844 151.09375 193.089844 151.710938 C 193.089844 152.519531 193.488281 152.660156 194.871094 152.335938 C 195.851562 152.105469 197.894531 151.742188 199.417969 151.527344 C 200.9375 151.3125 202.339844 150.886719 202.53125 150.578125 C 202.722656 150.269531 203.628906 150.015625 204.546875 150.015625 C 206.773438 150.015625 211.304688 148.691406 212.515625 147.691406 C 213.046875 147.25 214.722656 146.394531 216.238281 145.789062 C 217.75 145.1875 218.988281 144.472656 218.988281 144.199219 C 218.988281 143.527344 222.878906 139.585938 228.582031 134.476562 C 231.425781 131.929688 233.9375 128.988281 234.949219 127.03125 C 235.867188 125.25 237.074219 123.273438 237.636719 122.636719 C 238.511719 121.644531 238.535156 121.152344 237.820312 119.171875 C 237.246094 117.585938 237.140625 115.710938 237.480469 113.207031 C 238.132812 108.421875 238.296875 106.75 238.359375 104.207031 C 238.402344 102.40625 238.644531 102.105469 240.035156 102.105469 C 241.628906 102.105469 244.5625 104.722656 244.5625 106.148438 C 244.5625 106.535156 244.925781 106.972656 245.371094 107.121094 C 245.816406 107.269531 246.179688 106.890625 246.179688 106.277344 C 246.179688 105.667969 246.867188 104.53125 247.707031 103.75 C 248.546875 102.972656 249.378906 101.921875 249.558594 101.410156 C 249.742188 100.902344 250.085938 100.667969 250.332031 100.894531 C 251.117188 101.621094 247.847656 107.546875 246.207031 108.363281 L 244.617188 109.15625 L 246.308594 109.796875 C 248.886719 110.777344 249.121094 111.777344 246.871094 112.226562 C 245.714844 112.457031 244.886719 113.03125 244.886719 113.59375 C 244.886719 114.410156 244.722656 114.425781 243.84375 113.699219 C 243.0625 113.050781 242.878906 112.0625 243.109375 109.691406 C 243.414062 106.515625 242.378906 104.34375 240.808594 104.867188 C 239.882812 105.175781 239.441406 117.402344 240.335938 117.953125 C 241.441406 118.640625 241.089844 120.769531 239.449219 123.320312 C 238.59375 124.648438 237.515625 126.828125 237.050781 128.160156 C 236.046875 131.0625 233.414062 133.734375 228.757812 136.585938 C 225.734375 138.433594 225.09375 139.222656 223.378906 143.21875 C 221.023438 148.703125 220.636719 149.171875 219.339844 148.097656 C 218.527344 147.421875 217.949219 147.425781 216.238281 148.121094 C 213.476562 149.242188 210.007812 151.988281 209.550781 153.414062 C 209.09375 154.847656 206.039062 154.972656 206.039062 153.554688 C 206.039062 153.011719 205.621094 152.402344 205.113281 152.207031 C 203.832031 151.71875 193.445312 154.960938 192.445312 156.160156 C 192 156.699219 191.28125 157.136719 190.84375 157.136719 C 189.789062 157.136719 188.175781 159.03125 187.585938 160.964844 C 187.324219 161.824219 186.652344 163.574219 186.09375 164.851562 C 185.535156 166.128906 185.023438 167.390625 184.957031 167.65625 C 184.890625 167.925781 184.765625 168.363281 184.683594 168.628906 C 184.597656 168.894531 184.585938 169.785156 184.652344 170.605469 C 184.71875 171.425781 184.484375 172.445312 184.132812 172.871094 C 183.777344 173.296875 183.5 173.792969 183.511719 173.96875 C 183.523438 174.148438 183.09375 175.339844 182.5625 176.617188 C 182.027344 177.894531 181.390625 179.570312 181.144531 180.339844 C 180.902344 181.109375 180.453125 181.738281 180.144531 181.738281 C 179.214844 181.738281 179.023438 179.539062 179.863281 178.503906 C 180.835938 177.304688 183.226562 168.660156 182.878906 167.613281 C 182.417969 166.230469 181.710938 166.808594 180.839844 169.277344 C 180.371094 170.613281 179.488281 172.289062 178.878906 173 C 178.273438 173.710938 177.734375 174.878906 177.6875 175.589844 C 177.609375 176.789062 175.007812 187.324219 173.972656 190.640625 C 173.695312 191.527344 173.789062 192.097656 174.207031 192.097656 C 174.585938 192.097656 175.402344 190.425781 176.023438 188.375 C 177.378906 183.902344 178.1875 182.613281 178.902344 183.769531 C 179.171875 184.207031 178.65625 186.480469 177.757812 188.820312 C 176.859375 191.15625 175.273438 195.984375 174.238281 199.542969 C 173.203125 203.105469 171.9375 207.078125 171.425781 208.375 C 169.800781 212.503906 167.789062 221.417969 167.507812 225.765625 C 167.355469 228.082031 167.386719 229.390625 167.578125 228.679688 C 168.828125 223.976562 170.746094 218.796875 171.597656 217.820312 C 173.484375 215.660156 173.761719 217.742188 172.097656 221.511719 C 171.195312 223.550781 170.160156 227.59375 169.796875 230.5 C 168.871094 237.882812 169.910156 242.761719 171.617188 239.019531 C 172.441406 237.207031 174.050781 236.777344 173.371094 238.550781 C 172.578125 240.613281 171.59375 245.921875 171.9375 246.265625 C 172.585938 246.914062 174.898438 245.761719 175.265625 244.613281 C 175.789062 242.960938 178.847656 240.167969 178.835938 241.355469 C 178.832031 241.863281 178.558594 242.699219 178.230469 243.214844 C 177.292969 244.699219 178.039062 245.136719 180.144531 244.34375 C 181.335938 243.894531 182.082031 243.148438 182.082031 242.414062 C 182.082031 241.542969 182.480469 241.269531 183.539062 241.421875 C 184.65625 241.582031 185.042969 242.121094 185.199219 243.734375 C 185.3125 244.890625 185.75 245.839844 186.171875 245.839844 C 188.015625 245.84375 198.699219 243.773438 199.71875 243.214844 C 201.160156 242.425781 203.640625 242.414062 203.15625 243.199219 C 202.953125 243.527344 201.84375 243.992188 200.691406 244.234375 C 199.535156 244.476562 196.84375 245.207031 194.707031 245.855469 C 192.570312 246.503906 189.367188 247.214844 187.585938 247.429688 C 182.371094 248.070312 180.789062 248.488281 180.789062 249.214844 C 180.789062 249.996094 188.53125 249.566406 189.921875 248.707031 C 190.390625 248.417969 192.097656 248.125 193.714844 248.054688 C 197.023438 247.914062 202.160156 246.507812 205.070312 244.945312 C 207.4375 243.675781 208.042969 243.628906 207.609375 244.757812 C 207.425781 245.234375 205.617188 246.292969 203.582031 247.113281 C 201.550781 247.933594 199.59375 248.960938 199.234375 249.398438 C 198.480469 250.316406 196.097656 250.734375 186.40625 251.644531 C 176.699219 252.554688 175.367188 253.5625 183.835938 253.585938 C 187.46875 253.597656 191.109375 253.871094 191.925781 254.195312 C 192.746094 254.519531 195.164062 255.296875 197.300781 255.921875 C 201.347656 257.105469 203.929688 258.378906 208.304688 261.351562 C 213.546875 264.914062 218.390625 266.699219 223.75 267.046875 C 229.984375 267.453125 235.824219 266.261719 235.824219 264.582031 C 235.824219 263.75 236.585938 263.351562 238.800781 263.019531 C 241.394531 262.628906 242.421875 261.9375 246.804688 257.605469 C 249.566406 254.871094 252.566406 251.46875 253.464844 250.046875 C 255.390625 246.992188 258.945312 243.492188 259.527344 244.074219 C 259.75 244.296875 258.808594 246.023438 257.429688 247.910156 C 253.160156 253.761719 251.640625 255.464844 247.445312 259.109375 C 245.316406 260.960938 245.28125 261.0625 246.679688 261.261719 C 247.484375 261.375 249.121094 260.867188 250.316406 260.128906 C 252.964844 258.492188 254.515625 258.300781 253.304688 259.757812 C 252.859375 260.292969 252.230469 260.730469 251.902344 260.730469 C 251.578125 260.730469 250.476562 261.34375 249.460938 262.097656 C 248.441406 262.847656 246.714844 263.507812 245.625 263.5625 C 244.53125 263.617188 243.277344 264.023438 242.835938 264.460938 C 242.398438 264.902344 241.800781 265.261719 241.511719 265.261719 C 241.222656 265.261719 239.753906 265.800781 238.242188 266.464844 C 236.734375 267.125 234.625 268.027344 233.554688 268.472656 L 231.613281 269.277344 L 234.601562 271.988281 C 236.242188 273.480469 238.9375 275.414062 240.585938 276.289062 C 243.101562 277.625 243.789062 277.75 244.859375 277.082031 C 245.769531 276.515625 246.625 276.46875 247.820312 276.921875 C 248.746094 277.273438 250.738281 277.5625 252.25 277.5625 C 254.160156 277.5625 255.660156 278.054688 257.1875 279.179688 C 260.105469 281.335938 261.425781 281.226562 265.460938 278.511719 C 268.289062 276.605469 268.988281 275.738281 269.632812 273.332031 C 270.058594 271.742188 270.636719 270.441406 270.917969 270.441406 C 271.984375 270.441406 271.371094 273.628906 269.738281 276.542969 C 268.808594 278.210938 268.152344 279.679688 268.285156 279.808594 C 269.015625 280.539062 271.09375 277.816406 272.054688 274.878906 C 273.3125 271.011719 275.023438 269.667969 274.546875 272.921875 C 274.359375 274.199219 274.558594 275.039062 275.097656 275.246094 C 276.316406 275.714844 275.402344 277.5625 273.953125 277.5625 C 273.277344 277.5625 272.726562 277.855469 272.726562 278.210938 C 272.726562 278.566406 273.476562 278.859375 274.390625 278.859375 C 275.734375 278.859375 275.976562 279.09375 275.65625 280.097656 C 275.136719 281.738281 276.410156 282.460938 277.785156 281.300781 C 279.121094 280.175781 281.144531 280.53125 281.144531 281.886719 C 281.144531 282.464844 280.769531 282.738281 280.25 282.539062 C 279.355469 282.195312 277.90625 283.199219 277.90625 284.167969 C 277.90625 284.453125 278.78125 284.683594 279.847656 284.683594 C 281.160156 284.683594 281.792969 285.007812 281.792969 285.675781 C 281.792969 286.222656 282.230469 286.835938 282.761719 287.039062 C 284.171875 287.582031 283.957031 289.21875 282.476562 289.21875 C 280.4375 289.21875 280.238281 290.496094 281.996094 292.34375 C 282.902344 293.296875 284.402344 295.59375 285.332031 297.453125 C 287.191406 301.175781 289.042969 302.8125 291.394531 302.8125 C 292.609375 302.8125 292.835938 302.574219 292.46875 301.679688 C 292.214844 301.058594 291.855469 300.039062 291.679688 299.414062 C 291.5 298.792969 291.09375 298.28125 290.78125 298.28125 C 289.855469 298.28125 290.125 295.683594 291.089844 295.3125 C 291.578125 295.125 293.167969 295.59375 294.628906 296.355469 C 298.371094 298.308594 300.226562 296.875 297.167969 294.394531 C 296.367188 293.746094 295.929688 292.996094 296.191406 292.730469 C 296.457031 292.464844 297.257812 292.773438 297.972656 293.421875 C 299.242188 294.570312 299.273438 294.558594 299.273438 292.957031 C 299.273438 292.054688 298.832031 290.953125 298.292969 290.503906 C 297.421875 289.78125 297.425781 289.613281 298.332031 288.949219 C 299.089844 288.394531 299.300781 287.308594 299.148438 284.6875 C 298.96875 281.484375 298.746094 281.03125 296.691406 279.648438 C 295.449219 278.816406 293.878906 277.253906 293.195312 276.179688 C 292.445312 274.988281 290.601562 273.625 288.484375 272.6875 C 284.953125 271.125 283.671875 269.597656 284.882812 268.386719 C 285.347656 267.917969 285.894531 268.230469 286.660156 269.402344 C 287.277344 270.339844 288.378906 271.089844 289.148438 271.09375 C 289.910156 271.097656 292.230469 272.554688 294.308594 274.332031 C 296.382812 276.109375 298.296875 277.5625 298.558594 277.5625 C 298.820312 277.5625 299.671875 278.695312 300.449219 280.078125 C 302.011719 282.863281 302.300781 286.570312 301.054688 287.835938 C 300.40625 288.492188 300.480469 288.832031 301.441406 289.539062 C 302.835938 290.570312 302.523438 293.8125 300.664062 297.632812 C 299.648438 299.714844 299.332031 299.894531 296.796875 299.839844 C 294.699219 299.796875 294.117188 300 294.375 300.675781 C 294.566406 301.167969 294.453125 302.066406 294.128906 302.675781 C 293.804688 303.285156 293.382812 304.292969 293.191406 304.917969 C 292.664062 306.613281 290.714844 306.292969 287.238281 303.945312 C 284.921875 302.386719 283.972656 301.257812 283.554688 299.578125 C 283.242188 298.328125 281.96875 296.253906 280.722656 294.964844 C 279.472656 293.675781 277.761719 291.125 276.914062 289.300781 L 275.375 285.980469 L 270.828125 285.980469 C 268.324219 285.980469 265.179688 285.550781 263.839844 285.027344 C 261.027344 283.933594 252.453125 282.101562 250.066406 282.085938 C 247.953125 282.074219 242.011719 280.144531 238.738281 278.40625 C 237.3125 277.648438 234.3125 275.433594 232.070312 273.484375 L 227.992188 269.9375 L 223.015625 269.9375 C 218.21875 269.9375 217.960938 270.015625 215.765625 272.167969 C 214.511719 273.390625 211.933594 275.289062 210.039062 276.378906 C 206.414062 278.460938 205.410156 279.78125 206.558594 280.933594 C 207.050781 281.421875 207.933594 281.222656 209.597656 280.242188 C 212.75 278.378906 216.808594 278.414062 219.175781 280.316406 C 220.960938 281.753906 224.167969 289.148438 224.167969 291.824219 C 224.167969 292.511719 226.027344 295.050781 228.296875 297.460938 C 232.441406 301.859375 232.625 302.253906 233.632812 308.964844 C 233.738281 309.675781 234.082031 311.816406 234.390625 313.714844 C 234.921875 316.953125 234.867188 317.207031 233.511719 317.722656 C 232.714844 318.023438 231.871094 318.582031 231.640625 318.960938 C 230.996094 319.996094 225.523438 319.671875 222.179688 318.394531 Z M 232.917969 316.394531 C 233.140625 316.03125 232.828125 314.433594 232.222656 312.839844 C 231.515625 310.992188 231.253906 309.097656 231.5 307.585938 C 231.933594 304.910156 231.070312 303.476562 226.035156 298.527344 C 224.160156 296.683594 222.75 294.582031 222.257812 292.890625 C 221.824219 291.40625 221.132812 289.027344 220.722656 287.609375 C 220.308594 286.191406 219.140625 284.078125 218.117188 282.914062 C 216.621094 281.207031 215.777344 280.800781 213.742188 280.800781 C 211.023438 280.800781 210.710938 281.339844 212.121094 283.578125 C 212.617188 284.367188 213.222656 285.667969 213.460938 286.46875 C 214.050781 288.453125 212.339844 288.421875 211.03125 286.425781 C 210.375 285.421875 208.886719 284.644531 206.550781 284.085938 C 203.191406 283.28125 202.921875 283.316406 199.644531 285.03125 C 197.769531 286.011719 195.785156 287.5 195.234375 288.339844 C 193.996094 290.230469 192.707031 290.304688 192.238281 288.507812 C 192.027344 287.710938 191.578125 287.332031 191.152344 287.597656 C 190.304688 288.121094 187.261719 287.476562 187.261719 286.773438 C 187.261719 286.109375 190.34375 284.894531 193.339844 284.378906 C 196.863281 283.773438 202.035156 280.84375 203.660156 278.535156 C 204.410156 277.46875 205.398438 276.210938 205.855469 275.738281 C 206.3125 275.269531 206.683594 274.539062 206.679688 274.121094 C 206.667969 272.738281 203.523438 266.558594 202.832031 266.558594 C 202.457031 266.558594 202.152344 266.121094 202.152344 265.585938 C 202.152344 265.054688 202.589844 264.617188 203.125 264.617188 C 204.695312 264.617188 206.519531 266.890625 207.769531 270.402344 C 208.40625 272.203125 209.167969 273.679688 209.460938 273.679688 C 210.429688 273.679688 213.476562 271.882812 214.585938 270.65625 C 215.867188 269.242188 215.507812 268.53125 212.835938 267.222656 C 211.769531 266.695312 209.945312 265.46875 208.789062 264.488281 C 206.21875 262.320312 201.273438 260.011719 194.933594 258.019531 C 190.953125 256.765625 188.875 256.535156 182.207031 256.601562 L 174.238281 256.683594 L 170.554688 259.191406 C 164.757812 263.148438 163.53125 264.792969 160.734375 272.386719 C 160.277344 273.632812 159.355469 275.835938 158.691406 277.285156 C 157.164062 280.605469 157.175781 281.550781 158.773438 284.6875 C 159.488281 286.082031 160.070312 287.6875 160.070312 288.253906 C 160.070312 290.253906 161.960938 292.898438 164.671875 294.691406 C 166.902344 296.167969 167.640625 296.371094 168.589844 295.777344 C 169.257812 295.363281 172.527344 295.046875 176.171875 295.046875 C 182.308594 295.046875 182.628906 295.117188 183.648438 296.675781 C 184.675781 298.242188 184.660156 298.335938 183.238281 298.957031 C 182.027344 299.484375 182.199219 299.535156 184.1875 299.238281 C 187.15625 298.792969 187.492188 299.988281 184.671875 300.96875 C 183.605469 301.34375 182.910156 301.933594 183.125 302.28125 C 183.535156 302.945312 187.460938 302.621094 193.671875 301.417969 C 196.671875 300.835938 197.253906 300.890625 197.753906 301.777344 C 198.980469 303.972656 205.070312 302.824219 208.289062 299.792969 C 210.21875 297.96875 210.835938 297.699219 211.601562 298.335938 C 212.425781 299.019531 212.421875 299.253906 211.558594 300.207031 C 209.664062 302.300781 210.332031 303.902344 213.78125 305.519531 C 216.585938 306.835938 216.996094 307.273438 217.019531 309.003906 C 217.050781 311.34375 218.542969 313.765625 219.25 312.625 C 219.503906 312.214844 220.554688 311.878906 221.585938 311.878906 C 223.089844 311.878906 223.671875 312.324219 224.535156 314.144531 C 225.125 315.390625 226.023438 316.410156 226.53125 316.410156 C 227.226562 316.410156 227.292969 316.121094 226.804688 315.207031 C 226.34375 314.34375 226.414062 313.652344 227.058594 312.777344 C 227.910156 311.617188 227.992188 311.652344 228.6875 313.476562 C 229.953125 316.792969 231.859375 318.109375 232.917969 316.398438 Z M 180.746094 298.011719 C 181.371094 297.253906 181.269531 297.152344 180.167969 297.441406 C 178.546875 297.863281 177.75 298.929688 179.050781 298.929688 C 179.5625 298.929688 180.324219 298.515625 180.746094 298.011719 Z M 168.769531 255.933594 C 170.886719 254.65625 173 253.609375 173.464844 253.609375 C 174.8125 253.609375 174.449219 251.835938 172.875 250.730469 C 170.851562 249.316406 169.984375 249.472656 169.515625 251.34375 C 169.085938 253.050781 167.921875 253.433594 166.746094 252.257812 C 166.242188 251.753906 165.796875 251.910156 165.160156 252.804688 C 164.675781 253.488281 163.617188 254.402344 162.8125 254.828125 C 160.582031 256.011719 160.472656 254.691406 162.320312 248.753906 C 163.8125 243.953125 163.851562 243.515625 162.847656 242.765625 C 159.664062 240.386719 156.519531 242.675781 154.929688 248.527344 C 153.890625 252.34375 154.511719 255.195312 156.71875 256.761719 C 160.414062 259.382812 163.40625 259.179688 168.769531 255.933594 Z M 166.542969 248.730469 C 166.542969 248.261719 167.273438 247.304688 168.160156 246.601562 C 169.109375 245.859375 169.761719 244.695312 169.738281 243.804688 L 169.699219 242.277344 L 169.089844 243.796875 C 168.757812 244.632812 167.9375 245.457031 167.269531 245.632812 C 166.601562 245.808594 165.726562 246.667969 165.328125 247.542969 C 164.34375 249.703125 164.414062 250.402344 165.570312 249.957031 C 166.105469 249.753906 166.542969 249.203125 166.542969 248.730469 Z M 166.339844 236.007812 C 166.132812 235.488281 165.976562 235.644531 165.945312 236.398438 C 165.917969 237.082031 166.070312 237.460938 166.285156 237.246094 C 166.503906 237.03125 166.523438 236.472656 166.339844 236.007812 Z M 164.140625 229.1875 C 164.347656 226.417969 165.132812 221.964844 165.890625 219.292969 C 166.644531 216.625 167.371094 212.480469 167.503906 210.085938 C 167.632812 207.695312 168.039062 204.78125 168.40625 203.613281 C 168.773438 202.445312 170.121094 197.308594 171.402344 192.203125 C 172.683594 187.097656 174.300781 181.476562 174.992188 179.714844 C 176.332031 176.320312 176.617188 173.972656 175.695312 173.972656 C 174.40625 173.972656 171.691406 179.257812 169.875 185.300781 C 168.804688 188.863281 167.207031 193.816406 166.324219 196.308594 C 164.304688 202 161.347656 214.453125 161.402344 217.027344 C 161.4375 218.738281 161.566406 218.601562 162.476562 215.867188 C 164.023438 211.230469 164.835938 212.957031 164.070312 219.261719 C 163.699219 222.359375 163.011719 225.023438 162.417969 225.679688 C 161.441406 226.753906 161.4375 228.679688 162.394531 233.402344 C 162.960938 236.179688 163.765625 234.234375 164.140625 229.1875 Z M 158.628906 214.113281 C 159.207031 208.9375 162.953125 196.054688 165.28125 191.234375 C 166.53125 188.648438 166.53125 188.625 165.246094 187.425781 C 164.535156 186.765625 163.957031 186.015625 163.964844 185.761719 C 163.988281 184.558594 165.164062 183.675781 166.53125 183.832031 C 167.835938 183.984375 168.152344 183.589844 168.84375 180.933594 C 169.59375 178.0625 169.5625 177.855469 168.417969 177.855469 C 167.742188 177.855469 166.632812 177.300781 165.953125 176.617188 C 164.933594 175.597656 163.464844 175.320312 157.695312 175.054688 C 149.820312 174.6875 149.25 174.539062 145.191406 171.789062 C 142.8125 170.175781 141.535156 169.789062 138.070312 169.648438 C 130.964844 169.355469 128.046875 169.484375 127.40625 170.125 C 126.339844 171.183594 123.230469 170.789062 120.066406 169.195312 C 118.386719 168.347656 115.265625 167.277344 113.128906 166.824219 C 107.824219 165.6875 106.976562 165.175781 106.976562 163.085938 C 106.976562 162.109375 106.574219 160.734375 106.082031 160.03125 C 104.289062 157.46875 98.015625 153.796875 93.410156 152.613281 C 90.898438 151.96875 87.671875 150.828125 86.238281 150.082031 C 84.804688 149.332031 82.691406 148.71875 81.546875 148.710938 C 80.398438 148.707031 79.027344 148.429688 78.5 148.09375 C 77.742188 147.617188 77.082031 148.28125 75.433594 151.179688 C 72.796875 155.808594 72.730469 157.71875 75.148438 159.339844 C 76.160156 160.015625 77.296875 161.394531 77.675781 162.398438 C 78.054688 163.40625 79.195312 164.59375 80.210938 165.035156 C 83.730469 166.570312 86.90625 168.972656 86.90625 170.101562 C 86.90625 170.773438 87.890625 171.703125 89.335938 172.386719 C 90.671875 173.019531 92.988281 174.796875 94.480469 176.335938 C 96.761719 178.679688 97.492188 179.074219 99.019531 178.769531 C 100.449219 178.484375 102.152344 179.179688 106.921875 182 C 113.027344 185.605469 116.964844 187.074219 122.679688 187.867188 C 125.21875 188.222656 125.753906 188.117188 125.753906 187.285156 C 125.753906 186.679688 126.316406 186.273438 127.148438 186.273438 C 129.824219 186.273438 138.183594 193.5625 139.746094 197.257812 C 141.097656 200.453125 142.464844 201.785156 146.148438 203.511719 L 149.386719 205.027344 L 150.457031 203.613281 C 151.378906 202.398438 151.679688 202.324219 152.585938 203.074219 C 153.164062 203.554688 153.527344 204.269531 153.394531 204.660156 C 153.261719 205.054688 154.199219 205.675781 155.476562 206.042969 C 156.789062 206.417969 157.804688 207.125 157.804688 207.660156 C 157.804688 209.011719 155.097656 209.222656 153.257812 208.011719 C 151.601562 206.929688 146.472656 206.59375 146.472656 207.570312 C 146.472656 208.96875 150.296875 212.101562 152.511719 212.515625 C 153.894531 212.777344 154.890625 213.339844 154.890625 213.863281 C 154.890625 214.355469 154.582031 214.761719 154.203125 214.761719 C 153.828125 214.761719 153.660156 214.988281 153.832031 215.269531 C 154.003906 215.546875 155.113281 215.765625 156.296875 215.753906 C 158.109375 215.734375 158.480469 215.476562 158.632812 214.113281 Z M 41.585938 210.175781 C 41.585938 209.542969 42.023438 208.589844 42.558594 208.054688 C 43.089844 207.523438 43.527344 206.882812 43.527344 206.632812 C 43.527344 205.941406 52.0625 190.53125 52.660156 190.136719 C 53.496094 189.585938 62.816406 172.316406 64.648438 167.925781 C 65.5625 165.730469 66.574219 163.660156 66.894531 163.320312 C 67.21875 162.984375 67.484375 162.207031 67.484375 161.59375 C 67.484375 160.984375 67.847656 160.355469 68.292969 160.195312 C 69.609375 159.726562 68.417969 158.996094 65.753906 158.640625 C 63.78125 158.375 63.011719 158.585938 62.039062 159.664062 C 61.363281 160.410156 60.425781 161.023438 59.960938 161.023438 C 59.492188 161.023438 57.71875 161.488281 56.015625 162.054688 C 50.394531 163.925781 45.335938 170.253906 43.902344 177.210938 C 43.648438 178.457031 43.167969 182.828125 42.839844 186.921875 C 41.835938 199.464844 40.578125 209.1875 39.765625 210.671875 C 38.554688 212.898438 38.820312 213.824219 40.289062 212.496094 C 41.003906 211.851562 41.585938 210.804688 41.585938 210.175781 Z M 41.855469 177.15625 C 42.980469 171.214844 43.347656 170.316406 45.949219 167.15625 C 49.148438 163.269531 53.125 160.492188 58.417969 158.445312 C 60.378906 157.6875 62.273438 156.695312 62.628906 156.238281 C 62.984375 155.78125 63.929688 155.058594 64.730469 154.632812 C 66.421875 153.730469 66.820312 150.929688 65.164062 151.566406 C 64.601562 151.78125 63.707031 151.960938 63.179688 151.960938 C 62.527344 151.960938 62.34375 152.355469 62.609375 153.195312 C 62.921875 154.175781 62.605469 154.523438 61.109375 154.851562 C 57.820312 155.574219 50.984375 159.585938 47.582031 162.792969 C 44.214844 165.964844 40.816406 171.75 40.628906 174.621094 C 40.574219 175.507812 40.292969 177.914062 40.011719 179.960938 C 39.140625 186.230469 40.539062 184.105469 41.855469 177.15625 Z M 156.546875 171.464844 C 157.988281 171.183594 159.738281 171.160156 160.429688 171.414062 C 161.121094 171.667969 162.671875 171.472656 163.871094 170.980469 C 165.070312 170.488281 167.019531 170.085938 168.199219 170.085938 C 171.605469 170.085938 173.519531 169.027344 174.875 166.390625 C 175.570312 165.042969 177.066406 163.0625 178.199219 161.996094 C 180.753906 159.585938 183.378906 154.5625 183.378906 152.078125 C 183.378906 149.242188 182.140625 146.089844 179.914062 143.234375 C 178.808594 141.820312 177.863281 140.074219 177.808594 139.351562 C 177.757812 138.628906 177.488281 137.492188 177.207031 136.820312 C 176.925781 136.148438 176.964844 135.128906 177.285156 134.554688 C 177.609375 133.976562 177.785156 132.578125 177.675781 131.441406 C 177.523438 129.875 177.011719 129.167969 175.578125 128.535156 C 173.65625 127.683594 172.738281 126.390625 173.355469 125.394531 C 173.707031 124.820312 177.539062 126.566406 178.324219 127.660156 C 178.570312 128.007812 179.003906 128.058594 179.285156 127.777344 C 179.933594 127.132812 176.953125 124.800781 175.453125 124.78125 C 174.1875 124.765625 170.820312 119.878906 171.414062 118.917969 C 171.640625 118.546875 172.585938 118.707031 173.761719 119.3125 C 174.84375 119.871094 175.789062 120.234375 175.863281 120.121094 C 177.550781 117.515625 178.058594 116.425781 177.730469 116.101562 C 177 115.367188 176.34375 115.691406 175.929688 116.996094 C 175.378906 118.734375 173.859375 118.640625 173.308594 116.835938 C 172.820312 115.230469 169.921875 112.523438 168.648438 112.488281 C 168.203125 112.476562 167.839844 112.171875 167.839844 111.816406 C 167.839844 111.460938 167.222656 111.167969 166.472656 111.167969 C 165.53125 111.167969 165.222656 110.871094 165.480469 110.207031 C 165.886719 109.148438 165.140625 108.902344 159.582031 108.273438 C 156.484375 107.921875 156.183594 108.003906 156.183594 109.1875 C 156.183594 110.269531 156.492188 110.429688 158 110.125 C 159.222656 109.882812 160.097656 110.101562 160.667969 110.789062 C 161.1875 111.414062 162.535156 111.816406 164.09375 111.816406 C 167.097656 111.816406 170.429688 113.882812 170.429688 115.746094 C 170.429688 117.078125 168.851562 117.460938 168.136719 116.308594 C 167.847656 115.839844 167.367188 115.898438 166.640625 116.496094 C 165.523438 117.414062 163.726562 118.289062 160.3125 119.566406 C 157.949219 120.453125 153.792969 119.878906 152.148438 118.441406 C 151.140625 117.5625 150.6875 117.605469 147.691406 118.847656 C 145.859375 119.609375 143.960938 120.234375 143.472656 120.234375 C 142.984375 120.234375 142.585938 120.671875 142.585938 121.207031 C 142.585938 122.449219 139.914062 122.480469 137.183594 121.273438 C 136.058594 120.777344 134.667969 120.21875 134.089844 120.03125 C 133.511719 119.84375 132.851562 118.699219 132.625 117.484375 C 132.0625 114.484375 130.84375 112.9375 129.460938 113.46875 C 127.785156 114.113281 128.050781 117.433594 129.960938 119.703125 C 131.253906 121.238281 131.441406 121.875 130.902344 122.882812 C 130.265625 124.070312 130.085938 124 127.898438 121.703125 C 126.007812 119.71875 125.5 118.605469 125.179688 115.753906 C 124.957031 113.808594 124.417969 112.125 123.964844 111.972656 C 123.511719 111.824219 122.230469 112.675781 121.117188 113.863281 L 119.09375 116.027344 L 120.804688 116.636719 C 121.746094 116.972656 122.515625 117.535156 122.515625 117.890625 C 122.515625 118.242188 123.128906 119.183594 123.878906 119.984375 C 125.511719 121.722656 125.097656 122.621094 122.335938 123.335938 L 120.277344 123.871094 L 122.328125 125.082031 C 123.453125 125.746094 124.546875 126.96875 124.753906 127.796875 C 125.023438 128.863281 125.597656 129.296875 126.738281 129.296875 C 128.363281 129.296875 128.886719 130.183594 127.695312 130.917969 C 127.339844 131.136719 127.050781 131.882812 127.050781 132.574219 C 127.050781 133.265625 127.339844 133.832031 127.695312 133.832031 C 128.050781 133.832031 128.347656 134.777344 128.351562 135.933594 C 128.371094 140.03125 128.886719 140.789062 131.964844 141.25 C 133.816406 141.527344 134.816406 142.007812 134.816406 142.609375 C 134.816406 143.125 134.527344 143.542969 134.171875 143.542969 C 132.976562 143.542969 133.507812 144.609375 135.132812 145.480469 C 136.378906 146.144531 136.582031 146.539062 136.027344 147.207031 C 135.628906 147.683594 134.761719 148.074219 134.089844 148.074219 C 132.8125 148.074219 132.417969 149.65625 133.523438 150.339844 C 133.878906 150.558594 134.171875 151.261719 134.171875 151.898438 C 134.171875 152.53125 134.753906 153.582031 135.464844 154.226562 C 137.183594 155.777344 137.210938 159.085938 135.511719 159.527344 C 134.824219 159.707031 134.105469 160.265625 133.914062 160.761719 C 133.378906 162.15625 130.867188 161.875 130.472656 160.375 C 129.945312 158.359375 128.34375 158.789062 128.34375 160.949219 C 128.34375 163.066406 129.34375 163.851562 134.871094 166.078125 C 138.175781 167.40625 138.648438 167.449219 140.324219 166.578125 C 142.402344 165.5 144.054688 166.046875 145.203125 168.195312 C 146.917969 171.394531 150.929688 172.554688 156.546875 171.464844 Z M 169.234375 164.707031 C 168.828125 164.21875 168.664062 163.652344 168.867188 163.449219 C 169.070312 163.246094 167.464844 163.238281 165.300781 163.4375 C 161.386719 163.789062 161.363281 163.78125 161.363281 162.085938 C 161.363281 160.476562 161.902344 160.082031 163.78125 160.324219 C 164.734375 160.449219 168.457031 157.921875 169.628906 156.363281 C 172.230469 152.898438 174.058594 152.25 173.386719 155.035156 C 173.152344 156.015625 172.605469 158.6875 172.179688 160.972656 C 171.382812 165.226562 170.546875 166.285156 169.234375 164.707031 Z M 149.742188 154.425781 C 149.761719 153.957031 150.972656 152.617188 152.4375 151.445312 C 155.550781 148.949219 156.730469 149.40625 155.78125 152.742188 C 155.230469 154.667969 154.910156 154.890625 152.441406 155.070312 C 150.511719 155.210938 149.71875 155.023438 149.742188 154.425781 Z M 163.953125 154.550781 C 163.953125 154.191406 164.390625 153.902344 164.925781 153.902344 C 165.460938 153.902344 165.894531 154.191406 165.894531 154.550781 C 165.894531 154.90625 165.460938 155.195312 164.925781 155.195312 C 164.390625 155.195312 163.953125 154.90625 163.953125 154.550781 Z M 167.191406 153.308594 C 167.191406 152.1875 167.976562 150.664062 168.554688 150.664062 C 168.875 150.664062 169.132812 151.394531 169.132812 152.28125 C 169.132812 153.289062 168.765625 153.902344 168.164062 153.902344 C 167.628906 153.902344 167.191406 153.632812 167.191406 153.308594 Z M 145.824219 146.890625 C 145.824219 146.597656 146.558594 145.667969 147.453125 144.828125 C 149.550781 142.859375 155.039062 142.53125 155.402344 144.351562 C 155.589844 145.273438 155.167969 145.484375 153.117188 145.484375 C 151.734375 145.484375 150.039062 145.914062 149.347656 146.433594 C 147.980469 147.46875 145.824219 147.75 145.824219 146.890625 Z M 171.398438 144.835938 C 171.179688 144.480469 170.304688 144.191406 169.457031 144.191406 C 166.238281 144.191406 167.214844 142.246094 171.523438 140.0625 C 173.804688 138.90625 174.773438 139.53125 173.730469 141.480469 C 173.375 142.144531 173.25 143.316406 173.449219 144.085938 C 173.710938 145.078125 173.523438 145.484375 172.808594 145.484375 C 172.253906 145.484375 171.621094 145.195312 171.398438 144.835938 Z M 163.328125 143.457031 C 163.300781 141.402344 166.371094 134.464844 167.789062 133.367188 C 169.089844 132.359375 171.074219 132.308594 171.074219 133.277344 C 171.074219 133.6875 169.765625 135.421875 168.160156 137.132812 C 166.558594 138.847656 165.25 140.789062 165.25 141.449219 C 165.25 142.109375 164.820312 143.210938 164.296875 143.902344 C 163.382812 145.113281 163.347656 145.09375 163.328125 143.457031 Z M 132.078125 137.996094 C 131.476562 137.394531 132.953125 134.476562 133.855469 134.476562 C 134.28125 134.476562 135.414062 133.75 136.375 132.859375 C 139.378906 130.078125 140.214844 131.152344 138.414062 135.46875 C 137.703125 137.171875 137.089844 137.714844 135.875 137.714844 C 134.996094 137.714844 133.875 137.871094 133.382812 138.058594 C 132.886719 138.25 132.300781 138.21875 132.078125 137.996094 Z M 133.363281 128.355469 C 131.757812 126.417969 131.6875 126.132812 132.628906 125.351562 C 133.527344 124.605469 133.890625 124.742188 135.25 126.320312 C 136.804688 128.125 137.058594 130.003906 135.789062 130.328125 C 135.433594 130.417969 134.34375 129.53125 133.363281 128.355469 Z M 156.523438 123.636719 C 154.902344 122.136719 154.785156 121.828125 155.75 121.640625 C 157.222656 121.359375 160.070312 123.214844 160.070312 124.457031 C 160.070312 125.929688 158.636719 125.597656 156.523438 123.636719 Z M 134.027344 156.003906 C 133.027344 154.78125 131.582031 155.035156 131.582031 156.4375 C 131.582031 157.910156 132.863281 158.492188 133.929688 157.511719 C 134.453125 157.03125 134.484375 156.5625 134.027344 156.003906 Z M 70.492188 154.617188 C 73.925781 151.136719 78.492188 143.890625 78.492188 141.917969 C 78.492188 141.484375 77.691406 140.105469 76.710938 138.847656 C 75.730469 137.59375 74.515625 135.96875 74.007812 135.242188 C 73.339844 134.28125 72.398438 133.925781 70.601562 133.949219 C 69.234375 133.96875 67.976562 134.207031 67.804688 134.484375 C 67.636719 134.757812 68.515625 135.757812 69.757812 136.707031 C 72.207031 138.574219 72.613281 140.4375 71.023438 142.535156 C 69.785156 144.171875 69.800781 148.335938 71.046875 149.371094 C 72.328125 150.433594 72.273438 151.261719 70.882812 151.753906 C 69.027344 152.414062 67.484375 154.019531 67.484375 155.296875 C 67.484375 156.980469 68.351562 156.785156 70.492188 154.617188 Z M 121.464844 153.542969 C 120.738281 152.433594 120.167969 152.105469 119.730469 152.546875 C 118.9375 153.335938 120.277344 155.195312 121.640625 155.195312 C 122.371094 155.195312 122.339844 154.878906 121.464844 153.542969 Z M 191.148438 153.925781 C 191.148438 153.242188 189.058594 151.960938 187.953125 151.960938 C 186.769531 151.960938 187.195312 152.914062 188.71875 153.667969 C 190.644531 154.621094 191.148438 154.675781 191.148438 153.925781 Z M 125.304688 150.46875 L 125.683594 148.007812 L 122.371094 148.203125 C 120.449219 148.316406 118.949219 148.738281 118.792969 149.207031 C 118.644531 149.65625 119.054688 150.019531 119.714844 150.019531 C 120.367188 150.023438 121.773438 150.722656 122.84375 151.582031 C 123.910156 152.4375 124.816406 153.089844 124.855469 153.035156 C 124.894531 152.976562 125.097656 151.824219 125.304688 150.46875 Z M 65.542969 148.824219 C 65.542969 148.164062 66.125 147.101562 66.835938 146.457031 C 67.550781 145.8125 68.132812 144.882812 68.132812 144.394531 C 68.132812 143.902344 68.570312 143.335938 69.105469 143.128906 C 70.460938 142.609375 70.3125 141.414062 68.78125 140.457031 C 68.066406 140.011719 67.484375 139.210938 67.484375 138.679688 C 67.484375 138.148438 67.046875 137.714844 66.515625 137.714844 C 65.199219 137.714844 65.230469 141.179688 66.554688 142.28125 C 67.46875 143.039062 67.46875 143.175781 66.5625 143.683594 C 65.960938 144.019531 65.019531 143.957031 64.199219 143.515625 C 62.242188 142.46875 61.851562 143.300781 63.488281 145.042969 C 64.261719 145.867188 64.894531 146.738281 64.894531 146.984375 C 64.894531 147.675781 62.640625 147.503906 61.890625 146.753906 C 61.421875 146.285156 60.984375 146.355469 60.457031 146.988281 C 59.59375 148.03125 60.417969 149.003906 62.628906 149.546875 C 65.046875 150.140625 65.542969 150.019531 65.542969 148.820312 Z M 119.035156 143.894531 C 119.277344 143.265625 119.972656 143.0625 121.121094 143.285156 C 122.6875 143.589844 123.007812 143.277344 124.699219 139.773438 L 126.554688 135.925781 L 125.152344 134.519531 C 124.230469 133.601562 123.886719 132.679688 124.148438 131.855469 C 124.367188 131.160156 124.269531 130.59375 123.933594 130.59375 C 123.59375 130.59375 123.164062 130.011719 122.976562 129.296875 C 122.554688 127.675781 121.109375 127.636719 119.683594 129.210938 C 118.652344 130.351562 118.683594 130.476562 120.292969 131.53125 C 121.449219 132.289062 121.890625 133.039062 121.667969 133.886719 C 121.492188 134.566406 121.609375 135.289062 121.933594 135.488281 C 123 136.144531 122.617188 139.65625 121.476562 139.65625 C 120.859375 139.65625 120.578125 139.296875 120.78125 138.765625 C 121.199219 137.675781 120.042969 136.421875 118.628906 136.421875 C 115.640625 136.421875 114.253906 140.195312 116.023438 143.503906 C 116.851562 145.050781 118.511719 145.265625 119.035156 143.894531 Z M 96.664062 109.808594 C 105.136719 94.363281 111.953125 81.609375 111.808594 81.46875 C 111.40625 81.066406 108.273438 83.285156 105.054688 86.246094 C 102.246094 88.828125 98.695312 91.480469 93.351562 94.988281 C 91.988281 95.882812 89.179688 98.5 87.109375 100.804688 C 85.042969 103.105469 82.578125 105.808594 81.640625 106.804688 C 78.277344 110.378906 77.949219 117.597656 80.808594 124.996094 C 81.738281 127.40625 81.703125 127.628906 79.726562 131.683594 C 77.996094 135.238281 77.796875 136.121094 78.414062 137.476562 C 78.96875 138.699219 79.386719 138.933594 80.203125 138.480469 C 80.785156 138.152344 88.195312 125.25 96.664062 109.804688 Z M 77.757812 130.464844 C 78.496094 128.972656 79.011719 127.660156 78.902344 127.550781 C 78.65625 127.304688 73.3125 132.351562 73.3125 132.832031 C 73.3125 133.023438 74.011719 133.183594 74.863281 133.183594 C 76.039062 133.183594 76.738281 132.527344 77.757812 130.464844 Z M 121.335938 121.347656 C 122.082031 120.140625 121.25 119.558594 119.402344 119.992188 C 117.191406 120.511719 116.421875 121.214844 117.011719 122.171875 C 117.554688 123.050781 120.648438 122.460938 121.335938 121.347656 Z M 141.441406 118.824219 C 141.582031 118.402344 142.988281 117.746094 144.570312 117.367188 C 146.496094 116.902344 147.652344 116.203125 148.070312 115.25 C 148.414062 114.46875 149.777344 113.339844 151.105469 112.742188 C 154.234375 111.332031 154.496094 110.46875 152.582031 107.871094 C 151.714844 106.699219 151.007812 105.359375 151.007812 104.894531 C 151.007812 103.742188 148.707031 103.828125 145.371094 105.105469 C 142.496094 106.203125 140.648438 105.660156 140.648438 103.722656 C 140.648438 102.71875 139.488281 101.757812 137.574219 101.167969 C 136.449219 100.824219 136.117188 100.980469 136.117188 101.847656 C 136.117188 103.238281 137.945312 105.34375 139.15625 105.34375 C 139.648438 105.34375 141.199219 106.511719 142.601562 107.941406 C 144 109.371094 145.882812 110.820312 146.78125 111.164062 C 148.546875 111.832031 148.910156 112.785156 147.601562 113.285156 C 146.921875 113.546875 140.15625 112.535156 139.460938 112.070312 C 139.34375 111.992188 139.574219 111.320312 139.972656 110.578125 C 140.613281 109.375 140.515625 109.226562 139.050781 109.226562 C 138.148438 109.226562 137.410156 108.9375 137.410156 108.578125 C 137.410156 108.222656 137.089844 107.933594 136.695312 107.933594 C 136.300781 107.933594 136.144531 108.363281 136.347656 108.894531 C 136.570312 109.476562 136.15625 110.148438 135.28125 110.609375 C 132.335938 112.160156 132.449219 113.757812 135.507812 113.757812 C 137.210938 113.757812 137.410156 113.972656 137.410156 115.792969 C 137.410156 118.515625 140.714844 121 141.441406 118.824219 Z M 162.710938 116.324219 C 164.132812 115.597656 165.132812 114.738281 164.929688 114.410156 C 164.441406 113.621094 162.757812 114.28125 160.507812 116.136719 C 158.25 117.996094 159.261719 118.082031 162.710938 116.324219 Z M 158.40625 115.980469 C 159.824219 114.558594 159.679688 113.964844 157.804688 113.492188 C 156.914062 113.269531 156.1875 112.816406 156.1875 112.484375 C 156.1875 112.152344 155.386719 112.617188 154.414062 113.523438 C 152.6875 115.121094 152.671875 115.191406 153.890625 116.082031 C 155.523438 117.277344 157.144531 117.242188 158.40625 115.980469 Z M 178.199219 112.140625 C 178.199219 111.605469 177.910156 111.167969 177.554688 111.167969 C 177.195312 111.167969 176.90625 111.605469 176.90625 112.140625 C 176.90625 112.675781 177.195312 113.113281 177.554688 113.113281 C 177.910156 113.113281 178.199219 112.675781 178.199219 112.140625 Z M 76.550781 110.574219 C 76.550781 109.433594 78.070312 107.269531 82.902344 101.542969 C 86.023438 97.851562 87.34375 96.585938 90.46875 94.292969 C 91.894531 93.25 95.042969 90.9375 97.464844 89.15625 C 99.886719 87.375 102.144531 85.917969 102.480469 85.917969 C 102.820312 85.917969 103.09375 85.628906 103.09375 85.269531 C 103.09375 84.054688 101.648438 84.625 97.03125 87.667969 C 86.222656 94.789062 80.035156 100.535156 77.574219 105.730469 C 75.53125 110.042969 74.769531 112.839844 75.808594 112.199219 C 76.214844 111.945312 76.550781 111.214844 76.550781 110.570312 Z M 131.746094 110.871094 C 132.792969 110.652344 133.523438 110.070312 133.523438 109.457031 C 133.523438 108.605469 133.054688 108.488281 130.972656 108.820312 C 129.570312 109.046875 128.273438 108.984375 128.089844 108.6875 C 127.71875 108.089844 131.714844 105.988281 133.222656 105.988281 C 133.746094 105.988281 134.171875 105.699219 134.171875 105.34375 C 134.171875 104.496094 132.425781 104.503906 131.902344 105.347656 C 131.679688 105.710938 130.277344 105.925781 128.789062 105.835938 C 126.246094 105.675781 126.066406 105.777344 125.867188 107.503906 C 125.625 109.632812 127.25 111.777344 128.867188 111.460938 C 129.46875 111.34375 130.765625 111.078125 131.742188 110.871094 Z M 155.539062 105.703125 C 155.539062 105.191406 155.265625 104.605469 154.933594 104.398438 C 154.164062 103.921875 153.390625 105.136719 153.917969 105.988281 C 154.515625 106.953125 155.539062 106.773438 155.539062 105.703125 Z M 165.574219 104.046875 C 165.792969 103.691406 165.519531 103.398438 164.964844 103.398438 C 164.410156 103.398438 163.953125 103.691406 163.953125 104.046875 C 163.953125 104.402344 164.230469 104.695312 164.5625 104.695312 C 164.898438 104.695312 165.351562 104.402344 165.574219 104.046875 Z M 117.984375 317.292969 C 111.273438 315.082031 109.34375 312.394531 111.871094 308.785156 C 113.371094 306.644531 114.222656 307 113.742188 309.5625 C 113.210938 312.394531 114.5625 313.640625 120.101562 315.429688 C 122.773438 316.292969 124.207031 317.113281 124.347656 317.867188 C 124.613281 319.3125 123.914062 319.246094 117.984375 317.292969 Z M 129.375 307.441406 C 129.191406 307.140625 129.828125 306.523438 130.796875 306.070312 C 133.890625 304.625 134.429688 304.347656 138.21875 302.246094 C 140.574219 300.941406 141.933594 300.488281 141.921875 301.011719 C 141.898438 302.007812 139.996094 303.441406 135.246094 306.046875 C 131.636719 308.03125 129.984375 308.421875 129.375 307.441406 Z M 115.011719 306.601562 C 114.238281 305.347656 116.792969 303.980469 119.199219 304.355469 C 121.722656 304.75 122.355469 305.195312 121.503906 305.976562 C 120.449219 306.945312 115.519531 307.417969 115.011719 306.601562 Z M 285.800781 278.695312 C 285.910156 277.179688 286.292969 276 286.648438 276.070312 C 287.511719 276.242188 287.824219 277.953125 287.339844 279.878906 C 286.679688 282.507812 285.585938 281.667969 285.800781 278.695312 Z M 111.464844 267.109375 C 110.992188 266.230469 110.898438 264.738281 111.203125 263.0625 C 111.46875 261.601562 111.75 258.945312 111.828125 257.167969 C 112.121094 250.484375 112.757812 248.574219 115.382812 246.496094 C 117.753906 244.617188 121.226562 243.839844 121.226562 245.1875 C 121.226562 245.542969 120.933594 245.835938 120.578125 245.835938 C 120.222656 245.835938 119.929688 246.4375 119.929688 247.171875 C 119.929688 249.246094 117.285156 254.898438 116.3125 254.898438 C 115.835938 254.898438 115.132812 256.136719 114.742188 257.652344 C 114.355469 259.164062 113.773438 261.214844 113.449219 262.207031 C 113.085938 263.320312 113.097656 264.640625 113.480469 265.648438 C 114.332031 267.890625 114.261719 268.496094 113.152344 268.496094 C 112.632812 268.496094 111.871094 267.871094 111.460938 267.109375 Z M 281.828125 264.046875 C 279.585938 259.648438 275.3125 256.808594 269.648438 255.949219 C 267.484375 255.621094 266.898438 255.734375 266.898438 256.472656 C 266.898438 256.992188 267.1875 257.59375 267.542969 257.8125 C 268.367188 258.320312 268.398438 261.375 267.582031 261.375 C 267.242188 261.375 265.664062 259.996094 264.070312 258.308594 L 261.171875 255.238281 L 258.191406 256.6875 C 256.550781 257.484375 255.035156 258.136719 254.824219 258.136719 C 254.0625 258.136719 256.121094 256.136719 259.242188 253.847656 C 262.199219 251.675781 262.5 251.585938 263.578125 252.558594 C 264.335938 253.246094 265.914062 253.605469 268.167969 253.605469 C 273.058594 253.605469 276.484375 254.773438 279.953125 257.625 C 283.699219 260.707031 286.113281 266.554688 283.636719 266.554688 C 283.347656 266.554688 282.535156 265.425781 281.832031 264.046875 Z M 217.035156 263.378906 C 215.425781 263.152344 212.65625 262.082031 210.882812 261.003906 C 205.828125 257.929688 198.78125 254.828125 194.941406 253.988281 C 194 253.785156 193.046875 253.136719 192.820312 252.546875 C 191.796875 249.882812 205.285156 253.847656 211.492188 258.035156 C 214.90625 260.339844 215.75 260.539062 215.75 259.039062 C 215.75 258.191406 216.203125 258.074219 218.175781 258.414062 C 224.410156 259.492188 226.003906 259.539062 230.140625 258.757812 C 234.605469 257.914062 236.273438 258.300781 235.257812 259.941406 C 234.980469 260.390625 232.765625 261.480469 230.335938 262.363281 C 225.921875 263.964844 222.84375 264.199219 217.035156 263.378906 Z M 210.082031 253.125 C 204.785156 252.90625 203.234375 252.183594 206.378906 251.394531 C 207.28125 251.167969 211.519531 251.179688 215.796875 251.421875 C 222.890625 251.820312 223.992188 251.726562 228.242188 250.347656 C 230.808594 249.515625 233.28125 248.550781 233.738281 248.207031 C 234.835938 247.382812 240.191406 244.460938 246.066406 241.476562 C 250.601562 239.179688 250.796875 238.984375 250.433594 237.179688 C 250.226562 236.136719 248.722656 233.726562 247.097656 231.820312 C 244.605469 228.902344 243.789062 228.355469 241.953125 228.355469 C 239.90625 228.355469 239.644531 228.089844 237.632812 224.007812 C 235.019531 218.691406 232.183594 216.308594 227.230469 215.269531 C 225.210938 214.847656 223.378906 214.679688 223.160156 214.898438 C 222.941406 215.117188 222.511719 218.199219 222.203125 221.746094 C 221.835938 225.96875 220.980469 230.136719 219.722656 233.808594 C 216.242188 243.976562 213.585938 245.773438 216.585938 235.925781 C 221.292969 220.476562 221.144531 212.445312 216.035156 206.476562 C 214.285156 204.429688 213.234375 203.75 211.8125 203.75 L 209.921875 203.75 L 209.921875 195.050781 C 209.921875 190.261719 210.179688 186.1875 210.496094 185.992188 C 211.691406 185.25 212.472656 187.5 212.847656 192.78125 C 213.402344 200.519531 213.453125 200.664062 216.546875 202.84375 C 218.238281 204.039062 219.980469 206.066406 220.96875 208.003906 C 222.441406 210.878906 222.957031 211.308594 226.136719 212.320312 C 228.078125 212.9375 230.503906 213.605469 231.527344 213.808594 C 233.859375 214.269531 251.097656 231.300781 251.714844 233.757812 C 252.539062 237.042969 254.074219 236.546875 263.808594 229.832031 C 268.890625 226.328125 274.503906 222.78125 276.285156 221.949219 C 278.066406 221.117188 281.386719 219.523438 283.667969 218.40625 C 287.457031 216.554688 288.367188 216.375 294.132812 216.375 C 299.667969 216.375 300.695312 216.558594 302.421875 217.832031 C 303.507812 218.632812 305.101562 219.289062 305.96875 219.289062 C 308.128906 219.289062 311.015625 220.890625 311.929688 222.589844 C 312.859375 224.328125 312.390625 229.628906 311.195312 230.898438 C 310.121094 232.035156 309.875 231.460938 309.421875 226.789062 C 309.089844 223.359375 307.601562 221.625 304.46875 221.023438 C 303.566406 220.847656 301.664062 220.253906 300.242188 219.703125 C 296.976562 218.4375 289.414062 218.402344 285.996094 219.632812 C 284.570312 220.144531 283.09375 220.570312 282.707031 220.574219 C 281.804688 220.585938 272.785156 225.726562 270.003906 227.8125 C 268.828125 228.691406 266.121094 230.402344 263.984375 231.605469 C 261.847656 232.8125 258.558594 235.050781 256.675781 236.582031 C 254.789062 238.109375 252.863281 239.359375 252.394531 239.359375 C 251.921875 239.359375 250.453125 240.222656 249.132812 241.273438 C 246.089844 243.6875 237.503906 248.425781 236.160156 248.425781 C 235.40625 248.425781 235.25 248.835938 235.546875 250.015625 C 235.988281 251.773438 236.097656 251.722656 229.0625 252.941406 C 225.390625 253.574219 221.96875 253.609375 210.082031 253.125 Z M 263.664062 250.566406 C 263.667969 250.28125 264.609375 249.316406 265.753906 248.425781 C 266.898438 247.535156 269.414062 245.203125 271.339844 243.246094 C 273.84375 240.703125 274.941406 239.957031 275.179688 240.628906 C 275.386719 241.21875 273.964844 242.960938 271.414062 245.253906 C 267.160156 249.066406 263.65625 251.472656 263.664062 250.566406 Z M 311.628906 248.164062 C 310.824219 247.308594 309.175781 246.421875 307.96875 246.195312 C 304.628906 245.566406 301.667969 240.992188 302.074219 237.082031 C 302.347656 234.460938 302.21875 234.113281 300.679688 233.378906 C 299.746094 232.929688 298.617188 231.835938 298.164062 230.945312 C 297.714844 230.054688 297.34375 229.636719 297.335938 230.011719 C 297.332031 230.4375 295.519531 230.6875 292.585938 230.660156 C 287.398438 230.617188 288.480469 230.070312 279.847656 237.105469 C 277.886719 238.703125 276.183594 239.707031 276.058594 239.335938 C 275.9375 238.964844 277.234375 237.140625 278.941406 235.289062 C 282.828125 231.066406 288.847656 227.738281 292.632812 227.722656 C 296.433594 227.703125 296.09375 226.550781 292.132812 226.027344 C 290.34375 225.789062 288.726562 225.34375 288.535156 225.03125 C 287.554688 223.449219 296.445312 225.324219 299.078125 227.253906 C 308.257812 233.992188 309.261719 235.1875 306.382812 235.9375 C 304.785156 236.359375 304.121094 238.699219 304.921875 241.113281 C 305.371094 242.472656 305.996094 242.972656 307.433594 243.117188 C 309.300781 243.304688 309.339844 243.246094 309.097656 240.707031 C 308.925781 238.921875 309.175781 237.78125 309.886719 237.070312 C 310.457031 236.5 310.921875 235.46875 310.921875 234.785156 C 310.921875 233.472656 311.4375 233.277344 313.136719 233.929688 C 314.429688 234.421875 314.441406 235.742188 313.171875 237.679688 C 312.4375 238.796875 312.34375 239.609375 312.808594 240.832031 C 313.597656 242.902344 314.5625 243.527344 315.042969 242.273438 C 315.25 241.738281 315.976562 241.304688 316.660156 241.304688 C 318.566406 241.304688 318.859375 239.457031 317.339844 237.003906 C 315.261719 233.640625 316.027344 231.84375 320.335938 229.9375 C 322.28125 229.074219 323.871094 228.121094 323.871094 227.816406 C 323.871094 227.511719 323.277344 226.722656 322.546875 226.0625 C 321.722656 225.3125 321.292969 224.238281 321.414062 223.210938 C 321.59375 221.671875 321.875 221.542969 325.433594 221.359375 C 329.390625 221.15625 333.214844 222.203125 332.53125 223.308594 C 332.285156 223.703125 331.882812 223.675781 331.4375 223.230469 C 330.335938 222.128906 323.871094 222.320312 323.871094 223.457031 C 323.871094 223.964844 324.453125 224.570312 325.167969 224.792969 C 328.3125 225.792969 325.574219 230.328125 321.253906 231.277344 C 319.132812 231.742188 318.738281 233.132812 320.449219 234.09375 C 321.265625 234.546875 321.535156 235.464844 321.457031 237.523438 C 321.367188 239.917969 320.984375 240.644531 318.886719 242.429688 C 316.21875 244.699219 316.828125 245.050781 320.957031 243.632812 C 324.472656 242.425781 325.34375 240.632812 323.851562 237.699219 C 321.921875 233.921875 323.859375 230.945312 328.246094 230.945312 C 330.453125 230.945312 334.878906 232.484375 334.878906 233.253906 C 334.878906 233.492188 332.984375 233.484375 330.667969 233.234375 C 325.777344 232.710938 325.042969 233.410156 326.429688 237.25 C 327.136719 239.207031 327.085938 239.84375 326.042969 242.023438 C 325.382812 243.40625 324.324219 244.707031 323.691406 244.914062 C 323.058594 245.117188 322.046875 246.066406 321.441406 247.019531 C 319.894531 249.453125 319.398438 249.699219 316.054688 249.710938 C 313.753906 249.71875 312.765625 249.371094 311.628906 248.164062 Z M 317.398438 247.199219 C 317.398438 246.480469 315.40625 245.667969 314.894531 246.179688 C 314.691406 246.386719 314.949219 246.824219 315.472656 247.15625 C 316.683594 247.921875 317.398438 247.9375 317.398438 247.199219 Z M 208.800781 243.035156 C 209.074219 242.195312 211.980469 240.558594 212.417969 240.996094 C 212.902344 241.480469 211.21875 243.09375 209.859375 243.449219 C 209.03125 243.664062 208.640625 243.511719 208.800781 243.035156 Z M 204.738281 242.003906 C 204.738281 241.203125 207.347656 239.363281 208.480469 239.363281 C 208.957031 239.363281 209.164062 239.65625 208.945312 240.015625 C 208.324219 241.015625 204.738281 242.714844 204.738281 242.003906 Z M 261.066406 242.070312 C 261.066406 241.285156 262.292969 240.375 262.742188 240.824219 C 262.90625 240.984375 262.597656 241.488281 262.054688 241.9375 C 261.4375 242.449219 261.066406 242.5 261.066406 242.070312 Z M 226.925781 231.667969 C 227.007812 227.003906 227.253906 223.1875 227.46875 223.183594 C 228.023438 223.171875 228.679688 229.15625 228.6875 234.265625 C 228.691406 237.265625 228.40625 238.792969 227.738281 239.351562 C 226.898438 240.046875 226.796875 239.085938 226.925781 231.667969 Z M 265.273438 238.066406 C 265.496094 237.710938 265.964844 237.417969 266.320312 237.417969 C 266.679688 237.417969 266.789062 237.710938 266.570312 238.066406 C 266.347656 238.421875 265.878906 238.714844 265.523438 238.714844 C 265.164062 238.714844 265.054688 238.421875 265.273438 238.066406 Z M 187.285156 236.820312 C 186.320312 235.019531 187.050781 233.738281 189.296875 233.289062 C 191.660156 232.816406 193.449219 233.667969 193.925781 235.492188 C 194.191406 236.507812 193.878906 236.996094 192.667969 237.453125 C 190.113281 238.425781 188.011719 238.175781 187.285156 236.820312 Z M 268.597656 235.816406 C 268.804688 235.273438 269.378906 234.828125 269.875 234.828125 C 271.140625 234.828125 271 235.3125 269.5 236.117188 C 268.453125 236.675781 268.289062 236.621094 268.597656 235.816406 Z M 271.75 233.535156 C 271.96875 233.179688 272.640625 232.890625 273.246094 232.898438 C 274.1875 232.90625 274.207031 232.992188 273.367188 233.535156 C 272.101562 234.355469 271.242188 234.355469 271.75 233.535156 Z M 334.921875 228.289062 C 334.527344 226.441406 334.320312 224.808594 334.464844 224.664062 C 334.9375 224.191406 337.464844 227.851562 337.464844 229.011719 C 337.464844 229.632812 337.054688 230.480469 336.554688 230.894531 C 335.800781 231.519531 335.519531 231.066406 334.921875 228.289062 Z M 279.054688 229.476562 C 280.777344 227.644531 283.957031 226.402344 285.113281 227.113281 C 286.390625 227.90625 285.242188 228.726562 281.1875 229.914062 L 277.679688 230.941406 Z M 184.019531 217.109375 C 184.019531 216.574219 185.121094 216.011719 186.769531 215.699219 C 190.523438 214.988281 190.675781 214.988281 190.933594 215.753906 C 191.054688 216.125 189.835938 216.78125 188.226562 217.210938 C 184.503906 218.207031 184.019531 218.195312 184.019531 217.109375 Z M 174.953125 214.722656 C 174.953125 213.15625 186.695312 208.976562 188.816406 209.789062 C 190.464844 210.425781 189.550781 211.300781 186.773438 211.742188 C 185.425781 211.957031 182.511719 212.871094 180.300781 213.769531 C 175.855469 215.574219 174.953125 215.738281 174.953125 214.722656 Z M 177.542969 201.789062 C 177.542969 200.96875 178.351562 200.648438 183.160156 199.554688 C 185.234375 199.085938 187.625 198.480469 188.476562 198.214844 C 189.648438 197.84375 189.945312 197.945312 189.722656 198.636719 C 189.015625 200.789062 177.542969 203.757812 177.542969 201.789062 Z M 209.269531 179.957031 C 209.269531 176.292969 209.839844 175.609375 216.367188 171.421875 C 220.792969 168.585938 225.453125 164.589844 225.453125 163.636719 C 225.453125 163.324219 226.839844 162.597656 228.53125 162.027344 C 232.265625 160.765625 239.039062 154.589844 242.601562 149.203125 C 243.953125 147.15625 245.457031 145.480469 245.941406 145.480469 C 247.300781 145.480469 247.027344 146.265625 244.183594 150.503906 C 240.542969 155.921875 234.066406 162.472656 230.957031 163.882812 C 229.535156 164.527344 227.058594 166.304688 225.453125 167.832031 C 223.851562 169.359375 220.433594 171.957031 217.859375 173.605469 C 213.640625 176.3125 213.089844 176.90625 212.289062 179.65625 C 211.757812 181.488281 210.972656 182.792969 210.335938 182.917969 C 209.460938 183.089844 209.269531 182.554688 209.269531 179.957031 Z M 200.203125 179.839844 C 200.203125 177.148438 201.867188 169.738281 203.390625 165.632812 C 204.871094 161.652344 205.054688 161.386719 205.953125 161.945312 C 206.382812 162.210938 206.300781 163.226562 205.710938 164.894531 C 205.21875 166.292969 204.339844 170 203.757812 173.132812 C 203.175781 176.261719 202.570312 179.480469 202.410156 180.28125 C 201.972656 182.484375 200.203125 182.128906 200.203125 179.839844 Z M 200.148438 148.148438 L 198.585938 146.878906 L 200.476562 146.152344 C 201.519531 145.753906 202.804688 145.597656 203.339844 145.800781 C 203.871094 146.003906 204.546875 145.796875 204.835938 145.339844 C 205.5 144.292969 205.53125 143.488281 204.898438 143.699219 C 204.632812 143.789062 204.34375 143.574219 204.257812 143.222656 C 204.171875 142.871094 204.605469 142.578125 205.226562 142.574219 C 206.089844 142.570312 206.359375 142.007812 206.375 140.183594 C 206.386719 138.871094 206.886719 137.261719 207.484375 136.597656 C 208.152344 135.863281 208.425781 134.84375 208.199219 133.964844 C 207.992188 133.175781 208.117188 132.53125 208.476562 132.53125 C 208.835938 132.53125 210.082031 131.644531 211.246094 130.554688 C 213.101562 128.824219 213.480469 128.699219 214.304688 129.523438 C 215.132812 130.351562 215.125 130.816406 214.253906 133.28125 C 213.707031 134.828125 212.910156 137.476562 212.476562 139.164062 C 212.046875 140.851562 211.0625 142.890625 210.296875 143.695312 C 209.527344 144.5 208.550781 145.960938 208.125 146.9375 C 207.535156 148.300781 206.910156 148.71875 205.449219 148.71875 C 204.402344 148.71875 203.132812 148.878906 202.628906 149.070312 C 202.125 149.265625 201.007812 148.851562 200.148438 148.148438 Z M 194.378906 146.238281 C 188.433594 144.304688 187.902344 144.027344 187.902344 142.855469 C 187.902344 141.871094 188.277344 141.738281 190.167969 142.046875 C 191.984375 142.339844 192.433594 142.203125 192.433594 141.359375 C 192.433594 140.722656 191.902344 140.300781 191.101562 140.300781 C 190.34375 140.300781 189.949219 140.011719 190.183594 139.628906 C 190.414062 139.257812 191.125 139.121094 191.765625 139.324219 C 192.492188 139.554688 193.078125 139.300781 193.332031 138.644531 C 193.605469 137.929688 193.3125 137.480469 192.421875 137.25 C 191.421875 136.988281 191.28125 136.703125 191.820312 136.054688 C 192.210938 135.582031 192.949219 135.359375 193.460938 135.558594 C 193.972656 135.753906 194.832031 135.550781 195.367188 135.105469 C 196.164062 134.445312 196.582031 134.511719 197.625 135.457031 C 199.242188 136.917969 199.257812 138.128906 197.675781 138.976562 C 196.660156 139.519531 196.503906 140.125 196.789062 142.398438 C 196.984375 143.914062 197.40625 145.496094 197.734375 145.910156 C 198.695312 147.132812 197.484375 147.25 194.378906 146.238281 Z M 199.121094 143.15625 C 198.90625 142.601562 199.0625 141.042969 199.46875 139.691406 C 200.449219 136.417969 200.394531 135.121094 199.277344 135.121094 C 198.765625 135.121094 198.15625 134.511719 197.917969 133.761719 C 197.601562 132.773438 197.292969 132.597656 196.773438 133.113281 C 195.800781 134.085938 192.90625 134.035156 193.234375 133.054688 C 193.703125 131.648438 196.847656 131.277344 199.042969 132.371094 C 200.507812 133.105469 201.175781 133.183594 201.351562 132.652344 C 201.820312 131.242188 203.976562 128.972656 204.421875 129.414062 C 204.667969 129.660156 204.417969 131.261719 203.867188 132.976562 C 203.320312 134.691406 202.496094 137.761719 202.039062 139.800781 C 201.214844 143.503906 199.851562 145.066406 199.121094 143.15625 Z M 247.46875 142.363281 C 247.46875 141.675781 247.90625 139.871094 248.441406 138.355469 C 248.976562 136.839844 249.71875 133.671875 250.09375 131.316406 C 250.472656 128.957031 251.058594 126.75 251.398438 126.40625 C 251.738281 126.0625 253.253906 125.332031 254.761719 124.785156 C 256.894531 124.007812 257.792969 123.199219 258.796875 121.136719 C 259.511719 119.679688 260.605469 117.984375 261.230469 117.367188 C 261.855469 116.75 262.664062 115.691406 263.027344 115.015625 C 263.625 113.898438 263.5 113.820312 261.726562 114.175781 C 260.097656 114.5 259.769531 114.359375 259.769531 113.335938 C 259.769531 112.65625 260.273438 111.382812 260.886719 110.5 L 262.003906 108.902344 L 260.261719 110.035156 C 256.058594 112.769531 255.210938 110.082031 258.871094 105.617188 C 260.308594 103.859375 261.058594 102.371094 260.816406 101.746094 C 260.601562 101.183594 260.09375 100.929688 259.691406 101.179688 C 259.242188 101.457031 259.070312 101.285156 259.25 100.734375 C 259.414062 100.242188 260.222656 99.496094 261.046875 99.082031 C 264.851562 97.171875 265.652344 101.347656 262.035156 104.234375 C 259.84375 105.984375 259.132812 107.28125 260.367188 107.28125 C 260.695312 107.28125 261.832031 106.554688 262.890625 105.664062 C 263.945312 104.773438 265.105469 104.042969 265.460938 104.042969 C 266.648438 104.042969 266.921875 106.121094 265.980469 108.007812 C 265.46875 109.03125 265.316406 109.871094 265.648438 109.871094 C 267.09375 109.871094 265.425781 116.402344 263.660156 117.640625 C 263.40625 117.820312 262.820312 118.691406 262.355469 119.582031 C 260.777344 122.605469 257.148438 126.5625 255.21875 127.359375 C 253.75 127.96875 253.296875 128.574219 253.296875 129.925781 C 253.296875 132.03125 252.398438 134.898438 250.304688 139.453125 C 248.613281 143.136719 247.46875 144.3125 247.46875 142.363281 Z M 182.074219 139.816406 C 182.074219 137.972656 183.597656 136.933594 185.574219 137.429688 C 186.863281 137.753906 187.253906 137.609375 187.253906 136.8125 C 187.253906 136.238281 186.816406 135.769531 186.285156 135.769531 C 185.75 135.769531 185.28125 135.40625 185.246094 134.960938 C 185.089844 133.140625 185.472656 130.246094 185.90625 129.941406 C 186.164062 129.765625 186.394531 128.546875 186.425781 127.234375 C 186.492188 124.222656 187.078125 123.269531 188.625 123.675781 C 189.976562 124.03125 190.214844 123.449219 189.152344 122.386719 C 187.894531 121.128906 191.421875 118.140625 194.765625 117.632812 C 197.390625 117.234375 197.789062 117.335938 198.277344 118.542969 C 198.742188 119.691406 198.832031 119.722656 198.867188 118.746094 C 198.902344 117.789062 199.339844 117.632812 201.335938 117.863281 C 203.199219 118.078125 204.566406 118.933594 207.210938 121.535156 C 209.636719 123.921875 210.453125 125.132812 209.972656 125.613281 C 209.488281 126.097656 209.574219 126.621094 210.265625 127.378906 C 211.441406 128.679688 210.828125 130.738281 209.347656 130.449219 C 208.660156 130.316406 208.289062 129.570312 208.273438 128.289062 C 208.257812 126.855469 207.5625 125.6875 205.683594 123.945312 C 202.597656 121.078125 201.863281 120.988281 200.425781 123.304688 C 199.074219 125.488281 197.660156 126.707031 196.472656 126.707031 C 195.804688 126.707031 195.863281 126.421875 196.710938 125.574219 C 197.792969 124.492188 197.785156 124.429688 196.597656 124.222656 C 195.910156 124.105469 194.984375 123.535156 194.535156 122.964844 C 193.449219 121.5625 192.652344 122.519531 192.222656 125.734375 C 191.296875 132.683594 189.410156 139.046875 188.011719 139.910156 C 187.707031 140.101562 186.246094 140.449219 184.765625 140.683594 C 182.363281 141.070312 182.074219 140.976562 182.074219 139.816406 Z M 199.527344 130.230469 C 198.945312 129.527344 198.90625 129.039062 199.398438 128.546875 C 200.226562 127.71875 201.5 128.367188 201.5 129.621094 C 201.5 131.003906 200.441406 131.332031 199.527344 130.230469 Z M 194.746094 130.015625 C 194.324219 129.332031 196.179688 127.644531 196.738281 128.203125 C 197.277344 128.742188 196.496094 130.589844 195.730469 130.589844 C 195.382812 130.589844 194.941406 130.332031 194.746094 130.015625 Z M 201.097656 127.0625 C 200.898438 126.542969 200.925781 125.816406 201.15625 125.441406 C 201.910156 124.222656 202.792969 124.730469 202.792969 126.382812 C 202.792969 128.136719 201.679688 128.582031 201.097656 127.0625 Z M 251.566406 107.558594 C 251.234375 106.683594 251.910156 103.484375 253.066406 100.472656 C 253.242188 100.007812 252.878906 99.527344 252.253906 99.40625 C 251.175781 99.199219 251.175781 99.136719 252.253906 98.054688 C 254.960938 95.351562 256.617188 97.503906 254.996094 101.621094 C 254.296875 103.410156 254.160156 104.523438 254.589844 104.953125 C 255.019531 105.382812 255.238281 105.378906 255.238281 104.945312 C 255.238281 104.078125 257.863281 101.277344 258.285156 101.699219 C 258.679688 102.089844 253.191406 108.578125 252.464844 108.578125 C 252.1875 108.578125 251.785156 108.117188 251.566406 107.558594 Z M 251.566406 107.558594 " fill-opacity="1" fill-rule="nonzero"/></g></svg>