<?xml version="1.0" encoding="UTF-8"?>
<svg id="Layer_2" data-name="Layer 2" xmlns="http://www.w3.org/2000/svg" viewBox="0 0 227.4056 364.3453" fill="#EAD7BB">
  <g id="katman_1" data-name="katman 1">
    <path d="M112.4684,332.1055c.4185,3.3895,1.0204,6.7727,.9584,10.1996-.0159,.8812,.5384,1.3947,1.198,1.5525-.0056,.4243-.0141,.8486-.0359,1.2723-.1146,2.2264-.7347,4.8385,1.1619,6.5317,.1582,.1412,.3457,.2367,.5438,.292,.114,.7518,.2225,1.5044,.3419,2.2553,.4747,2.9853,.9963,5.9627,1.5561,8.9333,.3971,2.1066,3.6121,1.2145,3.2161-.8866-1.3957-7.4048-2.517-14.8596-3.3611-22.3447,.2124-.9012,.493-1.7864,.6637-2.6994,.7655-4.0934,.6577-8.7684,2.9143-12.4157,4.1812-6.7581,12.6892-9.3918,19.134-13.342,3.6973-2.2663,6.7261-5.0299,9.2786-8.536,2.8442-3.9068,5.0092-8.2323,6.8357-12.6936,1.8421-4.4991,3.294-9.1444,4.7392-13.7822,1.5712-5.0426,3.1721-10.0781,4.8737-15.0785,1.9388-5.6973,4.0609-11.3251,6.5916-16.7881,2.4709-5.3338,5.1353-10.6266,6.5643-16.3597,.3677-1.475-1.1421-2.4587-2.4174-1.8584-2.9403,1.384-4.7849,4.4054-7.1937,6.4794-2.9841,2.5694-5.7735,5.3581-8.4097,8.2816-5.339,5.921-9.9512,12.4668-14.9285,18.6871-2.3652,2.9559-4.472,5.979-6.2389,9.3304-1.807,3.4272-3.798,6.7528-5.8317,10.0491-4.0675,6.593-8.3797,13.0499-11.7181,20.0595-1.8548,3.8943-3.7602,7.8074-5.1681,11.8908-.0599,.1741-.1084,.3498-.1651,.5244-.0359-1.1425-.0787-2.2847-.1565-3.4246-.4839-7.0899-1.3926-14.2582-.4289-21.3411,.4649-3.4173,.8888-6.7895,.9508-10.2426,.2185-.2548,.3628-.5913,.3715-1.018,.0228-1.1246-.0291-2.249-.1338-3.3702,.5453-4.5629,1.1971-9.1126,1.9661-13.6428,.3387-.9797,.6989-1.9494,1.0726-2.904,.6188-1.5811,1.2474-3.1438,1.7342-4.7731,.4558-1.526,.5372-3.0509,.784-4.6126,.4595-2.9068,3.0753-4.4748,5.4057-5.8908,2.8676-1.7425,5.7455-3.4577,8.6702-5.1033,5.8785-3.3075,11.6774-6.5598,16.8837-10.889,5.1518-4.284,9.4742-9.3856,14.0572-14.2464,4.8077-5.0991,9.697-10.1372,14.1909-15.52,8.5461-10.2364,15.6992-21.635,21.6029-33.5796,.7245-1.466,1.4323-2.94,2.1238-4.422,.1405-.3013,.1861-.6358,.1524-.9602,.1841-.158,.3651-.3201,.5414-.4881,.5446-.5191-.2013-1.549-.8249-1.0693-.1289,.0991-.261,.1935-.3932,.2878-.3488-.2673-.8098-.378-1.343-.1991-3.4605,1.161-6.6066,3.0719-9.6087,5.1161-3.0603,2.0839-6.0816,4.2544-8.9406,6.6084-6.0565,4.9866-11.3811,10.7844-17.3785,15.8344-6.0007,5.0527-12.8871,8.9071-18.7971,14.0817-5.8801,5.1486-10.7255,11.3462-15.3007,17.6513-2.3059,3.1777-4.459,6.4136-6.2312,9.9054,.2565-.8243,.5083-1.65,.7729-2.4717,1.5412-4.7861,3.2649-9.5069,5.0808-14.1934,.1209-.158,.2242-.3355,.3044-.5277,2.6659-6.3902,5.3395-12.7798,7.7741-19.2627,.0561-.1347,.1124-.2693,.1685-.4039,4.6655-11.2032,9.9015-21.9622,16.1367-32.3792,5.3874-9.0004,10.8248-17.9205,15.2375-27.428,.1408-.1833,.2742-.3714,.4214-.5505,2.5891-3.1508,5.7711-5.8377,8.6077-8.7639,5.7491-5.9307,10.9867-12.4151,15.8654-19.0761,4.856-6.63,9.2526-13.6514,12.5038-21.2165,3.4013-7.9145,5.7544-16.2136,8.0958-24.4874,1.3061-4.6152,2.6179-9.2073,4.2577-13.717,1.585-4.3585,3.1156-8.6918,3.6283-13.3271,.1443-1.3036-1.5023-2.0037-2.5005-1.4349-1.8861,1.0747-3.0045,2.9664-4.1346,4.7498-1.4719,2.3228-3.5144,4.1901-5.4344,6.1423-4.2785,4.3501-8.4452,8.8018-12.6854,13.1886-3.9989,4.1372-7.4246,8.4319-10.1396,13.5228-2.7474,5.1515-5.1171,10.459-6.8426,16.0423-3.5482,11.4809-5.4094,23.3583-9.432,34.7171-1.7653,4.9847-3.8155,9.8226-6.0818,14.5549-1.4595,2.4894-2.709,5.0929-4.4328,7.4321-.3136,.4257-.2623,.894-.0276,1.2738-1.6891,3.1076-3.455,6.1798-5.2816,9.227-4.1184,6.8706-8.1638,13.7144-11.8537,20.7687,.9613-6.9346,.8822-13.892,1.2212-20.8677,.3289-6.7686,2.0199-13.3425,3.8461-19.8378,.6066-2.1578,1.1922-4.32,1.7739-6.4832,.0445-.0729,.0896-.1456,.134-.2185,.1282-.2103,.1424-.4157,.0845-.5933,.3673-1.368,.7339-2.7361,1.1041-4.1041,.48-1.773,.9513-3.6019,1.6944-5.286,.7361-1.668,1.5817-3.3213,1.4542-5.2008-.0452-.6665-.3792-1.2606-1.0218-1.5191-.5696-.2291-1.3925-.1713-1.8159,.3437-1.0941,1.3307-1.7286,2.8402-2.3529,4.4317-.6261,1.5964-1.4261,3.1092-2.2298,4.6225-1.7798,3.3506-3.7136,6.6185-5.3978,10.0195-3.2422,6.5466-5.7554,13.4342-7.9626,20.3901-2.2271,7.0189-3.829,14.1865-4.6859,21.5028-.8966,7.6551-.386,15.3355-.4918,23.0161-.0135,.9824-.0119,1.9771-.1485,2.9517-.1447,1.0326-.4097,2.0501-.6629,3.0601-.4953,1.9762-.8262,3.986-1.3955,5.943-.485,1.6673-.8561,3.3181-1.1773,5.0224-.2573,1.365-.4656,3.1538-1.4798,4.1989-.7572,.7803-.2976,1.8141,.45,2.1813-1.9989,4.2093-3.7259,8.5727-4.1969,13.2263-2.6413,8.432-4.8351,17.0089-6.6153,25.6719-.489-5.9567-1.6063-11.8595-3.5054-17.533-1.3028-3.8922-3.0199-7.6179-4.8502-11.286-.31-.621-.6293-1.238-.9506-1.8539,.1969-.2523,.3204-.5815,.3214-.9906,.0005-.1761,.0068-.3518,.0082-.5278,.1193-.0038,.2361-.0173,.346-.0475,.9561-.2628,1.2961-1.1568,1.1647-2.0514-.0432-.2935-.1141-.5831-.1976-.8703,.9662-2.4037,.3322-4.6293,.2376-7.1406-.1067-2.8321,.4134-5.6749,.6811-8.4852,.3433-3.6033,.4097-7.2608,.2829-10.8996,.2316-2.7473,.3963-5.4992,.4553-8.2585,.7247-1.8558,1.5931-3.6557,2.6693-5.3825,2.4368-3.9095,4.9092-7.7644,7.2264-11.7499,2.371-4.0781,5.0949-7.8957,7.5799-11.8971,2.4509-3.9464,4.6027-8.0666,6.7506-12.1825,2.1645-4.1479,4.2795-8.3234,6.1905-12.5952,3.9493-8.8284,6.8397-18.1434,9.2339-27.5053,1.318-5.1539,2.219-10.397,3.2316-15.6165,1.0269-5.2933,1.9652-10.6495,1.9489-16.0587-.0053-1.7501-2.193-2.1414-3.1075-.8416-.667,.948-1.1783,2.0243-1.4309,3.1601-.2726,1.2257-.2124,2.4762-.3914,3.7122-.387,2.6718-.9829,5.2965-1.6559,7.909-1.3049,5.0661-3.4838,9.8258-5.6143,14.584-2.1584,4.8202-4.2532,9.6795-6.8131,14.3051-2.6296,4.7517-5.7207,9.2499-8.5171,13.9049-5.5266,9.1993-10.1687,18.8478-13.9247,28.9019-.5654,1.5135-1.1431,3.0417-1.6984,4.5816,.599-2.8919,1.2877-5.7684,1.9997-8.6606,1.5804-6.4195,2.9569-12.892,4.4169-19.3398,1.4447-6.3803,2.7924-12.7358,3.8945-19.1835,.3971-1.3257,.7855-2.6541,1.1508-3.9898,1.0288-3.7612,1.9461-7.5514,2.7752-11.3611,.2881-.7803,.588-1.5553,.9075-2.3207,2.3948-5.7387,5.9951-10.8925,8.873-16.3856,1.4176-2.7057,2.7411-5.4428,4.2977-8.0751,1.5362-2.5978,3.2031-5.1149,4.9511-7.5746,3.3896-4.7697,6.5912-9.6815,8.4997-15.2559,2.2418-6.5483,3.6385-13.4496,4.8807-20.2463,1.2789-6.998,2.2678-14.0444,3.265-21.0868,.1998-1.4111-1.0625-2.6163-2.4478-1.8818-2.7853,1.4765-4.882,3.9408-6.8282,6.3593-2.0778,2.582-4.2212,5.1117-6.1709,7.7939-4.183,5.7542-7.7631,12.037-10.5583,18.5792-2.8067,6.5688-4.797,13.4304-6.2442,20.419-1.4894,7.1917-2.3413,14.4822-3.4792,21.7323-.9028,5.7512-1.9415,11.4828-3.1809,17.1711-1.2736,3.4898-2.2625,7.0924-3.0436,10.7039-.3072,1.42-.5654,2.8491-.8101,4.2808-1.1677,3.9344-2.4241,7.8422-3.7079,11.749-2.3668,7.2023-4.6375,14.4395-6.0151,21.9065-.9276,5.0281-1.6885,10.0863-2.3338,15.1588-.2157-4.7794-.4649-9.5563-.5653-14.3407-.1211-5.7714-.179-11.5462-.4892-17.3116-.5109-9.4963-1.5191-19.1332-3.2926-28.4808-1.6865-8.8899-4.4663-17.7749-9.5551-25.341-3.0491-4.5335-6.8987-8.5497-11.1256-11.9991-2.0922-1.7073-4.3505-3.1626-6.5123-4.7724-1.9072-1.4203-4.0099-2.9871-6.4946-3.0038-.999-.0067-1.9427,1.0618-1.5791,2.073,.9023,2.5088,2.2294,4.8001,3.6181,7.0649,1.3724,2.2381,2.659,4.5219,3.9703,6.796,2.7676,4.7994,5.6182,9.5719,7.8413,14.6561,4.2533,9.7269,6.4493,20.3005,7.7022,30.8009,1.3275,11.1251,2.3945,22.4345,5.4837,33.2445,1.546,5.4103,3.5841,10.6495,5.6494,15.8774,.9442,2.3902,1.7271,4.8385,2.3715,7.3236,.0264,1.889,.0461,3.778,.0543,5.6673,.0136,3.1303,.002,6.2668-.1566,9.3937-.1563,3.083-.5138,6.152-.2061,9.2379,.0472,.4742,.2396,.8543,.5093,1.1301-.033,1.1509-.0608,2.302-.0871,3.4532-.0577,.2683-.1157,.5361-.1736,.8034-2.0693-5.5512-4.3053-11.0409-6.6655-16.4766-3.7473-8.6302-7.513-17.3836-12.6447-25.3011-4.6465-7.1688-10.3916-13.7587-17.576-18.4737-3.7176-2.4399-7.895-4.4275-12.2234-5.4936-4.766-1.1739-9.5375-.6738-13.7422,1.9505-4.7275,2.9507-8.6207,7.0385-12.5089,10.9765-1.6359,1.657-3.3709,3.1301-4.5495,5.1726-.7508,1.3012-2.1106,3.2027-1.948,4.7829,.1086,1.0553,.9775,1.9176,2.1069,1.6049,3.4928-.9672,6.7986-2.9604,10.3967-3.4893,3.2534-.4782,6.3952,1.1933,9.2196,2.5969,2.8896,1.4361,5.6909,3.1168,8.2008,5.1524,2.7055,2.1941,4.935,4.7956,7.2629,7.3687,5.2096,5.7585,10.724,11.2362,16.401,16.5321,2.7947,2.607,5.6019,5.2198,8.5076,7.7036,2.5843,2.2093,5.403,4.1201,8.1448,6.1238,.9732,.7113,1.932,1.4413,2.8654,2.2029,.1408,.2013,.2783,.4047,.4228,.6036,1.0772,1.4834,2.2097,2.961,3.6567,4.1014,.7071,.5573,1.3872,1.1182,2.0568,1.7191,.1673,.1501,.4137,.3099,.6645,.4821,.403,.4987,.7793,1.0116,1.132,1.5639,.0075,.6786,.3482,1.1404,.8089,1.3885-.0022,.4215-.0019,.8431-.0036,1.2645-.4163-.6568-.8413-1.3081-1.2875-1.9456-4.0413-5.7741-9.5704-10.7572-16.6088-12.3791-8.6517-1.9936-16.5944,2.8839-25.031,3.6795-4.7187,.445-9.5782,.2663-14.1462-1.079-2.1476-.6325-4.047-1.6058-5.9201-2.8238-1.9249-1.2519-3.7749-2.6301-5.8563-3.6194-.8377-.398-2.2144-.1527-2.3865,.9709-.4722,3.0824,2.0621,6.0226,4.0136,8.1318,2.7918,3.0179,6.3107,5.2853,9.5795,7.7394,3.3464,2.5125,6.481,5.2468,10.46,6.7264,4.4515,1.6551,9.3512,2.3399,14.0808,2.2633,2.3258-.0377,4.7004-.183,6.9972,.2663,2.2345,.437,4.3713,1.2498,6.489,2.0667,3.1621,1.2198,6.1934,2.6231,8.6125,4.9376,2.457,2.3508,3.9656,5.3342,5.7251,8.207-.0665,.1282-.1208,.2678-.145,.4322-.1545,1.0485-.075,1.9972,.2117,3.0169,.2329,.8286,.5319,1.6208,.5726,2.4874,.0478,1.0145-.0238,2.0318,.0754,3.0444,.1083,1.1066,.2897,2.2097,.4546,3.3091,.6341,4.2292,1.2359,8.4538,1.8121,12.6909,1.1382,8.3697,2.9408,16.6363,4.6537,24.9019,.5583,2.6941,1.0984,5.3917,1.6106,8.0945-2.6993-8.4525-6.292-16.6383-10.4283-24.4447-3.0708-5.7957-6.3416-11.592-10.148-16.9416-3.5515-4.9915-7.694-9.77-12.8655-13.1391-5.5166-3.594-11.8573-3.9385-18.2093-3.0307-3.0736,.4392-6.1022,1.1296-9.1439,1.7429-3.3195,.6694-6.65,1.2178-9.9237,2.1018-6.2753,1.6945-12.1955,5.0109-18.8322,4.9404-3.0419-.0323-6.0771-.4314-9.0555-1.0341-1.4206-.2875-2.8475-.6078-4.2342-1.0327-1.1605-.3556-2.1807-1.0701-3.354-1.403-1.3651-.3874-2.5925-.192-3.6929,.7116-.4662,.3828-.5306,1.0608-.424,1.6045,.9053,4.623,4.2748,8.365,8.4308,10.4224,2.381,1.1788,4.9078,1.7509,7.5076,2.2273,2.9495,.5406,5.9311,.9179,8.9192,1.1635,6.1607,.5062,12.3708,.4596,18.5436,.2191,2.8056-.1093,5.7289-.4033,8.4903,.2437,2.7089,.6347,5.3077,1.7408,7.7847,2.9901,5.1653,2.6051,10.0989,5.7893,14.3613,9.7145,4.1666,3.8369,7.2753,8.5472,10.9546,12.8156,6.5431,7.5908,13.9878,14.4463,19.4226,22.9375,3.0937,4.8335,5.1821,9.9437,6.3424,15.5616,.6979,3.3794,1.2442,6.7865,1.6671,10.2107Zm11.4461-29.2719c3.3188-6.9116,7.2778-13.3798,11.3996-19.8352,2.0164-3.158,4.0493-6.3061,5.9418-9.5409,1.8931-3.2358,3.5964-6.5035,5.901-9.4795,2.3372-3.0178,4.8459-5.8994,7.1937-8.9104,2.3942-3.0707,4.7499-6.1771,7.2851-9.1342,2.8503-3.3246,5.8844-6.5024,9.1433-9.4296,1.3414-1.2049,2.6874-2.351,3.9247-3.6601-.373,.9732-.7753,1.9352-1.1883,2.8932-.3237,.5389-.6441,1.0797-.9851,1.6092-1.9274,2.9925-4.1951,5.7378-6.0615,8.7721-3.762,6.1156-6.5426,12.7642-10.0667,19.0114-3.6377,6.4484-7.8734,12.5503-12.4252,18.384-4.4537,5.7077-9.1781,11.1877-13.4885,17.0098-4.5694,6.172-8.7751,12.6122-12.4198,19.3734,.3258-2.1475,.7143-4.2822,1.3557-6.3707,1.1382-3.7056,2.8165-7.2064,4.4903-10.6925Zm-6.722,22.561c.5795-.9153,.7997-1.9708,.8526-3.0611,.3027,.0633,.627-.0386,.8167-.3991,3.373-6.412,7.2609-12.5358,11.4926-18.4137,4.271-5.9327,8.9782-11.4963,13.527-17.2107,4.5835-5.7581,8.8968-11.7453,12.6531-18.0792,3.6566-6.1659,6.489-12.7612,10.0272-18.9894,.9352-1.6461,1.9281-3.2602,3-4.8211-1.9012,4.2458-3.6247,8.5633-5.1799,12.9511-1.8439,5.2029-3.536,10.4628-5.1907,15.7288-1.4753,4.695-2.8886,9.4148-4.637,14.0179-1.7273,4.5475-3.8306,8.9736-6.5853,12.995-2.4297,3.5471-5.3368,6.3115-9.007,8.5436-6.9351,4.2177-15.0845,7.003-19.8871,13.9595-1.0684,1.5475-1.7146,3.2516-2.155,5.0264-.0441-.6149-.0852-1.2299-.1254-1.8451,.1453-.0906,.2822-.2194,.3982-.4027ZM209.323,73.6034c-2.9958,7.5364-7.1798,14.5452-11.8629,21.1464-4.7104,6.6397-9.8568,13.0955-15.4573,19.0081-.0451,.0476-.0931,.0933-.1384,.1408,.3316-.752,.65-1.5102,.9737-2.2646,1.0589-2.4671,2.4033-4.8237,3.5427-7.2573,1.4372-3.0696,2.8349-6.1585,4.2431-9.2415,2.7675-6.0585,5.297-12.2268,8.2431-18.2031,2.9421-5.9681,6.2627-11.7703,9.6477-17.4964,3.3172-5.6112,6.8023-11.1212,10.4297-16.5368-.6826,2.1366-1.326,4.2852-1.9424,6.4514-2.3211,8.1568-4.5418,16.3613-7.679,24.253Zm-23.2865,15.8805c2.635-11.2114,6.218-22.4356,12.9377-31.9458,3.3444-4.7334,7.8228-8.6737,11.7498-12.9119,2.045-2.2072,4.1636-4.3442,6.2755-6.4869,1.9081-1.9359,4.0254-3.8184,5.6372-6.0189-.5635,1.8171-1.2154,3.6101-1.862,5.3882-.212,.5833-.4111,1.169-.6145,1.754-.3374-.116-.7425-.0524-.9973,.3212-7.3517,10.7775-14.1354,21.9672-20.2127,33.5132-3.0369,5.7699-5.5706,11.7839-8.2126,17.7397-2.6778,6.0368-5.3598,12.1109-8.3768,17.987-.8866,1.7268-1.5817,3.5288-2.4137,5.2814-.4548,.958-.9407,1.9199-1.5576,2.7856-.1489,.209-.3132,.4195-.4952,.6097,3.43-9.1276,5.9005-18.4787,8.1422-28.0166Zm-39.3924,52.8088c-.3293,3.4592-.2971,6.9469-.4032,10.4177-.1043,3.4156-.2645,6.8324-.6263,10.2317-.3589,3.371-.9503,6.7191-1.8423,9.9912-.9318,3.4177-2.1158,6.7785-3.3135,10.1105-.0959,.2666-.1956,.5317-.2924,.7979-.5847,1.3594-1.1643,2.7216-1.7413,4.0852,.0011-.0174,.0017-.0348,.0029-.0522,.1781-2.6743,.4135-5.3444,.6694-8.0122,.5112-5.3302,1.0756-10.653,1.4868-15.9924,.3934-5.1077,.7966-10.2317,1.9593-15.2336,.6059-2.6068,1.4385-5.1604,2.2367-7.7133,.7882-2.5216,1.6116-5.0359,2.5674-7.4998,.4685-1.2078,.9989-2.3869,1.5642-3.5491-1.023,4.0855-1.867,8.2094-2.2678,12.4184Zm-9.3013,25.1875c.4182-7.2639,1.8476-14.4705,3.8548-21.4544,1.9791-6.8867,4.3454-13.7399,7.319-20.2638,1.009-2.2138,2.1288-4.3649,3.2801-6.5004-.253,.9457-.5095,1.8905-.7765,2.8326-.1301,.459-.2585,.9187-.3879,1.3781-1.4385,2.4213-2.8037,4.8838-3.9484,7.4599-1.0641,2.3948-1.9277,4.8765-2.7454,7.3644-.8541,2.5984-1.6999,5.2124-2.4347,7.8473-1.3959,5.0061-1.95,10.1948-2.371,15.3599-.4362,5.3496-.9238,10.6888-1.4589,16.0295-.1487,1.4837-.2936,2.9678-.4298,4.4527-.0291-1.0009-.0616-1.9979-.0744-2.9851-.0497-3.8374-.0477-7.6882,.173-11.5206Zm-.829,24.637c-.0045,.136-.011,.2721-.0144,.408-.0661,.1597-.1339,.3187-.2,.4784,.0729-.2952,.1439-.5908,.2143-.8865Zm-6.5911,34.9692c1.5698-3.4371,3.4758-6.6413,5.6476-9.7297,4.4186-6.2833,9.1614-12.5157,14.8215-17.7393,5.5413-5.114,12.0394-8.8587,18.0011-13.424,6.1295-4.6938,11.4432-10.337,17.2353-15.423,3.0767-2.7016,6.3198-5.1462,9.6696-7.4964,1.6134-1.1319,3.268-2.2697,4.9879-3.2864-.3361,.4856-.6722,.9706-1.0232,1.4411-2.3042,3.0883-4.5113,6.2462-6.7557,9.3777-2.2252,3.1047-4.4877,6.1929-6.9598,9.1075-2.3646,2.7875-5.0501,5.2764-7.7503,7.7319-2.7706,2.5195-5.4548,5.1323-8.2363,7.6388-2.8106,2.5328-5.7299,4.9436-8.7244,7.2556-6.1489,4.7472-12.42,9.3297-18.1919,14.5433-5.5737,5.0347-10.4793,10.7309-15.3354,16.4479,.8059-2.1749,1.6504-4.3351,2.6141-6.445Zm-5.5942,11.4218c.6056,.0605,1.2576-.2134,1.5167-.9404,.0126-.0355,.0254-.0709,.0381-.1063,.1724-.013,.3464-.092,.4978-.2701,4.9304-5.7985,9.8129-11.6645,15.3108-16.9425,5.6652-5.4387,11.9556-10.1871,18.211-14.916,2.9664-2.2426,5.8827-4.5506,8.6974-6.982,2.8135-2.4303,5.4566-5.0377,8.1983-7.5459,2.6949-2.4654,5.445-4.8783,7.9625-7.5287,2.5719-2.7078,4.8457-5.6964,7.0596-8.6989,2.4481-3.3201,4.7933-6.7144,7.2199-10.05-4.5828,8.6096-9.7993,16.8954-15.8196,24.5585-4.2733,5.4396-8.998,10.4944-13.7469,15.5166-2.4061,2.5445-4.8193,5.0827-7.1869,7.6632-2.2454,2.4472-4.4638,4.8998-6.9015,7.1606-4.8061,4.4571-10.1588,7.9304-15.8531,11.1348-3.1175,1.7544-6.2521,3.4804-9.3133,5.332-2.0875,1.2626-4.3554,2.4681-6.2403,4.0665,.1172-.4837,.2297-.9685,.3495-1.4515Zm29.8201-200.0939c-.7861,2.8106-1.6508,5.5688-2.9325,8.1986-1.2978,2.6632-2.8655,5.186-4.5331,7.6313-3.3977,4.982-6.8333,9.8436-9.5846,15.23-.4567,.8942-.927,1.7806-1.4041,2.663,.6485-2.3135,1.2219-4.6165,2.1508-6.8445,1.0141-2.4326,2.09-4.8415,3.1225-7.2667,2.0663-4.8537,4.126-9.7135,5.8962-14.685,1.797-5.0466,3.3876-10.1605,5.1215-15.2281,1.4437-4.2195,3.0526-8.3791,4.8039-12.4791,.1599-.074,.2931-.2185,.3205-.4398,.0807-.6509,.5382-1.2039,.8719-1.7452,.4019-.6522,.7615-1.3346,1.1065-2.0182,.2431-.4817,.472-.9701,.7031-1.4574-1.4122,9.5708-3.0354,19.1192-5.6427,28.4413Zm-15.1917,1.9546c2.2743-6.6466,5.3967-12.953,9.1067-18.9133,1.8486-2.97,3.8538-5.8484,6.0597-8.5649,1.96-2.4135,3.8445-4.9578,6.0205-7.182,.1013-.1036,.2068-.1997,.3095-.3006-.0398,.2789-.081,.5579-.1209,.8368-.1476,.0341-.2828,.1339-.3716,.3208-.6307,1.3261-1.2387,2.6635-1.8833,3.983-.3001-.1171-.6462-.0483-.8215,.3364-2.2322,4.8997-4.2731,9.8846-6.0892,14.9536-1.8661,5.2083-3.4999,10.4974-5.3454,15.7135-1.8599,5.2566-4.014,10.3926-6.2041,15.5182-1.0606,2.4822-2.1557,4.9505-3.207,7.4364-1.0289,2.4326-1.6641,4.9316-2.3838,7.4647-.4027,1.4173-.8253,2.8527-1.3956,4.2138-.0155,.0315-.0814,.1792-.0978,.2137-.0663,.1396-.1322,.2793-.198,.4191-.1792,.3807-.3547,.7629-.5203,1.1497-.2056,.4801-.542,1.2213-.7187,1.9631,2.2048-13.2853,3.4753-26.7449,7.8609-39.5619Zm-26.6109,260.0775c.1819,.0546,.3709,.0735,.552,.0563-.0132,.6724-.0345,1.3447-.0433,2.0172-.1628-.6928-.333-1.3838-.5087-2.0735Zm28.8958-179.951c-1.7957,4.2366-3.8236,8.3725-5.9273,12.4634-2.1283,4.1388-4.2648,8.2845-6.6148,12.303-2.3683,4.0499-5.169,7.8123-7.5771,11.8367-2.2953,3.8356-4.4588,7.7388-6.91,11.4789,.1686-.8121,.3387-1.6239,.5087-2.4357,.5857-2.7975,1.4853-5.4947,2.3951-8.2046,1.1352-3.3813,2.3738-6.7286,3.7029-10.0392,.5822-.9802,1.16-1.9629,1.7204-2.956,.7541-1.3362,1.4619-2.6924,2.304-3.9771,.8173-1.2469,1.7071-2.4442,2.5916-3.6439,1.7937-2.4328,3.3832-4.9903,5.093-7.4805,1.8336-2.6705,3.7105-5.3121,5.5586-7.9726,1.821-2.6216,3.7252-5.1858,5.5035-7.8372,.0966-.144,.1835-.2928,.2755-.4391-.8012,2.3258-1.6608,4.6306-2.6243,6.9039Zm-11.1215,7.9597c2.7694-4.8875,5.7695-9.6385,8.758-14.3936,2.8608-4.552,5.2087-9.3516,7.4109-14.2501,1.2176-2.7083,2.4774-5.4155,3.6707-8.1496-.1849,1.1734-.4313,2.3268-.7122,3.4892-.6931,2.8683-1.5613,5.6402-2.7405,8.346-1.1593,2.6598-1.9553,5.4798-3.3185,8.0493-1.4316,2.6985-3.4124,5.1492-5.1636,7.6452-1.8607,2.6521-3.6813,5.3334-5.5222,7.9993-1.7722,2.566-3.376,5.2465-5.171,7.7945-.7154,1.0156-1.4544,2.0162-2.1769,3.0278,1.5481-3.2397,3.1943-6.4326,4.9653-9.5581ZM76.4868,56.858c1.8494,1.3846,3.7955,2.6177,5.5852,4.0858,3.5973,2.9508,7.0021,6.3263,9.7282,10.1077,5.1502,7.1437,7.9927,15.5678,9.7511,24.1247,3.7444,18.2221,3.6481,36.8441,4.3262,55.3527-.2711-1.5671-.4671-3.1506-.6592-4.7262-.9471-7.7712-1.3606-15.617-2.8467-23.3157-.3819-1.9783-.8582-3.9365-1.2468-5.9137-.378-1.9229-.7412-3.8526-1.2756-5.7399-.517-1.8265-1.2703-3.572-1.8546-5.3763-.6297-1.9448-1.1858-3.915-1.7589-5.8771-1.1155-3.8187-2.2399-7.6374-3.6385-11.3642-1.3366-3.5608-2.8826-7.0399-4.4779-10.4911-1.8302-3.9596-3.5844-8.0004-5.787-11.7712-2.1173-3.6245-4.7565-6.9017-7.4739-10.0883-.0276-.0324-.0589-.0457-.0883-.0689-.0821-.1449-.1675-.2881-.2475-.4339,.7068,.4953,1.3694,1.05,1.9644,1.4955Zm2.5771,6.1338c.5977,.8504,1.1745,1.7157,1.7187,2.6039,1.1865,1.9364,2.2113,3.9629,3.1837,6.0152-.6703-1.2167-1.3544-2.4278-2.0517-3.6356-.9561-1.6562-1.8958-3.3246-2.8507-4.9835Zm24.2495,86.8939c-3.6838-10.8169-5.226-22.137-6.5461-33.4447-1.0415-8.9218-2.3239-17.7919-4.8764-26.3853,.913,2.6094,1.7324,5.2494,2.5063,7.9065,1.0881,3.7352,2.1583,7.4532,3.4697,11.117,1.3011,3.6351,1.8208,7.4682,2.6712,11.2201,1.7515,7.7283,2.2535,15.6458,3.1417,23.5003,.244,2.1586,.5176,4.3145,.8535,6.4609,.3329,2.126,.8688,4.1972,1.4274,6.2731,.0677,.252,.1279,.5056,.1918,.7585,.0019,.0461,.0036,.0922,.0056,.1382-.9801-2.5043-1.9788-5.0026-2.8447-7.5446Zm-59.936-11.2008c1.9025-1.3796,3.8962-2.583,6.2084-3.1135,1.9503-.4474,3.9976-.3614,5.948,.0403,4.1289,.8505,8.0724,2.6806,11.6241,4.9192,14.5382,9.1639,21.9628,25.461,28.6468,40.5878,3.2363,7.3242,6.2454,14.7504,8.9188,22.2968-1.595-1.7059-3.2712-3.3425-5.0847-4.799-1.0659-.856-2.1637-1.6689-3.268-2.4729-.5574-.9694-1.0996-1.9472-1.6353-2.9245-3.5382-6.4545-7.348-12.7828-11.6983-18.7294-2.2267-3.0437-4.677-5.8795-7.2161-8.6643-2.5584-2.806-5.1816-5.5569-7.9528-8.1546-2.6114-2.4481-5.3663-4.7345-8.2265-6.8862-2.7252-2.0501-5.6484-3.9458-8.9318-4.9615-1.7825-.5514-3.5671-.7029-5.4213-.7458-1.8783-.0435-3.7644-.122-5.6386,.0536-1.7013,.1594-3.3179,.5814-4.848,1.3349,2.7134-2.7512,5.4423-5.5092,8.5754-7.7811Zm47.7571,53.6348c-3.0623-2.3288-5.8678-5.019-8.697-7.6208-5.9673-5.4877-11.7705-11.1621-17.2553-17.1345-2.475-2.695-4.7851-5.536-7.5766-7.9189-2.5891-2.2101-5.4289-4.1097-8.438-5.6985-3.3403-1.7637-7.1615-3.8281-11.0359-3.7574-3.1245,.057-6.0249,1.3516-8.9347,2.4979,.0732-.1287,.144-.2588,.2182-.3869,.268-.4628,.5773-.8859,.9088-1.2883,.2455,.1274,.5557,.1308,.8184-.1042,2.4149-2.1606,4.9577-3.9332,8.2665-4.2846,1.6368-.1738,3.2905-.1272,4.9327-.0778,1.6177,.0486,3.2129,.0521,4.7974,.4269,3.2079,.7587,6.0777,2.513,8.718,4.4315,2.8196,2.0487,5.5155,4.288,8.0757,6.6516,2.6901,2.4835,5.2428,5.1126,7.7241,7.8035,2.456,2.6636,4.8889,5.3529,7.0743,8.2462,4.2622,5.6432,8.0836,11.7244,11.4735,17.9277,.3289,.602,.6569,1.2053,.9858,1.8083-.6899-.5009-1.3771-1.0056-2.0558-1.5217Zm-32.0897,12.9687c4.2613-.002,8.369-.6784,12.4676-1.8109,3.9158-1.0821,7.8669-2.4384,11.9631-2.5698,7.0748-.2269,13.1515,4.0539,17.4164,9.3485,2.0833,2.5864,3.7949,5.4772,5.3574,8.4005,1.7217,3.2211,3.3717,6.5253,4.7125,9.9241,3.5505,9.0004,5.0328,18.5784,4.9674,28.2274-.0048,.7122,.3951,1.1618,.9048,1.3552-.2444,1.453-.4778,2.9078-.6995,4.3642-.456-1.565-.937-3.1303-1.4335-4.6913,.4901,.2337,1.2534-.1651,1.0884-.8671-1.617-6.8817-3.7832-13.6243-6.9905-19.9407-1.59-3.1314-3.3315-6.2034-5.2195-9.1648-1.879-2.9471-3.9278-5.8847-6.3443-8.4211-4.4477-4.6687-10.5386-6.8235-16.7951-7.7765-3.6601-.5575-7.3621-.7302-11.0546-.9331-1.9361-.1064-3.873-.2026-5.8112-.2637-1.8676-.0588-3.75,.0035-5.6122-.1619-3.9352-.3494-7.3271-2.0231-10.307-4.5601-1.357-1.1554-2.8975-2.3443-4.0139-3.739-.0651-.0814-.122-.1676-.1829-.2514,.9303,.5385,1.8888,1.0297,2.9036,1.4274,3.9921,1.5645,8.4177,2.106,12.6831,2.104Zm-18.0333-5.0646c.0738,.2019,.1487,.4035,.2317,.6017-.3137-.3435-.621-.693-.9134-1.0549,.2271,.1514,.4542,.3027,.6818,.4532Zm62.4788,32.8646c-1.0302-1.6858-1.9124-3.4429-3.0925-5.0351-2.1031-2.8374-4.7412-5.1466-7.8821-6.7779-1.7271-.897-3.5542-1.5741-5.3694-2.2677-2.1195-.8099-4.2714-1.5895-6.5182-1.9609-2.4361-.4026-4.8836-.3222-7.3416-.2797-2.2722,.0393-4.4881-.0851-6.7283-.4716-2.27-.3916-4.5672-.9133-6.7187-1.7499-1.8941-.7367-3.629-1.892-5.2608-3.087-.1208-.0885-.2392-.1801-.3594-.2693,3.0512,.8457,6.1961,.7514,9.3548,.8545,3.8428,.1255,7.6933,.329,11.5271,.6198,6.4493,.4892,13.4499,1.6347,18.6834,5.7334,2.6455,2.0718,4.7393,4.8059,6.6583,7.5377,2.0766,2.9563,3.9212,6.0682,5.6482,9.2392,3.3867,6.2186,5.8071,12.7682,7.5959,19.5807-.4529-1.3315-.9169-2.6577-1.4074-3.9678-.7679-2.0513-1.6843-4.0418-2.4823-6.0815-.8033-2.0532-1.6073-4.12-2.7383-6.0196-1.1324-1.9018-2.4148-3.709-3.5688-5.5973Zm5.9647,40.9016c-.7476-4.087-1.4464-8.1854-1.9987-12.3039-.5552-4.1412-1.0335-8.285-1.6643-12.4167-.3395-2.2232-.722-4.4288-.715-6.6827,.0006-.183-.0036-.3642-.0066-.5457,.0585,.1188,.1258,.2327,.1821,.3527,.8545,1.8208,1.5073,3.729,2.2853,5.5826,1.9458,4.636,3.4752,9.3896,4.9958,14.18,1.0158,3.2004,1.9407,6.5634,2.3136,9.9485-.3935,3.3176-.7374,6.6397-1.0159,9.9647-.3159,3.7701-.5466,7.5458-.7115,11.3239-1.1613-6.4786-2.4807-12.9293-3.6648-19.4035ZM3.7747,244.6692c.453,.1824,.8865,.4127,1.3296,.6174,1.1744,.5424,2.3963,.8683,3.6511,1.1721,2.9476,.7135,5.9626,1.2044,8.9843,1.4641,3.0275,.2602,6.0437,.194,9.0214-.4607,3.0376-.6679,5.9115-1.8784,8.8333-2.9146,6.1232-2.1715,12.5405-3.1811,18.8859-4.4695,5.7671-1.1709,12.0548-2.231,17.6831,.1042,5.3319,2.2122,9.6596,6.9521,13.1401,11.4056,3.8297,4.9004,6.9748,10.3707,10.0007,15.7901,6.4963,11.6351,11.7095,23.9723,14.7446,36.9737,.189,.8097,.3675,1.6199,.5388,2.4308-.3638-.4492-.7196-.9051-1.0525-1.3799-1.3702-1.9554-2.4357-4.1162-3.6748-6.1538-1.2519-2.0588-2.5803-4.0728-3.9205-6.075-2.6495-3.9585-5.3747-7.8655-8.02-11.8269-2.5078-3.7556-5.025-7.5145-7.8938-11.0083-5.7196-6.9656-13.0508-12.8692-20.9171-17.2426-3.7476-2.0835-7.6922-3.989-11.9339-4.7973-4.6417-.8845-9.5229-.4129-14.1969-.0353-4.832,.3903-9.6776,.941-14.5324,.8275-4.8317-.1129-9.616-.8349-14.357-1.7327-1.1806-.2235-2.3589-.4578-3.5367-.6952-.6703-.1351-1.0927,.4732-1.0363,.9851-.7221-.8862-1.318-1.8771-1.741-2.9787Zm87.226,40.3814c-1.7811-1.9371-3.5549-3.8807-5.2056-5.9312-1.8059-2.2432-3.518-4.5621-5.3856-6.7554-3.6817-4.3237-8.159-7.943-12.9695-10.9417-2.4829-1.5478-5.0471-2.9936-7.7058-4.2182-2.6249-1.2091-5.4174-2.3564-8.2961-2.7661-2.8864-.4109-5.7801-.1792-8.6791-.0803-3.1204,.1064-6.2442,.165-9.3665,.1342-6.7316-.0664-13.648-.4775-20.1914-2.1702-2.7492-.7111-5.2989-2.0826-7.1592-4.0715,.0229,.0064,.0426,.0157,.067,.0206,4.6518,.9376,9.3257,1.8167,14.0568,2.2409,4.7304,.4242,9.4297,.1998,14.1543-.1893,4.7482-.3911,9.5013-.8797,14.272-.8075,4.3478,.0658,8.4308,1.3541,12.3124,3.2522,8.0012,3.9126,15.3781,9.39,21.4554,15.9026,3.0203,3.2366,5.6081,6.8348,8.0891,10.4922,2.5689,3.7873,5.1123,7.5911,7.6928,11.3707,2.4539,3.594,4.7991,7.23,7.0433,10.946-4.2229-5.8644-9.3137-11.1308-14.1842-16.428Zm17.9949,22.3717c.6768,.8377,1.3968,1.6405,2.0494,2.4974,.0683,.0897,.1378,.1818,.2078,.2751,.1975,1.0905,.3854,2.182,.5534,3.276-.6019-1.6081-1.2875-3.1932-2.1013-4.75-.2289-.4378-.4687-.8685-.7092-1.2986Z"/>
  </g>
</svg>