<svg xmlns="http://www.w3.org/2000/svg" xmlns:xlink="http://www.w3.org/1999/xlink" width="6912" zoomAndPan="magnify" viewBox="0 0 5184 2015.999918" height="2688" preserveAspectRatio="xMidYMid meet" version="1.0"><defs><g/></defs><g fill="#fdeccb" fill-opacity="0.4"><g transform="translate(-22.377051, 1376.505054)"><g><path d="M 441.4375 -176.15625 C 441.4375 -140.238281 444.195312 -114.332031 449.71875 -98.4375 C 455.25 -82.550781 465.957031 -71.84375 481.84375 -66.3125 C 497.726562 -60.789062 523.632812 -58.03125 559.5625 -58.03125 L 630.03125 -58.03125 C 737.789062 -58.03125 831.046875 -86.695312 909.796875 -144.03125 C 988.554688 -201.375 1041.0625 -279.09375 1067.3125 -377.1875 C 1067.3125 -379.945312 1070.078125 -381.328125 1075.609375 -381.328125 C 1078.367188 -381.328125 1081.472656 -380.289062 1084.921875 -378.21875 C 1088.378906 -376.144531 1090.109375 -374.421875 1090.109375 -373.046875 C 1077.671875 -236.265625 1071.453125 -122.28125 1071.453125 -31.09375 C 1071.453125 -20.03125 1069.035156 -12.082031 1064.203125 -7.25 C 1059.367188 -2.414062 1051.425781 0 1040.375 0 L 62.171875 0 C 59.410156 0 58.03125 -4.144531 58.03125 -12.4375 C 58.03125 -20.726562 59.410156 -24.875 62.171875 -24.875 C 106.378906 -24.875 138.5 -28.328125 158.53125 -35.234375 C 178.570312 -42.140625 192.390625 -55.609375 199.984375 -75.640625 C 207.585938 -95.671875 211.390625 -126.414062 211.390625 -167.875 L 211.390625 -1127.421875 C 211.390625 -1168.867188 207.585938 -1199.257812 199.984375 -1218.59375 C 192.390625 -1237.9375 178.226562 -1251.40625 157.5 -1259 C 136.78125 -1266.601562 105.003906 -1270.40625 62.171875 -1270.40625 C 59.410156 -1270.40625 58.03125 -1274.550781 58.03125 -1282.84375 C 58.03125 -1291.132812 59.410156 -1295.28125 62.171875 -1295.28125 L 167.875 -1293.203125 C 231.425781 -1290.441406 283.925781 -1289.0625 325.375 -1289.0625 C 366.820312 -1289.0625 419.320312 -1290.441406 482.875 -1293.203125 L 588.578125 -1295.28125 C 592.722656 -1295.28125 594.796875 -1291.132812 594.796875 -1282.84375 C 594.796875 -1274.550781 592.722656 -1270.40625 588.578125 -1270.40625 C 545.742188 -1270.40625 513.960938 -1266.601562 493.234375 -1259 C 472.515625 -1251.40625 458.703125 -1237.59375 451.796875 -1217.5625 C 444.890625 -1197.53125 441.4375 -1166.789062 441.4375 -1125.34375 Z M 441.4375 -176.15625 "/></g></g></g><g fill="#fdeccb" fill-opacity="0.4"><g transform="translate(1107.017653, 1376.505054)"><g><path d="M 758.515625 24.875 C 630.023438 24.875 515.695312 -5.175781 415.53125 -65.28125 C 315.363281 -125.382812 237.988281 -206.898438 183.40625 -309.828125 C 128.832031 -412.765625 101.546875 -525.023438 101.546875 -646.609375 C 101.546875 -788.910156 137.46875 -910.835938 209.3125 -1012.390625 C 281.15625 -1113.941406 373.378906 -1190.273438 485.984375 -1241.390625 C 598.585938 -1292.515625 713.609375 -1318.078125 831.046875 -1318.078125 C 962.304688 -1318.078125 1077.675781 -1287.332031 1177.15625 -1225.84375 C 1276.632812 -1164.363281 1352.96875 -1083.191406 1406.15625 -982.328125 C 1459.351562 -881.472656 1485.953125 -774.398438 1485.953125 -661.109375 C 1485.953125 -535.378906 1452.789062 -420.007812 1386.46875 -315 C 1320.15625 -210 1231.382812 -127.101562 1120.15625 -66.3125 C 1008.9375 -5.519531 888.390625 24.875 758.515625 24.875 Z M 826.90625 -26.9375 C 904.28125 -26.9375 973.707031 -49.390625 1035.1875 -94.296875 C 1096.675781 -139.203125 1144.6875 -204.828125 1179.21875 -291.171875 C 1213.757812 -377.523438 1231.03125 -480.804688 1231.03125 -601.015625 C 1231.03125 -728.117188 1211.6875 -841.753906 1173 -941.921875 C 1134.320312 -1042.097656 1078.367188 -1120.507812 1005.140625 -1177.15625 C 931.910156 -1233.800781 846.25 -1262.125 748.15625 -1262.125 C 622.425781 -1262.125 525.710938 -1214.800781 458.015625 -1120.15625 C 390.316406 -1025.519531 356.46875 -893.226562 356.46875 -723.28125 C 356.46875 -589.269531 376.84375 -469.414062 417.59375 -363.71875 C 458.351562 -258.019531 514.3125 -175.460938 585.46875 -116.046875 C 656.625 -56.640625 737.101562 -26.9375 826.90625 -26.9375 Z M 826.90625 -26.9375 "/></g></g></g><g fill="#fdeccb" fill-opacity="0.4"><g transform="translate(2694.387154, 1376.505054)"><g><path d="M 1378.1875 -1295.28125 C 1382.332031 -1295.28125 1384.40625 -1291.132812 1384.40625 -1282.84375 C 1384.40625 -1274.550781 1382.332031 -1270.40625 1378.1875 -1270.40625 C 1328.445312 -1270.40625 1280.78125 -1248.300781 1235.1875 -1204.09375 C 1189.59375 -1159.882812 1152.976562 -1100.472656 1125.34375 -1025.859375 L 741.9375 -2.078125 C 740.550781 3.453125 732.953125 6.21875 719.140625 6.21875 C 705.328125 6.21875 697.726562 3.453125 696.34375 -2.078125 L 167.875 -1123.265625 C 143 -1173.003906 118.125 -1209.960938 93.25 -1234.140625 C 68.382812 -1258.316406 40.753906 -1270.40625 10.359375 -1270.40625 C 6.210938 -1270.40625 4.140625 -1274.550781 4.140625 -1282.84375 C 4.140625 -1291.132812 6.210938 -1295.28125 10.359375 -1295.28125 C 31.085938 -1295.28125 45.597656 -1294.585938 53.890625 -1293.203125 C 81.515625 -1290.441406 117.4375 -1289.0625 161.65625 -1289.0625 C 280.46875 -1289.0625 381.328125 -1290.441406 464.234375 -1293.203125 C 486.335938 -1294.585938 513.96875 -1295.28125 547.125 -1295.28125 C 551.269531 -1295.28125 553.34375 -1291.132812 553.34375 -1282.84375 C 553.34375 -1274.550781 551.269531 -1270.40625 547.125 -1270.40625 C 505.675781 -1270.40625 473.550781 -1261.769531 450.75 -1244.5 C 427.957031 -1227.238281 416.5625 -1202.71875 416.5625 -1170.9375 C 416.5625 -1147.445312 424.160156 -1119.125 439.359375 -1085.96875 L 797.890625 -321.234375 L 1067.3125 -1032.078125 C 1081.125 -1070.765625 1088.03125 -1103.925781 1088.03125 -1131.5625 C 1088.03125 -1174.394531 1075.25 -1208.242188 1049.6875 -1233.109375 C 1024.132812 -1257.972656 987.179688 -1270.40625 938.828125 -1270.40625 C 934.679688 -1270.40625 932.609375 -1274.550781 932.609375 -1282.84375 C 932.609375 -1291.132812 934.679688 -1295.28125 938.828125 -1295.28125 L 1040.375 -1293.203125 C 1098.40625 -1290.441406 1150.21875 -1289.0625 1195.8125 -1289.0625 C 1222.0625 -1289.0625 1254.523438 -1290.441406 1293.203125 -1293.203125 Z M 1378.1875 -1295.28125 "/></g></g></g><g fill="#fdeccb" fill-opacity="0.4"><g transform="translate(4062.094794, 1376.505054)"><g><path d="M 1027.9375 -329.515625 C 1027.9375 -332.285156 1030.695312 -333.671875 1036.21875 -333.671875 C 1040.363281 -333.671875 1044.164062 -332.632812 1047.625 -330.5625 C 1051.082031 -328.488281 1052.8125 -326.757812 1052.8125 -325.375 C 1038.988281 -217.601562 1032.078125 -119.507812 1032.078125 -31.09375 C 1032.078125 -20.03125 1030.003906 -12.082031 1025.859375 -7.25 C 1021.710938 -2.414062 1013.425781 0 1001 0 L 84.96875 0 C 80.820312 0 78.75 -4.144531 78.75 -12.4375 C 78.75 -20.726562 80.820312 -24.875 84.96875 -24.875 C 129.1875 -24.875 161.3125 -28.328125 181.34375 -35.234375 C 201.375 -42.140625 214.84375 -55.609375 221.75 -75.640625 C 228.65625 -95.671875 232.109375 -126.414062 232.109375 -167.875 L 232.109375 -1127.421875 C 232.109375 -1168.867188 228.65625 -1199.257812 221.75 -1218.59375 C 214.84375 -1237.9375 201.023438 -1251.40625 180.296875 -1259 C 159.578125 -1266.601562 127.800781 -1270.40625 84.96875 -1270.40625 C 80.820312 -1270.40625 78.75 -1274.550781 78.75 -1282.84375 C 78.75 -1291.132812 80.820312 -1295.28125 84.96875 -1295.28125 L 963.6875 -1295.28125 C 977.507812 -1295.28125 984.421875 -1289.0625 984.421875 -1276.625 L 988.5625 -1001 C 988.5625 -998.226562 984.757812 -996.148438 977.15625 -994.765625 C 969.5625 -993.390625 965.070312 -994.773438 963.6875 -998.921875 C 941.582031 -1079.054688 904.28125 -1138.46875 851.78125 -1177.15625 C 799.28125 -1215.84375 730.195312 -1235.1875 644.53125 -1235.1875 L 582.359375 -1235.1875 C 540.910156 -1235.1875 510.515625 -1226.203125 491.171875 -1208.234375 C 471.828125 -1190.273438 462.15625 -1162.644531 462.15625 -1125.34375 L 462.15625 -702.5625 L 634.171875 -702.5625 C 714.304688 -702.5625 775.785156 -716.375 818.609375 -744 C 861.441406 -771.632812 882.859375 -810.320312 882.859375 -860.0625 C 882.859375 -864.207031 886.65625 -866.28125 894.25 -866.28125 C 901.851562 -866.28125 905.65625 -864.207031 905.65625 -860.0625 L 903.59375 -673.546875 L 905.65625 -574.0625 C 908.425781 -527.09375 909.8125 -489.789062 909.8125 -462.15625 C 909.8125 -459.394531 905.664062 -458.015625 897.375 -458.015625 C 889.082031 -458.015625 884.9375 -459.394531 884.9375 -462.15625 C 884.9375 -518.800781 863.175781 -563.359375 819.65625 -595.828125 C 776.132812 -628.296875 713.613281 -644.53125 632.09375 -644.53125 L 462.15625 -644.53125 L 462.15625 -176.15625 C 462.15625 -136.09375 469.753906 -106.390625 484.953125 -87.046875 C 500.148438 -67.703125 524.328125 -58.03125 557.484375 -58.03125 L 625.875 -58.03125 C 733.644531 -58.03125 820 -80.132812 884.9375 -124.34375 C 949.875 -168.5625 997.539062 -236.953125 1027.9375 -329.515625 Z M 1027.9375 -329.515625 "/></g></g></g><g fill="#fffaf0" fill-opacity="1"><g transform="translate(-22.377051, 1376.505054)"><g><path d="M 441.4375 -176.15625 C 441.4375 -140.238281 444.195312 -114.332031 449.71875 -98.4375 C 455.25 -82.550781 465.957031 -71.84375 481.84375 -66.3125 C 497.726562 -60.789062 523.632812 -58.03125 559.5625 -58.03125 L 630.03125 -58.03125 C 737.789062 -58.03125 831.046875 -86.695312 909.796875 -144.03125 C 988.554688 -201.375 1041.0625 -279.09375 1067.3125 -377.1875 C 1067.3125 -379.945312 1070.078125 -381.328125 1075.609375 -381.328125 C 1078.367188 -381.328125 1081.472656 -380.289062 1084.921875 -378.21875 C 1088.378906 -376.144531 1090.109375 -374.421875 1090.109375 -373.046875 C 1077.671875 -236.265625 1071.453125 -122.28125 1071.453125 -31.09375 C 1071.453125 -20.03125 1069.035156 -12.082031 1064.203125 -7.25 C 1059.367188 -2.414062 1051.425781 0 1040.375 0 L 62.171875 0 C 59.410156 0 58.03125 -4.144531 58.03125 -12.4375 C 58.03125 -20.726562 59.410156 -24.875 62.171875 -24.875 C 106.378906 -24.875 138.5 -28.328125 158.53125 -35.234375 C 178.570312 -42.140625 192.390625 -55.609375 199.984375 -75.640625 C 207.585938 -95.671875 211.390625 -126.414062 211.390625 -167.875 L 211.390625 -1127.421875 C 211.390625 -1168.867188 207.585938 -1199.257812 199.984375 -1218.59375 C 192.390625 -1237.9375 178.226562 -1251.40625 157.5 -1259 C 136.78125 -1266.601562 105.003906 -1270.40625 62.171875 -1270.40625 C 59.410156 -1270.40625 58.03125 -1274.550781 58.03125 -1282.84375 C 58.03125 -1291.132812 59.410156 -1295.28125 62.171875 -1295.28125 L 167.875 -1293.203125 C 231.425781 -1290.441406 283.925781 -1289.0625 325.375 -1289.0625 C 366.820312 -1289.0625 419.320312 -1290.441406 482.875 -1293.203125 L 588.578125 -1295.28125 C 592.722656 -1295.28125 594.796875 -1291.132812 594.796875 -1282.84375 C 594.796875 -1274.550781 592.722656 -1270.40625 588.578125 -1270.40625 C 545.742188 -1270.40625 513.960938 -1266.601562 493.234375 -1259 C 472.515625 -1251.40625 458.703125 -1237.59375 451.796875 -1217.5625 C 444.890625 -1197.53125 441.4375 -1166.789062 441.4375 -1125.34375 Z M 441.4375 -176.15625 "/></g></g></g><g fill="#fffaf0" fill-opacity="1"><g transform="translate(1107.017653, 1376.505054)"><g><path d="M 758.515625 24.875 C 630.023438 24.875 515.695312 -5.175781 415.53125 -65.28125 C 315.363281 -125.382812 237.988281 -206.898438 183.40625 -309.828125 C 128.832031 -412.765625 101.546875 -525.023438 101.546875 -646.609375 C 101.546875 -788.910156 137.46875 -910.835938 209.3125 -1012.390625 C 281.15625 -1113.941406 373.378906 -1190.273438 485.984375 -1241.390625 C 598.585938 -1292.515625 713.609375 -1318.078125 831.046875 -1318.078125 C 962.304688 -1318.078125 1077.675781 -1287.332031 1177.15625 -1225.84375 C 1276.632812 -1164.363281 1352.96875 -1083.191406 1406.15625 -982.328125 C 1459.351562 -881.472656 1485.953125 -774.398438 1485.953125 -661.109375 C 1485.953125 -535.378906 1452.789062 -420.007812 1386.46875 -315 C 1320.15625 -210 1231.382812 -127.101562 1120.15625 -66.3125 C 1008.9375 -5.519531 888.390625 24.875 758.515625 24.875 Z M 826.90625 -26.9375 C 904.28125 -26.9375 973.707031 -49.390625 1035.1875 -94.296875 C 1096.675781 -139.203125 1144.6875 -204.828125 1179.21875 -291.171875 C 1213.757812 -377.523438 1231.03125 -480.804688 1231.03125 -601.015625 C 1231.03125 -728.117188 1211.6875 -841.753906 1173 -941.921875 C 1134.320312 -1042.097656 1078.367188 -1120.507812 1005.140625 -1177.15625 C 931.910156 -1233.800781 846.25 -1262.125 748.15625 -1262.125 C 622.425781 -1262.125 525.710938 -1214.800781 458.015625 -1120.15625 C 390.316406 -1025.519531 356.46875 -893.226562 356.46875 -723.28125 C 356.46875 -589.269531 376.84375 -469.414062 417.59375 -363.71875 C 458.351562 -258.019531 514.3125 -175.460938 585.46875 -116.046875 C 656.625 -56.640625 737.101562 -26.9375 826.90625 -26.9375 Z M 826.90625 -26.9375 "/></g></g></g><g fill="#fffaf0" fill-opacity="1"><g transform="translate(2694.387154, 1376.505054)"><g><path d="M 1378.1875 -1295.28125 C 1382.332031 -1295.28125 1384.40625 -1291.132812 1384.40625 -1282.84375 C 1384.40625 -1274.550781 1382.332031 -1270.40625 1378.1875 -1270.40625 C 1328.445312 -1270.40625 1280.78125 -1248.300781 1235.1875 -1204.09375 C 1189.59375 -1159.882812 1152.976562 -1100.472656 1125.34375 -1025.859375 L 741.9375 -2.078125 C 740.550781 3.453125 732.953125 6.21875 719.140625 6.21875 C 705.328125 6.21875 697.726562 3.453125 696.34375 -2.078125 L 167.875 -1123.265625 C 143 -1173.003906 118.125 -1209.960938 93.25 -1234.140625 C 68.382812 -1258.316406 40.753906 -1270.40625 10.359375 -1270.40625 C 6.210938 -1270.40625 4.140625 -1274.550781 4.140625 -1282.84375 C 4.140625 -1291.132812 6.210938 -1295.28125 10.359375 -1295.28125 C 31.085938 -1295.28125 45.597656 -1294.585938 53.890625 -1293.203125 C 81.515625 -1290.441406 117.4375 -1289.0625 161.65625 -1289.0625 C 280.46875 -1289.0625 381.328125 -1290.441406 464.234375 -1293.203125 C 486.335938 -1294.585938 513.96875 -1295.28125 547.125 -1295.28125 C 551.269531 -1295.28125 553.34375 -1291.132812 553.34375 -1282.84375 C 553.34375 -1274.550781 551.269531 -1270.40625 547.125 -1270.40625 C 505.675781 -1270.40625 473.550781 -1261.769531 450.75 -1244.5 C 427.957031 -1227.238281 416.5625 -1202.71875 416.5625 -1170.9375 C 416.5625 -1147.445312 424.160156 -1119.125 439.359375 -1085.96875 L 797.890625 -321.234375 L 1067.3125 -1032.078125 C 1081.125 -1070.765625 1088.03125 -1103.925781 1088.03125 -1131.5625 C 1088.03125 -1174.394531 1075.25 -1208.242188 1049.6875 -1233.109375 C 1024.132812 -1257.972656 987.179688 -1270.40625 938.828125 -1270.40625 C 934.679688 -1270.40625 932.609375 -1274.550781 932.609375 -1282.84375 C 932.609375 -1291.132812 934.679688 -1295.28125 938.828125 -1295.28125 L 1040.375 -1293.203125 C 1098.40625 -1290.441406 1150.21875 -1289.0625 1195.8125 -1289.0625 C 1222.0625 -1289.0625 1254.523438 -1290.441406 1293.203125 -1293.203125 Z M 1378.1875 -1295.28125 "/></g></g></g><g fill="#fffaf0" fill-opacity="1"><g transform="translate(4062.094794, 1376.505054)"><g><path d="M 1027.9375 -329.515625 C 1027.9375 -332.285156 1030.695312 -333.671875 1036.21875 -333.671875 C 1040.363281 -333.671875 1044.164062 -332.632812 1047.625 -330.5625 C 1051.082031 -328.488281 1052.8125 -326.757812 1052.8125 -325.375 C 1038.988281 -217.601562 1032.078125 -119.507812 1032.078125 -31.09375 C 1032.078125 -20.03125 1030.003906 -12.082031 1025.859375 -7.25 C 1021.710938 -2.414062 1013.425781 0 1001 0 L 84.96875 0 C 80.820312 0 78.75 -4.144531 78.75 -12.4375 C 78.75 -20.726562 80.820312 -24.875 84.96875 -24.875 C 129.1875 -24.875 161.3125 -28.328125 181.34375 -35.234375 C 201.375 -42.140625 214.84375 -55.609375 221.75 -75.640625 C 228.65625 -95.671875 232.109375 -126.414062 232.109375 -167.875 L 232.109375 -1127.421875 C 232.109375 -1168.867188 228.65625 -1199.257812 221.75 -1218.59375 C 214.84375 -1237.9375 201.023438 -1251.40625 180.296875 -1259 C 159.578125 -1266.601562 127.800781 -1270.40625 84.96875 -1270.40625 C 80.820312 -1270.40625 78.75 -1274.550781 78.75 -1282.84375 C 78.75 -1291.132812 80.820312 -1295.28125 84.96875 -1295.28125 L 963.6875 -1295.28125 C 977.507812 -1295.28125 984.421875 -1289.0625 984.421875 -1276.625 L 988.5625 -1001 C 988.5625 -998.226562 984.757812 -996.148438 977.15625 -994.765625 C 969.5625 -993.390625 965.070312 -994.773438 963.6875 -998.921875 C 941.582031 -1079.054688 904.28125 -1138.46875 851.78125 -1177.15625 C 799.28125 -1215.84375 730.195312 -1235.1875 644.53125 -1235.1875 L 582.359375 -1235.1875 C 540.910156 -1235.1875 510.515625 -1226.203125 491.171875 -1208.234375 C 471.828125 -1190.273438 462.15625 -1162.644531 462.15625 -1125.34375 L 462.15625 -702.5625 L 634.171875 -702.5625 C 714.304688 -702.5625 775.785156 -716.375 818.609375 -744 C 861.441406 -771.632812 882.859375 -810.320312 882.859375 -860.0625 C 882.859375 -864.207031 886.65625 -866.28125 894.25 -866.28125 C 901.851562 -866.28125 905.65625 -864.207031 905.65625 -860.0625 L 903.59375 -673.546875 L 905.65625 -574.0625 C 908.425781 -527.09375 909.8125 -489.789062 909.8125 -462.15625 C 909.8125 -459.394531 905.664062 -458.015625 897.375 -458.015625 C 889.082031 -458.015625 884.9375 -459.394531 884.9375 -462.15625 C 884.9375 -518.800781 863.175781 -563.359375 819.65625 -595.828125 C 776.132812 -628.296875 713.613281 -644.53125 632.09375 -644.53125 L 462.15625 -644.53125 L 462.15625 -176.15625 C 462.15625 -136.09375 469.753906 -106.390625 484.953125 -87.046875 C 500.148438 -67.703125 524.328125 -58.03125 557.484375 -58.03125 L 625.875 -58.03125 C 733.644531 -58.03125 820 -80.132812 884.9375 -124.34375 C 949.875 -168.5625 997.539062 -236.953125 1027.9375 -329.515625 Z M 1027.9375 -329.515625 "/></g></g></g><g fill="#fdeccb" fill-opacity="0.4"><g transform="translate(29.14678, 1965.753535)"><g><path d="M 131.4375 -356.4375 C 84.46875 -356.4375 50.722656 -325.84375 30.203125 -264.65625 C 29.804688 -263.46875 28.617188 -262.972656 26.640625 -263.171875 C 24.671875 -263.367188 23.6875 -264.0625 23.6875 -265.25 C 25.257812 -281.039062 27.03125 -301.46875 29 -326.53125 C 30.976562 -351.59375 31.96875 -370.441406 31.96875 -383.078125 C 31.96875 -385.046875 33.050781 -386.03125 35.21875 -386.03125 C 37.394531 -386.03125 38.484375 -385.046875 38.484375 -383.078125 C 38.484375 -374.390625 49.734375 -370.046875 72.234375 -370.046875 C 106.179688 -368.859375 145.847656 -368.265625 191.234375 -368.265625 C 214.523438 -368.265625 239.195312 -368.660156 265.25 -369.453125 L 305.515625 -370.046875 C 320.515625 -370.046875 331.46875 -371.03125 338.375 -373 C 345.28125 -374.976562 349.71875 -378.925781 351.6875 -384.84375 C 352.082031 -386.425781 353.363281 -387.21875 355.53125 -387.21875 C 357.707031 -387.21875 358.796875 -386.425781 358.796875 -384.84375 C 357.609375 -373.007812 356.320312 -354.066406 354.9375 -328.015625 C 353.5625 -301.960938 352.875 -281.039062 352.875 -265.25 C 352.875 -264.0625 351.882812 -263.46875 349.90625 -263.46875 C 347.9375 -263.46875 346.753906 -264.0625 346.359375 -265.25 C 340.441406 -295.644531 329.390625 -318.441406 313.203125 -333.640625 C 297.023438 -348.835938 277.09375 -356.4375 253.40625 -356.4375 C 241.957031 -356.4375 234.359375 -353.96875 230.609375 -349.03125 C 226.859375 -344.09375 224.984375 -334.71875 224.984375 -320.90625 L 224.984375 -47.953125 C 224.984375 -35.722656 226.164062 -26.84375 228.53125 -21.3125 C 230.90625 -15.789062 235.445312 -12.039062 242.15625 -10.0625 C 248.863281 -8.09375 259.519531 -7.109375 274.125 -7.109375 C 275.3125 -7.109375 275.90625 -5.921875 275.90625 -3.546875 C 275.90625 -1.179688 275.3125 0 274.125 0 C 259.914062 0 248.671875 -0.195312 240.390625 -0.59375 L 191.234375 -1.1875 L 143.28125 -0.59375 C 134.988281 -0.195312 123.539062 0 108.9375 0 C 107.757812 0 107.171875 -1.179688 107.171875 -3.546875 C 107.171875 -5.921875 107.757812 -7.109375 108.9375 -7.109375 C 123.144531 -7.109375 133.703125 -8.09375 140.609375 -10.0625 C 147.523438 -12.039062 152.265625 -15.890625 154.828125 -21.609375 C 157.390625 -27.335938 158.671875 -36.117188 158.671875 -47.953125 L 158.671875 -322.09375 C 158.671875 -335.507812 156.894531 -344.585938 153.34375 -349.328125 C 149.789062 -354.066406 142.488281 -356.4375 131.4375 -356.4375 Z M 131.4375 -356.4375 "/></g></g></g><g fill="#fdeccb" fill-opacity="0.4"><g transform="translate(409.854501, 1965.753535)"><g><path d="M 433.40625 -7.109375 C 434.582031 -7.109375 435.171875 -5.921875 435.171875 -3.546875 C 435.171875 -1.179688 434.582031 0 433.40625 0 C 419.582031 0 408.53125 -0.195312 400.25 -0.59375 L 354.65625 -1.1875 L 301.375 -0.59375 C 294.257812 -0.195312 284.585938 0 272.359375 0 C 271.171875 0 270.578125 -1.179688 270.578125 -3.546875 C 270.578125 -5.921875 271.171875 -7.109375 272.359375 -7.109375 C 286.960938 -7.109375 297.617188 -8.09375 304.328125 -10.0625 C 311.035156 -12.039062 315.570312 -15.789062 317.9375 -21.3125 C 320.3125 -26.84375 321.5 -35.722656 321.5 -47.953125 L 321.5 -184.140625 L 130.25 -184.140625 L 130.25 -47.953125 C 130.25 -36.117188 131.429688 -27.335938 133.796875 -21.609375 C 136.171875 -15.890625 140.710938 -12.039062 147.421875 -10.0625 C 154.140625 -8.09375 164.800781 -7.109375 179.40625 -7.109375 C 180.1875 -7.109375 180.578125 -5.921875 180.578125 -3.546875 C 180.578125 -1.179688 180.1875 0 179.40625 0 C 165.582031 0 154.53125 -0.195312 146.25 -0.59375 L 94.734375 -1.1875 L 50.328125 -0.59375 C 42.429688 -0.195312 31.578125 0 17.765625 0 C 16.972656 0 16.578125 -1.179688 16.578125 -3.546875 C 16.578125 -5.921875 16.972656 -7.109375 17.765625 -7.109375 C 31.578125 -7.109375 41.640625 -8.09375 47.953125 -10.0625 C 54.273438 -12.039062 58.617188 -15.890625 60.984375 -21.609375 C 63.347656 -27.335938 64.53125 -36.117188 64.53125 -47.953125 L 64.53125 -322.09375 C 64.53125 -333.9375 63.347656 -342.617188 60.984375 -348.140625 C 58.617188 -353.671875 54.375 -357.519531 48.25 -359.6875 C 42.132812 -361.851562 32.367188 -362.9375 18.953125 -362.9375 C 17.765625 -362.9375 17.171875 -364.117188 17.171875 -366.484375 C 17.171875 -368.859375 17.765625 -370.046875 18.953125 -370.046875 L 50.921875 -369.453125 C 69.078125 -368.660156 83.679688 -368.265625 94.734375 -368.265625 C 109.734375 -368.265625 127.097656 -368.660156 146.828125 -369.453125 L 179.40625 -370.046875 C 180.1875 -370.046875 180.578125 -368.859375 180.578125 -366.484375 C 180.578125 -364.117188 180.1875 -362.9375 179.40625 -362.9375 C 165.1875 -362.9375 154.722656 -361.753906 148.015625 -359.390625 C 141.304688 -357.023438 136.664062 -352.976562 134.09375 -347.25 C 131.53125 -341.53125 130.25 -332.75 130.25 -320.90625 L 130.25 -200.71875 L 321.5 -200.71875 L 321.5 -320.90625 C 321.5 -332.75 320.3125 -341.53125 317.9375 -347.25 C 315.570312 -352.976562 311.035156 -357.023438 304.328125 -359.390625 C 297.617188 -361.753906 286.960938 -362.9375 272.359375 -362.9375 C 271.171875 -362.9375 270.578125 -364.117188 270.578125 -366.484375 C 270.578125 -368.859375 271.171875 -370.046875 272.359375 -370.046875 L 301.375 -369.453125 C 321.101562 -368.660156 338.863281 -368.265625 354.65625 -368.265625 C 365.3125 -368.265625 380.507812 -368.660156 400.25 -369.453125 L 433.40625 -370.046875 C 434.582031 -370.046875 435.171875 -368.859375 435.171875 -366.484375 C 435.171875 -364.117188 434.582031 -362.9375 433.40625 -362.9375 C 419.976562 -362.9375 410.007812 -361.851562 403.5 -359.6875 C 396.988281 -357.519531 392.644531 -353.671875 390.46875 -348.140625 C 388.300781 -342.617188 387.21875 -333.9375 387.21875 -322.09375 L 387.21875 -47.953125 C 387.21875 -36.117188 388.300781 -27.335938 390.46875 -21.609375 C 392.644531 -15.890625 396.890625 -12.039062 403.203125 -10.0625 C 409.515625 -8.09375 419.582031 -7.109375 433.40625 -7.109375 Z M 433.40625 -7.109375 "/></g></g></g><g fill="#fdeccb" fill-opacity="0.4"><g transform="translate(862.203901, 1965.753535)"><g><path d="M 424.515625 -7.109375 C 426.492188 -7.109375 427.484375 -5.921875 427.484375 -3.546875 C 427.484375 -1.179688 426.492188 0 424.515625 0 C 416.617188 0 404.382812 -0.394531 387.8125 -1.1875 C 370.445312 -1.976562 358.015625 -2.375 350.515625 -2.375 C 340.640625 -2.375 328.597656 -1.976562 314.390625 -1.1875 C 300.972656 -0.394531 290.316406 0 282.421875 0 C 280.835938 0 280.046875 -1.179688 280.046875 -3.546875 C 280.046875 -5.921875 280.835938 -7.109375 282.421875 -7.109375 C 292.679688 -7.109375 300.082031 -8.191406 304.625 -10.359375 C 309.164062 -12.535156 311.4375 -16.382812 311.4375 -21.90625 C 311.4375 -28.613281 307.488281 -39.863281 299.59375 -55.65625 L 238.015625 -177.03125 L 132.625 -177.03125 L 90.59375 -84.078125 C 85.457031 -72.628906 82.890625 -61.972656 82.890625 -52.109375 C 82.890625 -37.890625 87.921875 -26.832031 97.984375 -18.9375 C 108.054688 -11.050781 121.578125 -7.109375 138.546875 -7.109375 C 140.515625 -7.109375 141.5 -5.921875 141.5 -3.546875 C 141.5 -1.179688 140.515625 0 138.546875 0 C 131.441406 0 121.179688 -0.394531 107.765625 -1.1875 C 92.765625 -1.976562 79.738281 -2.375 68.6875 -2.375 C 58.019531 -2.375 45.191406 -1.976562 30.203125 -1.1875 C 16.773438 -0.394531 5.914062 0 -2.375 0 C -3.945312 0 -4.734375 -1.179688 -4.734375 -3.546875 C -4.734375 -5.921875 -3.945312 -7.109375 -2.375 -7.109375 C 8.675781 -7.109375 17.953125 -9.375 25.453125 -13.90625 C 32.953125 -18.445312 40.453125 -26.539062 47.953125 -38.1875 C 55.453125 -49.832031 64.335938 -67.101562 74.609375 -90 L 203.078125 -372.421875 C 203.867188 -373.597656 205.644531 -374.1875 208.40625 -374.1875 C 211.5625 -374.1875 213.335938 -373.597656 213.734375 -372.421875 L 361.765625 -81.109375 C 375.578125 -53.085938 387.019531 -33.75 396.09375 -23.09375 C 405.175781 -12.4375 414.648438 -7.109375 424.515625 -7.109375 Z M 140.328125 -193.609375 L 229.71875 -193.609375 L 182.359375 -287.15625 Z M 140.328125 -193.609375 "/></g></g></g><g fill="#fdeccb" fill-opacity="0.4"><g transform="translate(1286.13344, 1965.753535)"><g><path d="M 131.4375 -356.4375 C 84.46875 -356.4375 50.722656 -325.84375 30.203125 -264.65625 C 29.804688 -263.46875 28.617188 -262.972656 26.640625 -263.171875 C 24.671875 -263.367188 23.6875 -264.0625 23.6875 -265.25 C 25.257812 -281.039062 27.03125 -301.46875 29 -326.53125 C 30.976562 -351.59375 31.96875 -370.441406 31.96875 -383.078125 C 31.96875 -385.046875 33.050781 -386.03125 35.21875 -386.03125 C 37.394531 -386.03125 38.484375 -385.046875 38.484375 -383.078125 C 38.484375 -374.390625 49.734375 -370.046875 72.234375 -370.046875 C 106.179688 -368.859375 145.847656 -368.265625 191.234375 -368.265625 C 214.523438 -368.265625 239.195312 -368.660156 265.25 -369.453125 L 305.515625 -370.046875 C 320.515625 -370.046875 331.46875 -371.03125 338.375 -373 C 345.28125 -374.976562 349.71875 -378.925781 351.6875 -384.84375 C 352.082031 -386.425781 353.363281 -387.21875 355.53125 -387.21875 C 357.707031 -387.21875 358.796875 -386.425781 358.796875 -384.84375 C 357.609375 -373.007812 356.320312 -354.066406 354.9375 -328.015625 C 353.5625 -301.960938 352.875 -281.039062 352.875 -265.25 C 352.875 -264.0625 351.882812 -263.46875 349.90625 -263.46875 C 347.9375 -263.46875 346.753906 -264.0625 346.359375 -265.25 C 340.441406 -295.644531 329.390625 -318.441406 313.203125 -333.640625 C 297.023438 -348.835938 277.09375 -356.4375 253.40625 -356.4375 C 241.957031 -356.4375 234.359375 -353.96875 230.609375 -349.03125 C 226.859375 -344.09375 224.984375 -334.71875 224.984375 -320.90625 L 224.984375 -47.953125 C 224.984375 -35.722656 226.164062 -26.84375 228.53125 -21.3125 C 230.90625 -15.789062 235.445312 -12.039062 242.15625 -10.0625 C 248.863281 -8.09375 259.519531 -7.109375 274.125 -7.109375 C 275.3125 -7.109375 275.90625 -5.921875 275.90625 -3.546875 C 275.90625 -1.179688 275.3125 0 274.125 0 C 259.914062 0 248.671875 -0.195312 240.390625 -0.59375 L 191.234375 -1.1875 L 143.28125 -0.59375 C 134.988281 -0.195312 123.539062 0 108.9375 0 C 107.757812 0 107.171875 -1.179688 107.171875 -3.546875 C 107.171875 -5.921875 107.757812 -7.109375 108.9375 -7.109375 C 123.144531 -7.109375 133.703125 -8.09375 140.609375 -10.0625 C 147.523438 -12.039062 152.265625 -15.890625 154.828125 -21.609375 C 157.390625 -27.335938 158.671875 -36.117188 158.671875 -47.953125 L 158.671875 -322.09375 C 158.671875 -335.507812 156.894531 -344.585938 153.34375 -349.328125 C 149.789062 -354.066406 142.488281 -356.4375 131.4375 -356.4375 Z M 131.4375 -356.4375 "/></g></g></g><g fill="#fdeccb" fill-opacity="0.4"><g transform="translate(1666.841161, 1965.753535)"><g/></g></g><g fill="#fdeccb" fill-opacity="0.4"><g transform="translate(1805.388053, 1965.753535)"><g><path d="M 242.15625 7.109375 C 198.738281 7.109375 160.847656 -1.175781 128.484375 -17.75 C 96.117188 -34.332031 71.445312 -56.929688 54.46875 -85.546875 C 37.5 -114.171875 29.015625 -146.046875 29.015625 -181.171875 C 29.015625 -219.066406 38.78125 -252.914062 58.3125 -282.71875 C 77.851562 -312.519531 104.695312 -335.609375 138.84375 -351.984375 C 172.988281 -368.367188 211.175781 -376.5625 253.40625 -376.5625 C 271.957031 -376.5625 290.707031 -375.082031 309.65625 -372.125 C 328.601562 -369.164062 343.800781 -365.316406 355.25 -360.578125 C 358.800781 -359.390625 361.066406 -357.90625 362.046875 -356.125 C 363.035156 -354.351562 363.726562 -351.296875 364.125 -346.953125 L 371.828125 -264.65625 C 371.828125 -263.46875 370.835938 -262.675781 368.859375 -262.28125 C 366.890625 -261.894531 365.507812 -262.488281 364.71875 -264.0625 C 350.90625 -294.457031 331.859375 -318.140625 307.578125 -335.109375 C 283.304688 -352.085938 255.578125 -360.578125 224.390625 -360.578125 C 184.128906 -360.578125 153.441406 -346.5625 132.328125 -318.53125 C 111.210938 -290.507812 100.65625 -252.222656 100.65625 -203.671875 C 100.65625 -164.597656 107.363281 -129.765625 120.78125 -99.171875 C 134.207031 -68.578125 152.859375 -44.890625 176.734375 -28.109375 C 200.617188 -11.335938 227.363281 -2.953125 256.96875 -2.953125 C 273.144531 -2.953125 285.570312 -4.726562 294.25 -8.28125 C 302.9375 -11.84375 309.253906 -18.753906 313.203125 -29.015625 C 317.148438 -39.273438 319.125 -54.472656 319.125 -74.609375 C 319.125 -95.128906 317.941406 -109.4375 315.578125 -117.53125 C 313.210938 -125.625 308.179688 -131.050781 300.484375 -133.8125 C 292.785156 -136.570312 279.460938 -137.953125 260.515625 -137.953125 C 258.148438 -137.953125 256.96875 -139.53125 256.96875 -142.6875 C 256.96875 -143.875 257.257812 -144.957031 257.84375 -145.9375 C 258.4375 -146.925781 259.128906 -147.421875 259.921875 -147.421875 C 293.472656 -145.453125 320.507812 -144.46875 341.03125 -144.46875 C 361.164062 -144.46875 382.085938 -145.0625 403.796875 -146.25 C 404.585938 -146.25 405.273438 -145.753906 405.859375 -144.765625 C 406.453125 -143.773438 406.75 -142.882812 406.75 -142.09375 C 406.75 -139.332031 405.765625 -137.953125 403.796875 -137.953125 C 396.691406 -138.347656 391.753906 -137.066406 388.984375 -134.109375 C 386.222656 -131.148438 384.445312 -125.226562 383.65625 -116.34375 C 382.875 -107.457031 382.484375 -91.570312 382.484375 -68.6875 C 382.484375 -50.914062 383.171875 -38.28125 384.546875 -30.78125 C 385.929688 -23.28125 386.625 -18.546875 386.625 -16.578125 C 386.625 -14.210938 386.128906 -12.632812 385.140625 -11.84375 C 384.160156 -11.050781 382.285156 -10.257812 379.515625 -9.46875 C 328.597656 1.582031 282.8125 7.109375 242.15625 7.109375 Z M 242.15625 7.109375 "/></g></g></g><g fill="#fdeccb" fill-opacity="0.4"><g transform="translate(2231.093882, 1965.753535)"><g><path d="M 134.40625 -47.953125 C 134.40625 -35.722656 135.390625 -26.84375 137.359375 -21.3125 C 139.335938 -15.789062 143.1875 -12.039062 148.90625 -10.0625 C 154.632812 -8.09375 163.8125 -7.109375 176.4375 -7.109375 C 177.625 -7.109375 178.21875 -5.921875 178.21875 -3.546875 C 178.21875 -1.179688 177.625 0 176.4375 0 C 163.414062 0 153.15625 -0.195312 145.65625 -0.59375 L 100.65625 -1.1875 L 56.84375 -0.59375 C 48.945312 -0.195312 38.289062 0 24.875 0 C 24.082031 0 23.6875 -1.179688 23.6875 -3.546875 C 23.6875 -5.921875 24.082031 -7.109375 24.875 -7.109375 C 37.5 -7.109375 46.769531 -8.09375 52.6875 -10.0625 C 58.613281 -12.039062 62.660156 -15.890625 64.828125 -21.609375 C 67.003906 -27.335938 68.09375 -36.117188 68.09375 -47.953125 L 68.09375 -322.09375 C 68.09375 -333.9375 67.003906 -342.617188 64.828125 -348.140625 C 62.660156 -353.671875 58.613281 -357.519531 52.6875 -359.6875 C 46.769531 -361.851562 37.5 -362.9375 24.875 -362.9375 C 24.082031 -362.9375 23.6875 -364.117188 23.6875 -366.484375 C 23.6875 -368.859375 24.082031 -370.046875 24.875 -370.046875 L 56.84375 -369.453125 C 75 -368.660156 89.601562 -368.265625 100.65625 -368.265625 C 112.882812 -368.265625 128.082031 -368.660156 146.25 -369.453125 L 176.4375 -370.046875 C 177.625 -370.046875 178.21875 -368.859375 178.21875 -366.484375 C 178.21875 -364.117188 177.625 -362.9375 176.4375 -362.9375 C 164.195312 -362.9375 155.117188 -361.753906 149.203125 -359.390625 C 143.285156 -357.023438 139.335938 -352.976562 137.359375 -347.25 C 135.390625 -341.53125 134.40625 -332.75 134.40625 -320.90625 Z M 134.40625 -47.953125 "/></g></g></g><g fill="#fdeccb" fill-opacity="0.4"><g transform="translate(2433.58545, 1965.753535)"><g><path d="M 393.734375 -370.046875 C 394.921875 -370.046875 395.515625 -368.859375 395.515625 -366.484375 C 395.515625 -364.117188 394.921875 -362.9375 393.734375 -362.9375 C 379.523438 -362.9375 365.90625 -356.617188 352.875 -343.984375 C 339.851562 -331.359375 329.394531 -314.390625 321.5 -293.078125 L 211.96875 -0.59375 C 211.570312 0.988281 209.398438 1.78125 205.453125 1.78125 C 201.503906 1.78125 199.332031 0.988281 198.9375 -0.59375 L 47.953125 -320.90625 C 40.847656 -335.113281 33.742188 -345.671875 26.640625 -352.578125 C 19.535156 -359.484375 11.640625 -362.9375 2.953125 -362.9375 C 1.773438 -362.9375 1.1875 -364.117188 1.1875 -366.484375 C 1.1875 -368.859375 1.773438 -370.046875 2.953125 -370.046875 C 8.878906 -370.046875 13.023438 -369.847656 15.390625 -369.453125 C 23.285156 -368.660156 33.550781 -368.265625 46.1875 -368.265625 C 80.125 -368.265625 108.9375 -368.660156 132.625 -369.453125 C 138.9375 -369.847656 146.832031 -370.046875 156.3125 -370.046875 C 157.488281 -370.046875 158.078125 -368.859375 158.078125 -366.484375 C 158.078125 -364.117188 157.488281 -362.9375 156.3125 -362.9375 C 144.46875 -362.9375 135.285156 -360.46875 128.765625 -355.53125 C 122.253906 -350.601562 119 -343.601562 119 -334.53125 C 119 -327.8125 121.171875 -319.71875 125.515625 -310.25 L 227.953125 -91.765625 L 304.921875 -294.859375 C 308.867188 -305.910156 310.84375 -315.382812 310.84375 -323.28125 C 310.84375 -335.507812 307.191406 -345.175781 299.890625 -352.28125 C 292.585938 -359.382812 282.03125 -362.9375 268.21875 -362.9375 C 267.03125 -362.9375 266.4375 -364.117188 266.4375 -366.484375 C 266.4375 -368.859375 267.03125 -370.046875 268.21875 -370.046875 L 297.21875 -369.453125 C 313.800781 -368.660156 328.601562 -368.265625 341.625 -368.265625 C 349.125 -368.265625 358.398438 -368.660156 369.453125 -369.453125 Z M 393.734375 -370.046875 "/></g></g></g><g fill="#fdeccb" fill-opacity="0.4"><g transform="translate(2824.358498, 1965.753535)"><g><path d="M 293.671875 -94.140625 C 293.671875 -94.929688 294.460938 -95.328125 296.046875 -95.328125 C 297.222656 -95.328125 298.304688 -95.03125 299.296875 -94.4375 C 300.285156 -93.84375 300.78125 -93.347656 300.78125 -92.953125 C 296.832031 -62.171875 294.859375 -34.144531 294.859375 -8.875 C 294.859375 -5.71875 294.265625 -3.445312 293.078125 -2.0625 C 291.890625 -0.6875 289.519531 0 285.96875 0 L 24.28125 0 C 23.09375 0 22.5 -1.179688 22.5 -3.546875 C 22.5 -5.921875 23.09375 -7.109375 24.28125 -7.109375 C 36.90625 -7.109375 46.078125 -8.09375 51.796875 -10.0625 C 57.523438 -12.039062 61.375 -15.890625 63.34375 -21.609375 C 65.320312 -27.335938 66.3125 -36.117188 66.3125 -47.953125 L 66.3125 -322.09375 C 66.3125 -333.9375 65.320312 -342.617188 63.34375 -348.140625 C 61.375 -353.671875 57.425781 -357.519531 51.5 -359.6875 C 45.582031 -361.851562 36.507812 -362.9375 24.28125 -362.9375 C 23.09375 -362.9375 22.5 -364.117188 22.5 -366.484375 C 22.5 -368.859375 23.09375 -370.046875 24.28125 -370.046875 L 275.3125 -370.046875 C 279.257812 -370.046875 281.234375 -368.269531 281.234375 -364.71875 L 282.421875 -285.96875 C 282.421875 -285.1875 281.332031 -284.597656 279.15625 -284.203125 C 276.988281 -283.804688 275.707031 -284.195312 275.3125 -285.375 C 269 -308.269531 258.34375 -325.242188 243.34375 -336.296875 C 228.34375 -347.347656 208.609375 -352.875 184.140625 -352.875 L 166.375 -352.875 C 154.53125 -352.875 145.84375 -350.304688 140.3125 -345.171875 C 134.789062 -340.046875 132.03125 -332.15625 132.03125 -321.5 L 132.03125 -200.71875 L 181.171875 -200.71875 C 204.066406 -200.71875 221.628906 -204.660156 233.859375 -212.546875 C 246.097656 -220.441406 252.21875 -231.5 252.21875 -245.71875 C 252.21875 -246.894531 253.300781 -247.484375 255.46875 -247.484375 C 257.644531 -247.484375 258.734375 -246.894531 258.734375 -245.71875 L 258.140625 -192.421875 L 258.734375 -164 C 259.523438 -150.582031 259.921875 -139.925781 259.921875 -132.03125 C 259.921875 -131.238281 258.734375 -130.84375 256.359375 -130.84375 C 253.992188 -130.84375 252.8125 -131.238281 252.8125 -132.03125 C 252.8125 -148.21875 246.59375 -160.945312 234.15625 -170.21875 C 221.726562 -179.5 203.867188 -184.140625 180.578125 -184.140625 L 132.03125 -184.140625 L 132.03125 -50.328125 C 132.03125 -38.878906 134.203125 -30.390625 138.546875 -24.859375 C 142.890625 -19.335938 149.796875 -16.578125 159.265625 -16.578125 L 178.8125 -16.578125 C 209.59375 -16.578125 234.257812 -22.890625 252.8125 -35.515625 C 271.363281 -48.148438 284.984375 -67.691406 293.671875 -94.140625 Z M 293.671875 -94.140625 "/></g></g></g><g fill="#fdeccb" fill-opacity="0.4"><g transform="translate(3151.186856, 1965.753535)"><g><path d="M 103.015625 -310.25 C 103.015625 -296.039062 106.664062 -283.410156 113.96875 -272.359375 C 121.269531 -261.304688 130.25 -251.632812 140.90625 -243.34375 C 151.570312 -235.050781 165.984375 -224.984375 184.140625 -213.140625 C 203.867188 -200.515625 219.65625 -189.460938 231.5 -179.984375 C 243.34375 -170.515625 253.40625 -158.96875 261.6875 -145.34375 C 269.976562 -131.726562 274.125 -116.039062 274.125 -98.28125 C 274.125 -77.757812 268.597656 -59.503906 257.546875 -43.515625 C 246.492188 -27.523438 231.195312 -15.085938 211.65625 -6.203125 C 192.125 2.671875 170.320312 7.109375 146.25 7.109375 C 128.476562 7.109375 109.921875 4.640625 90.578125 -0.296875 C 71.242188 -5.234375 58.222656 -10.660156 51.515625 -16.578125 C 49.535156 -18.160156 48.050781 -19.640625 47.0625 -21.015625 C 46.082031 -22.398438 45.59375 -24.671875 45.59375 -27.828125 L 43.8125 -121.96875 L 43.8125 -122.5625 C 43.8125 -124.132812 44.796875 -125.019531 46.765625 -125.21875 C 48.742188 -125.414062 49.929688 -124.726562 50.328125 -123.15625 C 62.171875 -99.070312 72.53125 -79.53125 81.40625 -64.53125 C 90.289062 -49.53125 101.539062 -36.304688 115.15625 -24.859375 C 128.769531 -13.421875 144.265625 -7.703125 161.640625 -7.703125 C 177.429688 -7.703125 190.457031 -11.941406 200.71875 -20.421875 C 210.976562 -28.910156 216.109375 -43.414062 216.109375 -63.9375 C 216.109375 -81.3125 212.257812 -96.507812 204.5625 -109.53125 C 196.863281 -122.5625 187.488281 -133.613281 176.4375 -142.6875 C 165.382812 -151.769531 150.1875 -162.625 130.84375 -175.25 C 111.894531 -187.488281 97.191406 -197.945312 86.734375 -206.625 C 76.273438 -215.3125 67.296875 -225.773438 59.796875 -238.015625 C 52.296875 -250.253906 48.546875 -264.660156 48.546875 -281.234375 C 48.546875 -302.160156 54.566406 -319.828125 66.609375 -334.234375 C 78.648438 -348.640625 94.140625 -359.296875 113.078125 -366.203125 C 132.023438 -373.109375 151.960938 -376.5625 172.890625 -376.5625 C 186.703125 -376.5625 200.710938 -375.273438 214.921875 -372.703125 C 229.128906 -370.140625 240.578125 -367.082031 249.265625 -363.53125 C 252.816406 -361.957031 255.179688 -360.28125 256.359375 -358.5 C 257.546875 -356.726562 258.140625 -354.457031 258.140625 -351.6875 L 258.140625 -264.65625 C 258.140625 -263.46875 257.148438 -262.578125 255.171875 -261.984375 C 253.203125 -261.398438 252.023438 -261.695312 251.640625 -262.875 L 246.890625 -274.125 C 237.023438 -299 225.476562 -320.117188 212.25 -337.484375 C 199.03125 -354.847656 180.582031 -363.53125 156.90625 -363.53125 C 141.113281 -363.53125 128.179688 -358.988281 118.109375 -349.90625 C 108.046875 -340.832031 103.015625 -327.613281 103.015625 -310.25 Z M 103.015625 -310.25 "/></g></g></g><g fill="#fdeccb" fill-opacity="0.4"><g transform="translate(3456.108112, 1965.753535)"><g/></g></g><g fill="#fdeccb" fill-opacity="0.4"><g transform="translate(3594.655178, 1965.753535)"><g><path d="M 213.140625 -207.8125 C 246.296875 -203.875 272.644531 -192.820312 292.1875 -174.65625 C 311.726562 -156.5 321.5 -134.003906 321.5 -107.171875 C 321.5 -86.640625 315.578125 -68.082031 303.734375 -51.5 C 291.890625 -34.925781 275.507812 -21.800781 254.59375 -12.125 C 233.675781 -2.457031 210.390625 2.375 184.734375 2.375 C 173.679688 2.375 161.046875 1.78125 146.828125 0.59375 C 141.304688 0.195312 134.5 -0.195312 126.40625 -0.59375 C 118.3125 -0.988281 109.332031 -1.1875 99.46875 -1.1875 L 56.25 -0.59375 C 48.351562 -0.195312 37.695312 0 24.28125 0 C 23.09375 0 22.5 -1.179688 22.5 -3.546875 C 22.5 -5.921875 23.09375 -7.109375 24.28125 -7.109375 C 35.726562 -7.109375 44.410156 -8.191406 50.328125 -10.359375 C 56.242188 -12.535156 60.484375 -16.484375 63.046875 -22.203125 C 65.617188 -27.921875 66.90625 -36.503906 66.90625 -47.953125 L 66.90625 -322.09375 C 66.90625 -338.664062 64.140625 -349.613281 58.609375 -354.9375 C 53.085938 -360.269531 41.84375 -362.9375 24.875 -362.9375 C 24.082031 -362.9375 23.6875 -364.117188 23.6875 -366.484375 C 23.6875 -368.859375 24.082031 -370.046875 24.875 -370.046875 L 56.25 -369.453125 C 74.40625 -368.660156 88.8125 -368.265625 99.46875 -368.265625 C 110.519531 -368.265625 121.96875 -368.859375 133.8125 -370.046875 C 137.757812 -370.441406 143.675781 -370.835938 151.5625 -371.234375 C 159.457031 -371.628906 166.367188 -371.828125 172.296875 -371.828125 C 208.210938 -371.828125 236.035156 -365.3125 255.765625 -352.28125 C 275.503906 -339.257812 285.375 -320.316406 285.375 -295.453125 C 285.375 -276.503906 279.15625 -259.332031 266.71875 -243.9375 C 254.289062 -228.539062 236.429688 -216.5 213.140625 -207.8125 Z M 163.40625 -358.796875 C 151.96875 -358.796875 144.078125 -356.128906 139.734375 -350.796875 C 135.390625 -345.472656 133.21875 -335.507812 133.21875 -320.90625 L 133.21875 -208.40625 L 156.90625 -207.8125 C 177.425781 -207.8125 193.210938 -215.507812 204.265625 -230.90625 C 215.316406 -246.300781 220.84375 -266.039062 220.84375 -290.125 C 220.84375 -312.613281 215.90625 -329.679688 206.03125 -341.328125 C 196.164062 -352.972656 181.957031 -358.796875 163.40625 -358.796875 Z M 174.65625 -12.4375 C 226.363281 -12.4375 252.21875 -39.273438 252.21875 -92.953125 C 252.21875 -123.347656 244.914062 -147.425781 230.3125 -165.1875 C 215.707031 -182.945312 193.601562 -191.828125 164 -191.828125 C 152.550781 -191.828125 142.289062 -191.4375 133.21875 -190.65625 L 133.21875 -47.953125 C 133.21875 -34.929688 135.78125 -25.753906 140.90625 -20.421875 C 146.039062 -15.097656 157.289062 -12.4375 174.65625 -12.4375 Z M 174.65625 -12.4375 "/></g></g></g><g fill="#fdeccb" fill-opacity="0.4"><g transform="translate(3946.942866, 1965.753535)"><g><path d="M 424.515625 -7.109375 C 426.492188 -7.109375 427.484375 -5.921875 427.484375 -3.546875 C 427.484375 -1.179688 426.492188 0 424.515625 0 C 416.617188 0 404.382812 -0.394531 387.8125 -1.1875 C 370.445312 -1.976562 358.015625 -2.375 350.515625 -2.375 C 340.640625 -2.375 328.597656 -1.976562 314.390625 -1.1875 C 300.972656 -0.394531 290.316406 0 282.421875 0 C 280.835938 0 280.046875 -1.179688 280.046875 -3.546875 C 280.046875 -5.921875 280.835938 -7.109375 282.421875 -7.109375 C 292.679688 -7.109375 300.082031 -8.191406 304.625 -10.359375 C 309.164062 -12.535156 311.4375 -16.382812 311.4375 -21.90625 C 311.4375 -28.613281 307.488281 -39.863281 299.59375 -55.65625 L 238.015625 -177.03125 L 132.625 -177.03125 L 90.59375 -84.078125 C 85.457031 -72.628906 82.890625 -61.972656 82.890625 -52.109375 C 82.890625 -37.890625 87.921875 -26.832031 97.984375 -18.9375 C 108.054688 -11.050781 121.578125 -7.109375 138.546875 -7.109375 C 140.515625 -7.109375 141.5 -5.921875 141.5 -3.546875 C 141.5 -1.179688 140.515625 0 138.546875 0 C 131.441406 0 121.179688 -0.394531 107.765625 -1.1875 C 92.765625 -1.976562 79.738281 -2.375 68.6875 -2.375 C 58.019531 -2.375 45.191406 -1.976562 30.203125 -1.1875 C 16.773438 -0.394531 5.914062 0 -2.375 0 C -3.945312 0 -4.734375 -1.179688 -4.734375 -3.546875 C -4.734375 -5.921875 -3.945312 -7.109375 -2.375 -7.109375 C 8.675781 -7.109375 17.953125 -9.375 25.453125 -13.90625 C 32.953125 -18.445312 40.453125 -26.539062 47.953125 -38.1875 C 55.453125 -49.832031 64.335938 -67.101562 74.609375 -90 L 203.078125 -372.421875 C 203.867188 -373.597656 205.644531 -374.1875 208.40625 -374.1875 C 211.5625 -374.1875 213.335938 -373.597656 213.734375 -372.421875 L 361.765625 -81.109375 C 375.578125 -53.085938 387.019531 -33.75 396.09375 -23.09375 C 405.175781 -12.4375 414.648438 -7.109375 424.515625 -7.109375 Z M 140.328125 -193.609375 L 229.71875 -193.609375 L 182.359375 -287.15625 Z M 140.328125 -193.609375 "/></g></g></g><g fill="#fdeccb" fill-opacity="0.4"><g transform="translate(4370.872586, 1965.753535)"><g><path d="M 249.265625 -376.5625 C 266.628906 -376.5625 284.785156 -375.082031 303.734375 -372.125 C 322.679688 -369.164062 337.484375 -365.316406 348.140625 -360.578125 C 351.691406 -359.390625 353.960938 -357.90625 354.953125 -356.125 C 355.941406 -354.351562 356.828125 -351.296875 357.609375 -346.953125 L 364.71875 -264.65625 C 364.71875 -263.46875 363.726562 -262.675781 361.75 -262.28125 C 359.78125 -261.894531 358.597656 -262.488281 358.203125 -264.0625 C 344.785156 -295.25 326.828125 -319.328125 304.328125 -336.296875 C 281.828125 -353.273438 255.773438 -361.765625 226.171875 -361.765625 C 187.097656 -361.765625 156.898438 -347.351562 135.578125 -318.53125 C 114.265625 -289.71875 103.609375 -251.035156 103.609375 -202.484375 C 103.609375 -166.171875 109.429688 -133.015625 121.078125 -103.015625 C 132.722656 -73.023438 149.101562 -49.242188 170.21875 -31.671875 C 191.34375 -14.109375 215.320312 -5.328125 242.15625 -5.328125 C 267.414062 -5.328125 290.015625 -13.710938 309.953125 -30.484375 C 329.890625 -47.265625 347.75 -72.828125 363.53125 -107.171875 C 363.925781 -108.742188 365.207031 -109.332031 367.375 -108.9375 C 369.550781 -108.539062 370.640625 -107.753906 370.640625 -106.578125 L 361.765625 -26.046875 C 360.972656 -21.316406 360.082031 -18.257812 359.09375 -16.875 C 358.101562 -15.488281 355.832031 -14.007812 352.28125 -12.4375 C 317.15625 0.59375 281.039062 7.109375 243.9375 7.109375 C 195.78125 7.109375 155.519531 -2.460938 123.15625 -21.609375 C 90.789062 -40.753906 67.007812 -65.03125 51.8125 -94.4375 C 36.613281 -123.84375 29.015625 -154.53125 29.015625 -186.5 C 29.015625 -224 39.175781 -257.15625 59.5 -285.96875 C 79.832031 -314.789062 106.867188 -337.09375 140.609375 -352.875 C 174.359375 -368.664062 210.578125 -376.5625 249.265625 -376.5625 Z M 249.265625 -376.5625 "/></g></g></g><g fill="#fdeccb" fill-opacity="0.4"><g transform="translate(4766.97448, 1965.753535)"><g><path d="M 393.140625 -7.109375 C 394.328125 -7.109375 394.921875 -5.921875 394.921875 -3.546875 C 394.921875 -1.179688 394.328125 0 393.140625 0 L 326.828125 0 C 320.515625 0 315.1875 0.195312 310.84375 0.59375 C 306.5 0.988281 302.945312 1.1875 300.1875 1.1875 C 293.863281 1.1875 288.429688 -0.289062 283.890625 -3.25 C 279.359375 -6.21875 273.832031 -11.644531 267.3125 -19.53125 C 260.800781 -27.425781 249.257812 -42.625 232.6875 -65.125 C 230.707031 -67.882812 228.4375 -70.941406 225.875 -74.296875 C 223.3125 -77.660156 220.453125 -81.507812 217.296875 -85.84375 L 139.734375 -190.0625 L 126.703125 -177.03125 L 126.703125 -47.953125 C 126.703125 -35.722656 127.6875 -26.84375 129.65625 -21.3125 C 131.632812 -15.789062 135.484375 -12.039062 141.203125 -10.0625 C 146.929688 -8.09375 156.113281 -7.109375 168.75 -7.109375 C 170.320312 -7.109375 171.109375 -5.921875 171.109375 -3.546875 C 171.109375 -1.179688 170.320312 0 168.75 0 C 155.71875 0 145.453125 -0.195312 137.953125 -0.59375 L 93.546875 -1.1875 L 49.734375 -0.59375 C 41.835938 -0.195312 31.179688 0 17.765625 0 C 16.972656 0 16.578125 -1.179688 16.578125 -3.546875 C 16.578125 -5.921875 16.972656 -7.109375 17.765625 -7.109375 C 30.390625 -7.109375 39.660156 -8.09375 45.578125 -10.0625 C 51.503906 -12.039062 55.550781 -15.890625 57.71875 -21.609375 C 59.894531 -27.335938 60.984375 -36.117188 60.984375 -47.953125 L 60.984375 -322.09375 C 60.984375 -333.9375 59.894531 -342.617188 57.71875 -348.140625 C 55.550781 -353.671875 51.601562 -357.519531 45.875 -359.6875 C 40.15625 -361.851562 31.179688 -362.9375 18.953125 -362.9375 C 17.765625 -362.9375 17.171875 -364.117188 17.171875 -366.484375 C 17.171875 -368.859375 17.765625 -370.046875 18.953125 -370.046875 L 50.328125 -369.453125 C 68.484375 -368.660156 82.890625 -368.265625 93.546875 -368.265625 C 105.390625 -368.265625 120.390625 -368.660156 138.546875 -369.453125 L 168.75 -370.046875 C 169.925781 -370.046875 170.515625 -368.859375 170.515625 -366.484375 C 170.515625 -364.117188 169.925781 -362.9375 168.75 -362.9375 C 156.507812 -362.9375 147.523438 -361.753906 141.796875 -359.390625 C 136.078125 -357.023438 132.128906 -352.976562 129.953125 -347.25 C 127.785156 -341.53125 126.703125 -332.75 126.703125 -320.90625 L 126.703125 -195.390625 L 238.015625 -309.0625 C 249.460938 -320.507812 255.1875 -330.96875 255.1875 -340.4375 C 255.1875 -347.550781 252.023438 -353.078125 245.703125 -357.015625 C 239.390625 -360.960938 230.507812 -362.9375 219.0625 -362.9375 C 217.882812 -362.9375 217.296875 -364.117188 217.296875 -366.484375 C 217.296875 -368.859375 217.882812 -370.046875 219.0625 -370.046875 L 246.890625 -369.453125 C 264.265625 -368.660156 280.453125 -368.265625 295.453125 -368.265625 C 311.628906 -368.265625 328.40625 -368.660156 345.78125 -369.453125 L 372.421875 -370.046875 C 373.597656 -370.046875 374.1875 -368.859375 374.1875 -366.484375 C 374.1875 -364.117188 373.597656 -362.9375 372.421875 -362.9375 C 354.265625 -362.9375 334.328125 -357.707031 312.609375 -347.25 C 290.898438 -336.789062 271.164062 -322.878906 253.40625 -305.515625 L 186.5 -237.421875 L 274.125 -119 C 299.789062 -82.289062 319.035156 -56.335938 331.859375 -41.140625 C 344.691406 -25.953125 355.050781 -16.484375 362.9375 -12.734375 C 370.832031 -8.984375 380.898438 -7.109375 393.140625 -7.109375 Z M 393.140625 -7.109375 "/></g></g></g><g fill="#fffaf0" fill-opacity="1"><g transform="translate(29.14678, 1965.753535)"><g><path d="M 131.4375 -356.4375 C 84.46875 -356.4375 50.722656 -325.84375 30.203125 -264.65625 C 29.804688 -263.46875 28.617188 -262.972656 26.640625 -263.171875 C 24.671875 -263.367188 23.6875 -264.0625 23.6875 -265.25 C 25.257812 -281.039062 27.03125 -301.46875 29 -326.53125 C 30.976562 -351.59375 31.96875 -370.441406 31.96875 -383.078125 C 31.96875 -385.046875 33.050781 -386.03125 35.21875 -386.03125 C 37.394531 -386.03125 38.484375 -385.046875 38.484375 -383.078125 C 38.484375 -374.390625 49.734375 -370.046875 72.234375 -370.046875 C 106.179688 -368.859375 145.847656 -368.265625 191.234375 -368.265625 C 214.523438 -368.265625 239.195312 -368.660156 265.25 -369.453125 L 305.515625 -370.046875 C 320.515625 -370.046875 331.46875 -371.03125 338.375 -373 C 345.28125 -374.976562 349.71875 -378.925781 351.6875 -384.84375 C 352.082031 -386.425781 353.363281 -387.21875 355.53125 -387.21875 C 357.707031 -387.21875 358.796875 -386.425781 358.796875 -384.84375 C 357.609375 -373.007812 356.320312 -354.066406 354.9375 -328.015625 C 353.5625 -301.960938 352.875 -281.039062 352.875 -265.25 C 352.875 -264.0625 351.882812 -263.46875 349.90625 -263.46875 C 347.9375 -263.46875 346.753906 -264.0625 346.359375 -265.25 C 340.441406 -295.644531 329.390625 -318.441406 313.203125 -333.640625 C 297.023438 -348.835938 277.09375 -356.4375 253.40625 -356.4375 C 241.957031 -356.4375 234.359375 -353.96875 230.609375 -349.03125 C 226.859375 -344.09375 224.984375 -334.71875 224.984375 -320.90625 L 224.984375 -47.953125 C 224.984375 -35.722656 226.164062 -26.84375 228.53125 -21.3125 C 230.90625 -15.789062 235.445312 -12.039062 242.15625 -10.0625 C 248.863281 -8.09375 259.519531 -7.109375 274.125 -7.109375 C 275.3125 -7.109375 275.90625 -5.921875 275.90625 -3.546875 C 275.90625 -1.179688 275.3125 0 274.125 0 C 259.914062 0 248.671875 -0.195312 240.390625 -0.59375 L 191.234375 -1.1875 L 143.28125 -0.59375 C 134.988281 -0.195312 123.539062 0 108.9375 0 C 107.757812 0 107.171875 -1.179688 107.171875 -3.546875 C 107.171875 -5.921875 107.757812 -7.109375 108.9375 -7.109375 C 123.144531 -7.109375 133.703125 -8.09375 140.609375 -10.0625 C 147.523438 -12.039062 152.265625 -15.890625 154.828125 -21.609375 C 157.390625 -27.335938 158.671875 -36.117188 158.671875 -47.953125 L 158.671875 -322.09375 C 158.671875 -335.507812 156.894531 -344.585938 153.34375 -349.328125 C 149.789062 -354.066406 142.488281 -356.4375 131.4375 -356.4375 Z M 131.4375 -356.4375 "/></g></g></g><g fill="#fffaf0" fill-opacity="1"><g transform="translate(409.854501, 1965.753535)"><g><path d="M 433.40625 -7.109375 C 434.582031 -7.109375 435.171875 -5.921875 435.171875 -3.546875 C 435.171875 -1.179688 434.582031 0 433.40625 0 C 419.582031 0 408.53125 -0.195312 400.25 -0.59375 L 354.65625 -1.1875 L 301.375 -0.59375 C 294.257812 -0.195312 284.585938 0 272.359375 0 C 271.171875 0 270.578125 -1.179688 270.578125 -3.546875 C 270.578125 -5.921875 271.171875 -7.109375 272.359375 -7.109375 C 286.960938 -7.109375 297.617188 -8.09375 304.328125 -10.0625 C 311.035156 -12.039062 315.570312 -15.789062 317.9375 -21.3125 C 320.3125 -26.84375 321.5 -35.722656 321.5 -47.953125 L 321.5 -184.140625 L 130.25 -184.140625 L 130.25 -47.953125 C 130.25 -36.117188 131.429688 -27.335938 133.796875 -21.609375 C 136.171875 -15.890625 140.710938 -12.039062 147.421875 -10.0625 C 154.140625 -8.09375 164.800781 -7.109375 179.40625 -7.109375 C 180.1875 -7.109375 180.578125 -5.921875 180.578125 -3.546875 C 180.578125 -1.179688 180.1875 0 179.40625 0 C 165.582031 0 154.53125 -0.195312 146.25 -0.59375 L 94.734375 -1.1875 L 50.328125 -0.59375 C 42.429688 -0.195312 31.578125 0 17.765625 0 C 16.972656 0 16.578125 -1.179688 16.578125 -3.546875 C 16.578125 -5.921875 16.972656 -7.109375 17.765625 -7.109375 C 31.578125 -7.109375 41.640625 -8.09375 47.953125 -10.0625 C 54.273438 -12.039062 58.617188 -15.890625 60.984375 -21.609375 C 63.347656 -27.335938 64.53125 -36.117188 64.53125 -47.953125 L 64.53125 -322.09375 C 64.53125 -333.9375 63.347656 -342.617188 60.984375 -348.140625 C 58.617188 -353.671875 54.375 -357.519531 48.25 -359.6875 C 42.132812 -361.851562 32.367188 -362.9375 18.953125 -362.9375 C 17.765625 -362.9375 17.171875 -364.117188 17.171875 -366.484375 C 17.171875 -368.859375 17.765625 -370.046875 18.953125 -370.046875 L 50.921875 -369.453125 C 69.078125 -368.660156 83.679688 -368.265625 94.734375 -368.265625 C 109.734375 -368.265625 127.097656 -368.660156 146.828125 -369.453125 L 179.40625 -370.046875 C 180.1875 -370.046875 180.578125 -368.859375 180.578125 -366.484375 C 180.578125 -364.117188 180.1875 -362.9375 179.40625 -362.9375 C 165.1875 -362.9375 154.722656 -361.753906 148.015625 -359.390625 C 141.304688 -357.023438 136.664062 -352.976562 134.09375 -347.25 C 131.53125 -341.53125 130.25 -332.75 130.25 -320.90625 L 130.25 -200.71875 L 321.5 -200.71875 L 321.5 -320.90625 C 321.5 -332.75 320.3125 -341.53125 317.9375 -347.25 C 315.570312 -352.976562 311.035156 -357.023438 304.328125 -359.390625 C 297.617188 -361.753906 286.960938 -362.9375 272.359375 -362.9375 C 271.171875 -362.9375 270.578125 -364.117188 270.578125 -366.484375 C 270.578125 -368.859375 271.171875 -370.046875 272.359375 -370.046875 L 301.375 -369.453125 C 321.101562 -368.660156 338.863281 -368.265625 354.65625 -368.265625 C 365.3125 -368.265625 380.507812 -368.660156 400.25 -369.453125 L 433.40625 -370.046875 C 434.582031 -370.046875 435.171875 -368.859375 435.171875 -366.484375 C 435.171875 -364.117188 434.582031 -362.9375 433.40625 -362.9375 C 419.976562 -362.9375 410.007812 -361.851562 403.5 -359.6875 C 396.988281 -357.519531 392.644531 -353.671875 390.46875 -348.140625 C 388.300781 -342.617188 387.21875 -333.9375 387.21875 -322.09375 L 387.21875 -47.953125 C 387.21875 -36.117188 388.300781 -27.335938 390.46875 -21.609375 C 392.644531 -15.890625 396.890625 -12.039062 403.203125 -10.0625 C 409.515625 -8.09375 419.582031 -7.109375 433.40625 -7.109375 Z M 433.40625 -7.109375 "/></g></g></g><g fill="#fffaf0" fill-opacity="1"><g transform="translate(862.203901, 1965.753535)"><g><path d="M 424.515625 -7.109375 C 426.492188 -7.109375 427.484375 -5.921875 427.484375 -3.546875 C 427.484375 -1.179688 426.492188 0 424.515625 0 C 416.617188 0 404.382812 -0.394531 387.8125 -1.1875 C 370.445312 -1.976562 358.015625 -2.375 350.515625 -2.375 C 340.640625 -2.375 328.597656 -1.976562 314.390625 -1.1875 C 300.972656 -0.394531 290.316406 0 282.421875 0 C 280.835938 0 280.046875 -1.179688 280.046875 -3.546875 C 280.046875 -5.921875 280.835938 -7.109375 282.421875 -7.109375 C 292.679688 -7.109375 300.082031 -8.191406 304.625 -10.359375 C 309.164062 -12.535156 311.4375 -16.382812 311.4375 -21.90625 C 311.4375 -28.613281 307.488281 -39.863281 299.59375 -55.65625 L 238.015625 -177.03125 L 132.625 -177.03125 L 90.59375 -84.078125 C 85.457031 -72.628906 82.890625 -61.972656 82.890625 -52.109375 C 82.890625 -37.890625 87.921875 -26.832031 97.984375 -18.9375 C 108.054688 -11.050781 121.578125 -7.109375 138.546875 -7.109375 C 140.515625 -7.109375 141.5 -5.921875 141.5 -3.546875 C 141.5 -1.179688 140.515625 0 138.546875 0 C 131.441406 0 121.179688 -0.394531 107.765625 -1.1875 C 92.765625 -1.976562 79.738281 -2.375 68.6875 -2.375 C 58.019531 -2.375 45.191406 -1.976562 30.203125 -1.1875 C 16.773438 -0.394531 5.914062 0 -2.375 0 C -3.945312 0 -4.734375 -1.179688 -4.734375 -3.546875 C -4.734375 -5.921875 -3.945312 -7.109375 -2.375 -7.109375 C 8.675781 -7.109375 17.953125 -9.375 25.453125 -13.90625 C 32.953125 -18.445312 40.453125 -26.539062 47.953125 -38.1875 C 55.453125 -49.832031 64.335938 -67.101562 74.609375 -90 L 203.078125 -372.421875 C 203.867188 -373.597656 205.644531 -374.1875 208.40625 -374.1875 C 211.5625 -374.1875 213.335938 -373.597656 213.734375 -372.421875 L 361.765625 -81.109375 C 375.578125 -53.085938 387.019531 -33.75 396.09375 -23.09375 C 405.175781 -12.4375 414.648438 -7.109375 424.515625 -7.109375 Z M 140.328125 -193.609375 L 229.71875 -193.609375 L 182.359375 -287.15625 Z M 140.328125 -193.609375 "/></g></g></g><g fill="#fffaf0" fill-opacity="1"><g transform="translate(1286.13344, 1965.753535)"><g><path d="M 131.4375 -356.4375 C 84.46875 -356.4375 50.722656 -325.84375 30.203125 -264.65625 C 29.804688 -263.46875 28.617188 -262.972656 26.640625 -263.171875 C 24.671875 -263.367188 23.6875 -264.0625 23.6875 -265.25 C 25.257812 -281.039062 27.03125 -301.46875 29 -326.53125 C 30.976562 -351.59375 31.96875 -370.441406 31.96875 -383.078125 C 31.96875 -385.046875 33.050781 -386.03125 35.21875 -386.03125 C 37.394531 -386.03125 38.484375 -385.046875 38.484375 -383.078125 C 38.484375 -374.390625 49.734375 -370.046875 72.234375 -370.046875 C 106.179688 -368.859375 145.847656 -368.265625 191.234375 -368.265625 C 214.523438 -368.265625 239.195312 -368.660156 265.25 -369.453125 L 305.515625 -370.046875 C 320.515625 -370.046875 331.46875 -371.03125 338.375 -373 C 345.28125 -374.976562 349.71875 -378.925781 351.6875 -384.84375 C 352.082031 -386.425781 353.363281 -387.21875 355.53125 -387.21875 C 357.707031 -387.21875 358.796875 -386.425781 358.796875 -384.84375 C 357.609375 -373.007812 356.320312 -354.066406 354.9375 -328.015625 C 353.5625 -301.960938 352.875 -281.039062 352.875 -265.25 C 352.875 -264.0625 351.882812 -263.46875 349.90625 -263.46875 C 347.9375 -263.46875 346.753906 -264.0625 346.359375 -265.25 C 340.441406 -295.644531 329.390625 -318.441406 313.203125 -333.640625 C 297.023438 -348.835938 277.09375 -356.4375 253.40625 -356.4375 C 241.957031 -356.4375 234.359375 -353.96875 230.609375 -349.03125 C 226.859375 -344.09375 224.984375 -334.71875 224.984375 -320.90625 L 224.984375 -47.953125 C 224.984375 -35.722656 226.164062 -26.84375 228.53125 -21.3125 C 230.90625 -15.789062 235.445312 -12.039062 242.15625 -10.0625 C 248.863281 -8.09375 259.519531 -7.109375 274.125 -7.109375 C 275.3125 -7.109375 275.90625 -5.921875 275.90625 -3.546875 C 275.90625 -1.179688 275.3125 0 274.125 0 C 259.914062 0 248.671875 -0.195312 240.390625 -0.59375 L 191.234375 -1.1875 L 143.28125 -0.59375 C 134.988281 -0.195312 123.539062 0 108.9375 0 C 107.757812 0 107.171875 -1.179688 107.171875 -3.546875 C 107.171875 -5.921875 107.757812 -7.109375 108.9375 -7.109375 C 123.144531 -7.109375 133.703125 -8.09375 140.609375 -10.0625 C 147.523438 -12.039062 152.265625 -15.890625 154.828125 -21.609375 C 157.390625 -27.335938 158.671875 -36.117188 158.671875 -47.953125 L 158.671875 -322.09375 C 158.671875 -335.507812 156.894531 -344.585938 153.34375 -349.328125 C 149.789062 -354.066406 142.488281 -356.4375 131.4375 -356.4375 Z M 131.4375 -356.4375 "/></g></g></g><g fill="#fffaf0" fill-opacity="1"><g transform="translate(1666.841161, 1965.753535)"><g/></g></g><g fill="#fffaf0" fill-opacity="1"><g transform="translate(1805.388053, 1965.753535)"><g><path d="M 242.15625 7.109375 C 198.738281 7.109375 160.847656 -1.175781 128.484375 -17.75 C 96.117188 -34.332031 71.445312 -56.929688 54.46875 -85.546875 C 37.5 -114.171875 29.015625 -146.046875 29.015625 -181.171875 C 29.015625 -219.066406 38.78125 -252.914062 58.3125 -282.71875 C 77.851562 -312.519531 104.695312 -335.609375 138.84375 -351.984375 C 172.988281 -368.367188 211.175781 -376.5625 253.40625 -376.5625 C 271.957031 -376.5625 290.707031 -375.082031 309.65625 -372.125 C 328.601562 -369.164062 343.800781 -365.316406 355.25 -360.578125 C 358.800781 -359.390625 361.066406 -357.90625 362.046875 -356.125 C 363.035156 -354.351562 363.726562 -351.296875 364.125 -346.953125 L 371.828125 -264.65625 C 371.828125 -263.46875 370.835938 -262.675781 368.859375 -262.28125 C 366.890625 -261.894531 365.507812 -262.488281 364.71875 -264.0625 C 350.90625 -294.457031 331.859375 -318.140625 307.578125 -335.109375 C 283.304688 -352.085938 255.578125 -360.578125 224.390625 -360.578125 C 184.128906 -360.578125 153.441406 -346.5625 132.328125 -318.53125 C 111.210938 -290.507812 100.65625 -252.222656 100.65625 -203.671875 C 100.65625 -164.597656 107.363281 -129.765625 120.78125 -99.171875 C 134.207031 -68.578125 152.859375 -44.890625 176.734375 -28.109375 C 200.617188 -11.335938 227.363281 -2.953125 256.96875 -2.953125 C 273.144531 -2.953125 285.570312 -4.726562 294.25 -8.28125 C 302.9375 -11.84375 309.253906 -18.753906 313.203125 -29.015625 C 317.148438 -39.273438 319.125 -54.472656 319.125 -74.609375 C 319.125 -95.128906 317.941406 -109.4375 315.578125 -117.53125 C 313.210938 -125.625 308.179688 -131.050781 300.484375 -133.8125 C 292.785156 -136.570312 279.460938 -137.953125 260.515625 -137.953125 C 258.148438 -137.953125 256.96875 -139.53125 256.96875 -142.6875 C 256.96875 -143.875 257.257812 -144.957031 257.84375 -145.9375 C 258.4375 -146.925781 259.128906 -147.421875 259.921875 -147.421875 C 293.472656 -145.453125 320.507812 -144.46875 341.03125 -144.46875 C 361.164062 -144.46875 382.085938 -145.0625 403.796875 -146.25 C 404.585938 -146.25 405.273438 -145.753906 405.859375 -144.765625 C 406.453125 -143.773438 406.75 -142.882812 406.75 -142.09375 C 406.75 -139.332031 405.765625 -137.953125 403.796875 -137.953125 C 396.691406 -138.347656 391.753906 -137.066406 388.984375 -134.109375 C 386.222656 -131.148438 384.445312 -125.226562 383.65625 -116.34375 C 382.875 -107.457031 382.484375 -91.570312 382.484375 -68.6875 C 382.484375 -50.914062 383.171875 -38.28125 384.546875 -30.78125 C 385.929688 -23.28125 386.625 -18.546875 386.625 -16.578125 C 386.625 -14.210938 386.128906 -12.632812 385.140625 -11.84375 C 384.160156 -11.050781 382.285156 -10.257812 379.515625 -9.46875 C 328.597656 1.582031 282.8125 7.109375 242.15625 7.109375 Z M 242.15625 7.109375 "/></g></g></g><g fill="#fffaf0" fill-opacity="1"><g transform="translate(2231.093882, 1965.753535)"><g><path d="M 134.40625 -47.953125 C 134.40625 -35.722656 135.390625 -26.84375 137.359375 -21.3125 C 139.335938 -15.789062 143.1875 -12.039062 148.90625 -10.0625 C 154.632812 -8.09375 163.8125 -7.109375 176.4375 -7.109375 C 177.625 -7.109375 178.21875 -5.921875 178.21875 -3.546875 C 178.21875 -1.179688 177.625 0 176.4375 0 C 163.414062 0 153.15625 -0.195312 145.65625 -0.59375 L 100.65625 -1.1875 L 56.84375 -0.59375 C 48.945312 -0.195312 38.289062 0 24.875 0 C 24.082031 0 23.6875 -1.179688 23.6875 -3.546875 C 23.6875 -5.921875 24.082031 -7.109375 24.875 -7.109375 C 37.5 -7.109375 46.769531 -8.09375 52.6875 -10.0625 C 58.613281 -12.039062 62.660156 -15.890625 64.828125 -21.609375 C 67.003906 -27.335938 68.09375 -36.117188 68.09375 -47.953125 L 68.09375 -322.09375 C 68.09375 -333.9375 67.003906 -342.617188 64.828125 -348.140625 C 62.660156 -353.671875 58.613281 -357.519531 52.6875 -359.6875 C 46.769531 -361.851562 37.5 -362.9375 24.875 -362.9375 C 24.082031 -362.9375 23.6875 -364.117188 23.6875 -366.484375 C 23.6875 -368.859375 24.082031 -370.046875 24.875 -370.046875 L 56.84375 -369.453125 C 75 -368.660156 89.601562 -368.265625 100.65625 -368.265625 C 112.882812 -368.265625 128.082031 -368.660156 146.25 -369.453125 L 176.4375 -370.046875 C 177.625 -370.046875 178.21875 -368.859375 178.21875 -366.484375 C 178.21875 -364.117188 177.625 -362.9375 176.4375 -362.9375 C 164.195312 -362.9375 155.117188 -361.753906 149.203125 -359.390625 C 143.285156 -357.023438 139.335938 -352.976562 137.359375 -347.25 C 135.390625 -341.53125 134.40625 -332.75 134.40625 -320.90625 Z M 134.40625 -47.953125 "/></g></g></g><g fill="#fffaf0" fill-opacity="1"><g transform="translate(2433.58545, 1965.753535)"><g><path d="M 393.734375 -370.046875 C 394.921875 -370.046875 395.515625 -368.859375 395.515625 -366.484375 C 395.515625 -364.117188 394.921875 -362.9375 393.734375 -362.9375 C 379.523438 -362.9375 365.90625 -356.617188 352.875 -343.984375 C 339.851562 -331.359375 329.394531 -314.390625 321.5 -293.078125 L 211.96875 -0.59375 C 211.570312 0.988281 209.398438 1.78125 205.453125 1.78125 C 201.503906 1.78125 199.332031 0.988281 198.9375 -0.59375 L 47.953125 -320.90625 C 40.847656 -335.113281 33.742188 -345.671875 26.640625 -352.578125 C 19.535156 -359.484375 11.640625 -362.9375 2.953125 -362.9375 C 1.773438 -362.9375 1.1875 -364.117188 1.1875 -366.484375 C 1.1875 -368.859375 1.773438 -370.046875 2.953125 -370.046875 C 8.878906 -370.046875 13.023438 -369.847656 15.390625 -369.453125 C 23.285156 -368.660156 33.550781 -368.265625 46.1875 -368.265625 C 80.125 -368.265625 108.9375 -368.660156 132.625 -369.453125 C 138.9375 -369.847656 146.832031 -370.046875 156.3125 -370.046875 C 157.488281 -370.046875 158.078125 -368.859375 158.078125 -366.484375 C 158.078125 -364.117188 157.488281 -362.9375 156.3125 -362.9375 C 144.46875 -362.9375 135.285156 -360.46875 128.765625 -355.53125 C 122.253906 -350.601562 119 -343.601562 119 -334.53125 C 119 -327.8125 121.171875 -319.71875 125.515625 -310.25 L 227.953125 -91.765625 L 304.921875 -294.859375 C 308.867188 -305.910156 310.84375 -315.382812 310.84375 -323.28125 C 310.84375 -335.507812 307.191406 -345.175781 299.890625 -352.28125 C 292.585938 -359.382812 282.03125 -362.9375 268.21875 -362.9375 C 267.03125 -362.9375 266.4375 -364.117188 266.4375 -366.484375 C 266.4375 -368.859375 267.03125 -370.046875 268.21875 -370.046875 L 297.21875 -369.453125 C 313.800781 -368.660156 328.601562 -368.265625 341.625 -368.265625 C 349.125 -368.265625 358.398438 -368.660156 369.453125 -369.453125 Z M 393.734375 -370.046875 "/></g></g></g><g fill="#fffaf0" fill-opacity="1"><g transform="translate(2824.358498, 1965.753535)"><g><path d="M 293.671875 -94.140625 C 293.671875 -94.929688 294.460938 -95.328125 296.046875 -95.328125 C 297.222656 -95.328125 298.304688 -95.03125 299.296875 -94.4375 C 300.285156 -93.84375 300.78125 -93.347656 300.78125 -92.953125 C 296.832031 -62.171875 294.859375 -34.144531 294.859375 -8.875 C 294.859375 -5.71875 294.265625 -3.445312 293.078125 -2.0625 C 291.890625 -0.6875 289.519531 0 285.96875 0 L 24.28125 0 C 23.09375 0 22.5 -1.179688 22.5 -3.546875 C 22.5 -5.921875 23.09375 -7.109375 24.28125 -7.109375 C 36.90625 -7.109375 46.078125 -8.09375 51.796875 -10.0625 C 57.523438 -12.039062 61.375 -15.890625 63.34375 -21.609375 C 65.320312 -27.335938 66.3125 -36.117188 66.3125 -47.953125 L 66.3125 -322.09375 C 66.3125 -333.9375 65.320312 -342.617188 63.34375 -348.140625 C 61.375 -353.671875 57.425781 -357.519531 51.5 -359.6875 C 45.582031 -361.851562 36.507812 -362.9375 24.28125 -362.9375 C 23.09375 -362.9375 22.5 -364.117188 22.5 -366.484375 C 22.5 -368.859375 23.09375 -370.046875 24.28125 -370.046875 L 275.3125 -370.046875 C 279.257812 -370.046875 281.234375 -368.269531 281.234375 -364.71875 L 282.421875 -285.96875 C 282.421875 -285.1875 281.332031 -284.597656 279.15625 -284.203125 C 276.988281 -283.804688 275.707031 -284.195312 275.3125 -285.375 C 269 -308.269531 258.34375 -325.242188 243.34375 -336.296875 C 228.34375 -347.347656 208.609375 -352.875 184.140625 -352.875 L 166.375 -352.875 C 154.53125 -352.875 145.84375 -350.304688 140.3125 -345.171875 C 134.789062 -340.046875 132.03125 -332.15625 132.03125 -321.5 L 132.03125 -200.71875 L 181.171875 -200.71875 C 204.066406 -200.71875 221.628906 -204.660156 233.859375 -212.546875 C 246.097656 -220.441406 252.21875 -231.5 252.21875 -245.71875 C 252.21875 -246.894531 253.300781 -247.484375 255.46875 -247.484375 C 257.644531 -247.484375 258.734375 -246.894531 258.734375 -245.71875 L 258.140625 -192.421875 L 258.734375 -164 C 259.523438 -150.582031 259.921875 -139.925781 259.921875 -132.03125 C 259.921875 -131.238281 258.734375 -130.84375 256.359375 -130.84375 C 253.992188 -130.84375 252.8125 -131.238281 252.8125 -132.03125 C 252.8125 -148.21875 246.59375 -160.945312 234.15625 -170.21875 C 221.726562 -179.5 203.867188 -184.140625 180.578125 -184.140625 L 132.03125 -184.140625 L 132.03125 -50.328125 C 132.03125 -38.878906 134.203125 -30.390625 138.546875 -24.859375 C 142.890625 -19.335938 149.796875 -16.578125 159.265625 -16.578125 L 178.8125 -16.578125 C 209.59375 -16.578125 234.257812 -22.890625 252.8125 -35.515625 C 271.363281 -48.148438 284.984375 -67.691406 293.671875 -94.140625 Z M 293.671875 -94.140625 "/></g></g></g><g fill="#fffaf0" fill-opacity="1"><g transform="translate(3151.186856, 1965.753535)"><g><path d="M 103.015625 -310.25 C 103.015625 -296.039062 106.664062 -283.410156 113.96875 -272.359375 C 121.269531 -261.304688 130.25 -251.632812 140.90625 -243.34375 C 151.570312 -235.050781 165.984375 -224.984375 184.140625 -213.140625 C 203.867188 -200.515625 219.65625 -189.460938 231.5 -179.984375 C 243.34375 -170.515625 253.40625 -158.96875 261.6875 -145.34375 C 269.976562 -131.726562 274.125 -116.039062 274.125 -98.28125 C 274.125 -77.757812 268.597656 -59.503906 257.546875 -43.515625 C 246.492188 -27.523438 231.195312 -15.085938 211.65625 -6.203125 C 192.125 2.671875 170.320312 7.109375 146.25 7.109375 C 128.476562 7.109375 109.921875 4.640625 90.578125 -0.296875 C 71.242188 -5.234375 58.222656 -10.660156 51.515625 -16.578125 C 49.535156 -18.160156 48.050781 -19.640625 47.0625 -21.015625 C 46.082031 -22.398438 45.59375 -24.671875 45.59375 -27.828125 L 43.8125 -121.96875 L 43.8125 -122.5625 C 43.8125 -124.132812 44.796875 -125.019531 46.765625 -125.21875 C 48.742188 -125.414062 49.929688 -124.726562 50.328125 -123.15625 C 62.171875 -99.070312 72.53125 -79.53125 81.40625 -64.53125 C 90.289062 -49.53125 101.539062 -36.304688 115.15625 -24.859375 C 128.769531 -13.421875 144.265625 -7.703125 161.640625 -7.703125 C 177.429688 -7.703125 190.457031 -11.941406 200.71875 -20.421875 C 210.976562 -28.910156 216.109375 -43.414062 216.109375 -63.9375 C 216.109375 -81.3125 212.257812 -96.507812 204.5625 -109.53125 C 196.863281 -122.5625 187.488281 -133.613281 176.4375 -142.6875 C 165.382812 -151.769531 150.1875 -162.625 130.84375 -175.25 C 111.894531 -187.488281 97.191406 -197.945312 86.734375 -206.625 C 76.273438 -215.3125 67.296875 -225.773438 59.796875 -238.015625 C 52.296875 -250.253906 48.546875 -264.660156 48.546875 -281.234375 C 48.546875 -302.160156 54.566406 -319.828125 66.609375 -334.234375 C 78.648438 -348.640625 94.140625 -359.296875 113.078125 -366.203125 C 132.023438 -373.109375 151.960938 -376.5625 172.890625 -376.5625 C 186.703125 -376.5625 200.710938 -375.273438 214.921875 -372.703125 C 229.128906 -370.140625 240.578125 -367.082031 249.265625 -363.53125 C 252.816406 -361.957031 255.179688 -360.28125 256.359375 -358.5 C 257.546875 -356.726562 258.140625 -354.457031 258.140625 -351.6875 L 258.140625 -264.65625 C 258.140625 -263.46875 257.148438 -262.578125 255.171875 -261.984375 C 253.203125 -261.398438 252.023438 -261.695312 251.640625 -262.875 L 246.890625 -274.125 C 237.023438 -299 225.476562 -320.117188 212.25 -337.484375 C 199.03125 -354.847656 180.582031 -363.53125 156.90625 -363.53125 C 141.113281 -363.53125 128.179688 -358.988281 118.109375 -349.90625 C 108.046875 -340.832031 103.015625 -327.613281 103.015625 -310.25 Z M 103.015625 -310.25 "/></g></g></g><g fill="#fffaf0" fill-opacity="1"><g transform="translate(3456.108112, 1965.753535)"><g/></g></g><g fill="#fffaf0" fill-opacity="1"><g transform="translate(3594.655178, 1965.753535)"><g><path d="M 213.140625 -207.8125 C 246.296875 -203.875 272.644531 -192.820312 292.1875 -174.65625 C 311.726562 -156.5 321.5 -134.003906 321.5 -107.171875 C 321.5 -86.640625 315.578125 -68.082031 303.734375 -51.5 C 291.890625 -34.925781 275.507812 -21.800781 254.59375 -12.125 C 233.675781 -2.457031 210.390625 2.375 184.734375 2.375 C 173.679688 2.375 161.046875 1.78125 146.828125 0.59375 C 141.304688 0.195312 134.5 -0.195312 126.40625 -0.59375 C 118.3125 -0.988281 109.332031 -1.1875 99.46875 -1.1875 L 56.25 -0.59375 C 48.351562 -0.195312 37.695312 0 24.28125 0 C 23.09375 0 22.5 -1.179688 22.5 -3.546875 C 22.5 -5.921875 23.09375 -7.109375 24.28125 -7.109375 C 35.726562 -7.109375 44.410156 -8.191406 50.328125 -10.359375 C 56.242188 -12.535156 60.484375 -16.484375 63.046875 -22.203125 C 65.617188 -27.921875 66.90625 -36.503906 66.90625 -47.953125 L 66.90625 -322.09375 C 66.90625 -338.664062 64.140625 -349.613281 58.609375 -354.9375 C 53.085938 -360.269531 41.84375 -362.9375 24.875 -362.9375 C 24.082031 -362.9375 23.6875 -364.117188 23.6875 -366.484375 C 23.6875 -368.859375 24.082031 -370.046875 24.875 -370.046875 L 56.25 -369.453125 C 74.40625 -368.660156 88.8125 -368.265625 99.46875 -368.265625 C 110.519531 -368.265625 121.96875 -368.859375 133.8125 -370.046875 C 137.757812 -370.441406 143.675781 -370.835938 151.5625 -371.234375 C 159.457031 -371.628906 166.367188 -371.828125 172.296875 -371.828125 C 208.210938 -371.828125 236.035156 -365.3125 255.765625 -352.28125 C 275.503906 -339.257812 285.375 -320.316406 285.375 -295.453125 C 285.375 -276.503906 279.15625 -259.332031 266.71875 -243.9375 C 254.289062 -228.539062 236.429688 -216.5 213.140625 -207.8125 Z M 163.40625 -358.796875 C 151.96875 -358.796875 144.078125 -356.128906 139.734375 -350.796875 C 135.390625 -345.472656 133.21875 -335.507812 133.21875 -320.90625 L 133.21875 -208.40625 L 156.90625 -207.8125 C 177.425781 -207.8125 193.210938 -215.507812 204.265625 -230.90625 C 215.316406 -246.300781 220.84375 -266.039062 220.84375 -290.125 C 220.84375 -312.613281 215.90625 -329.679688 206.03125 -341.328125 C 196.164062 -352.972656 181.957031 -358.796875 163.40625 -358.796875 Z M 174.65625 -12.4375 C 226.363281 -12.4375 252.21875 -39.273438 252.21875 -92.953125 C 252.21875 -123.347656 244.914062 -147.425781 230.3125 -165.1875 C 215.707031 -182.945312 193.601562 -191.828125 164 -191.828125 C 152.550781 -191.828125 142.289062 -191.4375 133.21875 -190.65625 L 133.21875 -47.953125 C 133.21875 -34.929688 135.78125 -25.753906 140.90625 -20.421875 C 146.039062 -15.097656 157.289062 -12.4375 174.65625 -12.4375 Z M 174.65625 -12.4375 "/></g></g></g><g fill="#fffaf0" fill-opacity="1"><g transform="translate(3946.942866, 1965.753535)"><g><path d="M 424.515625 -7.109375 C 426.492188 -7.109375 427.484375 -5.921875 427.484375 -3.546875 C 427.484375 -1.179688 426.492188 0 424.515625 0 C 416.617188 0 404.382812 -0.394531 387.8125 -1.1875 C 370.445312 -1.976562 358.015625 -2.375 350.515625 -2.375 C 340.640625 -2.375 328.597656 -1.976562 314.390625 -1.1875 C 300.972656 -0.394531 290.316406 0 282.421875 0 C 280.835938 0 280.046875 -1.179688 280.046875 -3.546875 C 280.046875 -5.921875 280.835938 -7.109375 282.421875 -7.109375 C 292.679688 -7.109375 300.082031 -8.191406 304.625 -10.359375 C 309.164062 -12.535156 311.4375 -16.382812 311.4375 -21.90625 C 311.4375 -28.613281 307.488281 -39.863281 299.59375 -55.65625 L 238.015625 -177.03125 L 132.625 -177.03125 L 90.59375 -84.078125 C 85.457031 -72.628906 82.890625 -61.972656 82.890625 -52.109375 C 82.890625 -37.890625 87.921875 -26.832031 97.984375 -18.9375 C 108.054688 -11.050781 121.578125 -7.109375 138.546875 -7.109375 C 140.515625 -7.109375 141.5 -5.921875 141.5 -3.546875 C 141.5 -1.179688 140.515625 0 138.546875 0 C 131.441406 0 121.179688 -0.394531 107.765625 -1.1875 C 92.765625 -1.976562 79.738281 -2.375 68.6875 -2.375 C 58.019531 -2.375 45.191406 -1.976562 30.203125 -1.1875 C 16.773438 -0.394531 5.914062 0 -2.375 0 C -3.945312 0 -4.734375 -1.179688 -4.734375 -3.546875 C -4.734375 -5.921875 -3.945312 -7.109375 -2.375 -7.109375 C 8.675781 -7.109375 17.953125 -9.375 25.453125 -13.90625 C 32.953125 -18.445312 40.453125 -26.539062 47.953125 -38.1875 C 55.453125 -49.832031 64.335938 -67.101562 74.609375 -90 L 203.078125 -372.421875 C 203.867188 -373.597656 205.644531 -374.1875 208.40625 -374.1875 C 211.5625 -374.1875 213.335938 -373.597656 213.734375 -372.421875 L 361.765625 -81.109375 C 375.578125 -53.085938 387.019531 -33.75 396.09375 -23.09375 C 405.175781 -12.4375 414.648438 -7.109375 424.515625 -7.109375 Z M 140.328125 -193.609375 L 229.71875 -193.609375 L 182.359375 -287.15625 Z M 140.328125 -193.609375 "/></g></g></g><g fill="#fffaf0" fill-opacity="1"><g transform="translate(4370.872586, 1965.753535)"><g><path d="M 249.265625 -376.5625 C 266.628906 -376.5625 284.785156 -375.082031 303.734375 -372.125 C 322.679688 -369.164062 337.484375 -365.316406 348.140625 -360.578125 C 351.691406 -359.390625 353.960938 -357.90625 354.953125 -356.125 C 355.941406 -354.351562 356.828125 -351.296875 357.609375 -346.953125 L 364.71875 -264.65625 C 364.71875 -263.46875 363.726562 -262.675781 361.75 -262.28125 C 359.78125 -261.894531 358.597656 -262.488281 358.203125 -264.0625 C 344.785156 -295.25 326.828125 -319.328125 304.328125 -336.296875 C 281.828125 -353.273438 255.773438 -361.765625 226.171875 -361.765625 C 187.097656 -361.765625 156.898438 -347.351562 135.578125 -318.53125 C 114.265625 -289.71875 103.609375 -251.035156 103.609375 -202.484375 C 103.609375 -166.171875 109.429688 -133.015625 121.078125 -103.015625 C 132.722656 -73.023438 149.101562 -49.242188 170.21875 -31.671875 C 191.34375 -14.109375 215.320312 -5.328125 242.15625 -5.328125 C 267.414062 -5.328125 290.015625 -13.710938 309.953125 -30.484375 C 329.890625 -47.265625 347.75 -72.828125 363.53125 -107.171875 C 363.925781 -108.742188 365.207031 -109.332031 367.375 -108.9375 C 369.550781 -108.539062 370.640625 -107.753906 370.640625 -106.578125 L 361.765625 -26.046875 C 360.972656 -21.316406 360.082031 -18.257812 359.09375 -16.875 C 358.101562 -15.488281 355.832031 -14.007812 352.28125 -12.4375 C 317.15625 0.59375 281.039062 7.109375 243.9375 7.109375 C 195.78125 7.109375 155.519531 -2.460938 123.15625 -21.609375 C 90.789062 -40.753906 67.007812 -65.03125 51.8125 -94.4375 C 36.613281 -123.84375 29.015625 -154.53125 29.015625 -186.5 C 29.015625 -224 39.175781 -257.15625 59.5 -285.96875 C 79.832031 -314.789062 106.867188 -337.09375 140.609375 -352.875 C 174.359375 -368.664062 210.578125 -376.5625 249.265625 -376.5625 Z M 249.265625 -376.5625 "/></g></g></g><g fill="#fffaf0" fill-opacity="1"><g transform="translate(4766.97448, 1965.753535)"><g><path d="M 393.140625 -7.109375 C 394.328125 -7.109375 394.921875 -5.921875 394.921875 -3.546875 C 394.921875 -1.179688 394.328125 0 393.140625 0 L 326.828125 0 C 320.515625 0 315.1875 0.195312 310.84375 0.59375 C 306.5 0.988281 302.945312 1.1875 300.1875 1.1875 C 293.863281 1.1875 288.429688 -0.289062 283.890625 -3.25 C 279.359375 -6.21875 273.832031 -11.644531 267.3125 -19.53125 C 260.800781 -27.425781 249.257812 -42.625 232.6875 -65.125 C 230.707031 -67.882812 228.4375 -70.941406 225.875 -74.296875 C 223.3125 -77.660156 220.453125 -81.507812 217.296875 -85.84375 L 139.734375 -190.0625 L 126.703125 -177.03125 L 126.703125 -47.953125 C 126.703125 -35.722656 127.6875 -26.84375 129.65625 -21.3125 C 131.632812 -15.789062 135.484375 -12.039062 141.203125 -10.0625 C 146.929688 -8.09375 156.113281 -7.109375 168.75 -7.109375 C 170.320312 -7.109375 171.109375 -5.921875 171.109375 -3.546875 C 171.109375 -1.179688 170.320312 0 168.75 0 C 155.71875 0 145.453125 -0.195312 137.953125 -0.59375 L 93.546875 -1.1875 L 49.734375 -0.59375 C 41.835938 -0.195312 31.179688 0 17.765625 0 C 16.972656 0 16.578125 -1.179688 16.578125 -3.546875 C 16.578125 -5.921875 16.972656 -7.109375 17.765625 -7.109375 C 30.390625 -7.109375 39.660156 -8.09375 45.578125 -10.0625 C 51.503906 -12.039062 55.550781 -15.890625 57.71875 -21.609375 C 59.894531 -27.335938 60.984375 -36.117188 60.984375 -47.953125 L 60.984375 -322.09375 C 60.984375 -333.9375 59.894531 -342.617188 57.71875 -348.140625 C 55.550781 -353.671875 51.601562 -357.519531 45.875 -359.6875 C 40.15625 -361.851562 31.179688 -362.9375 18.953125 -362.9375 C 17.765625 -362.9375 17.171875 -364.117188 17.171875 -366.484375 C 17.171875 -368.859375 17.765625 -370.046875 18.953125 -370.046875 L 50.328125 -369.453125 C 68.484375 -368.660156 82.890625 -368.265625 93.546875 -368.265625 C 105.390625 -368.265625 120.390625 -368.660156 138.546875 -369.453125 L 168.75 -370.046875 C 169.925781 -370.046875 170.515625 -368.859375 170.515625 -366.484375 C 170.515625 -364.117188 169.925781 -362.9375 168.75 -362.9375 C 156.507812 -362.9375 147.523438 -361.753906 141.796875 -359.390625 C 136.078125 -357.023438 132.128906 -352.976562 129.953125 -347.25 C 127.785156 -341.53125 126.703125 -332.75 126.703125 -320.90625 L 126.703125 -195.390625 L 238.015625 -309.0625 C 249.460938 -320.507812 255.1875 -330.96875 255.1875 -340.4375 C 255.1875 -347.550781 252.023438 -353.078125 245.703125 -357.015625 C 239.390625 -360.960938 230.507812 -362.9375 219.0625 -362.9375 C 217.882812 -362.9375 217.296875 -364.117188 217.296875 -366.484375 C 217.296875 -368.859375 217.882812 -370.046875 219.0625 -370.046875 L 246.890625 -369.453125 C 264.265625 -368.660156 280.453125 -368.265625 295.453125 -368.265625 C 311.628906 -368.265625 328.40625 -368.660156 345.78125 -369.453125 L 372.421875 -370.046875 C 373.597656 -370.046875 374.1875 -368.859375 374.1875 -366.484375 C 374.1875 -364.117188 373.597656 -362.9375 372.421875 -362.9375 C 354.265625 -362.9375 334.328125 -357.707031 312.609375 -347.25 C 290.898438 -336.789062 271.164062 -322.878906 253.40625 -305.515625 L 186.5 -237.421875 L 274.125 -119 C 299.789062 -82.289062 319.035156 -56.335938 331.859375 -41.140625 C 344.691406 -25.953125 355.050781 -16.484375 362.9375 -12.734375 C 370.832031 -8.984375 380.898438 -7.109375 393.140625 -7.109375 Z M 393.140625 -7.109375 "/></g></g></g></svg>