<svg xmlns="http://www.w3.org/2000/svg" xmlns:xlink="http://www.w3.org/1999/xlink" width="500" zoomAndPan="magnify" viewBox="0 0 375 374.999991" height="500" preserveAspectRatio="xMidYMid meet" version="1.0"><defs><clipPath id="124e0d4dea"><path d="M 16.027344 38 L 358.777344 38 L 358.777344 335 L 16.027344 335 Z M 16.027344 38 " clip-rule="nonzero"/></clipPath></defs><rect x="-37.5" width="450" fill="#ffffff" y="-37.499999" height="449.999989" fill-opacity="1"/><rect x="-37.5" width="450" fill="#ffffff" y="-37.499999" height="449.999989" fill-opacity="1"/><g clip-path="url(#124e0d4dea)"><path fill="#000000" d="M 116.445312 333.890625 C 115.703125 333.457031 112.621094 333.046875 109.601562 332.976562 C 104.957031 332.867188 103.769531 332.578125 101.941406 331.109375 C 98.460938 328.316406 98.460938 326.695312 101.933594 322.59375 C 102.4375 322 103.730469 320.949219 104.804688 320.257812 C 106.140625 319.402344 106.769531 318.386719 106.785156 317.0625 C 106.824219 313.808594 108.347656 312.59375 113.28125 311.878906 C 120.398438 310.847656 125.984375 311 125.984375 312.222656 C 125.984375 314.203125 127.421875 314.105469 130.605469 311.914062 C 134.6875 309.101562 135.949219 306.617188 135.949219 301.402344 C 135.949219 297.402344 134.082031 290.507812 132.59375 289.019531 C 132.203125 288.625 130.027344 287.820312 127.761719 287.226562 C 125.496094 286.632812 123.121094 285.503906 122.484375 284.71875 C 121.847656 283.929688 119.570312 282.691406 117.425781 281.964844 C 112.832031 280.40625 112.183594 278.71875 116.234375 278.847656 C 118 278.902344 119.980469 279.671875 121.929688 281.0625 C 123.570312 282.230469 126.109375 283.75 127.566406 284.433594 C 131.605469 286.332031 136.488281 290.960938 137.023438 293.40625 C 137.28125 294.585938 137.730469 297.707031 138.023438 300.34375 C 138.539062 305.027344 138.570312 305.089844 139.449219 303 C 140.308594 300.960938 140.152344 296.570312 139.089844 292.839844 C 138.816406 291.882812 138.941406 291.238281 139.402344 291.238281 C 140.355469 291.238281 141.753906 293.769531 142.320312 296.53125 C 142.554688 297.675781 143.1875 298.761719 143.726562 298.941406 C 144.503906 299.199219 144.601562 298.636719 144.214844 296.207031 C 143.5625 292.121094 138.527344 284.957031 134.867188 282.90625 C 133.308594 282.035156 131.269531 280.746094 130.332031 280.042969 C 128.476562 278.648438 123.636719 277.007812 121.335938 276.992188 C 119.210938 276.976562 116.515625 274.898438 117.316406 273.886719 C 117.675781 273.433594 118.128906 270.960938 118.324219 268.394531 C 118.664062 263.886719 120.375 259.160156 121.664062 259.160156 C 122.007812 259.160156 122.125 259.800781 121.917969 260.585938 C 121.714844 261.371094 121.226562 262.011719 120.835938 262.011719 C 120.441406 262.011719 120.277344 262.820312 120.464844 263.8125 C 120.65625 264.800781 120.613281 265.730469 120.371094 265.878906 C 120.128906 266.027344 120.039062 267.886719 120.167969 270.007812 L 120.40625 273.863281 L 124.617188 274.796875 C 126.933594 275.3125 128.832031 276.015625 128.832031 276.355469 C 128.832031 276.699219 129.113281 276.980469 129.460938 276.980469 C 130.710938 276.980469 139.21875 283.089844 142.132812 286.078125 C 145.578125 289.613281 147.339844 294.589844 147.339844 300.792969 C 147.339844 303.894531 147.007812 305.113281 145.84375 306.277344 C 144.007812 308.117188 142.511719 307.152344 143.714844 304.90625 C 145.007812 302.480469 144.6875 301.089844 142.890625 301.34375 C 141.800781 301.5 141.210938 302.144531 141.046875 303.355469 C 140.691406 305.976562 135.378906 312.5625 133.183594 313.101562 C 132.160156 313.355469 130.140625 314.175781 128.695312 314.921875 C 126.5 316.0625 125.800781 316.140625 124.425781 315.40625 C 123.519531 314.921875 122.449219 314.074219 122.039062 313.523438 C 121.261719 312.46875 118.710938 312.589844 112.457031 313.984375 C 110.695312 314.378906 108.988281 314.710938 108.664062 314.730469 C 108.339844 314.746094 108.289062 315.742188 108.554688 316.945312 C 109.121094 319.535156 107.6875 321.484375 104.109375 322.980469 C 102.828125 323.515625 101.78125 324.425781 101.78125 325 C 101.78125 326.757812 102.597656 328.304688 103.527344 328.304688 C 104.011719 328.304688 104.984375 328.941406 105.6875 329.722656 C 106.703125 330.847656 107.523438 331.050781 109.65625 330.710938 C 112.777344 330.210938 118.863281 332.21875 118.863281 333.746094 C 118.863281 334.910156 118.257812 334.945312 116.445312 333.890625 Z M 231.996094 330.492188 C 226.777344 328.5 224.332031 326.316406 223.691406 323.089844 C 223.363281 321.414062 222.554688 319.929688 221.71875 319.46875 C 220.9375 319.039062 219.339844 318.011719 218.167969 317.191406 C 216.148438 315.78125 215.246094 315.707031 201.875 315.878906 C 186.527344 316.074219 186.148438 316.011719 176.136719 311.746094 C 170.367188 309.289062 163 304.898438 163 303.921875 C 163 303.632812 162.242188 301.703125 161.316406 299.632812 C 157.238281 290.503906 157.253906 290.699219 160.210938 283.039062 C 164.238281 272.605469 164.675781 271.644531 166.097656 270.03125 C 166.875 269.152344 167.339844 268.261719 167.132812 268.050781 C 166.921875 267.84375 163.011719 267.472656 158.441406 267.226562 C 153.871094 266.980469 149.964844 266.507812 149.761719 266.175781 C 149.273438 265.390625 148.050781 265.398438 148.050781 266.191406 C 148.050781 267.191406 154.390625 269.316406 156.292969 268.953125 C 158.296875 268.570312 159.398438 269.699219 157.929688 270.632812 C 155.601562 272.109375 148.417969 270.894531 145.734375 268.570312 C 145.050781 267.976562 144.484375 266.660156 144.472656 265.640625 C 144.445312 262.199219 141.90625 258.027344 137.800781 254.675781 C 133.203125 250.925781 131.320312 250.132812 129.871094 251.339844 C 129.054688 252.019531 128.753906 251.949219 128.386719 250.992188 C 128.0625 250.144531 127.183594 249.832031 125.355469 249.914062 C 121.699219 250.078125 121.210938 249.960938 122.417969 249.199219 C 124.109375 248.125 130.441406 247.578125 132.414062 248.335938 C 133.402344 248.714844 136.519531 250.730469 139.335938 252.8125 C 142.996094 255.523438 144.761719 257.371094 145.535156 259.304688 C 146.710938 262.253906 148.050781 262.894531 148.050781 260.515625 C 148.050781 256.714844 143.53125 250.933594 140.21875 250.488281 C 139.21875 250.351562 138.441406 249.78125 138.441406 249.179688 C 138.441406 248.386719 139.082031 248.171875 140.929688 248.355469 C 145.890625 248.84375 149.515625 252.621094 150.878906 258.726562 C 152.300781 265.078125 153.894531 266.902344 155.902344 264.480469 C 156.636719 263.59375 156.632812 263.058594 155.886719 261.664062 C 154.789062 259.613281 155.339844 253.351562 156.890625 250.199219 C 159.078125 245.761719 159.042969 244.390625 156.726562 243.191406 C 154.066406 241.8125 148.050781 235.007812 148.050781 233.375 C 148.050781 231.410156 149.394531 231.144531 149.863281 233.015625 C 150.097656 233.960938 151.214844 235.414062 152.339844 236.25 L 154.386719 237.765625 L 154.597656 233.675781 C 154.765625 230.453125 155.074219 229.539062 156.058594 229.351562 C 156.808594 229.210938 157.304688 229.550781 157.304688 230.210938 C 157.304688 230.816406 157.945312 231.652344 158.726562 232.070312 C 159.558594 232.515625 160.152344 233.5625 160.152344 234.589844 C 160.152344 235.558594 160.472656 236.347656 160.863281 236.347656 C 161.253906 236.347656 161.574219 235.425781 161.574219 234.300781 C 161.574219 233.171875 161.761719 231.304688 161.992188 230.152344 C 162.378906 228.222656 161.9375 227.652344 156.433594 222.972656 C 151.339844 218.640625 149.945312 216.945312 146.988281 211.488281 C 145.082031 207.964844 141.527344 202.707031 139.085938 199.800781 C 133.992188 193.738281 130.867188 192.042969 121.019531 190.011719 C 111.28125 188 109.382812 187.335938 104.675781 184.289062 C 102.226562 182.703125 98.578125 181.023438 96.570312 180.5625 C 93.980469 179.960938 92.148438 178.945312 90.261719 177.054688 C 88.796875 175.589844 86.253906 173.703125 84.601562 172.859375 C 81.300781 171.171875 73.4375 164.980469 68.589844 160.253906 C 66.882812 158.585938 65.34375 157.222656 65.175781 157.222656 C 64.570312 157.222656 60.492188 164.90625 60.492188 166.042969 C 60.492188 166.679688 60.171875 167.203125 59.78125 167.203125 C 59.390625 167.203125 59.070312 167.683594 59.070312 168.273438 C 59.070312 168.859375 58.773438 169.339844 58.414062 169.339844 C 58.054688 169.339844 57.542969 170.316406 57.28125 171.511719 C 57.019531 172.707031 56.203125 174.242188 55.46875 174.929688 C 53.75 176.535156 41.453125 198.800781 38.214844 206.167969 C 36.855469 209.269531 34.90625 213.039062 33.878906 214.550781 C 32.855469 216.0625 32.019531 217.734375 32.019531 218.269531 C 32.019531 218.804688 31.761719 219.238281 31.449219 219.238281 C 31.136719 219.238281 30.480469 220.351562 29.988281 221.714844 C 29.085938 224.214844 27.972656 226.222656 22.476562 235.277344 C 20.070312 239.246094 19.097656 240.265625 17.726562 240.265625 C 16.335938 240.265625 16.023438 239.921875 16.105469 238.484375 C 16.257812 235.835938 17.921875 231.96875 19.851562 229.773438 C 21.761719 227.609375 25.886719 217.21875 27.015625 211.753906 C 27.417969 209.792969 27.863281 200.972656 28 192.152344 C 28.171875 181.339844 28.554688 175.300781 29.179688 173.617188 C 29.6875 172.246094 30.800781 169.25 31.652344 166.964844 C 34.4375 159.480469 39.753906 154.078125 48.746094 149.597656 C 51.433594 148.261719 51.605469 147.984375 51.804688 144.644531 C 52.070312 140.179688 54.265625 135.601562 58.753906 130.148438 C 61.632812 126.648438 62.664062 125.867188 64.417969 125.863281 C 66.257812 125.859375 66.898438 125.304688 68.875 121.992188 L 71.183594 118.128906 L 69.042969 113.996094 C 66.289062 108.683594 66.234375 104.726562 68.824219 98.246094 C 72.109375 90.011719 78.171875 83.230469 87.699219 77.128906 C 89.925781 75.703125 91.96875 74.535156 92.246094 74.535156 C 92.523438 74.535156 93.796875 73.734375 95.082031 72.753906 C 96.363281 71.773438 97.773438 70.972656 98.210938 70.972656 C 98.648438 70.972656 101.222656 69.523438 103.925781 67.757812 C 106.632812 65.988281 109.660156 64.230469 110.652344 63.851562 C 111.644531 63.476562 112.457031 62.691406 112.457031 62.117188 C 112.457031 61.539062 113.253906 60.207031 114.222656 59.15625 C 115.195312 58.105469 115.832031 56.992188 115.640625 56.679688 C 115.445312 56.367188 116.226562 55.441406 117.371094 54.625 C 120.140625 52.652344 122.675781 47.292969 123.125 42.457031 C 123.441406 39.070312 123.707031 38.507812 125.089844 38.308594 C 128.425781 37.835938 128.5 44.894531 125.222656 50.742188 C 119.640625 60.707031 117.074219 65.070312 116.140625 66.164062 C 115.554688 66.851562 114.726562 68.011719 114.300781 68.734375 C 113.875 69.460938 112.695312 71.304688 111.679688 72.828125 C 110.667969 74.355469 108.140625 78.8125 106.070312 82.734375 C 100.566406 93.148438 100.042969 94.101562 99.59375 94.496094 C 99.367188 94.691406 94.144531 103.917969 87.984375 115 C 78.367188 132.292969 76.8125 135.519531 77 137.761719 C 77.175781 139.855469 77.578125 140.476562 79 140.867188 C 79.980469 141.136719 82.601562 142.199219 84.828125 143.230469 C 87.054688 144.261719 89.519531 145.105469 90.304688 145.105469 C 91.089844 145.105469 91.902344 145.382812 92.113281 145.726562 C 92.324219 146.066406 93.46875 146.542969 94.65625 146.78125 C 97.621094 147.371094 103.996094 151.566406 106.097656 154.304688 C 110.914062 160.582031 111.910156 161.5 113.890625 161.5 C 114.992188 161.5 117.664062 162.179688 119.835938 163.011719 C 122.875 164.175781 124.542969 164.410156 127.101562 164.023438 L 130.421875 163.527344 L 128.230469 161.621094 C 126.875 160.441406 125.960938 158.90625 125.832031 157.585938 C 125.578125 154.933594 123.769531 154.449219 121.730469 156.492188 C 120.175781 158.050781 118.863281 157.875 118.863281 156.113281 C 118.863281 155.546875 119.34375 155.085938 119.933594 155.085938 C 120.519531 155.085938 121 154.605469 121 154.015625 C 121 153.425781 120.53125 152.945312 119.960938 152.945312 C 118.664062 152.945312 115.933594 150.097656 116.441406 149.273438 C 116.644531 148.941406 116.570312 148.277344 116.273438 147.792969 C 115.585938 146.679688 115.578125 144.257812 116.257812 143.15625 C 116.765625 142.332031 114.210938 140.425781 109.304688 137.957031 C 106.195312 136.394531 107.242188 134.851562 110.5 136.191406 C 111.5625 136.628906 111.746094 136.292969 111.746094 133.917969 C 111.746094 130.894531 112.726562 129.421875 114.734375 129.421875 C 116.289062 129.421875 116.4375 128.113281 114.949219 127.542969 C 113.347656 126.925781 113.660156 124.890625 115.648438 123.023438 C 117.132812 121.625 117.25 121.238281 116.390625 120.582031 C 115.015625 119.53125 113.667969 115.878906 114.652344 115.878906 C 115.058594 115.878906 115.191406 115.554688 114.945312 115.160156 C 114.703125 114.765625 115.164062 113.515625 115.972656 112.378906 C 116.78125 111.242188 117.441406 109.613281 117.441406 108.753906 C 117.441406 107.855469 118.742188 105.929688 120.527344 104.195312 C 122.445312 102.328125 123.796875 100.28125 124.09375 98.78125 C 124.707031 95.714844 126.449219 93.78125 128.597656 93.78125 C 131.613281 93.78125 135.71875 92.109375 136.375 90.613281 C 137.304688 88.496094 142.910156 88.636719 144.355469 90.816406 C 145.347656 92.3125 145.398438 92.316406 147.242188 91.023438 C 150.023438 89.070312 152.773438 88.8125 158.65625 89.9375 C 161.566406 90.496094 165.011719 90.75 166.316406 90.507812 C 167.617188 90.261719 169.472656 90.257812 170.4375 90.5 C 172.328125 90.976562 175.8125 95.042969 176.117188 97.132812 C 176.21875 97.835938 177.289062 98.988281 178.488281 99.691406 L 180.671875 100.96875 L 183.121094 98.445312 C 185.953125 95.523438 186.492188 95.359375 186.492188 97.414062 C 186.492188 98.304688 185.917969 99.054688 185.066406 99.277344 C 183.207031 99.765625 183.222656 101.621094 185.089844 101.621094 C 187.058594 101.621094 187.359375 102.789062 186.464844 106.976562 C 185.375 112.109375 185.277344 115.878906 186.238281 115.878906 C 186.683594 115.878906 187.234375 116.359375 187.460938 116.949219 C 188.0625 118.523438 189.207031 118.25 189.464844 116.46875 C 189.59375 115.617188 190.09375 114.789062 190.582031 114.628906 C 191.964844 114.171875 191.664062 117.625 190.015625 121.136719 C 189.214844 122.84375 188.625 124.523438 188.707031 124.871094 C 188.785156 125.21875 188.601562 126.078125 188.296875 126.78125 C 187.988281 127.484375 187.914062 128.234375 188.132812 128.453125 C 188.347656 128.667969 187.933594 129.8125 187.214844 130.996094 C 185.628906 133.613281 186.445312 136.933594 188.863281 137.683594 C 189.710938 137.949219 191.207031 138.714844 192.1875 139.390625 C 193.164062 140.066406 195.566406 141.199219 197.523438 141.914062 C 201.402344 143.328125 202.863281 144.226562 202.863281 145.191406 C 202.863281 145.535156 202.222656 145.816406 201.441406 145.816406 C 200.601562 145.816406 200.015625 146.292969 200.015625 146.96875 C 200.015625 147.863281 200.453125 148.019531 201.972656 147.660156 C 203.050781 147.40625 205.300781 147.007812 206.972656 146.769531 C 208.644531 146.535156 210.1875 146.0625 210.394531 145.722656 C 210.605469 145.382812 211.601562 145.105469 212.609375 145.105469 C 215.058594 145.105469 220.042969 143.648438 221.371094 142.546875 C 221.957031 142.058594 223.800781 141.117188 225.464844 140.453125 C 227.128906 139.789062 228.488281 139 228.488281 138.699219 C 228.488281 137.964844 232.769531 133.621094 239.039062 127.996094 C 242.164062 125.191406 244.925781 121.957031 246.039062 119.800781 C 247.046875 117.839844 248.375 115.664062 248.992188 114.960938 C 249.953125 113.867188 249.984375 113.328125 249.195312 111.144531 C 248.5625 109.402344 248.449219 107.339844 248.824219 104.578125 C 249.539062 99.3125 249.71875 97.472656 249.789062 94.671875 C 249.835938 92.691406 250.101562 92.355469 251.628906 92.355469 C 253.382812 92.355469 256.609375 95.238281 256.609375 96.808594 C 256.609375 97.234375 257.007812 97.71875 257.496094 97.878906 C 257.988281 98.042969 258.386719 97.625 258.386719 96.953125 C 258.386719 96.277344 259.140625 95.027344 260.066406 94.171875 C 260.988281 93.3125 261.90625 92.15625 262.101562 91.59375 C 262.300781 91.03125 262.683594 90.777344 262.949219 91.023438 C 263.816406 91.824219 260.21875 98.347656 258.417969 99.246094 L 256.667969 100.121094 L 258.527344 100.828125 C 261.363281 101.90625 261.617188 103.007812 259.144531 103.5 C 257.875 103.757812 256.964844 104.386719 256.964844 105.007812 C 256.964844 105.90625 256.785156 105.925781 255.820312 105.125 C 254.957031 104.40625 254.757812 103.320312 255.007812 100.710938 C 255.34375 97.210938 254.207031 94.820312 252.480469 95.398438 C 251.460938 95.738281 250.976562 109.199219 251.960938 109.808594 C 253.175781 110.558594 252.789062 112.90625 250.984375 115.714844 C 250.046875 117.179688 248.859375 119.574219 248.351562 121.046875 C 247.242188 124.238281 244.351562 127.179688 239.234375 130.316406 C 235.90625 132.355469 235.203125 133.222656 233.316406 137.621094 C 230.726562 143.660156 230.300781 144.175781 228.875 142.992188 C 227.984375 142.25 227.347656 142.257812 225.464844 143.019531 C 222.429688 144.253906 218.617188 147.277344 218.113281 148.847656 C 217.609375 150.425781 214.253906 150.5625 214.253906 149.003906 C 214.253906 148.402344 213.792969 147.734375 213.234375 147.519531 C 211.828125 146.980469 200.402344 150.550781 199.308594 151.871094 C 198.820312 152.464844 198.027344 152.945312 197.546875 152.945312 C 196.386719 152.945312 194.613281 155.03125 193.964844 157.160156 C 193.675781 158.105469 192.9375 160.03125 192.324219 161.4375 C 191.707031 162.84375 191.144531 164.234375 191.074219 164.53125 C 191 164.824219 190.863281 165.304688 190.773438 165.597656 C 190.679688 165.894531 190.664062 166.871094 190.738281 167.773438 C 190.8125 168.679688 190.554688 169.800781 190.167969 170.269531 C 189.777344 170.738281 189.46875 171.285156 189.484375 171.480469 C 189.496094 171.675781 189.027344 172.988281 188.4375 174.394531 C 187.851562 175.800781 187.152344 177.644531 186.882812 178.492188 C 186.613281 179.339844 186.121094 180.035156 185.785156 180.035156 C 184.761719 180.035156 184.550781 177.609375 185.472656 176.46875 C 186.539062 175.148438 189.171875 165.632812 188.789062 164.480469 C 188.28125 162.960938 187.503906 163.597656 186.550781 166.3125 C 186.03125 167.78125 185.0625 169.625 184.394531 170.410156 C 183.722656 171.195312 183.132812 172.476562 183.082031 173.261719 C 182.996094 174.582031 180.136719 186.179688 178.996094 189.835938 C 178.691406 190.808594 178.792969 191.4375 179.253906 191.4375 C 179.671875 191.4375 180.570312 189.59375 181.253906 187.339844 C 182.742188 182.414062 183.628906 180.996094 184.414062 182.269531 C 184.714844 182.75 184.148438 185.253906 183.15625 187.828125 C 182.167969 190.402344 180.425781 195.714844 179.289062 199.636719 C 178.148438 203.558594 176.757812 207.929688 176.199219 209.355469 C 174.410156 213.902344 172.199219 223.71875 171.886719 228.507812 C 171.722656 231.054688 171.757812 232.496094 171.964844 231.714844 C 173.34375 226.535156 175.453125 220.832031 176.386719 219.757812 C 178.457031 217.378906 178.765625 219.671875 176.933594 223.820312 C 175.941406 226.066406 174.804688 230.519531 174.402344 233.714844 C 173.386719 241.847656 174.53125 247.214844 176.40625 243.097656 C 177.3125 241.101562 179.085938 240.628906 178.335938 242.582031 C 177.464844 244.851562 176.378906 250.695312 176.757812 251.074219 C 177.46875 251.789062 180.015625 250.519531 180.417969 249.253906 C 180.992188 247.433594 184.359375 244.363281 184.34375 245.667969 C 184.339844 246.226562 184.039062 247.148438 183.679688 247.71875 C 182.648438 249.351562 183.464844 249.832031 185.78125 248.957031 C 187.09375 248.464844 187.914062 247.644531 187.914062 246.832031 C 187.914062 245.875 188.351562 245.578125 189.515625 245.742188 C 190.742188 245.917969 191.171875 246.511719 191.339844 248.285156 C 191.464844 249.5625 191.945312 250.605469 192.410156 250.605469 C 194.4375 250.609375 206.183594 248.332031 207.300781 247.714844 C 208.886719 246.847656 211.617188 246.835938 211.082031 247.695312 C 210.859375 248.058594 209.640625 248.574219 208.371094 248.839844 C 207.105469 249.105469 204.144531 249.90625 201.796875 250.621094 C 199.445312 251.335938 195.921875 252.117188 193.964844 252.359375 C 188.230469 253.0625 186.492188 253.519531 186.492188 254.320312 C 186.492188 255.183594 195.003906 254.710938 196.535156 253.761719 C 197.050781 253.445312 198.925781 253.121094 200.699219 253.046875 C 204.339844 252.890625 209.984375 251.34375 213.1875 249.621094 C 215.789062 248.222656 216.457031 248.171875 215.980469 249.414062 C 215.78125 249.9375 213.789062 251.105469 211.554688 252.007812 C 209.320312 252.910156 207.167969 254.042969 206.773438 254.523438 C 205.941406 255.535156 203.324219 255.992188 192.667969 256.996094 C 181.996094 258 180.527344 259.109375 189.839844 259.136719 C 193.832031 259.148438 197.835938 259.449219 198.738281 259.804688 C 199.636719 260.160156 202.292969 261.015625 204.644531 261.707031 C 209.09375 263.007812 211.929688 264.410156 216.742188 267.683594 C 222.507812 271.605469 227.832031 273.574219 233.726562 273.957031 C 240.582031 274.402344 247 273.089844 247 271.242188 C 247 270.328125 247.835938 269.886719 250.273438 269.519531 C 253.125 269.089844 254.253906 268.328125 259.070312 263.558594 C 262.113281 260.550781 265.40625 256.804688 266.394531 255.238281 C 268.515625 251.875 272.421875 248.023438 273.058594 248.660156 C 273.304688 248.910156 272.269531 250.808594 270.753906 252.886719 C 266.058594 259.328125 264.390625 261.203125 259.777344 265.214844 C 257.433594 267.253906 257.394531 267.367188 258.933594 267.585938 C 259.820312 267.710938 261.621094 267.148438 262.933594 266.335938 C 265.84375 264.535156 267.550781 264.324219 266.21875 265.929688 C 265.730469 266.519531 265.039062 267 264.679688 267 C 264.320312 267 263.109375 267.675781 261.992188 268.503906 C 260.875 269.332031 258.976562 270.058594 257.773438 270.121094 C 256.574219 270.179688 255.195312 270.625 254.710938 271.109375 C 254.226562 271.59375 253.574219 271.988281 253.253906 271.988281 C 252.9375 271.988281 251.320312 272.585938 249.660156 273.3125 C 248 274.042969 245.683594 275.035156 244.507812 275.523438 L 242.371094 276.410156 L 245.65625 279.394531 C 247.460938 281.035156 250.421875 283.167969 252.234375 284.128906 C 255 285.597656 255.757812 285.738281 256.9375 285.003906 C 257.933594 284.378906 258.878906 284.328125 260.191406 284.828125 C 261.207031 285.214844 263.398438 285.53125 265.058594 285.53125 C 267.160156 285.53125 268.808594 286.074219 270.488281 287.3125 C 273.699219 289.683594 275.148438 289.566406 279.585938 286.574219 C 282.695312 284.480469 283.464844 283.523438 284.171875 280.875 C 284.640625 279.125 285.277344 277.691406 285.585938 277.691406 C 286.757812 277.691406 286.082031 281.199219 284.289062 284.410156 C 283.265625 286.246094 282.546875 287.863281 282.6875 288.007812 C 283.492188 288.808594 285.78125 285.8125 286.832031 282.578125 C 288.21875 278.320312 290.101562 276.84375 289.574219 280.425781 C 289.371094 281.828125 289.589844 282.753906 290.179688 282.984375 C 291.519531 283.496094 290.515625 285.53125 288.921875 285.53125 C 288.179688 285.53125 287.574219 285.851562 287.574219 286.246094 C 287.574219 286.636719 288.394531 286.957031 289.402344 286.957031 C 290.878906 286.957031 291.144531 287.21875 290.796875 288.324219 C 290.222656 290.128906 291.625 290.921875 293.136719 289.648438 C 294.601562 288.410156 296.828125 288.800781 296.828125 290.292969 C 296.828125 290.929688 296.417969 291.230469 295.847656 291.011719 C 294.863281 290.632812 293.269531 291.738281 293.269531 292.804688 C 293.269531 293.117188 294.230469 293.375 295.40625 293.375 C 296.847656 293.375 297.539062 293.726562 297.539062 294.464844 C 297.539062 295.066406 298.019531 295.742188 298.609375 295.96875 C 300.15625 296.5625 299.917969 298.363281 298.292969 298.363281 C 296.050781 298.363281 295.832031 299.769531 297.765625 301.808594 C 298.761719 302.851562 300.410156 305.382812 301.429688 307.429688 C 303.476562 311.53125 305.511719 313.332031 308.097656 313.332031 C 309.433594 313.332031 309.683594 313.066406 309.28125 312.085938 C 309 311.398438 308.605469 310.277344 308.410156 309.589844 C 308.210938 308.902344 307.769531 308.34375 307.421875 308.34375 C 306.40625 308.34375 306.703125 305.480469 307.765625 305.074219 C 308.300781 304.867188 310.050781 305.386719 311.652344 306.222656 C 315.769531 308.371094 317.808594 306.792969 314.445312 304.0625 C 313.566406 303.347656 313.082031 302.523438 313.375 302.230469 C 313.664062 301.9375 314.546875 302.28125 315.332031 302.992188 C 316.726562 304.253906 316.757812 304.242188 316.757812 302.480469 C 316.757812 301.488281 316.277344 300.273438 315.683594 299.78125 C 314.726562 298.988281 314.730469 298.796875 315.726562 298.070312 C 316.558594 297.460938 316.789062 296.265625 316.625 293.375 C 316.421875 289.851562 316.179688 289.351562 313.921875 287.832031 C 312.558594 286.910156 310.828125 285.191406 310.078125 284.007812 C 309.25 282.699219 307.226562 281.195312 304.902344 280.164062 C 301.015625 278.445312 299.605469 276.761719 300.9375 275.429688 C 301.449219 274.914062 302.054688 275.257812 302.894531 276.546875 C 303.574219 277.582031 304.78125 278.40625 305.628906 278.410156 C 306.464844 278.414062 309.019531 280.019531 311.300781 281.972656 C 313.582031 283.929688 315.6875 285.53125 315.972656 285.53125 C 316.261719 285.53125 317.199219 286.777344 318.050781 288.300781 C 319.773438 291.367188 320.089844 295.449219 318.71875 296.84375 C 318.003906 297.566406 318.089844 297.941406 319.144531 298.71875 C 320.679688 299.855469 320.335938 303.421875 318.289062 307.628906 C 317.171875 309.921875 316.828125 310.121094 314.035156 310.0625 C 311.730469 310.011719 311.089844 310.234375 311.378906 310.980469 C 311.585938 311.519531 311.460938 312.511719 311.105469 313.183594 C 310.75 313.851562 310.285156 314.964844 310.070312 315.648438 C 309.496094 317.515625 307.351562 317.164062 303.527344 314.582031 C 300.984375 312.863281 299.9375 311.621094 299.476562 309.769531 C 299.136719 308.394531 297.734375 306.113281 296.363281 304.691406 C 294.992188 303.269531 293.109375 300.464844 292.179688 298.453125 L 290.488281 294.800781 L 285.484375 294.800781 C 282.734375 294.800781 279.277344 294.328125 277.800781 293.75 C 274.710938 292.546875 265.285156 290.527344 262.660156 290.511719 C 260.335938 290.5 253.800781 288.371094 250.203125 286.460938 C 248.636719 285.628906 245.339844 283.191406 242.871094 281.042969 L 238.390625 277.136719 L 232.917969 277.136719 C 227.644531 277.136719 227.359375 277.226562 224.945312 279.589844 C 223.566406 280.941406 220.734375 283.027344 218.648438 284.226562 C 214.664062 286.523438 213.558594 287.972656 214.824219 289.242188 C 215.367188 289.78125 216.335938 289.5625 218.164062 288.480469 C 221.632812 286.433594 226.09375 286.46875 228.699219 288.566406 C 230.65625 290.144531 234.1875 298.289062 234.1875 301.234375 C 234.1875 301.992188 236.226562 304.785156 238.722656 307.4375 C 243.28125 312.28125 243.480469 312.71875 244.589844 320.105469 C 244.707031 320.890625 245.082031 323.242188 245.425781 325.335938 C 246.007812 328.898438 245.945312 329.179688 244.457031 329.746094 C 243.582031 330.082031 242.65625 330.691406 242.398438 331.109375 C 241.695312 332.25 235.675781 331.890625 232 330.488281 Z M 243.804688 328.289062 C 244.050781 327.886719 243.707031 326.125 243.039062 324.375 C 242.261719 322.335938 241.976562 320.25 242.246094 318.585938 C 242.722656 315.640625 241.773438 314.0625 236.234375 308.613281 C 234.175781 306.585938 232.628906 304.269531 232.085938 302.40625 C 231.609375 300.773438 230.847656 298.15625 230.394531 296.59375 C 229.945312 295.03125 228.65625 292.707031 227.535156 291.425781 C 225.886719 289.546875 224.960938 289.097656 222.71875 289.097656 C 219.734375 289.097656 219.390625 289.6875 220.941406 292.152344 C 221.488281 293.023438 222.148438 294.453125 222.410156 295.335938 C 223.0625 297.519531 221.179688 297.488281 219.742188 295.289062 C 219.019531 294.1875 217.382812 293.328125 214.816406 292.714844 C 211.125 291.828125 210.824219 291.867188 207.222656 293.753906 C 205.160156 294.832031 202.980469 296.472656 202.375 297.398438 C 201.011719 299.480469 199.59375 299.558594 199.078125 297.582031 C 198.847656 296.707031 198.355469 296.289062 197.886719 296.578125 C 196.957031 297.15625 193.609375 296.449219 193.609375 295.675781 C 193.609375 294.941406 196.996094 293.605469 200.292969 293.039062 C 204.164062 292.371094 209.847656 289.144531 211.636719 286.605469 C 212.460938 285.429688 213.546875 284.042969 214.050781 283.523438 C 214.554688 283.003906 214.960938 282.203125 214.957031 281.742188 C 214.945312 280.21875 211.484375 273.417969 210.726562 273.417969 C 210.316406 273.417969 209.980469 272.933594 209.980469 272.347656 C 209.980469 271.757812 210.460938 271.277344 211.046875 271.277344 C 212.777344 271.277344 214.78125 273.78125 216.152344 277.648438 C 216.859375 279.632812 217.695312 281.257812 218.015625 281.257812 C 219.082031 281.257812 222.429688 279.28125 223.648438 277.929688 C 225.058594 276.371094 224.660156 275.589844 221.726562 274.148438 C 220.550781 273.570312 218.550781 272.214844 217.273438 271.136719 C 214.453125 268.75 209.015625 266.207031 202.042969 264.015625 C 197.664062 262.636719 195.382812 262.382812 188.050781 262.457031 L 179.289062 262.546875 L 175.238281 265.308594 C 168.863281 269.660156 167.515625 271.476562 164.441406 279.832031 C 163.9375 281.203125 162.925781 283.632812 162.195312 285.226562 C 160.515625 288.882812 160.527344 289.921875 162.289062 293.375 C 163.070312 294.914062 163.710938 296.679688 163.710938 297.304688 C 163.710938 299.503906 165.789062 302.414062 168.773438 304.390625 C 171.222656 306.015625 172.035156 306.242188 173.082031 305.585938 C 173.8125 305.128906 177.410156 304.78125 181.414062 304.78125 C 188.160156 304.78125 188.511719 304.859375 189.636719 306.578125 C 190.765625 308.300781 190.746094 308.402344 189.183594 309.085938 C 187.851562 309.667969 188.042969 309.722656 190.226562 309.394531 C 193.492188 308.902344 193.859375 310.222656 190.761719 311.304688 C 189.585938 311.714844 188.820312 312.363281 189.058594 312.75 C 189.507812 313.476562 193.828125 313.121094 200.65625 311.796875 C 203.953125 311.15625 204.59375 311.214844 205.140625 312.191406 C 206.492188 314.609375 213.1875 313.347656 216.726562 310.007812 C 218.847656 308 219.527344 307.703125 220.371094 308.402344 C 221.273438 309.152344 221.269531 309.414062 220.320312 310.464844 C 218.238281 312.769531 218.972656 314.53125 222.765625 316.3125 C 225.851562 317.761719 226.296875 318.242188 226.324219 320.148438 C 226.359375 322.722656 228.003906 325.394531 228.777344 324.136719 C 229.058594 323.683594 230.210938 323.316406 231.34375 323.316406 C 233 323.316406 233.636719 323.804688 234.585938 325.808594 C 235.238281 327.183594 236.226562 328.304688 236.78125 328.304688 C 237.546875 328.304688 237.621094 327.980469 237.082031 326.976562 C 236.578125 326.027344 236.65625 325.265625 237.363281 324.304688 C 238.296875 323.027344 238.390625 323.066406 239.15625 325.074219 C 240.546875 328.722656 242.640625 330.171875 243.804688 328.289062 Z M 186.441406 308.042969 C 187.132812 307.210938 187.019531 307.101562 185.808594 307.417969 C 184.027344 307.882812 183.148438 309.058594 184.582031 309.058594 C 185.144531 309.058594 185.980469 308.601562 186.441406 308.042969 Z M 173.277344 261.71875 C 175.605469 260.3125 177.925781 259.160156 178.4375 259.160156 C 179.921875 259.160156 179.519531 257.207031 177.789062 255.992188 C 175.566406 254.433594 174.609375 254.605469 174.09375 256.664062 C 173.625 258.542969 172.34375 258.96875 171.054688 257.675781 C 170.5 257.117188 170.007812 257.289062 169.308594 258.273438 C 168.773438 259.027344 167.613281 260.03125 166.726562 260.503906 C 164.273438 261.804688 164.15625 260.351562 166.183594 253.8125 C 167.824219 248.527344 167.867188 248.046875 166.765625 247.21875 C 163.265625 244.601562 159.808594 247.121094 158.058594 253.5625 C 156.917969 257.765625 157.597656 260.90625 160.027344 262.632812 C 164.089844 265.519531 167.378906 265.292969 173.277344 261.71875 Z M 170.828125 253.789062 C 170.828125 253.273438 171.628906 252.21875 172.609375 251.445312 C 173.648438 250.628906 174.367188 249.347656 174.34375 248.363281 L 174.296875 246.683594 L 173.628906 248.355469 C 173.261719 249.277344 172.359375 250.183594 171.625 250.378906 C 170.890625 250.570312 169.929688 251.515625 169.492188 252.480469 C 168.410156 254.859375 168.488281 255.628906 169.761719 255.140625 C 170.347656 254.914062 170.828125 254.308594 170.828125 253.789062 Z M 170.601562 239.78125 C 170.375 239.210938 170.207031 239.378906 170.171875 240.210938 C 170.140625 240.960938 170.308594 241.382812 170.546875 241.144531 C 170.78125 240.910156 170.808594 240.292969 170.601562 239.78125 Z M 168.1875 232.273438 C 168.414062 229.222656 169.277344 224.320312 170.109375 221.378906 C 170.941406 218.4375 171.738281 213.878906 171.882812 211.242188 C 172.027344 208.609375 172.472656 205.402344 172.875 204.113281 C 173.277344 202.828125 174.761719 197.175781 176.167969 191.554688 C 177.578125 185.929688 179.355469 179.742188 180.117188 177.804688 C 181.589844 174.066406 181.90625 171.480469 180.890625 171.480469 C 179.476562 171.480469 176.488281 177.300781 174.492188 183.957031 C 173.316406 187.875 171.558594 193.328125 170.585938 196.074219 C 168.367188 202.339844 165.117188 216.050781 165.175781 218.886719 C 165.214844 220.769531 165.355469 220.617188 166.359375 217.609375 C 168.058594 212.5 168.949219 214.402344 168.109375 221.34375 C 167.699219 224.753906 166.945312 227.6875 166.292969 228.40625 C 165.21875 229.59375 165.214844 231.710938 166.269531 236.914062 C 166.886719 239.972656 167.773438 237.828125 168.1875 232.273438 Z M 162.128906 215.675781 C 162.761719 209.976562 166.878906 195.792969 169.441406 190.484375 C 170.8125 187.640625 170.8125 187.613281 169.402344 186.296875 C 168.621094 185.566406 167.984375 184.742188 167.992188 184.464844 C 168.019531 183.136719 169.308594 182.164062 170.8125 182.339844 C 172.25 182.503906 172.597656 182.070312 173.359375 179.144531 C 174.179688 175.984375 174.148438 175.757812 172.890625 175.757812 C 172.148438 175.757812 170.925781 175.144531 170.175781 174.394531 C 169.058594 173.273438 167.445312 172.964844 161.101562 172.671875 C 152.441406 172.269531 151.8125 172.105469 147.351562 169.078125 C 144.738281 167.300781 143.332031 166.878906 139.523438 166.722656 C 131.710938 166.398438 128.503906 166.542969 127.796875 167.246094 C 126.625 168.414062 123.207031 167.980469 119.730469 166.222656 C 117.882812 165.289062 114.449219 164.113281 112.101562 163.609375 C 106.269531 162.363281 105.339844 161.796875 105.339844 159.496094 C 105.339844 158.421875 104.894531 156.910156 104.351562 156.132812 C 102.378906 153.3125 95.484375 149.269531 90.421875 147.96875 C 87.660156 147.253906 84.109375 146 82.535156 145.175781 C 80.957031 144.355469 78.636719 143.675781 77.378906 143.671875 C 76.117188 143.664062 74.609375 143.359375 74.027344 142.988281 C 73.195312 142.464844 72.46875 143.195312 70.65625 146.386719 C 67.753906 151.480469 67.683594 153.585938 70.34375 155.371094 C 71.453125 156.113281 72.703125 157.632812 73.121094 158.742188 C 73.539062 159.851562 74.792969 161.15625 75.90625 161.640625 C 79.78125 163.332031 83.273438 165.976562 83.273438 167.21875 C 83.273438 167.960938 84.351562 168.980469 85.941406 169.738281 C 87.410156 170.433594 89.957031 172.390625 91.597656 174.085938 C 94.105469 176.667969 94.910156 177.097656 96.589844 176.761719 C 98.160156 176.449219 100.03125 177.214844 105.277344 180.320312 C 111.992188 184.289062 116.320312 185.90625 122.601562 186.78125 C 125.390625 187.167969 125.980469 187.058594 125.980469 186.136719 C 125.980469 185.472656 126.601562 185.027344 127.515625 185.027344 C 130.457031 185.027344 139.648438 193.050781 141.367188 197.117188 C 142.851562 200.632812 144.355469 202.105469 148.40625 204.003906 L 151.964844 205.671875 L 153.144531 204.117188 C 154.15625 202.777344 154.484375 202.695312 155.480469 203.523438 C 156.117188 204.050781 156.519531 204.839844 156.375 205.269531 C 156.226562 205.699219 157.257812 206.382812 158.664062 206.789062 C 160.101562 207.203125 161.21875 207.980469 161.21875 208.570312 C 161.21875 210.058594 158.246094 210.289062 156.21875 208.960938 C 154.402344 207.765625 148.761719 207.398438 148.761719 208.472656 C 148.761719 210.011719 152.96875 213.460938 155.402344 213.917969 C 156.921875 214.203125 158.015625 214.824219 158.015625 215.398438 C 158.015625 215.945312 157.675781 216.390625 157.261719 216.390625 C 156.847656 216.390625 156.664062 216.640625 156.851562 216.949219 C 157.042969 217.253906 158.261719 217.496094 159.5625 217.484375 C 161.554688 217.460938 161.960938 217.175781 162.128906 215.675781 Z M 33.441406 211.339844 C 33.441406 210.644531 33.921875 209.59375 34.507812 209.007812 C 35.097656 208.417969 35.578125 207.714844 35.578125 207.4375 C 35.578125 206.679688 44.960938 189.714844 45.621094 189.277344 C 46.539062 188.671875 56.78125 169.660156 58.796875 164.824219 C 59.800781 162.410156 60.914062 160.128906 61.269531 159.753906 C 61.625 159.382812 61.914062 158.527344 61.914062 157.855469 C 61.914062 157.183594 62.316406 156.488281 62.804688 156.3125 C 64.25 155.796875 62.945312 154.992188 60.011719 154.601562 C 57.847656 154.308594 57 154.542969 55.929688 155.730469 C 55.183594 156.550781 54.15625 157.226562 53.644531 157.226562 C 53.132812 157.226562 51.179688 157.734375 49.304688 158.359375 C 43.125 160.421875 37.566406 167.390625 35.992188 175.046875 C 35.707031 176.417969 35.183594 181.230469 34.820312 185.738281 C 33.714844 199.550781 32.332031 210.253906 31.441406 211.886719 C 30.109375 214.335938 30.402344 215.359375 32.019531 213.894531 C 32.800781 213.183594 33.441406 212.035156 33.441406 211.339844 Z M 33.738281 174.988281 C 34.976562 168.445312 35.378906 167.457031 38.238281 163.976562 C 41.757812 159.695312 46.128906 156.640625 51.949219 154.386719 C 54.101562 153.550781 56.183594 152.460938 56.578125 151.957031 C 56.96875 151.453125 58.007812 150.65625 58.890625 150.1875 C 60.75 149.195312 61.183594 146.113281 59.367188 146.8125 C 58.746094 147.050781 57.765625 147.246094 57.183594 147.246094 C 56.464844 147.246094 56.265625 147.683594 56.558594 148.609375 C 56.898438 149.683594 56.550781 150.066406 54.90625 150.429688 C 51.292969 151.222656 43.773438 155.644531 40.035156 159.171875 C 36.335938 162.664062 32.59375 169.035156 32.390625 172.195312 C 32.328125 173.175781 32.019531 175.820312 31.710938 178.074219 C 30.753906 184.980469 32.292969 182.636719 33.738281 174.988281 Z M 159.835938 168.71875 C 161.425781 168.410156 163.347656 168.386719 164.105469 168.664062 C 164.867188 168.941406 166.570312 168.730469 167.890625 168.1875 C 169.210938 167.648438 171.351562 167.203125 172.648438 167.203125 C 176.394531 167.203125 178.496094 166.039062 179.988281 163.132812 C 180.75 161.648438 182.394531 159.46875 183.644531 158.292969 C 186.453125 155.644531 189.335938 150.113281 189.335938 147.375 C 189.335938 144.257812 187.976562 140.78125 185.527344 137.640625 C 184.3125 136.082031 183.273438 134.160156 183.214844 133.363281 C 183.160156 132.570312 182.859375 131.316406 182.554688 130.578125 C 182.246094 129.839844 182.285156 128.71875 182.640625 128.082031 C 182.996094 127.449219 183.1875 125.90625 183.066406 124.65625 C 182.898438 122.929688 182.339844 122.15625 180.765625 121.457031 C 178.648438 120.519531 177.640625 119.09375 178.316406 117.996094 C 178.707031 117.367188 182.917969 119.289062 183.78125 120.492188 C 184.054688 120.875 184.527344 120.933594 184.839844 120.625 C 185.550781 119.910156 182.273438 117.34375 180.625 117.324219 C 179.234375 117.304688 175.53125 111.925781 176.183594 110.867188 C 176.433594 110.457031 177.472656 110.632812 178.765625 111.304688 C 179.953125 111.917969 180.992188 112.316406 181.074219 112.191406 C 182.929688 109.324219 183.488281 108.125 183.128906 107.765625 C 182.324219 106.957031 181.605469 107.316406 181.148438 108.753906 C 180.542969 110.664062 178.871094 110.5625 178.269531 108.574219 C 177.730469 106.808594 174.542969 103.828125 173.140625 103.789062 C 172.652344 103.773438 172.253906 103.441406 172.253906 103.050781 C 172.253906 102.65625 171.578125 102.335938 170.753906 102.335938 C 169.714844 102.335938 169.378906 102.007812 169.660156 101.273438 C 170.105469 100.109375 169.285156 99.839844 163.175781 99.148438 C 159.765625 98.761719 159.4375 98.851562 159.4375 100.15625 C 159.4375 101.347656 159.777344 101.519531 161.4375 101.1875 C 162.777344 100.921875 163.742188 101.160156 164.371094 101.917969 C 164.9375 102.605469 166.421875 103.050781 168.136719 103.050781 C 171.4375 103.050781 175.097656 105.324219 175.097656 107.375 C 175.097656 108.839844 173.363281 109.265625 172.578125 107.992188 C 172.261719 107.476562 171.734375 107.542969 170.9375 108.203125 C 169.710938 109.214844 167.730469 110.171875 163.976562 111.582031 C 161.378906 112.554688 156.8125 111.925781 155 110.34375 C 153.894531 109.375 153.394531 109.421875 150.101562 110.792969 C 148.085938 111.628906 145.996094 112.316406 145.460938 112.316406 C 144.925781 112.316406 144.488281 112.796875 144.488281 113.386719 C 144.488281 114.753906 141.550781 114.792969 138.546875 113.460938 C 137.3125 112.917969 135.785156 112.300781 135.148438 112.09375 C 134.511719 111.886719 133.789062 110.625 133.535156 109.289062 C 132.917969 105.984375 131.578125 104.285156 130.054688 104.871094 C 128.214844 105.578125 128.507812 109.234375 130.605469 111.730469 C 132.027344 113.421875 132.234375 114.125 131.640625 115.234375 C 130.941406 116.539062 130.742188 116.460938 128.339844 113.9375 C 126.261719 111.75 125.703125 110.527344 125.347656 107.382812 C 125.109375 105.242188 124.511719 103.386719 124.011719 103.222656 C 123.515625 103.058594 122.109375 103.996094 120.886719 105.304688 L 118.660156 107.683594 L 120.542969 108.355469 C 121.574219 108.726562 122.421875 109.347656 122.421875 109.734375 C 122.421875 110.125 123.097656 111.160156 123.921875 112.039062 C 125.714844 113.953125 125.261719 114.945312 122.222656 115.734375 L 119.960938 116.320312 L 122.214844 117.652344 C 123.453125 118.386719 124.652344 119.730469 124.882812 120.640625 C 125.175781 121.816406 125.808594 122.296875 127.0625 122.296875 C 128.847656 122.296875 129.425781 123.269531 128.117188 124.078125 C 127.726562 124.320312 127.40625 125.140625 127.40625 125.902344 C 127.40625 126.664062 127.726562 127.285156 128.117188 127.285156 C 128.507812 127.285156 128.832031 128.328125 128.839844 129.601562 C 128.859375 134.113281 129.425781 134.949219 132.808594 135.457031 C 134.847656 135.761719 135.949219 136.289062 135.949219 136.953125 C 135.949219 137.515625 135.628906 137.980469 135.234375 137.980469 C 133.921875 137.980469 134.507812 139.152344 136.296875 140.113281 C 137.660156 140.84375 137.886719 141.277344 137.277344 142.015625 C 136.839844 142.539062 135.882812 142.96875 135.148438 142.96875 C 133.742188 142.96875 133.308594 144.710938 134.523438 145.464844 C 134.914062 145.707031 135.234375 146.476562 135.234375 147.175781 C 135.234375 147.878906 135.875 149.03125 136.660156 149.742188 C 138.546875 151.449219 138.578125 155.089844 136.707031 155.578125 C 135.953125 155.777344 135.164062 156.390625 134.953125 156.9375 C 134.363281 158.472656 131.601562 158.160156 131.171875 156.511719 C 130.589844 154.289062 128.828125 154.765625 128.828125 157.144531 C 128.828125 159.472656 129.929688 160.339844 136.007812 162.789062 C 139.636719 164.253906 140.15625 164.300781 142 163.34375 C 144.289062 162.15625 146.101562 162.757812 147.367188 165.121094 C 149.25 168.644531 153.664062 169.917969 159.835938 168.71875 Z M 173.789062 161.28125 C 173.34375 160.742188 173.160156 160.117188 173.382812 159.894531 C 173.605469 159.671875 171.839844 159.664062 169.460938 159.882812 C 165.160156 160.273438 165.132812 160.261719 165.132812 158.394531 C 165.132812 156.621094 165.726562 156.191406 167.792969 156.457031 C 168.839844 156.589844 172.933594 153.8125 174.222656 152.09375 C 177.082031 148.277344 179.089844 147.566406 178.351562 150.632812 C 178.09375 151.710938 177.496094 154.652344 177.023438 157.171875 C 176.148438 161.851562 175.230469 163.019531 173.789062 161.28125 Z M 152.359375 149.960938 C 152.378906 149.445312 153.710938 147.972656 155.316406 146.679688 C 158.746094 143.929688 160.039062 144.433594 158.996094 148.105469 C 158.390625 150.226562 158.039062 150.472656 155.324219 150.671875 C 153.199219 150.828125 152.332031 150.617188 152.359375 149.960938 Z M 167.980469 150.097656 C 167.980469 149.703125 168.460938 149.382812 169.050781 149.382812 C 169.636719 149.382812 170.117188 149.703125 170.117188 150.097656 C 170.117188 150.488281 169.636719 150.808594 169.050781 150.808594 C 168.460938 150.808594 167.980469 150.488281 167.980469 150.097656 Z M 171.539062 148.730469 C 171.539062 147.496094 172.40625 145.820312 173.039062 145.820312 C 173.390625 145.820312 173.675781 146.621094 173.675781 147.601562 C 173.675781 148.710938 173.273438 149.382812 172.609375 149.382812 C 172.023438 149.382812 171.542969 149.089844 171.542969 148.730469 Z M 148.050781 141.667969 C 148.050781 141.34375 148.855469 140.320312 149.839844 139.394531 C 152.144531 137.226562 158.179688 136.863281 158.582031 138.871094 C 158.785156 139.886719 158.320312 140.117188 156.066406 140.117188 C 154.546875 140.117188 152.683594 140.589844 151.921875 141.164062 C 150.417969 142.304688 148.050781 142.609375 148.050781 141.667969 Z M 176.167969 139.40625 C 175.925781 139.011719 174.964844 138.691406 174.03125 138.691406 C 170.496094 138.691406 171.566406 136.550781 176.304688 134.148438 C 178.8125 132.875 179.875 133.5625 178.726562 135.710938 C 178.339844 136.4375 178.203125 137.730469 178.421875 138.578125 C 178.707031 139.667969 178.503906 140.117188 177.714844 140.117188 C 177.105469 140.117188 176.410156 139.796875 176.167969 139.40625 Z M 167.292969 137.886719 C 167.265625 135.621094 170.636719 127.988281 172.199219 126.773438 C 173.625 125.667969 175.8125 125.609375 175.8125 126.679688 C 175.8125 127.128906 174.371094 129.039062 172.609375 130.925781 C 170.847656 132.808594 169.40625 134.949219 169.40625 135.671875 C 169.40625 136.398438 168.933594 137.617188 168.359375 138.378906 C 167.355469 139.707031 167.3125 139.6875 167.292969 137.886719 Z M 132.933594 131.871094 C 132.273438 131.210938 133.898438 128 134.890625 128 C 135.359375 128 136.605469 127.199219 137.660156 126.21875 C 140.960938 123.15625 141.882812 124.339844 139.898438 129.089844 C 139.117188 130.964844 138.445312 131.5625 137.109375 131.5625 C 136.144531 131.5625 134.910156 131.734375 134.367188 131.941406 C 133.824219 132.148438 133.179688 132.117188 132.933594 131.871094 Z M 134.351562 121.257812 C 132.582031 119.125 132.503906 118.8125 133.542969 117.949219 C 134.527344 117.128906 134.929688 117.277344 136.421875 119.015625 C 138.128906 121.003906 138.410156 123.074219 137.015625 123.429688 C 136.625 123.53125 135.425781 122.550781 134.351562 121.257812 Z M 159.8125 116.066406 C 158.027344 114.410156 157.898438 114.074219 158.964844 113.867188 C 160.582031 113.554688 163.710938 115.597656 163.710938 116.96875 C 163.710938 118.585938 162.132812 118.222656 159.8125 116.066406 Z M 135.078125 151.699219 C 133.976562 150.351562 132.390625 150.632812 132.390625 152.175781 C 132.390625 153.796875 133.796875 154.441406 134.972656 153.359375 C 135.546875 152.828125 135.582031 152.316406 135.078125 151.699219 Z M 65.222656 150.171875 C 69 146.339844 74.019531 138.359375 74.019531 136.1875 C 74.019531 135.714844 73.136719 134.191406 72.0625 132.8125 C 70.984375 131.429688 69.648438 129.640625 69.089844 128.839844 C 68.355469 127.78125 67.320312 127.390625 65.34375 127.417969 C 63.839844 127.4375 62.457031 127.703125 62.269531 128.003906 C 62.082031 128.304688 63.046875 129.40625 64.414062 130.453125 C 67.109375 132.507812 67.554688 134.558594 65.808594 136.867188 C 64.449219 138.671875 64.460938 143.257812 65.832031 144.394531 C 67.242188 145.566406 67.179688 146.476562 65.652344 147.019531 C 63.613281 147.746094 61.917969 149.515625 61.917969 150.921875 C 61.917969 152.773438 62.871094 152.558594 65.222656 150.171875 Z M 121.265625 148.992188 C 120.464844 147.769531 119.839844 147.40625 119.359375 147.890625 C 118.488281 148.761719 119.960938 150.808594 121.460938 150.808594 C 122.265625 150.808594 122.226562 150.457031 121.265625 148.992188 Z M 197.878906 149.410156 C 197.878906 148.660156 195.585938 147.246094 194.367188 147.246094 C 193.066406 147.246094 193.535156 148.296875 195.210938 149.128906 C 197.328125 150.179688 197.878906 150.234375 197.878906 149.410156 Z M 125.488281 145.605469 L 125.90625 142.898438 L 122.265625 143.109375 C 120.148438 143.234375 118.5 143.699219 118.328125 144.214844 C 118.164062 144.710938 118.613281 145.109375 119.339844 145.109375 C 120.058594 145.113281 121.605469 145.886719 122.78125 146.828125 C 123.957031 147.773438 124.949219 148.492188 124.992188 148.429688 C 125.035156 148.367188 125.257812 147.097656 125.488281 145.605469 Z M 59.78125 143.792969 C 59.78125 143.070312 60.421875 141.894531 61.207031 141.1875 C 61.988281 140.476562 62.628906 139.453125 62.628906 138.914062 C 62.628906 138.375 63.109375 137.75 63.695312 137.523438 C 65.1875 136.953125 65.027344 135.636719 63.339844 134.582031 C 62.558594 134.089844 61.917969 133.210938 61.917969 132.625 C 61.917969 132.042969 61.4375 131.5625 60.851562 131.5625 C 59.402344 131.5625 59.4375 135.378906 60.894531 136.589844 C 61.898438 137.425781 61.898438 137.574219 60.902344 138.132812 C 60.238281 138.507812 59.207031 138.433594 58.308594 137.953125 C 56.152344 136.796875 55.726562 137.714844 57.523438 139.632812 C 58.375 140.539062 59.070312 141.5 59.070312 141.765625 C 59.070312 142.53125 56.589844 142.339844 55.765625 141.511719 C 55.25 140.996094 54.769531 141.078125 54.191406 141.773438 C 53.238281 142.921875 54.144531 143.992188 56.578125 144.589844 C 59.234375 145.246094 59.78125 145.109375 59.78125 143.792969 Z M 118.597656 138.367188 C 118.863281 137.671875 119.625 137.449219 120.886719 137.695312 C 122.613281 138.03125 122.960938 137.6875 124.820312 133.828125 L 126.863281 129.59375 L 125.320312 128.046875 C 124.308594 127.035156 123.925781 126.019531 124.214844 125.113281 C 124.457031 124.347656 124.351562 123.722656 123.980469 123.722656 C 123.605469 123.722656 123.136719 123.082031 122.929688 122.296875 C 122.464844 120.507812 120.875 120.464844 119.308594 122.199219 C 118.171875 123.457031 118.207031 123.59375 119.976562 124.753906 C 121.25 125.589844 121.734375 126.417969 121.492188 127.347656 C 121.292969 128.097656 121.425781 128.890625 121.78125 129.109375 C 122.953125 129.835938 122.53125 133.703125 121.28125 133.703125 C 120.601562 133.703125 120.289062 133.304688 120.511719 132.71875 C 120.972656 131.519531 119.703125 130.136719 118.148438 130.136719 C 114.863281 130.136719 113.335938 134.292969 115.28125 137.933594 C 116.191406 139.636719 118.019531 139.875 118.597656 138.367188 Z M 94 100.835938 C 103.3125 83.832031 110.808594 69.792969 110.652344 69.636719 C 110.207031 69.195312 106.761719 71.636719 103.222656 74.898438 C 100.136719 77.738281 96.230469 80.660156 90.355469 84.523438 C 88.859375 85.507812 85.769531 88.386719 83.496094 90.921875 C 81.21875 93.460938 78.511719 96.433594 77.480469 97.535156 C 73.785156 101.464844 73.421875 109.414062 76.566406 117.558594 C 77.589844 120.214844 77.550781 120.457031 75.378906 124.921875 C 73.472656 128.835938 73.253906 129.808594 73.933594 131.300781 C 74.546875 132.648438 75.003906 132.90625 75.898438 132.40625 C 76.539062 132.046875 84.6875 117.839844 94 100.835938 Z M 73.210938 123.582031 C 74.023438 121.9375 74.59375 120.492188 74.472656 120.375 C 74.199219 120.101562 68.324219 125.660156 68.324219 126.1875 C 68.324219 126.398438 69.09375 126.574219 70.03125 126.574219 C 71.324219 126.574219 72.09375 125.851562 73.210938 123.582031 Z M 121.125 113.542969 C 121.945312 112.214844 121.027344 111.570312 119 112.050781 C 116.566406 112.625 115.71875 113.394531 116.371094 114.449219 C 116.96875 115.417969 120.367188 114.765625 121.125 113.542969 Z M 143.230469 110.761719 C 143.382812 110.300781 144.933594 109.578125 146.671875 109.160156 C 148.789062 108.648438 150.058594 107.878906 150.515625 106.832031 C 150.894531 105.972656 152.398438 104.726562 153.855469 104.070312 C 157.296875 102.515625 157.582031 101.5625 155.476562 98.707031 C 154.523438 97.414062 153.746094 95.9375 153.746094 95.425781 C 153.746094 94.160156 151.21875 94.257812 147.550781 95.660156 C 144.386719 96.867188 142.355469 96.273438 142.355469 94.140625 C 142.355469 93.035156 141.082031 91.972656 138.976562 91.328125 C 137.742188 90.949219 137.375 91.121094 137.375 92.074219 C 137.375 93.605469 139.386719 95.921875 140.714844 95.921875 C 141.257812 95.921875 142.960938 97.210938 144.503906 98.785156 C 146.042969 100.359375 148.113281 101.953125 149.101562 102.332031 C 151.039062 103.066406 151.445312 104.113281 150.003906 104.667969 C 149.257812 104.953125 141.816406 103.84375 141.054688 103.332031 C 140.925781 103.242188 141.175781 102.503906 141.613281 101.683594 C 142.320312 100.359375 142.210938 100.199219 140.601562 100.199219 C 139.609375 100.199219 138.796875 99.878906 138.796875 99.484375 C 138.796875 99.09375 138.445312 98.773438 138.011719 98.773438 C 137.578125 98.773438 137.40625 99.25 137.628906 99.832031 C 137.875 100.476562 137.417969 101.214844 136.457031 101.71875 C 133.21875 103.429688 133.34375 105.1875 136.703125 105.1875 C 138.578125 105.1875 138.796875 105.425781 138.796875 107.425781 C 138.796875 110.421875 142.433594 113.160156 143.230469 110.761719 Z M 166.613281 108.011719 C 168.179688 107.214844 169.277344 106.265625 169.054688 105.90625 C 168.519531 105.039062 166.667969 105.761719 164.191406 107.804688 C 161.710938 109.851562 162.824219 109.949219 166.613281 108.011719 Z M 161.882812 107.632812 C 163.441406 106.070312 163.285156 105.414062 161.222656 104.894531 C 160.242188 104.648438 159.441406 104.148438 159.441406 103.78125 C 159.441406 103.417969 158.5625 103.933594 157.492188 104.929688 C 155.59375 106.6875 155.578125 106.765625 156.914062 107.746094 C 158.714844 109.0625 160.496094 109.019531 161.882812 107.632812 Z M 183.644531 103.40625 C 183.644531 102.816406 183.324219 102.335938 182.933594 102.335938 C 182.542969 102.335938 182.222656 102.816406 182.222656 103.40625 C 182.222656 103.996094 182.542969 104.476562 182.933594 104.476562 C 183.324219 104.476562 183.644531 103.996094 183.644531 103.40625 Z M 71.882812 101.679688 C 71.882812 100.425781 73.554688 98.042969 78.871094 91.738281 C 82.296875 87.671875 83.75 86.28125 87.1875 83.757812 C 88.753906 82.609375 92.214844 80.0625 94.878906 78.101562 C 97.542969 76.140625 100.023438 74.535156 100.394531 74.535156 C 100.765625 74.535156 101.070312 74.214844 101.070312 73.824219 C 101.070312 72.484375 99.480469 73.113281 94.402344 76.460938 C 82.519531 84.300781 75.714844 90.628906 73.007812 96.351562 C 70.765625 101.09375 69.925781 104.175781 71.066406 103.46875 C 71.515625 103.191406 71.882812 102.386719 71.882812 101.679688 Z M 132.566406 102.011719 C 133.722656 101.765625 134.527344 101.125 134.527344 100.449219 C 134.527344 99.515625 134.007812 99.386719 131.722656 99.753906 C 130.179688 100 128.75 99.933594 128.546875 99.605469 C 128.140625 98.945312 132.535156 96.632812 134.195312 96.632812 C 134.769531 96.632812 135.238281 96.3125 135.238281 95.921875 C 135.238281 94.992188 133.316406 94.996094 132.742188 95.929688 C 132.496094 96.324219 130.957031 96.566406 129.316406 96.464844 C 126.523438 96.289062 126.324219 96.402344 126.109375 98.300781 C 125.839844 100.644531 127.628906 103.007812 129.40625 102.660156 C 130.066406 102.527344 131.492188 102.238281 132.566406 102.011719 Z M 158.726562 96.320312 C 158.726562 95.753906 158.429688 95.109375 158.066406 94.882812 C 157.21875 94.359375 156.367188 95.695312 156.949219 96.632812 C 157.601562 97.695312 158.726562 97.496094 158.726562 96.320312 Z M 169.761719 94.496094 C 170.003906 94.105469 169.703125 93.78125 169.09375 93.78125 C 168.480469 93.78125 167.980469 94.105469 167.980469 94.496094 C 167.980469 94.886719 168.285156 95.207031 168.652344 95.207031 C 169.019531 95.207031 169.519531 94.886719 169.761719 94.496094 Z M 117.441406 329.277344 C 110.0625 326.839844 107.9375 323.882812 110.71875 319.90625 C 112.367188 317.550781 113.304688 317.945312 112.777344 320.761719 C 112.191406 323.882812 113.679688 325.253906 119.769531 327.222656 C 122.707031 328.171875 124.28125 329.078125 124.433594 329.90625 C 124.726562 331.496094 123.960938 331.425781 117.441406 329.277344 Z M 129.964844 318.429688 C 129.757812 318.09375 130.460938 317.417969 131.523438 316.917969 C 134.929688 315.328125 135.519531 315.023438 139.6875 312.710938 C 142.277344 311.269531 143.769531 310.773438 143.757812 311.347656 C 143.730469 312.445312 141.640625 314.023438 136.417969 316.894531 C 132.449219 319.074219 130.632812 319.507812 129.964844 318.429688 Z M 114.171875 317.5 C 113.324219 316.125 116.132812 314.617188 118.773438 315.03125 C 121.550781 315.46875 122.246094 315.957031 121.308594 316.816406 C 120.148438 317.878906 114.726562 318.402344 114.171875 317.5 Z M 301.949219 286.777344 C 302.070312 285.113281 302.488281 283.8125 302.878906 283.890625 C 303.828125 284.078125 304.171875 285.960938 303.640625 288.082031 C 302.914062 290.976562 301.710938 290.050781 301.949219 286.777344 Z M 110.269531 274.023438 C 109.753906 273.058594 109.648438 271.414062 109.984375 269.566406 C 110.277344 267.957031 110.585938 265.035156 110.671875 263.078125 C 110.992188 255.71875 111.691406 253.617188 114.582031 251.328125 C 117.183594 249.261719 121.003906 248.40625 121.003906 249.890625 C 121.003906 250.28125 120.683594 250.601562 120.289062 250.601562 C 119.898438 250.601562 119.578125 251.265625 119.578125 252.074219 C 119.578125 254.355469 116.667969 260.582031 115.601562 260.582031 C 115.078125 260.582031 114.300781 261.941406 113.875 263.609375 C 113.449219 265.277344 112.808594 267.535156 112.453125 268.628906 C 112.054688 269.851562 112.066406 271.304688 112.488281 272.414062 C 113.425781 274.882812 113.347656 275.550781 112.128906 275.550781 C 111.554688 275.550781 110.71875 274.863281 110.269531 274.023438 Z M 297.582031 270.652344 C 295.113281 265.808594 290.417969 262.679688 284.191406 261.734375 C 281.808594 261.375 281.164062 261.496094 281.164062 262.3125 C 281.164062 262.882812 281.484375 263.546875 281.875 263.789062 C 282.78125 264.347656 282.8125 267.710938 281.914062 267.710938 C 281.546875 267.710938 279.808594 266.191406 278.054688 264.332031 L 274.871094 260.957031 L 271.589844 262.550781 C 269.789062 263.425781 268.121094 264.144531 267.890625 264.144531 C 267.050781 264.144531 269.316406 261.941406 272.746094 259.421875 C 276 257.03125 276.332031 256.929688 277.511719 258.003906 C 278.347656 258.757812 280.082031 259.15625 282.5625 259.15625 C 287.9375 259.15625 291.703125 260.441406 295.515625 263.582031 C 299.640625 266.972656 302.292969 273.410156 299.570312 273.410156 C 299.25 273.410156 298.355469 272.167969 297.582031 270.648438 Z M 226.339844 269.917969 C 224.574219 269.667969 221.53125 268.492188 219.578125 267.300781 C 214.023438 263.917969 206.273438 260.503906 202.050781 259.578125 C 201.015625 259.351562 199.96875 258.640625 199.71875 257.992188 C 198.59375 255.058594 213.421875 259.421875 220.246094 264.035156 C 224 266.570312 224.929688 266.789062 224.929688 265.136719 C 224.929688 264.203125 225.429688 264.074219 227.597656 264.453125 C 234.449219 265.636719 236.207031 265.6875 240.75 264.828125 C 245.660156 263.902344 247.492188 264.324219 246.378906 266.128906 C 246.070312 266.628906 243.636719 267.828125 240.964844 268.796875 C 236.113281 270.558594 232.730469 270.820312 226.339844 269.917969 Z M 218.699219 258.625 C 212.871094 258.386719 211.167969 257.589844 214.625 256.71875 C 215.617188 256.46875 220.277344 256.484375 224.984375 256.75 C 232.78125 257.191406 233.992188 257.085938 238.664062 255.566406 C 241.484375 254.652344 244.203125 253.589844 244.707031 253.214844 C 245.914062 252.304688 251.800781 249.085938 258.261719 245.804688 C 263.246094 243.273438 263.460938 243.058594 263.066406 241.070312 C 262.835938 239.925781 261.183594 237.269531 259.394531 235.171875 C 256.652344 231.960938 255.757812 231.355469 253.742188 231.355469 C 251.488281 231.355469 251.199219 231.0625 248.992188 226.566406 C 246.117188 220.714844 242.996094 218.09375 237.550781 216.949219 C 235.332031 216.484375 233.320312 216.300781 233.078125 216.539062 C 232.835938 216.78125 232.363281 220.175781 232.023438 224.082031 C 231.621094 228.726562 230.679688 233.316406 229.296875 237.359375 C 225.46875 248.554688 222.550781 250.53125 225.847656 239.691406 C 231.027344 222.679688 230.859375 213.835938 225.242188 207.265625 C 223.316406 205.011719 222.164062 204.269531 220.601562 204.269531 L 218.519531 204.269531 L 218.519531 194.6875 C 218.519531 189.417969 218.804688 184.929688 219.152344 184.714844 C 220.46875 183.898438 221.324219 186.375 221.738281 192.1875 C 222.347656 200.707031 222.40625 200.871094 225.808594 203.269531 C 227.667969 204.582031 229.578125 206.816406 230.667969 208.949219 C 232.285156 212.113281 232.855469 212.589844 236.347656 213.699219 C 238.484375 214.378906 241.152344 215.117188 242.273438 215.339844 C 244.84375 215.847656 263.792969 234.597656 264.46875 237.304688 C 265.378906 240.921875 267.066406 240.371094 277.769531 232.980469 C 283.355469 229.125 289.527344 225.21875 291.484375 224.304688 C 293.441406 223.390625 297.097656 221.632812 299.605469 220.402344 C 303.765625 218.363281 304.769531 218.167969 311.109375 218.167969 C 317.195312 218.167969 318.324219 218.367188 320.222656 219.773438 C 321.417969 220.652344 323.171875 221.375 324.121094 221.375 C 326.5 221.375 329.671875 223.136719 330.675781 225.007812 C 331.695312 226.921875 331.183594 232.761719 329.867188 234.15625 C 328.6875 235.40625 328.417969 234.777344 327.917969 229.632812 C 327.554688 225.855469 325.917969 223.945312 322.472656 223.28125 C 321.480469 223.09375 319.390625 222.4375 317.824219 221.832031 C 314.234375 220.4375 305.921875 220.394531 302.164062 221.753906 C 300.597656 222.316406 298.96875 222.785156 298.546875 222.789062 C 297.554688 222.804688 287.636719 228.460938 284.582031 230.757812 C 283.289062 231.726562 280.308594 233.609375 277.960938 234.9375 C 275.609375 236.265625 271.996094 238.726562 269.925781 240.410156 C 267.855469 242.09375 265.734375 243.472656 265.21875 243.472656 C 264.699219 243.472656 263.085938 244.421875 261.632812 245.578125 C 258.289062 248.238281 248.84375 253.453125 247.371094 253.453125 C 246.542969 253.453125 246.367188 253.902344 246.695312 255.203125 C 247.179688 257.140625 247.304688 257.082031 239.566406 258.421875 C 235.53125 259.125 231.765625 259.160156 218.699219 258.625 Z M 277.609375 255.808594 C 277.613281 255.496094 278.648438 254.433594 279.90625 253.453125 C 281.164062 252.472656 283.929688 249.90625 286.050781 247.75 C 288.800781 244.953125 290.007812 244.128906 290.269531 244.871094 C 290.496094 245.519531 288.933594 247.4375 286.128906 249.960938 C 281.453125 254.160156 277.601562 256.808594 277.609375 255.808594 Z M 330.34375 253.164062 C 329.460938 252.222656 327.648438 251.246094 326.320312 250.996094 C 322.648438 250.308594 319.394531 245.269531 319.84375 240.964844 C 320.140625 238.078125 320 237.695312 318.308594 236.886719 C 317.28125 236.390625 316.039062 235.1875 315.542969 234.207031 C 315.046875 233.226562 314.636719 232.765625 314.632812 233.183594 C 314.625 233.648438 312.632812 233.921875 309.410156 233.894531 C 303.707031 233.847656 304.894531 233.246094 295.402344 240.992188 C 293.246094 242.75 291.375 243.851562 291.238281 243.445312 C 291.101562 243.035156 292.527344 241.03125 294.40625 238.988281 C 298.679688 234.339844 305.300781 230.675781 309.460938 230.65625 C 313.636719 230.636719 313.265625 229.371094 308.910156 228.792969 C 306.945312 228.53125 305.164062 228.039062 304.953125 227.699219 C 303.878906 225.957031 313.652344 228.019531 316.542969 230.144531 C 326.640625 237.5625 327.742188 238.878906 324.578125 239.707031 C 322.820312 240.167969 322.089844 242.746094 322.96875 245.402344 C 323.464844 246.898438 324.152344 247.449219 325.730469 247.605469 C 327.785156 247.8125 327.828125 247.75 327.5625 244.957031 C 327.375 242.988281 327.644531 241.734375 328.429688 240.949219 C 329.054688 240.324219 329.570312 239.191406 329.570312 238.433594 C 329.570312 236.992188 330.132812 236.773438 332.003906 237.492188 C 333.421875 238.039062 333.4375 239.488281 332.042969 241.621094 C 331.234375 242.855469 331.132812 243.75 331.640625 245.089844 C 332.507812 247.371094 333.570312 248.058594 334.101562 246.679688 C 334.324219 246.09375 335.125 245.613281 335.878906 245.613281 C 337.972656 245.613281 338.292969 243.582031 336.625 240.878906 C 334.339844 237.175781 335.179688 235.195312 339.917969 233.097656 C 342.058594 232.148438 343.808594 231.097656 343.808594 230.761719 C 343.808594 230.425781 343.152344 229.558594 342.347656 228.832031 C 341.441406 228.007812 340.972656 226.824219 341.105469 225.691406 C 341.300781 224 341.609375 223.855469 345.523438 223.65625 C 349.871094 223.429688 354.078125 224.585938 353.328125 225.796875 C 353.058594 226.234375 352.613281 226.203125 352.125 225.714844 C 350.914062 224.5 343.804688 224.710938 343.804688 225.960938 C 343.804688 226.523438 344.445312 227.1875 345.230469 227.4375 C 348.6875 228.535156 345.675781 233.527344 340.925781 234.570312 C 338.597656 235.082031 338.160156 236.617188 340.042969 237.671875 C 340.941406 238.175781 341.234375 239.183594 341.148438 241.449219 C 341.050781 244.085938 340.628906 244.886719 338.328125 246.847656 C 335.390625 249.347656 336.058594 249.738281 340.601562 248.175781 C 344.464844 246.847656 345.425781 244.871094 343.78125 241.644531 C 341.664062 237.484375 343.792969 234.207031 348.613281 234.207031 C 351.039062 234.207031 355.90625 235.902344 355.90625 236.75 C 355.90625 237.011719 353.824219 237 351.28125 236.730469 C 345.902344 236.152344 345.089844 236.921875 346.617188 241.148438 C 347.394531 243.304688 347.339844 244.007812 346.195312 246.40625 C 345.46875 247.925781 344.304688 249.359375 343.609375 249.585938 C 342.914062 249.8125 341.800781 250.855469 341.132812 251.902344 C 339.433594 254.582031 338.886719 254.855469 335.210938 254.867188 C 332.683594 254.878906 331.59375 254.496094 330.34375 253.164062 Z M 336.6875 252.105469 C 336.6875 251.3125 334.5 250.417969 333.9375 250.980469 C 333.710938 251.207031 333.996094 251.691406 334.574219 252.054688 C 335.90625 252.898438 336.6875 252.917969 336.6875 252.105469 Z M 217.289062 247.515625 C 217.589844 246.59375 220.785156 244.792969 221.265625 245.273438 C 221.796875 245.808594 219.949219 247.582031 218.453125 247.972656 C 217.542969 248.210938 217.113281 248.042969 217.289062 247.515625 Z M 212.824219 246.382812 C 212.824219 245.5 215.691406 243.472656 216.9375 243.472656 C 217.460938 243.472656 217.691406 243.796875 217.445312 244.191406 C 216.765625 245.296875 212.824219 247.164062 212.824219 246.382812 Z M 274.753906 246.453125 C 274.753906 245.59375 276.105469 244.589844 276.597656 245.082031 C 276.777344 245.261719 276.433594 245.816406 275.839844 246.3125 C 275.160156 246.875 274.753906 246.925781 274.753906 246.453125 Z M 237.21875 235 C 237.308594 229.867188 237.578125 225.664062 237.816406 225.660156 C 238.425781 225.652344 239.148438 232.234375 239.15625 237.863281 C 239.160156 241.167969 238.84375 242.851562 238.109375 243.460938 C 237.1875 244.226562 237.078125 243.167969 237.21875 235 Z M 279.378906 242.046875 C 279.621094 241.65625 280.140625 241.335938 280.53125 241.335938 C 280.921875 241.335938 281.046875 241.65625 280.804688 242.046875 C 280.5625 242.441406 280.042969 242.761719 279.652344 242.761719 C 279.261719 242.761719 279.136719 242.441406 279.378906 242.046875 Z M 193.632812 240.675781 C 192.574219 238.695312 193.378906 237.28125 195.84375 236.789062 C 198.441406 236.269531 200.410156 237.203125 200.933594 239.214844 C 201.226562 240.332031 200.882812 240.867188 199.550781 241.375 C 196.746094 242.445312 194.429688 242.167969 193.632812 240.675781 Z M 283.03125 239.570312 C 283.261719 238.972656 283.894531 238.484375 284.441406 238.484375 C 285.832031 238.484375 285.675781 239.015625 284.023438 239.902344 C 282.875 240.515625 282.691406 240.457031 283.03125 239.570312 Z M 286.5 237.058594 C 286.742188 236.667969 287.480469 236.351562 288.144531 236.355469 C 289.179688 236.367188 289.199219 236.464844 288.277344 237.058594 C 286.882812 237.960938 285.941406 237.960938 286.5 237.058594 Z M 355.957031 231.285156 C 355.519531 229.25 355.292969 227.453125 355.453125 227.292969 C 355.972656 226.773438 358.753906 230.804688 358.753906 232.078125 C 358.753906 232.761719 358.300781 233.695312 357.75 234.152344 C 356.921875 234.839844 356.609375 234.34375 355.957031 231.285156 Z M 294.527344 232.59375 C 296.425781 230.570312 299.921875 229.207031 301.191406 229.992188 C 302.597656 230.863281 301.335938 231.761719 296.878906 233.070312 L 293.019531 234.203125 Z M 190.039062 218.972656 C 190.039062 218.386719 191.253906 217.765625 193.066406 217.421875 C 197.195312 216.636719 197.363281 216.640625 197.644531 217.484375 C 197.777344 217.890625 196.441406 218.613281 194.667969 219.085938 C 190.574219 220.183594 190.039062 220.171875 190.039062 218.972656 Z M 180.074219 216.347656 C 180.074219 214.621094 192.984375 210.023438 195.316406 210.917969 C 197.128906 211.613281 196.125 212.578125 193.070312 213.066406 C 191.589844 213.304688 188.386719 214.308594 185.953125 215.296875 C 181.066406 217.285156 180.074219 217.464844 180.074219 216.347656 Z M 182.921875 202.105469 C 182.921875 201.207031 183.8125 200.851562 189.097656 199.648438 C 191.378906 199.128906 194.007812 198.464844 194.941406 198.171875 C 196.230469 197.765625 196.558594 197.875 196.3125 198.636719 C 195.535156 201.003906 182.921875 204.277344 182.921875 202.105469 Z M 217.804688 178.070312 C 217.804688 174.039062 218.429688 173.28125 225.609375 168.675781 C 230.472656 165.550781 235.597656 161.152344 235.597656 160.101562 C 235.597656 159.757812 237.121094 158.960938 238.980469 158.332031 C 243.089844 156.941406 250.535156 150.144531 254.453125 144.214844 C 255.9375 141.957031 257.589844 140.113281 258.125 140.113281 C 259.621094 140.113281 259.316406 140.980469 256.191406 145.644531 C 252.1875 151.609375 245.070312 158.824219 241.648438 160.371094 C 240.082031 161.082031 237.359375 163.039062 235.597656 164.71875 C 233.835938 166.402344 230.078125 169.261719 227.25 171.078125 C 222.609375 174.054688 222.007812 174.710938 221.125 177.742188 C 220.539062 179.753906 219.675781 181.195312 218.976562 181.332031 C 218.015625 181.519531 217.804688 180.929688 217.804688 178.070312 Z M 207.835938 177.941406 C 207.835938 174.976562 209.664062 166.816406 211.34375 162.300781 C 212.96875 157.917969 213.167969 157.625 214.160156 158.238281 C 214.632812 158.53125 214.539062 159.648438 213.894531 161.484375 C 213.351562 163.027344 212.382812 167.109375 211.746094 170.554688 C 211.105469 174.003906 210.441406 177.546875 210.265625 178.429688 C 209.78125 180.851562 207.835938 180.460938 207.835938 177.941406 Z M 207.777344 143.050781 L 206.058594 141.648438 L 208.136719 140.851562 C 209.28125 140.414062 210.699219 140.238281 211.285156 140.464844 C 211.871094 140.691406 212.613281 140.464844 212.929688 139.960938 C 213.660156 138.804688 213.695312 137.921875 213 138.152344 C 212.703125 138.25 212.386719 138.015625 212.292969 137.625 C 212.199219 137.238281 212.679688 136.917969 213.359375 136.914062 C 214.308594 136.90625 214.605469 136.289062 214.625 134.28125 C 214.636719 132.839844 215.183594 131.0625 215.84375 130.335938 C 216.574219 129.523438 216.878906 128.402344 216.625 127.433594 C 216.398438 126.566406 216.539062 125.859375 216.933594 125.859375 C 217.328125 125.859375 218.699219 124.878906 219.980469 123.683594 C 222.015625 121.777344 222.433594 121.636719 223.34375 122.542969 C 224.25 123.453125 224.242188 123.96875 223.285156 126.679688 C 222.683594 128.382812 221.804688 131.300781 221.332031 133.15625 C 220.855469 135.015625 219.777344 137.261719 218.933594 138.148438 C 218.085938 139.03125 217.015625 140.640625 216.546875 141.71875 C 215.898438 143.21875 215.207031 143.679688 213.605469 143.679688 C 212.453125 143.679688 211.058594 143.851562 210.503906 144.066406 C 209.949219 144.277344 208.722656 143.824219 207.777344 143.050781 Z M 201.429688 140.945312 C 194.898438 138.820312 194.3125 138.511719 194.3125 137.222656 C 194.3125 136.140625 194.722656 135.992188 196.804688 136.332031 C 198.796875 136.65625 199.296875 136.503906 199.296875 135.574219 C 199.296875 134.875 198.710938 134.410156 197.828125 134.410156 C 196.996094 134.410156 196.5625 134.089844 196.820312 133.667969 C 197.074219 133.261719 197.855469 133.109375 198.558594 133.335938 C 199.359375 133.589844 200.003906 133.308594 200.28125 132.585938 C 200.582031 131.800781 200.261719 131.304688 199.28125 131.050781 C 198.183594 130.761719 198.027344 130.449219 198.621094 129.734375 C 199.046875 129.214844 199.859375 128.972656 200.425781 129.1875 C 200.988281 129.402344 201.929688 129.179688 202.519531 128.691406 C 203.394531 127.964844 203.855469 128.035156 205.003906 129.078125 C 206.78125 130.6875 206.796875 132.015625 205.054688 132.949219 C 203.9375 133.550781 203.765625 134.214844 204.085938 136.71875 C 204.296875 138.390625 204.761719 140.128906 205.121094 140.585938 C 206.175781 141.929688 204.847656 142.0625 201.429688 140.949219 Z M 206.644531 137.554688 C 206.410156 136.941406 206.585938 135.226562 207.027344 133.742188 C 208.109375 130.136719 208.046875 128.707031 206.816406 128.707031 C 206.257812 128.707031 205.585938 128.035156 205.324219 127.210938 C 204.976562 126.121094 204.636719 125.925781 204.066406 126.5 C 202.996094 127.566406 199.8125 127.511719 200.171875 126.429688 C 200.6875 124.882812 204.148438 124.476562 206.5625 125.679688 C 208.171875 126.488281 208.902344 126.574219 209.097656 125.988281 C 209.617188 124.4375 211.984375 121.9375 212.476562 122.425781 C 212.746094 122.695312 212.46875 124.457031 211.867188 126.347656 C 211.261719 128.234375 210.355469 131.617188 209.855469 133.859375 C 208.945312 137.9375 207.453125 139.65625 206.644531 137.554688 Z M 259.800781 136.679688 C 259.800781 135.921875 260.285156 133.9375 260.871094 132.269531 C 261.460938 130.601562 262.277344 127.113281 262.691406 124.515625 C 263.105469 121.921875 263.75 119.488281 264.125 119.113281 C 264.5 118.734375 266.160156 117.929688 267.820312 117.324219 C 270.167969 116.472656 271.152344 115.578125 272.261719 113.3125 C 273.042969 111.707031 274.246094 109.839844 274.933594 109.160156 C 275.621094 108.480469 276.511719 107.316406 276.910156 106.570312 C 277.566406 105.34375 277.429688 105.253906 275.480469 105.644531 C 273.6875 106.003906 273.328125 105.847656 273.328125 104.71875 C 273.328125 103.972656 273.878906 102.570312 274.554688 101.601562 L 275.78125 99.839844 L 273.867188 101.085938 C 269.246094 104.097656 268.316406 101.140625 272.339844 96.226562 C 273.921875 94.289062 274.746094 92.652344 274.480469 91.960938 C 274.242188 91.34375 273.6875 91.0625 273.242188 91.339844 C 272.746094 91.644531 272.558594 91.453125 272.757812 90.851562 C 272.9375 90.304688 273.824219 89.488281 274.730469 89.03125 C 278.914062 86.925781 279.796875 91.523438 275.820312 94.703125 C 273.410156 96.625 272.628906 98.058594 273.984375 98.058594 C 274.347656 98.058594 275.59375 97.253906 276.757812 96.273438 C 277.921875 95.292969 279.191406 94.492188 279.582031 94.492188 C 280.890625 94.492188 281.191406 96.777344 280.15625 98.855469 C 279.59375 99.984375 279.425781 100.910156 279.789062 100.910156 C 281.378906 100.910156 279.546875 108.097656 277.605469 109.460938 C 277.328125 109.660156 276.683594 110.621094 276.171875 111.601562 C 274.4375 114.925781 270.445312 119.285156 268.324219 120.164062 C 266.710938 120.832031 266.210938 121.5 266.210938 122.984375 C 266.210938 125.308594 265.222656 128.460938 262.921875 133.480469 C 261.0625 137.535156 259.804688 138.828125 259.804688 136.679688 Z M 187.90625 133.875 C 187.90625 131.84375 189.578125 130.703125 191.753906 131.25 C 193.167969 131.605469 193.601562 131.445312 193.601562 130.566406 C 193.601562 129.9375 193.121094 129.421875 192.53125 129.421875 C 191.945312 129.421875 191.429688 129.019531 191.390625 128.53125 C 191.21875 126.527344 191.640625 123.339844 192.117188 123.007812 C 192.398438 122.808594 192.65625 121.46875 192.6875 120.023438 C 192.761719 116.707031 193.40625 115.660156 195.105469 116.105469 C 196.59375 116.496094 196.855469 115.859375 195.683594 114.6875 C 194.300781 113.300781 198.183594 110.011719 201.859375 109.453125 C 204.746094 109.011719 205.179688 109.125 205.71875 110.457031 C 206.226562 111.71875 206.332031 111.753906 206.367188 110.675781 C 206.40625 109.625 206.886719 109.453125 209.082031 109.707031 C 211.128906 109.941406 212.636719 110.882812 215.542969 113.75 C 218.207031 116.378906 219.109375 117.707031 218.578125 118.238281 C 218.046875 118.769531 218.140625 119.347656 218.898438 120.183594 C 220.191406 121.617188 219.519531 123.878906 217.890625 123.566406 C 217.136719 123.417969 216.726562 122.59375 216.710938 121.183594 C 216.691406 119.605469 215.925781 118.324219 213.863281 116.402344 C 210.46875 113.246094 209.660156 113.144531 208.082031 115.699219 C 206.597656 118.101562 205.039062 119.441406 203.734375 119.441406 C 203 119.441406 203.066406 119.128906 204 118.195312 C 205.183594 117.007812 205.179688 116.9375 203.871094 116.707031 C 203.117188 116.578125 202.097656 115.953125 201.605469 115.320312 C 200.410156 113.78125 199.53125 114.832031 199.0625 118.371094 C 198.046875 126.027344 195.96875 133.03125 194.433594 133.980469 C 194.097656 134.1875 192.488281 134.574219 190.863281 134.832031 C 188.21875 135.257812 187.90625 135.15625 187.90625 133.878906 Z M 207.09375 123.324219 C 206.453125 122.550781 206.410156 122.011719 206.953125 121.46875 C 207.863281 120.554688 209.261719 121.269531 209.261719 122.648438 C 209.261719 124.171875 208.097656 124.535156 207.09375 123.324219 Z M 201.835938 123.085938 C 201.371094 122.332031 203.410156 120.476562 204.027344 121.09375 C 204.621094 121.6875 203.761719 123.71875 202.917969 123.71875 C 202.539062 123.71875 202.050781 123.433594 201.835938 123.085938 Z M 208.820312 119.832031 C 208.601562 119.261719 208.628906 118.460938 208.882812 118.050781 C 209.714844 116.707031 210.683594 117.265625 210.683594 119.085938 C 210.683594 121.019531 209.460938 121.507812 208.820312 119.832031 Z M 264.308594 98.359375 C 263.941406 97.398438 264.6875 93.875 265.957031 90.5625 C 266.152344 90.046875 265.753906 89.519531 265.066406 89.386719 C 263.878906 89.160156 263.878906 89.085938 265.066406 87.898438 C 268.039062 84.921875 269.859375 87.289062 268.082031 91.828125 C 267.308594 93.792969 267.160156 95.019531 267.632812 95.492188 C 268.105469 95.964844 268.34375 95.964844 268.34375 95.484375 C 268.34375 94.527344 271.234375 91.445312 271.695312 91.910156 C 272.128906 92.339844 266.09375 99.480469 265.296875 99.484375 C 264.992188 99.484375 264.546875 98.976562 264.308594 98.359375 Z M 264.308594 98.359375 " fill-opacity="1" fill-rule="nonzero"/></g></svg>