<?xml version="1.0" encoding="UTF-8"?>
<svg id="Layer_2" data-name="Layer 2" xmlns="http://www.w3.org/2000/svg" viewBox="0 0 227.4056 364.3453" fill="#EAD7BB">
  <g id="katman_1" data-name="katman 1">
    <path d="M22.417,211.2205c.476-.2948,.9654-.5732,1.4555-.8518,.9463,2.0266,2.9324,3.6239,5.0748,2.9456,.879-.0825,1.7145-.4477,2.3371-1.073,6.4964,7.0841,12.941,14.1701,18.5679,21.9858,5.6122,7.7951,9.6089,16.4468,13.8904,25.0028,2.1461,4.2888,4.5585,8.3924,6.909,12.5672,2.3711,4.2113,4.4871,8.5755,6.3355,13.0409,1.8797,4.5407,3.5251,9.1762,4.9884,13.867,.4375,1.4025,.8563,2.8071,1.2538,4.2161-.7504-1.9763-1.5439-3.9343-2.4205-5.851-2.1039-4.6004-4.6928-8.9585-7.341-13.2615-2.441-3.9661-4.9097-7.9215-7.627-11.7061-3.1305-4.3599-6.5734-8.5268-10.6327-12.0569-.8361-.727-2.2031-.9041-3.0197,0-1.4288,1.5819-1.8252,3.5998-2.4266,5.5758-.6767,2.2233-1.4486,4.4259-2.1665,6.6369-1.4426,4.4432-2.9806,9.0659-5.6123,12.9677-2.4862,3.686-5.8835,6.8158-9.1941,9.7508-1.7195,1.5245-3.4802,3.0138-5.0573,4.6893-1.4905,1.5836-3.0255,3.4038-3.9214,5.4017-.7465,1.6647-1.1297,3.6361-.1312,5.2874,.6994,1.1566,1.9149,1.8593,3.1832,2.2275,2.5719,.7465,5.4656,.4035,8.0565-.0473,7.1784-1.249,12.5401-6.5572,16.7632-12.154,1.6907-2.2406,3.2638-4.569,4.7014-6.9777,1.3718,1.1321,2.7042,2.3106,3.9546,3.5774,1.6658,1.6877,3.1433,3.5491,4.7482,5.2937,1.593,1.7316,3.2219,3.4325,4.7275,5.2419,1.4451,1.7368,2.7465,3.6015,4.0248,5.463,2.7234,3.9659,5.2138,8.124,7.1352,12.542,1.8958,4.3591,3.1223,9.0398,4.3337,13.6255,.7072,2.6771,1.3662,5.3698,1.873,8.0926,.2594,1.3939,.4907,2.7943,.6379,4.2048,.0223,.2141,.0385,.4284,.0568,.6427-2.9466,7.1201-6.2653,14.0755-9.7615,20.9879-5.6608,11.1918-11.7629,22.1663-18.455,32.7761-1.658,2.6286-3.3544,5.2323-5.0833,7.8148-1.4127,2.1099,1.9889,4.0748,3.3957,1.9849,7.0052-10.4075,13.4106-21.2046,19.3284-32.2648,4.5891-8.5768,9.1042-17.2909,12.9959-26.2378,.8591-.1802,1.2974-.8446,1.4111-1.7015,.0804-.6061,.1065-1.227,.0991-1.8543,.4856-1.178,.9667-2.3575,1.4267-3.5442,1.3273-3.4244,2.541-6.8873,3.6796-10.3748,.2407-.1024,.4714-.2409,.6799-.4174,.5251-.4444,.9603-.9565,1.3635-1.4931,.4737-.0632,.9326-.3115,1.2681-.8137,.6428-.9622,1.2649-1.9406,1.8821-2.9231,1.1168-.8915,2.4245-1.6217,3.6248-2.2915,3.3766-1.8841,7.479-3.1952,11.3767-3.0342,3.9399,.163,7.4062,2.8045,10.3018,5.2606,3.0746,2.6079,5.8012,5.5507,8.4852,8.5491,2.4908,2.7826,5.0842,5.4967,8.254,7.5181,3.1816,2.0289,6.9697,3.3076,10.6227,4.1834,3.7849,.9074,7.8015,1.3823,11.6505,.5974,3.676-.7497,7.0563-2.9601,9.626-5.6393,3.1385-3.2722,4.9516-7.218,6.6478-11.3598,1.9308-4.715,3.5364-9.646,3.6344-14.7865,.0176-.9232-.6731-1.8196-1.5637-2.0538-1.9985-.5254-3.9401,.0437-5.2467,1.6674-.5945,.7389-1.1693,1.1459-2.0508,1.785-.9239,.67-1.8635,1.3176-2.815,1.9478-3.0976,2.0515-6.324,3.3487-10.0845,3.308-3.5092-.038-6.9966-.9144-10.0743-2.6039-2.9058-1.595-5.3962-3.7664-7.7209-6.1091-2.4735-2.4927-4.7591-5.1624-7.1785-7.7064-2.4285-2.5535-5.2894-4.5329-8.8516-4.9791-3.9233-.4915-8.2486,.751-11.8585,2.2078-3.3344,1.3457-6.2336,3.2816-8.7774,5.8281-1.9738,1.9757-3.6836,4.1568-5.2633,6.4362-1.2402,.8336-2.4474,1.719-3.6479,2.61,.2168-.7714,.4428-1.54,.6567-2.3121,.4497-1.285,.915-2.5644,1.4245-3.8278,1.5286-3.79,3.5451-7.2532,5.6515-10.7419,2.2073-3.6557,4.3839-7.3328,6.7448-10.8927,2.2927-3.4572,4.9062-6.6468,7.4952-9.8815,2.6235-3.2779,5.0369-6.7035,7.492-10.107,2.418-3.3521,5.0719-6.503,7.5792-9.7845,.4111-.5381,.8042-1.0852,1.1904-1.6359,.2338-.0136,.4747-.0908,.7105-.266,1.3066-.9705,2.5915-2.0442,3.6998-3.2352,1.1612-1.2478,2.4459-2.3095,3.7577-3.3926,2.4676-2.0375,4.8579-4.0596,7.7473-5.4805,5.4602-2.685,11.5466-3.7807,16.9381-6.6555,2.9692-1.5831,5.9377-3.1768,8.807-4.9365,2.7455-1.6837,5.5571-3.4874,7.7732-5.8501,4.1268-4.4,6.745-10.0829,8.9252-15.6388,1.4076-3.5875,2.3922-7.2866,2.8902-11.109,.2573-1.974,.3715-3.9499,.3574-5.9401-.0068-.95-.0671-1.9442,.0792-2.8866,.1613-1.0395,.4672-2.0155,.4576-3.0829-.017-1.9124-2.2639-2.6889-3.6131-1.4967-1.656,1.4632-1.3257,3.8239-2.1198,5.6887-1.0322,2.4243-2.7172,4.661-4.3125,6.7402-3.1944,4.1632-7.008,7.8471-11.1086,11.1096-4.2321,3.3671-8.8294,6.2624-13.1979,9.4461-3.8523,2.8075-7.5162,5.7993-10.8329,9.2011,.3746-.8036,.7425-1.6105,1.0855-2.4297,1.6195-3.868,2.6023-7.8294,3.3149-11.9529,.748-4.3287,1.4383-8.6912,1.8629-13.0644,.4198-4.3234,.6231-8.6652,1.07-12.9862,.2264-2.1891,.7878-4.3437,.9467-6.5343,.0325-.4493,.0057-.8859-.0221-1.3335,.001,.0167-.0019-.0308-.006-.0997,.0313-.0264,.0628-.0527,.0941-.0792,.7965-.4227,1.5626-1.6679,2.0052-2.4136,.3751-.632,.6367-1.3098,.8189-2.0109,.8689,.7229,1.6496,1.5588,2.5048,2.2977,1.9911,1.7204,4.2581,3.1177,6.4893,4.5029,4.3765,2.7169,9.5472,5.3128,14.8619,4.7875,2.348-.2321,4.7937-1.0336,6.347-2.9099,1.8322-2.2133,1.9743-5.0913,.7547-7.6415-2.2364-4.6763-7.8302-6.3579-12.4887-7.4143-2.5519-.5788-5.0843-1.0347-7.6819-1.179,2.3283-1.019,4.6007-2.1578,6.782-3.469,3.824-2.2985,8.1873-4.51,11.0127-8.061,1.8149-2.281,2.6595-4.7845,2.2402-7.6959-.1078-.7482-.8493-1.2702-1.4973-1.4973-3.5586-1.2474-6.9338,.1438-10.064,1.8405-3.0725,1.6654-5.9746,3.6142-8.7828,5.6904-1.5607,1.1539-3.1024,2.346-4.6026,3.5862,.5665-.9574,1.1111-1.9207,1.598-2.9024,2.5274-5.0953,4.5457-10.974,3.8849-16.7406-.2861-2.497-1.0257-5.2976-3.3502-6.6777-2.3533-1.3973-4.8808-.2086-6.5167,1.6607-3.1207,3.5659-4.9578,8.3281-6.5445,12.7211-1.1277,3.1225-2.0505,6.3162-2.4377,9.6209-.4216,3.5993-.0662,7.2105,.348,10.7926,.0285,.2466,.0914,.483,.176,.7069-.3802,.3458-.7048,.7723-.9436,1.2821-.7852,1.6762-.8542,3.7338-.4036,5.5603,.0013,.2864,.0597,.5687,.1766,.8317,.0067,.0268,.0084,.0533,.0155,.08,.2259,.8526,.8131,1.7886,1.5914,2.3934-.3973,.5556-.6102,1.2136-.638,1.9316-.0236,.6107,.0968,1.2245,.0834,1.8388-.017,.7842-.1367,1.5556-.2502,2.3298-.2501,1.7048-.4521,3.4141-.6128,5.1295-.3125,3.3359-.4994,6.6818-.7729,10.021-.2694,3.292-.7024,6.5514-1.186,9.8177-.4834,3.2648-.9498,6.5641-1.7545,9.7683-1.522,6.0605-4.4716,11.6666-7.7198,16.9643-1.6448,2.6825-3.412,5.2867-5.1166,7.931-1.7243,2.675-3.2116,5.4846-4.9076,8.1739-1.6051,2.5453-3.4265,4.9401-5.2808,7.3068-2.0122,2.5681-3.8994,5.2252-5.7683,7.8985-1.8431,2.6364-3.6571,5.2947-5.6172,7.8464-1.9475,2.5353-3.9801,5.0051-5.8665,7.5872-3.4406,4.7096-6.3509,9.7823-9.3282,14.7934,2.6268-9.2421,5.3212-18.4752,7.2082-27.897,1.2635-6.3097,2.1386-12.7,3.161-19.0521,1.0278-6.3859,2.1299-12.7927,2.5687-19.2518,.1243-1.8307,.2017-3.6629,.255-5.4959,.2568-.8012,.5644-1.5834,.9623-2.3058,1.1239-2.0403,2.6567-3.8261,3.9196-5.7773,1.3349-2.0626,2.5676-4.1932,3.8405-6.2941,4.9639-8.1936,10.6662-15.9401,14.0804-24.9679,1.7507-4.6293,2.9574-9.4374,4.4829-14.1408,1.5376-4.7408,3.1713-9.4133,3.8868-14.3673,1.4484-10.0292,.1545-20.2203-2.3331-29.983-1.3487-5.293-3.0417-10.4899-4.791-15.6618-1.4696-4.3447-2.2654-9.0344-5.1808-12.7086-.5656-.7128-2.0284-.7171-2.5893,0-1.01,1.2913-1.0557,2.8302-.9136,4.4098,.134,1.4887,.2635,2.9343,.289,4.4342,.0786,4.6223-.025,9.2442-.1353,13.8651-.2094,8.7737-.6996,17.5745-2.2394,26.2274-.7807,4.3867-2.0294,8.6474-2.9307,13.0041-.9056,4.3772-1.8038,8.6925-3.0687,12.9842-2.2639,7.6811-4.3999,15.3951-6.4081,23.1462,.142-1.8318,.2928-3.6632,.4641-5.4945,1.2273-13.1199,1.9612-26.2465,2.8594-39.3902,.8954-13.1044,2.6368-26.014,4.9735-38.936,2.2448-12.4137,4.506-24.99,7.9528-37.1353,1.656-5.8349,3.6532-11.5971,6.1821-17.1142,2.4786-5.4075,6.0485-10.297,8.3079-15.7904,.3656-.8892,.6093-1.8824,.9024-2.8524,1.9055,1.9755,3.9818,3.8474,6.3124,5.3031,3.0942,1.9328,6.662,3.0339,10.2732,3.4373,1.7963,.2007,3.6094,.1326,5.3807-.2398,1.7487-.3676,3.9113-1.0505,5.2556-2.2737,.6418-.5841,1.0885-1.3898,1.1086-2.2758,.0196-.8642-.1137-1.35-.4879-2.2234-.5935-1.3853-1.7224-2.4751-2.8883-3.3951-2.9637-2.3387-6.4592-4.0909-10.1299-4.9938-.7828-.1925-1.5842-.3584-2.3926-.51,1.3368-.5715,2.6551-1.1836,3.9284-1.9018,2.4487-1.3813,4.7353-3.0252,6.9919-4.696,2.2062-1.6334,4.6713-3.5692,6.1455-5.9266,.6672-1.0669,1.1202-2.4706,1.0677-3.7406-.0554-1.3391-1.2576-2.2967-2.4748-2.5921-1.8257-.4431-3.8709,.1581-5.6681,.5304-5.4646,1.132-10.1948,4.0987-14.3655,7.7091-1.0315,.8929-2.023,1.8402-2.9751,2.8281,.2597-.9326,.513-1.8677,.7617-2.8065,1.3567-5.1222,3.037-10.2922,3.6598-15.5683,.226-1.9153,.1225-4.3111-1.624-5.5215-1.7597-1.2195-3.8224-.4686-5.1868,.9614-1.2669,1.3276-2.2015,3.0392-3.0406,4.6607-1.2504,2.4166-2.1068,5.0255-2.5419,7.7103-.9208,5.6826-.2492,11.381,.3817,17.0541-.163,.0872-.3151,.1916-.4609,.3041-.3331,.0873-.643,.2279-.9054,.5137-.1423,.1551-.2948,.3397-.3928,.5301-.2676,.5198-.3666,.9581-.4104,1.5406-.0282,.3759,.0416,.7688,.1129,1.136-.001,.0341-.0066,.068-.0067,.1021-.001,.2856,.0352,.563,.0732,.846,.0845,.6284,.2407,1.2393,.6258,1.7627,.0242,.0329,.0486,.0614,.0728,.0934-.1777,.4836-.3484,.9717-.514,1.4637-.9181,2.7265-2.4208,5.218-3.8663,7.6912-3.0243,5.1736-5.5938,10.5325-7.7244,16.1357-4.4226,11.6313-6.8388,23.8822-9.269,36.0499-2.5631,12.8338-4.9537,25.7608-6.2996,38.786-1.3539,13.1044-1.7355,26.277-2.7573,39.4063-.1599,2.0545-.3445,4.1067-.535,6.1585-.1466-.6495-.296-1.2987-.4542-1.9488-1.5044-6.1852-3.0022-12.3732-4.5129-18.5563-1.4887-6.0931-3.3229-12.0934-5.0467-18.1222-1.5548-5.4381-2.917-10.9229-4.5836-16.3272-.0286-.173-.054-.3468-.0718-.5222-.1672-1.6448-.1054-3.3418,.0971-4.9802,.4233-3.4231,1.3071-6.7723,2.3792-10.0449,2.1913-6.689,5.055-13.1207,7.6887-19.6394,1.2864-3.1844,2.514-6.4166,3.3272-9.7586,.8118-3.3362,1.2759-6.7559,1.5851-10.1723,.6291-6.9529,.7294-13.8821-.1942-20.8125-.5332-4.0016-1.2818-7.9748-2.1791-11.9102-.5435-2.3834-1.1463-4.756-1.7184-7.1347,.0555-2.0047-.0249-4.3847-1.7134-5.4821-1.111-.7221-2.4556,.4681-2.1564,1.6577,.2733,1.0867,.5339,2.1814,.7982,3.274-.0058,1.0413-.0584,2.0873-.1311,3.1239-.2364,3.3737-.7811,6.6564-1.8965,9.8558-1.0679,3.0631-2.441,6.0096-3.6064,9.0354-1.2036,3.1253-2.2988,6.2922-3.2835,9.4931-3.9287,12.7708-6.4521,26.3943-6.1281,39.7915,.0308,1.2788,.097,2.5557,.1786,3.8316-3.9426-11.3839-6.92-23.109-11.3579-34.3147-4.6975-11.861-10.2162-23.3713-15.8253-34.822-.1258-.257-.2521-.5138-.3781-.7707,.2854-.4787,.4688-1.012,.5519-1.5667,.0302-.167,.0483-.3363,.0556-.5086,.0004-.0104,.0008-.0207,.0011-.0312,.007-.2039-.0035-.4101-.0312-.6192-.0053-.0463-.0108-.0922-.0176-.1383-.0172-.1014-.0399-.2029-.0659-.3051-.0243-.1103-.0384-.2221-.0715-.3308-.0502-.165-.1221-.3057-.1866-.4548-.0533-.4203-.1631-.8338-.3299-1.2323,4.8334-5.419,8.8934-11.5206,11.6154-18.2691,1.3943-3.4568,2.3245-7.0528,2.746-10.757,.2921-2.5671,.3435-5.2681-.3649-7.779-.6834-2.4225-2.3994-4.812-5.1959-4.633-3.0637,.1961-5.4731,2.8386-6.9022,5.3327-1.4645,2.5561-2.3305,5.4331-3.0599,8.2708-.7734,3.0084-1.3693,6.0542-1.9006,9.1125-.3858-3.6039-1.0186-7.1686-1.9012-10.684-.7278-2.8989-1.5529-5.8111-2.9625-8.464-1.3028-2.4519-3.5422-5.4299-6.4111-6.0767-3.0289-.6828-4.8028,1.9893-5.5064,4.5322-1.9153,6.9228,.6706,13.9201,3.1362,20.35,1.5291,3.988,3.2344,7.9072,4.9973,11.7966,.7735,1.7067,1.5469,3.4145,2.2709,5.1431-.6498-.3891-1.3037-.7725-1.9566-1.1582-2.6253-1.5511-5.1957-3.1671-7.9467-4.4946-5.3165-2.5655-11.8242-4.9914-17.7956-3.6334-2.8281,.6431-6.2339,2.3821-7.1472,5.3486-.9257,3.0068,1.2217,5.8365,3.6178,7.3942,2.3493,1.5271,5.2038,1.9994,7.9304,2.3377,2.9166,.3618,5.851,.6419,8.7845,.8161,3.8555,.2288,7.7067,.3879,11.5537,.7438,1.42,.1314,2.8981,.2098,4.3113,.4868,.7297,1.0113,1.852,1.6941,3.3288,1.6741,.2512-.0034,.4954-.0291,.734-.0694,.1496,.0519,.3025,.0856,.4566,.1093,4.9385,10.0663,9.8353,20.1643,14.1253,30.5258,2.3794,5.7468,4.4556,11.5804,6.3078,17.5175,1.8444,5.9119,3.5761,11.8582,5.585,17.7177,1.983,5.784,4.1192,11.5141,6.099,17.2992,2.0152,5.8886,3.6657,11.8421,5.291,17.8458,1.6231,5.9952,3.4667,11.9282,5.0907,17.9233,1.6396,6.0529,2.9241,12.1944,4.4763,18.2704,.7903,3.093,1.5974,6.1872,2.2549,9.3118,.6129,2.9133,.7419,5.8901,1.0483,8.8442,.2831,2.7299,.6191,5.449,.9422,8.1692-.1713,4.0943-.2439,8.1902-.2661,12.2967-.0134,2.4765-.0319,4.9555-.0951,7.4327-.3361,1.1934-.5707,2.4161-.727,3.655-.14,1.1094-.1561,2.2244-.2567,3.337-.1148,1.2704-.0885,2.5798,.2917,3.8072-.0579,.5128-.1121,1.0259-.1792,1.538-.8543,6.5154-1.9814,12.994-3.0044,19.4841-.652,4.1361-1.3423,8.2512-2.1523,12.3476,.1664-3.1272,.2629-6.2581,.2619-9.3916-.0031-10.905-1.561-21.7324-3.7433-32.4019-2.1609-10.5651-5.11-21.0031-8.0454-31.3755-2.9174-10.3091-6.2877-20.454-10.4411-30.3349-4.5829-10.9027-9.8511-21.5109-15.4745-31.9114,.9672-1.5749,1.1193-3.6393,.014-5.1832-.2613-.3651-.5858-.6925-.9506-.9763,.1814-.2719,.3635-.5435,.5437-.8162,.7047-1.0662,1.4064-2.1348,2.0925-3.213,1.2063-1.8953,2.3637-3.8268,3.3599-5.8421,.9881-1.9989,1.85-4.0805,2.4406-6.2332,.6106-2.2259,.827-4.4879,.9434-6.784,.0589-1.1594-.0734-2.3301-.3949-3.447-.406-1.4107-1.3683-2.3533-2.8371-2.6237-1.1965-.2202-2.1788,.2816-3.2582,.7002-.9778,.3792-1.8923,.8402-2.7322,1.4701-3.5014,2.6266-5.2812,7.0294-6.0627,11.2128-.1077,.5763-.1987,1.1566-.285,1.7377-.3381-1.7345-.6554-3.4732-.9952-5.2079-.6265-3.1985-1.3302-6.3755-2.1593-9.5278-.6809-2.5892-1.3756-5.1717-2.5345-7.5969-.5884-1.2314-1.3235-2.3843-2.2185-3.4167-.8534-.9844-1.6624-1.9814-3.0865-2.0007-1.6491-.0224-2.5851,1.2171-3.3014,2.5527-.7371,1.3746-.9952,2.8202-1.2422,4.3408-.5408,3.3279-.4172,6.8433,.0233,10.1789,.42,3.1807,1.3397,6.2168,2.9073,9.024,1.5531,2.781,3.4883,5.3649,5.3523,7.9512-1.3249-.9482-2.6345-1.9178-3.9527-2.8761-2.1781-1.5835-4.3382-3.2094-6.7333-4.4599-1.7882-.9335-4.1051-1.8753-6.1498-1.3421-2.4691,.6438-3.5489,3.202-2.8602,5.5403,.598,2.0301,2.0316,3.9339,3.3585,5.5443,3.1067,3.7704,7.5167,6.4433,12.0098,8.2345,2.7921,1.113,5.9658,1.6785,8.9694,1.3916,.7362-.0703,1.4542-.2078,2.1702-.3881,.1265-.0318,.2531-.0637,.3792-.0971,.1173,1.5585,1.088,2.9915,2.8371,3.1544,.2462,.1567,.5063,.2938,.7884,.3946,.4911,.1756,.9414,.231,1.3596,.1923,4.5935,9.1892,9.1984,18.3733,13.3196,27.7874,4.2384,9.6817,7.7724,19.6094,10.7241,29.7555,1.4879,5.1145,2.8647,10.2603,4.2277,15.4091,1.3674,5.1655,2.7908,10.316,3.9838,15.5257,1.1828,5.1648,2.1337,10.3767,2.9814,15.6062,.8613,5.3136,1.5162,10.6516,1.691,16.0356,.2588,7.9779-.0754,15.9631-.871,23.9033,.0901-2.2556,.1255-4.5144,.0831-6.7771-.1219-6.5027-1.0946-12.8807-2.2398-19.2707-1.1554-6.4467-2.2645-12.9313-3.6291-19.3369-1.2991-6.0984-3.1347-12.0703-5.3174-17.908-2.1066-5.6339-4.5316-11.1602-7.5651-16.3614-2.99-5.1267-6.5189-10.0434-10.1306-14.7496-2.5673-3.3453-5.3292-6.4759-8.4661-9.2955-2.3582-2.1196-4.7595-4.1974-7.2452-6.1667-1.3264-1.0509-2.6687-2.095-4.0853-3.023-.9356-.6129-1.9815-1.2672-3.0883-1.5014-.7076-.1498-1.5561-.1386-2.1722,.2969-1.0565,.7465-1.5224,2.351-.4305,3.3409,3.3986,3.081,5.7149,7.1747,7.2696,11.4705,1.6247,4.4894,2.5581,9.1831,2.746,13.9175,.1124,2.8324,.1236,5.6086-.5993,8.371-.3963,1.5143-.9927,2.9681-1.4018,4.4812-.4063,1.5024-.7195,3.029-.943,4.5691-.2504,1.7243-.2252,3.2773,.0354,5.0001,.2231,1.4745,.5947,2.9211,1.0601,4.3369,.9632,2.9307,2.2736,5.7455,3.5091,8.5682,2.4848,5.6769,5.1416,11.2259,8.3884,16.5117,3.2879,5.3527,6.7098,10.5999,9.7547,16.0996,1.4393,2.5997,2.8246,5.2495,3.9092,8.0198,1.1362,2.9024,1.9334,5.9137,2.6344,8.9465,.7031,3.0421,1.3093,6.1096,2.1667,9.1137,.841,2.9463,1.892,5.899,2.1991,8.9642,.6372,6.361-.2369,12.7957,.2315,19.1706,.1168,1.59,.2981,3.1593,.2807,4.7569-.015,1.3822-.1178,2.761-.231,4.1383-.0589-1.1601-.1341-2.3199-.2376-3.479-.4476-5.0179-1.1659-10.0285-1.8323-15.0217-.6926-5.1894-1.6868-10.2394-3.1579-15.2658-1.3799-4.7149-2.9281-9.3821-4.6991-13.9652-1.835-4.7488-3.8901-9.4198-6.2392-13.9376-2.2231-4.2755-4.8119-8.342-7.0397-12.6158-4.4513-8.5387-8.2104-17.4844-13.602-25.5009-3.2095-4.772-6.7764-9.3329-10.4801-13.729-3.7021-4.3941-7.5727-8.6138-11.9272-12.3714-.3305-.2851-.6832-.4347-1.0285-.4804-.0781-.2396-.1765-.4735-.2916-.7018,.1084-.2637,.207-.5299,.2958-.7896,.5072-1.4842,.7666-3.0597,1.1372-4.5818,.4015-1.6488,.7805-3.3041,1.0786-4.9751,.597-3.3465,.9182-6.7436,.4794-10.1284-.3998-3.0832-1.358-6.0415-2.9065-8.745-1.2613-2.2021-3.086-4.5025-5.6852-5.0959-3.198-.7302-5.9767,1.3968-6.9922,4.3319-.9997,2.8891-.6743,6.3517-.2591,9.3177,.2778,1.9842,.737,3.9215,1.3058,5.8271-3.4482-3.1894-7.4319-5.7567-11.987-7.3665-1.4632-.517-3.1316-1.0352-4.7008-.9122C1.6439,184.6535-.0135,185.9005,0,187.9965c.0161,2.4944,1.7462,4.9376,3.2204,6.8122,1.7699,2.2509,3.957,4.1023,6.2412,5.8105,2.4205,1.81,4.9951,3.4677,7.6227,4.9695-1.1814,.1784-2.3509,.4368-3.4733,.7956-3.8487,1.23-7.9264,3.6566-10.3009,6.9914-1.041,1.4622-1.6315,3.2311-1.2568,5.0282,.4006,1.9212,2.0301,3.1946,3.9808,3.21,4.0573,.0319,7.2463-3.5352,10.2238-5.8241,2.0096-1.5449,4.0025-3.2341,6.159-4.5694Zm159.7136-28.5691c2.0817,.4276,4.1731,.8646,6.2034,1.4987,1.7158,.5358,3.521,1.2302,4.8937,2.4227,1.1987,1.0411,2.357,2.8702,1.5832,4.3701-.3126,.6059-.7218,.9096-1.3581,1.247-.454,.2406-1.6215,.5513-2.0378,.6001-4.3453,.5087-8.5611-1.6817-12.1495-3.8648-2.0988-1.2768-4.3074-2.5604-6.1699-4.1698-.9104-.7865-1.7471-1.6571-2.6682-2.4296,3.9163-.1139,7.8526-.4653,11.7032,.3257Zm-2.2015-14.0074c2.5602-1.9033,5.1945-3.7152,7.9704-5.2914,1.9625-1.1144,4.0509-2.4015,6.2854-2.3084-.0709,.2975-.1941,.741-.296,.9964-.0919,.2307-.0144,.0248,.0047-.0163-.0457,.0982-.0938,.1964-.1456,.2916-.1232,.2257-.2473,.4487-.3859,.6655-.3165,.4953-.33,.5051-.6951,.9193-1.4562,1.6524-3.0217,2.7384-4.862,3.9102-4.3582,2.7748-8.8313,5.3994-13.6676,7.253-.9533,.3653-1.9117,.7177-2.8725,1.0636,2.6126-2.7848,5.6235-5.2231,8.6642-7.4835Zm-15.7425-.4866c.1103-2.6636,.7099-5.2287,1.4932-7.7686,1.2546-4.0678,2.826-8.185,5.0771-11.8183,.4828-.7792,.8596-1.3542,1.4015-1.9597,.1482-.1657,.301-.3276,.4616-.4814,.017-.0163,.2577-.2135,.3023-.2605,.0689-.046,.1397-.0891,.2114-.1306,.0225-.0005,.131-.0378,.2264-.0579,.0233,.0101,.0369,.0137,.0394,.0096,.028,.0265,.055,.0522,.1003,.0935,.3275,.299,.3963,.4496,.6242,.9146,.2816,.5748,.4964,1.7276,.5671,2.6069,.4014,4.9943-1.34,9.9839-3.5724,14.3774-2.0472,4.0289-4.91,7.7895-6.535,12.0316-.2784-2.5095-.5018-5.0302-.3972-7.5565Zm22.5241,64.2099c-1.9453,2.3167-4.3524,4.0071-6.8948,5.6123-2.8112,1.7749-5.7342,3.3645-8.6629,4.9352-2.5936,1.391-5.23,2.4871-8.0158,3.434-2.8814,.9793-5.7745,1.9075-8.5655,3.13-.0545,.0238-.104,.0529-.1581,.0771,.6545-.5506,1.3187-1.0911,2.005-1.6089,4.4702-3.3728,9.2223-6.3979,13.9303-9.4239,8.4307-5.4186,17.3616-10.9016,23.3976-19.0766-1.7053,4.5761-3.9339,9.2264-7.0358,12.9208Zm-30.7876,11.6266c3.7232-4.1375,7.8437-7.7388,12.3673-10.9754,4.4544-3.1871,9.1305-6.0633,13.5251-9.3337,4.2822-3.1869,8.2381-6.7752,11.6516-10.8877,1.0315-1.2428,2.0498-2.5294,3.0052-3.8584-.1186,.9652-.2882,1.9228-.4797,2.8761-.7609,1.8102-1.8056,3.5435-2.869,5.1569-2.8129,4.2681-6.4445,7.7417-10.4413,10.8897-8.451,6.6561-17.9841,11.7853-26.6273,18.179-2.4311,1.7983-4.672,3.7775-6.7686,5.9087,2.1437-2.7082,4.3245-5.3859,6.6366-7.9552Zm10.4068-195.9298c3.193,.8834,6.6175,2.5495,8.8851,4.7966,.3887,.3851,.6138,.6776,.7398,.9302-.0002,.0035,.0011,.011,.0018,.0172-.2662,.1228-.5195,.2776-.7914,.3902-1.6803,.6959-3.4627,.9251-5.2678,.8563-3.7466-.1429-7.4529-1.466-10.5145-3.6072-1.4121-.9877-2.6335-2.1883-3.8749-3.3755-.2329-.2227-.4614-.4501-.6863-.6811,.0046-.0217,.0105-.0429,.0148-.0648,.3983-.1686,.7951-.3528,1.197-.5408,.0193-.009,.0392-.0169,.0586-.0259,3.4418,.2028,6.9005,.3817,10.2378,1.3048Zm-1.411-14.2225c2.631-1.9917,5.4608-3.6776,8.6347-4.6342,1.2801-.3857,2.5936-.6381,3.9026-.9025,.4932-.0996,.6642-.1402,.9895-.1558-.4286,.9824-1.2817,1.7339-2.0859,2.4986-1.2513,1.1898-2.5937,2.2338-3.9953,3.237-2.9187,2.0893-5.9105,4.1126-9.2314,5.5172-1.7712,.7491-3.5864,1.3993-5.3679,2.1248-.2785,.1133-.5543,.233-.8322,.3479,2.2548-3.0353,4.9563-5.7395,7.9859-8.033Zm-12.5674-5.1783c.2367-4.236,1.4748-8.0897,3.6374-11.726,.3439-.5783,.6952-1.1554,1.131-1.643,.142-.1588,.5576-.5505,.5687-.5584-.0083,.0059,.0169-.0119,.056-.0391,.0516,.1903,.0596,.3175,.065,.458,.0314,.8107-.042,1.3995-.1466,2.0244-.7978,4.7657-2.3924,9.3957-3.6591,14.0517-.4639,1.7049-.9229,3.4145-1.4449,5.1035-.2245-2.5522-.3507-5.1103-.2076-7.6712Zm-5.5344,136.5666c-.5637,4.8564-2.0853,9.4616-3.6352,14.0735-1.5754,4.688-2.8055,9.4874-4.4619,14.1483-3.1507,8.8656-8.7363,16.4206-13.6071,24.3749-1.2638,2.0637-2.4948,4.1489-3.7786,6.2005,1.6519-6.16,3.2848-12.3032,5.473-18.3132,1.2709-3.4906,2.6964-6.8342,4.4114-10.1318,1.6895-3.2487,3.3725-6.4873,4.8696-9.831,3.0729-6.8634,5.6396-13.9582,7.5458-21.2348,1.3378-5.1071,2.6204-10.4833,2.8875-15.8415,.7404,5.4864,.9364,11.0344,.2955,16.555Zm-17.3506,23.0202c1.3176-4.2355,2.6062-8.4362,3.5326-12.778,.9049-4.2413,2.0715-8.4135,2.9912-12.6489,1.8759-8.6382,2.6762-17.4972,2.9574-26.3207,.1204-3.7799,.1952-7.5663,.1878-11.3503,2.0836,5.1253,3.8422,10.3808,4.8099,15.8432,1.2869,7.2647-.298,14.6863-2.067,21.7356-1.7994,7.1708-4.236,14.1865-7.2057,20.9556-2.9009,6.6125-6.7847,12.783-9.2497,19.5815-.5298,1.4615-1.0532,2.9224-1.5648,4.3865,1.7231-6.5093,3.6113-12.9848,5.6083-19.4046ZM47.5597,44.4454c-3.0199-.1499-6.0331-.3193-9.0397-.6482-2.1508-.2353-4.3172-.3796-6.4115-.9605-1.601-.4441-3.929-1.4339-4.3369-3.1249-.0046-.0553-.0378-.2794-.0333-.3331,.0059-.07,.0003-.0905-.0084-.0929,.0167-.0361,.0386-.0862,.0676-.1552,.053-.1263,.3992-.5733,.6689-.7871,.9596-.761,2.1594-1.2536,3.34-1.539,2.2843-.5522,4.6888-.1813,6.9362,.3664,2.5552,.6228,5.0338,1.5279,7.4083,2.6555,2.7171,1.2903,5.2636,2.858,7.8457,4.3915,.4378,.26,.8801,.5164,1.323,.7729-2.5839-.229-5.1673-.4167-7.7599-.5454Zm13.4691-7.6275c-.0009,.1034-.0005,.2068-.0012,.3103-1.2762-2.8599-2.5954-5.7002-3.8181-8.5841-1.3789-3.2523-2.6601-6.5515-3.7775-9.9032-1.0085-3.0247-1.945-6.1195-1.8557-9.3403,.0334-1.2056,.212-2.3957,.5281-3.5596,.0677-.2493,.1448-.4946,.2261-.7398,.0074-.0224,.0563-.1529,.0691-.1938,.0285-.0622,.0562-.125,.0881-.1846,.0767-.1432,.1695-.2813,.2543-.4216,.0335,.0107,.05,.015,.0239,.0032,.3626,.1644,.9023,.6531,1.2799,1.0103,.9223,.8727,1.6286,1.8878,2.2312,3.0016,1.231,2.2751,1.9015,4.81,2.5316,7.3045,.8038,3.1823,1.4449,6.4024,1.8013,9.6672,.4226,3.8708,.4523,7.741,.419,11.6298Zm6.4853-1.1785c1.0612-6.9335,2.0502-13.9905,4.0798-20.7208,.7063-2.3417,1.6341-4.8969,3.2325-6.6094,.4221-.4523,.7097-.7129,1.1115-.9665,.1325-.0836,.2682-.1614,.4055-.2368,.016-.0087,.1816-.0854,.2117-.1043,.139-.0417,.361-.0981,.4269-.1217,.0091-.0002,.0157-.0016,.025-.0017,.0107,.0022,.024,.0049,.0375,.0077,.0265,.0191,.047,.0306,.0768,.0491,.016,.014,.0437,.042,.0726,.0719,.0501,.0854,.2259,.3411,.2726,.4272,.0503,.0929,.0957,.1879,.1408,.2834,.0039,.0123,.0052,.0179,.0114,.0359,.0721,.2106,.1439,.4204,.2043,.6348,.1297,.4602,.223,.9301,.2969,1.4023,.0045,.0626,.0477,.4144,.0558,.5086,.0181,.2106,.0318,.4216,.0419,.6327,.0294,.6205,.0181,1.2415-.0084,1.862-.139,3.2602-.859,6.4625-1.9098,9.5454-1.9929,5.8469-5.2635,11.2533-9.1513,16.07,.1041-.9196,.2238-1.8402,.366-2.7698Zm32.5373,60.4739c1.0903-6.7314,2.6572-13.3866,4.677-19.8996,1.0097-3.2561,2.1339-6.4765,3.3702-9.6534,.7547-1.9391,1.5761-3.8551,2.3446-5.7904-1.0741,7.4669-1.9657,14.9612-3.1777,22.4081-.8541,5.2478-2.0876,10.3935-3.1544,15.5977-.514,2.5077-.9688,5.0167-1.6443,7.4888-.6871,2.5145-1.5183,4.9887-2.25,7.4905-.5441,1.8603-1.0251,3.7299-1.4639,5.6119-.0552-.8593-.1113-1.7184-.1429-2.5798-.2548-6.9321,.3335-13.8329,1.4415-20.6737Zm.0502,34.5623c-.1329-.7666-.2465-1.5363-.3639-2.3053,.0031-.0592,.0008-.1195-.0076-.18-.2795-2.032,.1717-4.0026,.5774-5.9823,.5196-2.5348,1.1502-5.0366,1.8709-7.5217,.7104-2.4494,1.5173-4.8709,2.2091-7.3254,.6785-2.407,1.1617-4.8449,1.6457-7.2959,1.0029-5.0793,2.2588-10.0906,3.1151-15.2008,.8474-5.0572,1.5301-10.14,2.2126-15.2216,.5822-4.3342,1.1682-8.6685,1.8502-12.9878,.3186,1.6711,.6238,3.3431,.8895,5.0166,1.0931,6.8851,1.1544,13.7291,.6738,20.6707-.2351,3.3954-.608,6.7838-1.3147,10.1163-.7101,3.3479-1.8282,6.577-3.087,9.7545-2.5716,6.4913-5.4621,12.8445-7.7742,19.4395-1.0341,2.9498-1.9169,5.9541-2.4967,9.0233Zm-40.5011,6.8005c-2.0515-.1182-4.0328-.7242-5.9375-1.4665-3.3685-1.3127-6.6177-3.3037-9.1427-5.9044-1.1212-1.1548-2.1498-2.4954-2.9156-3.9155-.4079-.7564-.7953-1.8322,.3927-1.726,1.8546,.1657,3.722,1.5716,5.1964,2.565,2.0792,1.4008,4.0457,2.9812,6.0453,4.4923,2.0692,1.5637,4.1451,3.094,6.3092,4.5253,.7154,.4731,1.4402,.936,2.1545,1.4129-.6973,.0698-1.4062,.0572-2.1024,.0171Zm1.486-9.4885c-2.0822-2.8507-4.3224-5.6647-6.044-8.7545-.8664-1.5549-1.5431-3.1173-1.969-4.8487-.4633-1.8838-.5987-3.7301-.7217-5.6561-.1266-1.9813-.1785-3.8658,.1389-5.8368,.2152-1.3366,.4626-2.545,1.1773-3.6433,.0173,.0228,.0335,.0478,.0517,.0691,.3587,.4178,.7245,.7979,1.031,1.2587,.6278,.9439,1.1298,1.9684,1.5251,3.0297,.8333,2.2375,1.3684,4.5753,1.9306,6.8915,1.4622,6.023,2.1801,12.1875,3.5769,18.2206,.0233,.1006,.0504,.1986,.074,.299-.2567-.3433-.518-.6829-.7709-1.0291Zm7.1233,5.6184c-.2726-4.1919-.0259-8.5403,.9624-12.5259,.551-2.2221,1.4154-4.5552,2.9273-6.3157,.5968-.695,1.2549-1.2598,2.0531-1.7069,.4188-.2346,.8217-.3935,1.2709-.558,.2482-.091,.4833-.2105,.7204-.3194,.4362,2.0017,.0784,4.2083-.3451,6.1742-.5103,2.369-1.3487,4.632-2.4345,6.7952-1.1052,2.2017-2.4031,4.3001-3.7526,6.3589-.461,.7033-.9329,1.3995-1.4018,2.0977Zm105.7852,211.4542c-2.1706,2.5827-4.9768,4.7487-8.3102,5.5353-3.3955,.8012-7.1663,.1739-10.5215-.6976-3.4964-.9081-6.7853-2.0805-9.7274-4.1526-2.9161-2.0538-5.2501-4.8551-7.6132-7.4937-2.6548-2.9642-5.4561-5.8153-8.5741-8.297-3.3914-2.6993-7.0609-5.1063-11.4827-5.4964-3.5788-.3157-7.403,.5466-10.8221,1.9508,1.0923-1.6148,2.2451-3.1852,3.5-4.6797,2.4472-1.0975,5.0507-1.7934,7.9169-1.753,6.4406,.0908,11.8676,3.6896,16.5654,7.7581,4.1386,3.5842,8.1398,7.6263,13.2308,9.8508,2.8879,1.262,5.905,1.8145,9.056,1.7431,3.4583-.0784,7.1147-.4973,10.4896-1.2662,1.8959-.4319,3.732-1.0773,5.5208-1.8348,1.6597-.7028,3.328-1.4488,4.7809-2.5291,.9378-.6973,1.7755-1.4879,2.5342-2.3461-.4293,1.357-.9185,2.6961-1.4364,4.0136-1.3334,3.3918-2.7372,6.8748-5.1071,9.6945Zm-50.0723-31.9585c1.7893-.4523,3.6443-.8447,5.4995-.795,2.9195,.078,5.177,1.7483,7.2129,3.9119,2.342,2.4888,4.5573,5.0946,6.9537,7.5327,2.3612,2.4024,4.9234,4.6679,7.8104,6.4224,3.18,1.9326,6.6676,3.0678,10.3476,3.5368,4.2311,.5394,8.4069-.0734,12.2315-1.9894,2.0973-1.0507,4.0388-2.456,5.9281-3.8372,.3954-.289,.7859-.5844,1.1758-.8807-1.0795,1.7925-2.3598,3.459-4.024,4.7574-2.5573,1.9954-5.9781,3.2326-9.0855,4.0464-3.3328,.8728-6.9684,1.268-10.407,1.3941-3.1168,.1143-6.1353-.3669-8.9684-1.702-5.0014-2.3568-8.8863-6.4205-13.071-9.9229-4.6552-3.8961-9.9649-7.1269-16.1806-7.4773-2.0719-.1169-4.1234,.1278-6.1084,.6472,1.5621-1.4699,3.2778-2.7595,5.2198-3.7213,1.7279-.8558,3.6001-1.4513,5.4657-1.9229Zm-23.433,14.9963c.5528-.4045,1.1069-.8124,1.6629-1.2189-.6819,1.0975-1.3532,2.2026-2.0235,3.307-.1251,.0909-.2566,.1749-.3792,.2681,.2241-.767,.4347-1.538,.6549-2.3061,.0283-.0168,.0565-.0292,.0849-.0501Zm-35.7327-140.3427c2.6645,2.3692,5.1402,4.8932,7.388,7.6695,3.5449,4.3783,6.8539,9.0874,9.86,13.8507,6.2544,9.9104,10.4916,21.2667,13.262,32.6193,1.4809,6.0683,2.5026,12.2674,3.6863,18.3994,1.1785,6.105,2.3944,12.2293,2.7764,18.4459,.7681,12.5003-1.0296,24.9725-2.6125,37.34-.0893,.6977-.1743,1.3959-.262,2.0938-.4241,1.5578-.861,3.1119-1.2927,4.6675,1.0534-4.9698,1.8581-9.968,2.0444-15.0564,.3889-10.6207-1.5907-21.2269-4.9887-31.262-1.7561-5.1861-3.8216-10.2601-5.7705-15.3748-1.9171-5.0315-3.6096-10.1128-5.0937-15.2884-1.4987-5.2266-2.8776-10.4888-4.0829-15.7911-1.1713-5.1523-2.2677-10.2936-3.9366-15.3163-1.8839-5.6699-4.4603-10.9203-7.279-16.1719-1.4096-2.6262-2.6617-5.3316-4.0953-7.9451-.8016-1.4613-1.6425-2.9001-2.5053-4.3258-.2515-.5928-.512-1.1815-.7929-1.7607,1.2544,1.0588,2.5189,2.1609,3.6949,3.2065Zm23.0498,87.4369c-2.6441-5.7815-6.0114-11.262-9.4076-16.6249-3.4109-5.3861-6.6713-10.7772-9.3591-16.5679-1.3154-2.8341-2.562-5.7008-3.799-8.5698-1.1699-2.7136-2.2678-5.5601-2.6672-8.5053-.4061-2.994,.5058-6.1822,1.417-9.0181,1.012-3.1499,1.7776-6.2226,1.7131-9.5653-.0714-3.6968-.4176-7.4601-1.1506-11.1367,.4193,.8095,.8388,1.6182,1.2554,2.4332,2.4116,4.7179,4.9635,9.2938,6.8104,14.2773,1.8193,4.9094,3.193,9.976,4.2795,15.0947,1.1283,5.3164,2.4022,10.5941,3.8371,15.8364,1.4249,5.2056,2.953,10.3742,4.8016,15.4467,1.8322,5.0274,3.8567,9.9821,5.6916,15.0085,3.6674,10.0461,6.1897,20.4767,6.3092,31.2178,.0489,4.387-.3744,8.7018-1.0913,12.9931,.021-1.6343,.0525-3.2687,.0693-4.9018,.0339-3.2949-.0504-6.5667-.7735-9.7964-.6997-3.125-1.7801-6.15-2.5208-9.2655-1.4895-6.2638-2.7199-12.4629-5.4149-18.356Zm-24.1449,1.2013c1.8836,2.7371,3.6602,5.552,5.4062,8.3621,2.5422,4.0917,5.057,8.2112,7.1947,12.5326,1.0535,2.1298,1.97,4.3226,2.8234,6.5414-1.1396-2.1132-2.3617-4.1803-3.7888-6.1148-1.1336-1.5367-2.4261-2.9066-3.681-4.3399-1.3573-1.5505-2.5605-3.2229-3.7825-4.8797-1.1149-1.5114-2.2261-3.0698-3.5149-4.4415-.7079-.7533-1.6152-1.5573-2.6367-1.7804,.3296-.9279,.6448-1.8622,.9325-2.813,.3131-1.0351,.6287-2.0709,1.0471-3.0669Zm-12.7155,17.6366c-3.6552,5.5408-8.4112,12.0825-15.1615,13.9427-.8944,.2465-1.8108,.4101-2.7276,.5486-.0997,.0125-.3612,.0477-.4607,.0584-.3095,.0335-.6198,.0616-.9305,.0833-.6212,.0433-1.245,.0624-1.8677,.043-.2703-.0084-.5391-.0317-.8088-.049-.0543-.0035-.1533-.0176-.2165-.0272-.0494-.008-.0991-.0143-.1479-.0252-.0221-.005-.0438-.011-.0659-.016,.4971-.2464,1.0004-.4803,1.505-.71,1.522-.6927,2.9644-1.4913,4.3294-2.4604,2.718-1.9299,5.0908-4.2818,7.4312-6.6419,2.2313-2.25,4.3927-4.5848,6.2019-7.1943,1.9769-2.8513,3.2352-6.0288,4.4961-9.2411,1.5309-3.9003,2.9921-7.829,4.8115-11.6075,.5959-1.2373-1.252-2.3259-1.851-1.0819-1.5543,3.2279-2.8662,6.5616-4.1626,9.8993-1.2485,3.2141-2.3871,6.5348-4.1923,9.4895-1.6124,2.6392-3.6569,4.9659-5.8012,7.1821-2.2414,2.3166-4.5231,4.6598-7.0713,6.6431-1.4477,1.1267-3.0049,2.1052-4.6664,2.8841-.5833,.2734-1.1715,.5368-1.7535,.8131,.6604-1.3454,1.7077-2.5571,2.6946-3.6295,1.4816-1.61,3.1416-3.0435,4.7804-4.4887,3.2812-2.8936,6.502-5.9378,9.1706-9.417,3.0454-3.9704,4.8844-8.703,6.4927-13.4037,.8383-2.4505,1.5867-4.9304,2.4106-7.3856,.337-1.0042,.636-2.0081,.9254-3.0266,.0132-.0464,.0285-.0965,.042-.144,2.1435,2.0895,4.1064,4.3427,5.9409,6.7031-.1519,.2417-.2633,.5053-.3311,.8141-.0702,.3201-.1238,1.0593,.0616,1.4397-.0314,.0721-.0663,.1525-.1097,.2528-.2704,.6259-.5265,1.2523-.7501,1.897-.7209,2.0793-1.2358,4.2236-2.0551,6.2695-1.6255,4.0592-3.757,7.9403-6.1626,11.5868Zm34.5955,31.4185c-3.6314-9.1165-9.3733-17.5108-16.021-24.6857-1.8567-2.0041-3.5979-4.1167-5.4694-6.104-1.7198-1.8261-3.6113-3.4709-5.5654-5.0394,.4269-.8283,.843-1.6624,1.2348-2.5088,.4632-1.0007,.8842-2.0096,1.2838-3.0257,.9793,.2513,1.9315,1.4716,2.499,2.1295,1.0652,1.2349,2.0525,2.5347,3.0328,3.8372,1.1633,1.5456,2.3252,3.0971,3.6085,4.5464,1.1942,1.3487,2.4614,2.6124,3.5514,4.0524,2.1357,2.8216,3.8195,5.9412,5.4474,9.0732,1.8256,3.5121,3.4766,7.1034,5.0255,10.7455,.0842,.1979,.163,.398,.2467,.5961,.9092,2.8571,1.7576,5.7331,2.5117,8.6375,.1222,.471,.3571,.8169,.6519,1.059,.0308,.2908,.0651,.5822,.0951,.8728,.112,1.0847,.2,2.17,.2751,3.2556-.6679-2.5263-1.4441-5.0224-2.4079-7.4418ZM23.1455,179.5259c.1469-.665,.4356-1.3939,.8194-1.7115,.2957-.2447,.5687-.337,.8744-.3781-.1487,.02,.3056,.029,.2073-.004,.2003,.0364,.4069,.0882,.5916,.1666-.1917-.0814,.5951,.3995,.4798,.3098,.3864,.3009,.7382,.6884,1.0459,1.0685,2.5237,3.1181,3.6304,7.7278,3.5724,11.8121-.0402,2.8328-.5385,5.6169-1.1618,8.3727-.2517,1.1126-.5275,2.2192-.7866,3.3299-.1618-.3447-.3254-.672-.4638-.9673-.7787-1.6625-1.5272-3.3367-2.2202-5.0375-1.797-4.4107-3.2027-9.1181-3.2026-13.9197,0-1.009,.0254-2.0516,.2441-3.0415Zm-7.7473,19.991c-3.9979-2.5821-8.2341-5.5692-10.4894-9.8917-.1889-.3623-.2993-.5786-.391-.8106,.0108,.0026,.0133,.0037,.0256,.0065,.6865,.1583,1.3629,.3151,2.0343,.5343,.6997,.2286,1.3832,.4968,2.0664,.7696,.0041,.0016,.0041,.0015,.0078,.0031,.0494,.0211,.0988,.0421,.1481,.0638,.1404,.0618,.2811,.1232,.421,.1861,.2964,.133,.5911,.2694,.884,.4098,1.4141,.6776,2.7413,1.5054,4.0216,2.4109,4.1252,2.9175,7.4039,6.8021,10.0975,11.0419-.4468-.1277-.8843-.2691-1.2964-.4487-2.6456-1.1528-5.111-2.7128-7.5296-4.2749Zm-7.0922,17.0066c-.5846,.3504-1.1956,.6689-1.8777,.7771-.0445,.0071-.0723,.0117-.0967,.0158-.002-.0021-.0315-.0018-.0972,.0021,.0089-.1579,.0206-.3154,.0077-.2942,.0299-.1166,.0723-.2729,.0906-.3523,.041-.085,.1033-.2228,.1093-.2334,.1248-.2208,.2516-.4415,.3963-.6503,.8612-1.2425,2.1168-2.1826,3.3706-2.9972,1.4331-.931,2.9096-1.7496,4.5419-2.2724,.6925-.2218,1.4009-.3923,2.1148-.5357-.0459,.0346-.0915,.0694-.1374,.1039-1.6141,1.2145-3.2255,2.4348-4.8105,3.6873-1.1888,.9396-2.3068,1.9672-3.6117,2.7493Z"/>
  </g>
</svg>