<?xml version="1.0" encoding="UTF-8"?>
<svg id="Layer_2" data-name="Layer 2" xmlns="http://www.w3.org/2000/svg" viewBox="0 0 233.09 424.5042">
  <g id="katman_1" data-name="katman 1">
    <path d="M90.632,341.9538c5.1264-9.4105,11.4379-18.1129,18.419-26.2285,7.1949-8.3643,15.2161-15.9271,22.8614-23.8672,4.539-4.7141,9.1934-9.374,13.3806-14.4073,1.3895-1.6701-.716-3.7955-2.3851-2.385-4.5382,3.8355-8.5613,8.2644-12.6616,12.5539-3.9719,4.1551-8.0144,8.2333-12.0717,12.3045-7.6471,7.6735-14.8511,15.809-21.2022,24.5946-1.3216,1.8281-2.5875,3.6949-3.824,5.5808,.0117-.0413,.0229-.0826,.0346-.1238,1.1739-4.1032,2.459-8.2118,4.2077-12.1115,1.7053-3.8035,3.7858-7.4216,5.9134-11.001,2.1842-3.6743,4.3362-7.3641,6.4756-11.0648,2.159-3.7343,4.4006-7.4052,6.888-10.9314,2.4464-3.4679,5.0478-6.8332,7.3514-10.3999,5.0158-7.7664,8.5223-16.285,11.523-24.995,.6255-1.8155-2.3568-3.1195-3.1424-1.3247-3.2909,7.5184-6.4592,15.1743-10.7105,22.2149-2.1822,3.6137-4.7073,6.9937-7.1707,10.4165-2.5139,3.4928-4.8676,7.068-7.0487,10.7782-2.2103,3.76-4.3466,7.5622-6.5738,11.3125-2.1558,3.6302-4.3206,7.2634-6.1559,11.0695-3.7817,7.8429-6.0592,16.4194-8.0339,24.8703-.3923,1.679-.7497,3.3653-1.0917,5.0546-.0042-13.3739,.6603-26.8446,2.1907-40.1767,.1386-.2617,.2304-.5548,.254-.867,.0829-1.0948,.1676-2.1908,.2527-3.2875,.8302-6.4527,1.8599-12.8678,3.1247-19.2152,2.3147-11.6163,5.5745-23.0187,9.0872-34.3223,.2408-.7749,.4933-1.5455,.7411-2.3179,.5213-.1031,.9991-.425,1.3292-.8952,2.5604-3.6455,6.021-6.5172,9.3919-9.38,3.7526-3.1873,7.6017-6.2587,11.5657-9.1794,3.2225-2.3743,6.5052-4.7012,9.8421-6.952,.5643,1.7992,1.3942,3.5609,2.177,5.2399,1.8162,3.8957,3.7385,7.7946,6.4387,11.1636,2.5286,3.1549,6.1742,5.9761,10.1137,7.0793,2.9655,.8305,7.2566,.3254,9.0168-2.5648,1.1087-1.8204,.5596-3.9718-.2321-5.7966-.7438-1.7151-1.7446-3.3931-2.8439-4.9038-2.8486-3.9153-6.5425-7.4824-10.3734-10.4309-1.9249-1.4815-3.9649-2.8072-6.1993-3.7746-.4346-.1883-.8524-.3174-1.2828-.4322,2.4688-1.5361,4.9639-3.023,7.4932-4.4328,4.2104-2.3467,8.5545-4.3454,13.0133-6.1679,4.5815-1.8726,8.972-4.1622,13.5888-5.9451,1.195-.4615,2.3937-.8839,3.5984-1.2736,.0919,.1322,.179,.2665,.2776,.3966,.4532,.5978,.6322,.8006,.959,1.2662,.7983,1.1372,1.5774,2.2877,2.3608,3.435,1.6063,2.3522,3.2278,4.6918,4.9712,6.9453,1.7417,2.2515,3.6055,4.4117,5.7059,6.3382,1.8439,1.691,3.8919,3.4339,6.1758,4.4976,2.5187,1.1731,5.5169,1.5569,7.7893-.3734,1.817-1.5437,2.014-3.9752,1.6241-6.1758-.8366-4.7205-4.257-8.8024-7.9276-11.6721-2.0927-1.6362-4.3316-3.0344-6.6519-4.323-1.7661-.9807-3.5636-1.9636-5.4322-2.7602,.16-.028,.3183-.0594,.4786-.0865,2.4167-.4089,4.8502-.7487,7.2937-.953,1.4475-.121,2.9453-.0944,4.3907-.3113,.2233,.7882,.8606,1.4369,1.9269,1.4256,3.2923-.0347,6.5998-.2114,9.8341-.8677,3.1364-.6366,6.1591-1.7463,9.0912-3.0112,2.2085-.9527,4.3333-2.0785,6.4772-3.1648,1.7441-.8839,3.86-1.9712,4.8345-3.7556,.7122-1.3041,.6814-3.0826-.7564-3.8624-1.4539-.7885-3.3035-1.0064-4.93-1.0232-3.0726-.0317-6.1487,.6285-9.0852,1.4828-2.9141,.8479-5.7889,1.8802-8.5503,3.1418-1.354,.6185-2.6776,1.3069-3.9459,2.087-1.3009,.8001-2.4119,1.7748-3.6215,2.6917-.9032,.6847-1.9697,.7995-3.0732,.8646-1.4648,.0865-2.9191,.1555-4.379,.3159-2.2877,.2512-4.57,.5747-6.8398,.9653,2.7948-2.9612,5.4234-6.0814,7.4849-9.6039,1.5198-2.5968,2.8761-5.2659,3.6366-8.1934,.7785-2.9957,1.4746-6.0991,1.4329-9.2142-.0334-2.4881-1.6536-5.3535-4.3563-5.526-3.0613-.1954-4.9526,3.541-6.4406,5.6814-1.7108,2.4608-3.319,4.9642-4.6165,7.6709-1.287,2.6844-2.3484,5.4759-3.263,8.3072-.8839,2.736-1.6389,5.5112-2.3915,8.2855-.3563,1.3135-.7571,2.6043-1.1461,3.907-.1073,.3593-.196,.7166-.2599,1.0725-3.972,1.2888-7.8345,2.9347-11.5681,4.7884-2.8406,1.4102-5.7962,2.5555-8.7164,3.7854-2.9868,1.2579-5.9134,2.6378-8.7733,4.1632-2.5899,1.3814-5.1203,2.8675-7.617,4.4094,.4748-.9105,.9345-1.8288,1.3805-2.7536,1.3145-2.7254,2.6834-5.4168,4.0961-8.0926,2.8025-5.3087,5.8993-10.5961,8.0583-16.2093,.2412-.6268,.5508-1.228,.7636-1.8656,.2515-.7528,.2807-1.5186,.3852-2.2967,.1865-1.3894,.174-2.5684-.9298-3.6097-.6348-.5988-1.5089-1.058-2.3979-.8139-.671,.1842-1.3739,.5915-1.9576,.9648-1.1241,.719-2.1181,1.6224-3.0359,2.5856-3.9237,4.1184-7.1671,8.8652-9.6706,13.9705-2.6739,5.4526-4.2379,11.1198-4.7988,17.1624-.1398,1.504-.2397,3.0114-.3458,4.5181-.0408,.5787,.2342,1.1102,.6538,1.4913-.2502,.1683-.5031,.3326-.7527,.5013-5.3994,3.65-10.6913,7.4357-15.7955,11.4908-2.5297,2.0097-5.0054,4.0834-7.4547,6.1899-1.4921,1.2831-2.9769,2.5806-4.3893,3.9519,2.6597-7.4548,5.6271-14.7926,8.8916-22.0177,4.84-10.7114,10.0784-21.2654,15.4333-31.7277,5.069-9.9035,10.3215-19.7547,16.2599-29.1706,.4278,.3186,.8539,.6391,1.29,.9467,2.7279,1.9241,5.7074,3.2821,8.9516,4.0836,4.6164,1.1406,9.2123,1.1568,13.7371-.2557,2.9951-.9351,7.9346-2.6762,8.1442-6.4594,.1206-2.1736-1.5849-3.7334-3.2678-4.7988-2.4274-1.5367-5.2506-2.4902-8.0679-2.9921-4.9512-.8819-10.0469-.6123-14.8958,.6643,4.5803-6.4495,9.5626-12.5956,15.0098-18.3592,2.2951-2.4284,4.6549-4.7932,7.0534-7.1188,1.2688,.0662,2.5251,.1419,3.7909,.2791,2.9965,.3246,5.9827,.7353,8.9953,.8854,3.0549,.1523,6.1413,.069,9.1558-.4872,2.7299-.5037,5.2977-1.6821,7.7578-2.912,1.2232-.6115,2.2567-1.1369,3.0776-2.2853,.6694-.9366,.9914-2.1566,.9727-3.3026-.038-2.3227-1.8731-4.004-3.8739-4.8431-4.0324-1.6911-8.9465-1.1544-13.0732-.2039-1.3285,.306-2.6522,.6682-3.9689,1.0588,1.7073-1.5082,3.4201-3.0096,5.1379-4.5031,2.1387-1.8593,4.2602-3.7382,6.3943-5.6029,.0933-.0815,.1689-.1665,.2384-.2522,.5958-.452,1.1756-.9275,1.7785-1.3691,1.6135-1.1818,3.3016-2.2566,4.9992-3.3121,3.0682-1.9076,6.0938-3.8774,9.1445-5.8123,5.7941-3.6747,11.7991-7.4223,16.2766-12.7145,1.8645-2.2039,3.8754-4.7838,3.6086-7.8529-.1213-1.3945-.7157-2.685-1.8956-3.4874-1.317-.8955-2.8858-.8222-4.3876-.5777-3.7286,.6073-7.1651,2.5346-10.1938,4.717-2.9425,2.1201-5.7615,4.484-8.4282,6.9404-6.1137,5.6315-10.2555,12.7662-13.5813,20.3005-.8049,.5552-1.7432,.8637-2.4247,1.5876-.4536,.4821-.5731,1.0846-.4677,1.6433-4.0555,3.2863-8.0539,6.6331-11.9653,10.067,3.918-7.5277,6.4791-15.8487,6.2188-24.3492-.0756-2.4702-.3636-4.9918-1.4096-7.2552-1.1012-2.3831-3.6514-4.2397-6.2157-2.7119-2.2685,1.3516-3.4708,4.3852-4.0877,6.8204-.6535,2.5802-.7944,5.261-1.0512,7.9003-.5864,6.0287-1.2236,12.0529-2.111,18.0453-.2293,1.5493-.4295,3.1055-.6944,4.6491-.2297,1.3379-.5292,2.7265-.4176,4.0915-.3312,.0845-.6451,.2453-.8988,.4992-.7126,.7124-.6919,1.6379-.2602,2.4224-7.8054,7.6422-15.0676,15.8128-21.4758,24.7916,1.3446-5.5751,2.4149-11.2087,3.1749-16.8985,.9219-6.9012,1.9-14.172-.7343-20.8398-.5534-1.4004-1.6685-2.7561-3.1623-3.2036-1.4506-.4346-2.9054,.0508-4.0718,.9385-2.2566,1.7175-3.314,4.3931-3.8953,7.0881-1.3662,6.3343-1.7942,12.8762-1.5887,19.3417,.1102,3.4666,.3925,6.9268,.7984,10.3709,.1845,1.5654,.4069,3.1257,.5969,4.6903,.1842,1.5183,.2933,3.1514,.8119,4.6021,.4269,1.1941,1.1915,2.0455,2.1022,2.8066-4.5113,7.1363-8.6183,14.5252-12.5718,21.9865-5.6331,10.6309-10.9578,21.4323-16.1258,32.2962-3.3228,6.9847-6.3887,14.0759-9.2076,21.2598,.1511-1.4544,.2979-2.9092,.4408-4.3643,.1552-.2549,.2458-.5442,.218-.8527-.0227-.2508-.0421-.5017-.0641-.7525,.2778-2.9251,.5313-5.8522,.7276-8.7843,.5843-8.7266,.7347-17.4755,1.2954-26.2038,1.1029-17.1644,2.3423-34.3669,5.6116-51.2793,1.6297-8.4306,3.6172-16.7947,5.5983-25.1484,.9604-4.0493,1.9648-8.0897,3.1215-12.0879,1.1709-4.0469,2.6032-8.0036,3.8942-12.0118,1.2813-3.978,2.4413-7.9997,3.3347-12.084,.1742-.7965,.3305-1.5967,.4835-2.3975,.5162-.0175,1.0306-.0887,1.5412-.215,.5837,.0201,1.1755-.0261,1.7368-.0709,1.2145-.097,2.4446-.224,3.641-.4571,3.8867-.7576,7.6041-2.7181,11.1072-4.5016,2.999-1.5269,5.7275-3.9075,6.0506-7.453,.2218-2.4339-.5568-5.3096-3.1061-6.1682-2.0264-.6825-4.2508,.192-6.0426,1.1254-.4004,.2085-.7893,.4416-1.1768,.6766,.0745-.0869,.1525-.1707,.2267-.258,5.1301-6.0367,9.3151-12.7913,10.9336-20.6387,1.418-6.875,1.0729-14.6005-1.8999-21.0582-1.2482-2.7112-3.5224-4.9004-6.5491-5.3806-3.4769-.5516-6.7925,1.149-9.4972,3.1834-5.7873,4.3532-10.3266,10.2244-12.9109,16.999-2.9268,7.6729-1.4899,16.0225-.3234,23.8898,.0721,.4861,.1508,.971,.2256,1.4566-1.5743-1.1439-3.2151-2.226-4.9036-3.1394-2.3653-1.2795-5.8197-2.6878-8.0738-.4171-1.9445,1.9586-1.2323,5.1252-.336,7.4005,2.3799,6.0418,7.6464,11.0849,13.5702,13.6481,.549,.2376,1.1073,.4601,1.6711,.6546-1.6183,8.2275-4.5693,16.0079-7.0032,24.0071-2.5256,8.3025-4.375,16.8069-6.3105,25.2612-1.9584,8.5542-3.7398,17.1395-4.9849,25.8298-1.2606,8.7993-2.1205,17.6481-2.7972,26.5098-.3961,5.1868-.7459,10.3766-1.0451,15.5694-.3951-5.3004-.893-10.592-1.6087-15.8655-1.114-8.208-2.0361-16.4633-3.4834-24.6212-1.4673-8.2708-2.83-16.5603-4.3167-24.8275-1.4767-8.2118-3.1312-16.391-4.7662-24.5723-1.5552-7.7818-2.8887-15.6374-4.8153-23.3386-.9386-3.7521-2.0555-7.4667-3.5072-11.0545-.2428-.6002-.4931-1.2093-.7475-1.8184,2.036-.3328,4.0503-1.2877,5.8148-2.1183,2.307-1.086,4.6178-2.1628,6.7473-3.5774,2.4927-1.6559,4.9694-3.7231,6.3783-6.4191,1.1203-2.1439,1.8137-5.2468,.5274-7.4891-2.3564-4.1086-7.4158-.5739-9.9117,1.3901-2.1868,1.7208-4.2924,3.6735-6.148,5.7812,.359-1.5313,.6998-3.0652,1.0087-4.6097,.8079-4.0395,1.5011-8.1183,1.522-12.2488,.0173-3.4446-.1567-6.899-.5719-10.3192-.8187-6.7434-2.593-13.8625-8.4788-17.9938-5.9713-4.1913-14.7124-1.8428-19.0874,3.6092-9.4026,11.717-4.0023,29.2187,4.3619,39.8552,1.0447,1.3286,2.1664,2.5888,3.33,3.8097-1.3678,.25-2.7069,.659-3.9713,1.2335-2.763,1.2553-5.6257,3.781-6.5235,6.7763-.461,1.5382-.0992,3.1517,1.1534,4.1945,1.2523,1.0425,2.8779,1.2403,4.4531,1.1298,1.4634-.1026,2.907-.3947,4.3506-.6412,.0732-.0125,.4508-.0675,.5262-.0822,.3617-.0384,.7257-.0608,1.0887-.0807,1.0075-.0552,2.0165-.0685,3.0242-.1152,2.2185-.1028,4.2774-.4579,6.1916-1.2366,2.8362,6.3432,4.5761,13.056,5.9924,19.8643,1.72,8.2676,3.3145,16.5644,4.9652,24.8463,1.7011,8.5338,3.3105,17.0823,4.7977,25.6559,1.4626,8.4321,3.1238,16.833,4.3065,25.3104,.7758,5.5613,1.6224,11.1173,2.3431,16.6878-1.3659-3.2374-2.8917-6.4133-4.3818-9.5924-2.9405-6.2732-5.7857-12.5993-9.1397-18.6671-1.8821-3.4048-3.9565-6.6931-6.2154-9.8512,.261-.3065,.4733-.6652,.6158-1.0675,.3237-.9138,.439-1.9413,.6333-2.8883,.2487-1.2116,.4899-2.4247,.7424-3.6355,.4941-2.3698,1.02-4.7321,1.4067-7.1228,.3848-2.3778,.6043-4.7531,.7254-7.157,.103-2.0469,.2386-4.1042,.0254-6.149-.353-3.3849-1.919-7.956-5.4343-9.2831-.8687-.3279-1.8243-.3511-2.7174-.0981-1.1205,.3173-2.0433,1.2506-2.8807,2.0278-1.5188,1.41-2.3335,4.031-2.7038,6.0212-.9644,5.1835-.1112,10.78,.9261,15.887,.2712,1.3357,.5747,2.6645,.9079,3.9857-1.2992-1.3995-2.6204-2.779-3.9251-4.1727-2.2872-2.4435-4.5908-4.8854-7.1155-7.0878-2.0557-1.7933-4.2606-3.4121-6.556-4.8982,.0028-.0276,.0097-.0501,.0121-.0785,.0287-.3439-.0356-.6367-.1544-.8881,.6732-1.7843,.4248-3.9809,.4086-5.8075-.0239-2.6843-.1811-5.3659-.4761-8.0341-.5292-4.7871-.8606-9.6178-3.3725-13.8482-1.2095-2.037-2.3311-3.8685-4.6417-4.7497-1.0589-.4038-2.0869-.5404-3.1248,.0193-1.0162,.5481-1.7246,1.4974-2.0815,2.5836-.7083,2.1554-.2858,4.7917-.0286,6.9831,.3371,2.8723,.8597,5.7136,1.5964,8.5106,1.0128,3.8449,2.5161,7.4853,4.3098,10.9983-.6769-.3408-1.3566-.6749-2.0388-.9997-5.9581-2.8367-12.256-5.2401-18.879-5.8184-3.4017-.297-6.8056,.1098-10.2009,.305-2.2348,.1285-5.2402-.2294-6.9843,1.4701-1.7522,1.7073-.9703,4.1792,.3646,5.829,1.2481,1.5425,2.9823,2.7291,4.6687,3.7458,1.5611,.941,3.1462,1.5919,4.878,2.1557,1.6364,.5327,3.2771,.9969,4.9866,1.2226,1.7409,.2299,3.5021,.1447,5.2469-.0082,3.4339-.3006,6.8862-.7954,10.2439-1.5749,1.4174-.329,2.8449-.6807,4.3082-.6869,.6771-.0028,1.3313,.1568,1.9837,.3045-.1218,.102-.2473,.1995-.3689,.3018-3.7242,3.1336-6.991,6.7281-9.9224,10.6066-1.3845,1.8319-2.8088,3.7021-3.9718,5.6841-.5637,.961-1.0576,1.9577-1.4965,2.9814-.5008,1.1679-1.1621,2.3811-1.2555,3.6638-.1681,2.3113,1.6868,4.7257,4.0324,4.9251,1.8856,.1604,3.6235-.9623,5.0612-2.0513,4.3169-3.2698,6.9241-7.8435,9.4508-12.5274,1.38-2.5581,2.7356-5.1293,4.0655-7.7137,.615-1.1952,1.2527-2.3861,1.8276-3.6019,1.4442,.9596,2.8447,1.977,4.1767,3.0713,2.3988,1.971,4.5823,4.1907,6.7168,6.4404,2.1205,2.235,4.2643,4.4573,6.3381,6.7353,.0483,.0531,.0947,.1079,.1428,.1612-3.687-.4814-7.5942-.3465-11.1045,.6611-1.7484,.5019-3.3742,1.4267-4.3816,2.9828-1.0835,1.6735-1.6014,4.021-.5182,5.8001,1.2837,2.1084,3.9309,3.1818,6.2167,3.7283,2.4957,.5968,5.2803,.556,7.6891-.3869,2.1741-.8511,3.9017-2.357,5.5499-3.9731,.6521-.6396,1.2931-1.2903,1.9365-1.9385,.0009,.0022,.0018,.0043,.0025,.0064,.2312,.5638,.6321,1.0256,1.1393,1.2638,1.4863,2.0939,2.8887,4.2481,4.1952,6.4626,3.3129,5.6152,6.1126,11.51,8.8765,17.4085,2.6801,5.7196,5.6277,11.3753,7.7203,17.3459,.5194,1.4821,.9772,2.9835,1.3723,4.5036,.2595,.9979,1.0376,1.4147,1.8312,1.4031,.6436,7.5608,1.0522,15.1395,1.5572,22.7106,.1805,2.7025,.3869,5.4032,.6105,8.1023-.2026,2.5881-.424,5.1756-.6855,7.763-.4366,4.3194-.9084,8.6351-1.3395,12.955-.0573,.5732,.2233,1.1007,.6477,1.4788-3.551,10.228-6.6044,20.6302-9.1658,31.1768-.0971-4.2734-.3727-8.54-.9208-12.7903-1.1643-9.03-3.9568-17.7558-7.8474-25.973,.3206-.2309,.6363-.4765,.9433-.755,2.6737-2.4261,4.2396-5.8073,5.8408-8.9724,3.5612-7.0394,7.3768-14.8351,5.9516-22.9605-.5255-2.9969-2.8726-6.3497-6.3385-5.2415-2.7504,.8793-4.4998,3.9262-5.7475,6.3316-1.8442,3.5558-3.1443,7.3548-3.8509,11.2982-.7253,4.0503-.9517,8.1523-1.0408,12.2576-1.0424-1.7915-2.1273-3.5565-3.2606-5.2851-2.4619-3.755-5.1137-7.4075-7.8727-10.9704,.6971-1.1161,1.1209-2.3437,.8824-3.7684-.0152-.0914-.05-.174-.0805-.2586,.0166-.0325,.0386-.0582,.0545-.0914,.4883-1.0149,.6483-2.0785,.8674-3.1694,.2585-1.2878,.6187-2.5526,.933-3.8271,1.3063-5.2966,1.0512-11.0382-.5925-16.2459-1.1137-3.529-3.799-9.3305-8.5168-7.6059-2.4087,.8804-4.1301,3.4054-4.8547,5.7809-.9102,2.9844-.5991,6.2131-.1329,9.2413,.4483,2.9114,1.0221,5.8184,1.9289,8.6242-2.6858-2.9-5.4893-5.6901-8.4639-8.2936-.1204-.1452-.268-.2673-.4334-.3719-.4332-.3748-.8642-.7519-1.3042-1.1191-2.5592-2.1369-5.2199-4.1494-8.1966-5.6726-2.9322-1.5003-6.037-2.5175-9.1884-3.44-3.4506-1.01-6.9786-2.0645-10.5877-2.2907-2.3649-.1481-5.0976,.4051-6.9524,1.9491-2.3499,1.9561-1.6844,4.9464,.2429,6.9256,2.279,2.3405,5.4782,2.564,8.1954,3.9262,1.4702,.7369,2.8826,1.5841,4.3888,2.2488,1.7275,.7621,3.4118,1.19,5.2933,1.3644,3.7729,.3497,7.5712,.2209,11.3521,.1051,1.6411-.0502,3.2824-.0926,4.9242-.1063,4.0854,3.6191,7.8866,7.572,11.4652,11.7237-.6753,.1399-1.3503,.2791-2.0259,.4398-5.2588,1.251-10.3264,2.6501-15.2237,4.9761-2.0462,.9719-4.0298,2.054-5.767,3.5235-1.649,1.3953-3.2435,3.5018-3.2541,5.7606-.0122,2.5623,2.0704,4.1978,4.2877,4.973,2.53,.8845,5.388,.7348,7.986,.2867,3.1031-.5352,6.1239-1.7308,8.9485-3.0974,2.3818-1.1524,4.6059-2.5902,6.6228-4.3044,1.0176-.8651,1.9665-1.8102,2.8383-2.8219,.5042-.5852,.9771-1.1955,1.4447-1.8101,.0569-.0747,.0904-.1202,.1222-.1637,.0173-.018,.0253-.0252,.0506-.0522,.0362-.0388,.0703-.0798,.1057-.1192,2.1054,2.7743,4.1336,5.6003,6.0736,8.4636,2.3553,3.4763,4.5417,7.0919,6.5046,10.8253-.8901,.3672-1.8059,.7054-2.6992,1.0984-2.7303,1.2015-5.4063,2.5265-8.0177,3.9682-5.1187,2.8258-10.1039,6.023-14.3985,10.014-.9821,.9127-2.2261,1.7348-2.9202,2.8991-.6831,1.1456-.8091,2.5639-.3587,3.8163,.3039,.8453,.758,1.6898,1.6921,1.9479,.6657,.1839,1.4705,.2013,2.1619,.2187,1.2033,.0301,2.421-.1134,3.5991-.3515,4.9712-1.0043,9.338-4.1838,13.0195-7.5278,3.7942-3.4464,7.0833-7.3914,10.2139-11.4363,3.0794,6.6657,5.4062,13.6668,6.6652,20.9063,1.216,6.9916,1.4136,14.1852,1.3645,21.2672-.0399,5.7487-.324,11.493-.7001,17.2297-2.4843,16.7101-3.4949,33.6799-3.6435,50.511-.0232,2.6357-.0101,5.2716,.0367,7.9068-3.7934-11.272-9.1313-22.0016-15.5882-32.004-4.3579-6.7506-9.2043-13.1813-14.3009-19.3897-5.0724-6.1791-10.5051-12.0905-16.5766-17.3054-7.3273-6.2935-15.6099-11.3124-24.3286-15.4235-1.7479-.8242-3.2489,1.6127-1.5369,2.6292,7.1537,4.2473,14.3576,8.687,20.8083,13.9619,6.115,5.0007,11.6212,10.6722,16.7273,16.69,10.0368,11.8287,18.9944,24.6893,25.6131,38.7544,.7486,1.5909,1.4546,3.2009,2.1355,4.8209-2.3668-3.0792-4.8645-6.0551-7.5626-8.8508-2.9017-3.0064-6.0201-5.7855-9.3554-8.3026-3.3538-2.5313-6.9721-4.6295-10.6799-6.5942-7.7637-4.1139-15.7349-7.7794-23.3404-12.1954-4.0394-2.3453-7.9534-4.8846-11.3279-8.1384-3.3234-3.2046-6.129-6.8813-8.9218-10.5431-.5683-.7452-1.4974-1.1386-2.3779-.6235-.7413,.4336-1.187,1.6205-.6234,2.3779,2.5045,3.3663,5.0005,6.7604,7.8615,9.8374,2.849,3.0643,6.1033,5.6832,9.5931,7.983,7.2715,4.7922,15.1435,8.5815,22.8759,12.5499,3.8541,1.978,7.7225,3.9962,11.3495,6.3726,3.3213,2.1764,6.3928,4.698,9.268,7.4335,2.9006,2.7598,5.5977,5.7308,8.1172,8.8413,1.2467,1.5391,2.4821,3.1048,3.5859,4.7506,1.2176,1.8152,2.2655,3.7366,3.3453,5.6347,1.0051,1.7667,2.1962,3.4895,2.9548,5.3833,.833,2.0794,1.0509,4.3622,1.3574,6.5635,.6026,4.3261,1.1357,8.8131,3.0968,12.7607,.0456,.3072,.0869,.6148,.1342,.9219,1.8146,11.7892,4.9604,23.3125,8.1949,34.7766,.7955,2.8201,1.5959,5.6385,2.3853,8.4603,.7249,2.5918,4.7668,1.4908,4.0383-1.1134-3.1792-11.3652-6.5632-22.691-8.9529-34.2573-1.5139-7.3275-2.5104-14.7261-3.1057-22.1644,.7673-7.6613,1.9254-15.2757,3.5775-22.7999,.2681-.1577,.5122-.3916,.7007-.7376Zm114.6371-153.5568c.908-.6961,1.9326-1.284,2.9311-1.837,2.1821-1.2084,4.4764-2.1539,6.8299-2.9706,2.3736-.8235,4.7895-1.5614,7.2595-2.0349,1.3904-.2665,2.9604-.5005,4.4687-.4191-.5017,.2991-1.0128,.5825-1.5324,.847-1.9665,1.0007-3.9199,2.0359-5.9366,2.932-2.6348,1.1705-5.3943,2.1296-8.2107,2.7544-1.9115,.4242-3.8573,.6279-5.8098,.7287,0-.0002,.0001-.0002,.0004-.0004Zm-12.4966,11.5143c3.8247,2.2368,7.5289,4.9408,9.737,8.8813,.6888,1.229,1.3165,2.8068,1.3821,4.109,.0108,.2157,.0106,.4309,.0002,.6467-.0024,.0507-.0029,.0782-.004,.112-.0049,.0146-.0103,.0313-.0185,.0669-.0285,.1239-.0644,.2464-.1034,.3677-.0316,.036-.1597,.2879-.1786,.3233,.0049-.0028,.0062-.0022,.0118-.0055-.0037,.0022-.0095,.0063-.0134,.0086-.0004,.0005-.0018,.0034-.002,.0038,.0011-.0017,.001-.002,.0019-.0037-.1159,.0692-.2976,.1995-.4046,.2462-.4046,.177-.7471,.1929-1.2187,.1363-1.6358-.1965-3.5215-1.6144-4.7635-2.5964-1.9606-1.5503-3.7469-3.3066-5.3907-5.1875-3.1161-3.5653-5.6832-7.5592-8.3661-11.4494,1.025,.3109,2.072,.5801,3.0341,1.0098,2.1624,.9659,4.2529,2.1359,6.2966,3.3309Zm-9.4215-16.2218c1.3744-4.9055,2.9191-9.792,5.3619-14.2844,1.2897-2.3717,2.8353-4.5985,4.3996-6.7952,.3104-.4358,.5783-.9062,.9024-1.3308,.2507-.3283,.5944-.5867,.8734-.8866,.0574,.0991,.1032,.1744,.105,.1636,.4502,1.0908,.2558,2.2776,.1402,3.4527-.1449,1.4715-.5006,2.8821-.8476,4.3138-.3422,1.4112-.684,2.806-1.2336,4.1552-.5171,1.2702-1.2165,2.4447-1.8798,3.6407-2.3094,4.1646-5.4748,7.6986-8.7855,11.0821,.323-1.1697,.6364-2.3422,.964-3.5112Zm-43.1074,33.6029c.6306,.3035,1.2469,.6363,1.8496,.9919,1.1708,.6909,2.3039,1.4616,3.37,2.3056,2.165,1.7142,4.1305,3.6686,6.0486,5.6506,1.8431,1.9045,3.3956,3.8925,4.721,6.1886,.5486,.9504,1.1303,1.9576,1.325,3.0533,.025,.1411,.0307,.2551,.032,.4676-.0097,.0211-.0217,.0477-.034,.0721-.0183,.0185-.0361,.0362-.0618,.0627-.004,.0041-.0485,.0447-.0866,.0802-.0622,.0419-.1744,.122-.1951,.1337-.479,.2696-.3122,.2155-.845,.3838-.202,.0637-.4066,.1187-.613,.1659-.0783,.018-.3649,.0654-.4417,.0831-.9307,.0884-1.7827-.0961-2.6739-.4022-4.769-1.6384-8.1135-5.8734-10.4571-10.1244-1.3875-2.5169-2.6979-5.1277-3.8123-7.7772-.2822-.6705-.6213-1.411-.8979-2.1635,.64,.205,1.3029,.3437,1.8874,.4715,.0278,.006,.1363,.0364,.2071,.055,.0835,.0355,.2527,.1022,.2458,.0989,.1446,.0664,.2886,.1339,.432,.2028Zm-2.8642-16.5403c.8347-3.3333,2.088-6.5348,3.658-9.5884,1.5521-3.0184,3.3493-5.9548,5.4391-8.6331,1.2747-1.6338,2.6488-3.4009,4.2883-4.7709-.2372,.9075-.7115,1.8074-1.0547,2.6554-.8132,2.0094-1.8214,3.941-2.8276,5.8588-2.2032,4.1992-4.4533,8.3749-6.6265,12.5898-1.0335,2.0049-1.9778,4.0528-2.9885,6.0691-.2719,.5427-.5599,1.0702-.8548,1.5918,.2048-1.9403,.4903-3.8694,.9668-5.7724Zm70.7114-123.0699c2.3434-2.4337,4.9308-4.6184,7.5496-6.7467,2.5388-2.0632,5.222-4.0629,8.242-5.3698,1.3499-.5842,2.9136-1.1356,4.3954-1.2021,.2906-.013,.5538,.0223,.5646,.0242,.1052,.0182,.1733,.0477,.2174,.0727-.0262-.0311-.0387-.0558,.0055-.0074,.0064,.0079,.0124,.0151,.0188,.0227,.001,.0007,.0016,.0012,.0025,.0018,.0077,.009,.016,.0184,.026,.0304-.0013-.0004-.0029-.0022-.0042-.0028,.0038,.0043,.0082,.0097,.0109,.013,.0128,.0149,.0298,.0453,.0456,.0756,.0335,.1028,.063,.207,.0897,.3116,.0022,.0093,.0031,.0106,.0051,.0182,.0077,.1181,.0112,.2358,.0099,.3542-.0007,.0684-.0352,.3645-.0359,.4208-.0439,.2285-.098,.4559-.1677,.6775-.0331,.1052-.0703,.2102-.1094,.3137-.0222,.0471-.0897,.2013-.1146,.2482-.6403,1.2068-1.5598,2.274-2.461,3.2923-4.1505,4.6894-9.494,8.0326-14.7603,11.3172-3.233,2.0163-6.431,4.0848-9.6734,6.0857-.5208,.3215-1.0359,.6524-1.5533,.9801,2.1233-3.9519,4.6013-7.716,7.6968-10.931Zm-23.8841,33.3829c2.7002-.8665,5.4138-1.7242,8.212-2.2175,1.9825-.3496,3.9963-.404,5.9979-.2106,.098,.0095,.1384,.0123,.1516,.0123,.0225,.0041,.0578,.0103,.1305,.0217,.2124,.0337,.4243,.0705,.6349,.1133,.4559,.0925,.9015,.2143,1.3435,.3572,.0929,.0301,.1854,.0636,.2765,.099,.1804,.084,.3572,.1757,.5283,.2776,.0621,.0369,.2808,.193,.3473,.2351,.0454,.0491,.1596,.1647,.244,.2546-.0057,.0108,.0851,.1591,.1399,.2517,.001-.0085,.0026-.0123,.0029-.0248-.0001,.0058-.001,.0178-.0018,.027,.0093,.0157,.0183,.0307,.0245,.0417-.0104-.0184-.0165-.0265-.0245-.0392-.0073,.1122-.0435,.4232-.0326,.4147-.0203,.0934-.042,.1906-.0767,.2779-.0043,.0111-.0052,.0141-.0089,.0233-.0094,.0161-.0227,.0406-.0425,.0791-.1418,.2736-.2971,.3922-.5081,.5265-.5199,.331-1.1084,.5403-1.657,.8232-2.4223,1.2493-5.0878,2.194-7.8061,2.4887-5.1552,.5589-10.2278-.2113-15.3338-.7342,.0971-.0906,.1934-.182,.2906-.2725,2.3035-1.1649,4.7065-2.0363,7.1676-2.826Zm-9.0762-5.6632c.4366-2.9519,.8412-5.9065,1.1721-8.8723,.3312-2.9695,.6334-5.9421,.9402-8.9142,.2488-2.4086,.3433-4.8551,.8483-7.2288,.2384-1.12,.5472-2.2455,1.0705-3.2686,.2429-.4749,.5087-.9687,.8462-1.3836-.0018,.0022,.1466-.1966,.2464-.312,.1025,.1202,.2009,.2392,.1657,.1915,.2392,.3254,.4081,.6999,.532,1.0153,.4056,1.034,.5967,2.1725,.697,3.2732,.4485,4.9181-.2778,9.8717-1.6922,14.5825-1.1874,3.9549-2.8759,7.7259-4.8846,11.3232,.0196-.1354,.0385-.2711,.0584-.4064Zm-27.765,43.5929c1.4396-.5871,2.923-1.0772,4.4265-1.4716,2.457-.6445,4.9011-.9767,7.4423-1.003,2.5048-.0259,4.9944,.2282,7.4146,.8889,1.1064,.3021,2.1967,.6735,3.2265,1.1808,.5387,.2653,1.0639,.5577,1.5713,.8785,.2015,.1275,.4017,.258,.5944,.3983,.0862,.0723,.1737,.1451,.2536,.2239,.0426,.042,.1692,.1794,.2479,.2608,.021,.0325,.0465,.0705,.0705,.1054-.024,.0405-.0452,.0791-.0668,.119-.0236,.028-.0501,.0578-.0839,.0903-.0984,.0951-.2027,.187-.299,.2841-.0283,.0287-.043,.0449-.0593,.0627-.0124,.0075-.0184,.0103-.0361,.0218-.2904,.1897-.5733,.3854-.8747,.5583-.3228,.1851-.6542,.3553-.9901,.5152-.1611,.0765-.3236,.1492-.4862,.2222-.0048,.0022-.019,.0083-.0357,.0154-.0663,.0257-.3095,.1239-.3045,.122-1.4046,.54-2.8481,.9787-4.3179,1.3024-.2967,.0653-.5944,.126-.8934,.1791-.1054,.0187-.2115,.0346-.3169,.0532-1.2742,.0221-2.5196,.1125-3.7986,.0175-2.7409-.2034-5.5987-.8772-8.1051-2.0178-1.6993-.7734-3.2379-1.8308-4.7386-2.9384,.0532-.0226,.1058-.0472,.159-.069Zm-5.88-34.8195c.2834-2.3571,.5879-4.8239,1.3069-7.0932,.2868-.9051,.6786-1.8356,1.3245-2.544,.2853-.3129,.6218-.6264,1.0052-.808,.2093-.0992,.154-.0832,.2979-.0768,.0154,.0082,.0304,.0128,.0462,.0279,.8138,.7831,1.099,2.2045,1.3723,3.3517,.3385,1.4215,.4992,2.8494,.5656,4.3074,.1483,3.2474-.2324,6.4149-.628,9.6293-.7625,6.1953-1.9154,12.3521-3.3784,18.4194-.2632,1.0913-.5493,2.1766-.8333,3.2626-.0432-.3319-.0845-.6637-.1276-.9942-.3898-2.9997-.8106-5.9883-1.0701-9.0035-.5285-6.1395-.6178-12.3521,.119-18.4786Zm4.241-59.1921c.1539-.0732,.5131-.2255,.9867-.3605,.1854-.0528,.3724-.0929,.5607-.1322,.1041-.0028,.2099-.001,.3113-.013,.0372-.0044,.0593-.0088,.0824-.0131,.0082,.0056,.0121,.0103,.0262,.0173,.0306,.0152,.0465,.0208,.0627,.0268,.0079,.0071,.0176,.0163,.0238,.0218,.0241,.0423,.049,.0923,.066,.1266,.2569,.7363,.3419,1.7196-.0283,2.6257-.5084,1.2443-1.7326,2.0862-2.8488,2.7349-1.5291,.8887-3.1737,1.6131-4.774,2.3631-1.437,.6736-2.9035,1.2905-4.4222,1.7527,.4216-.5926,.8286-1.1918,1.2349-1.775,2.2422-3.2202,5.2121-5.7095,8.7187-7.3752Zm.0331-44.903c-.431-.1632-.8746-.2931-1.3326-.3745-2.8669-.5095-5.7119,.7149-7.0067,3.3832-1.3851,2.8539-1.0458,6.4286,1.6485,8.3591,1.2131,.8691,2.8521,1.52,4.3324,1.0075,1.6613-.5753,2.3011-2.2419,1.9337-3.8702-.2454-1.0868-2.1222-.875-1.9831,.2684,.3416,2.8047-2.8864,1.4071-3.9014,.1244-1.2568-1.588-.8635-4.1898,.2949-5.7276,2.3332-3.0965,6.3444-1.3645,8.5608,1.2927,.5638,1.8145,.8722,3.7433,1.0775,5.2055,.0615,.438,.1109,.8773,.1519,1.317-.7049,2.1736-2.2298,4.2193-3.7523,5.5724-1.2233,1.0872-2.8143,2.0049-4.4996,1.945-2.1317-.0759-4.338-1.7495-5.8292-3.1373-2.0372-1.896-3.5797-4.4464-3.3157-7.3287,.0725-.7913,.3094-1.5282,.6359-2.2284,.4262-.4609,.8608-.9151,1.3124-1.3552,2.0799-2.027,4.4825-4.2284,7.2981-5.1441,1.8614-.6054,3.2823-.2342,4.3744,.6909Zm-21.0702,23.3272c.2359-3.7407,1.3319-7.2599,3.097-10.5563,.7087-1.3234,1.5082-2.5835,2.3818-3.7882,.071,2.6989,1.3649,5.2275,3.2244,7.1924,1.9106,2.0191,4.7545,4.1276,7.6194,4.3614,2.3296,.19,4.5395-1.0218,6.2323-2.5172,.8464-.7477,1.6658-1.6736,2.3819-2.707-.283,5.622-2.0799,11.1846-4.9227,16.0023-3.8295,6.4899-9.2153,11.6809-14.4167,17.0442-.3769,.3889-.7437,.7908-1.1031,1.1998-.2392-1.7899-1.0471-3.3559-2.1459-4.7306-.6394-3.3517-1.1342-6.73-1.6186-10.107-.5415-3.7767-.9707-7.5723-.7298-11.3938Zm-4.7073,28.4665c-2.7487-1.9618-5.1714-4.584-6.7163-7.5984-.4691-.9152-.6848-1.4222-.9874-2.5193-.1671-.6052-.2276-.8744-.2403-1.3721-.0025-.1073,.0064-.2159,.0114-.3239,.0001,.0257,.004,.0171,.019-.0977,.0019-.0139,.0039-.02,.0057-.0298,.0075-.0025,.0133-.0016,.0203-.0036-.004-.0072-.0079-.0139-.0133-.0277,.0141-.0403,.028-.003,.0307,.0246,.086-.0185,.155,.0042,.3221,.0325,.5817,.0984,1.1526,.3223,1.6852,.57,1.2542,.5834,2.4343,1.3308,3.5832,2.0975,1.8319,1.2224,3.904,2.4801,5.45,4.1338,.3099,1.5609,.6427,3.1172,1.0343,4.6618,.1986,.7822,.3718,1.6395,.5903,2.4933-.0256,.1938-.049,.3877-.0765,.5812-.0359-.0139-.074-.028-.1093-.0417-1.6368-.6364-3.183-1.5629-4.6091-2.5807Zm-35.9776-10.4775c.8017-.9875,1.6828-1.9045,2.5804-2.8048,1.3457-1.3494,2.7477-2.6398,4.2244-3.8448,.0778-.0635,.157-.1254,.2355-.1878,.0264-.0209,.0403-.0321,.0533-.0426,.1793-.1366,.3601-.271,.5429-.4028,.3766-.2716,.7607-.5334,1.1554-.778,.3364-.2084,.6804-.3991,1.0321-.58,.0812-.0418,.1938-.0887,.2599-.1159,.1317-.0461,.2631-.0917,.396-.1354,.0033-.0011,.01-.0028,.0142-.004,.0061,.0233,.0118,.0466,.0174,.0698,.01,.1566,.0202,.3126,.0218,.4697,.0254,2.344-1.6962,4.3544-3.4761,5.8937-1.9636,1.6981-4.3022,2.9799-6.6432,4.0776-.8524,.3997-1.7399,.8538-2.6433,1.2753,.7415-.9673,1.4656-1.949,2.2294-2.8898ZM56.1003,16.2793c.0795-.4223,.1669-.8427,.2712-1.2585,.634-1.9443,2.1716-3.7682,3.815-5.3435-.2305,1.6044,.1323,3.3138,1.0969,4.5836,1.6123,2.1228,4.6592,2.3639,6.8164,.9189,.9793-.6559,1.7876-1.6449,1.8954-2.8544,.1215-1.363-.6796-2.4154-1.7191-3.1902-.9228-.6879-2.1084,.8471-1.2347,1.6003,1.1096,.9566,1.1077,1.9794-.2002,2.7636-1.2302,.7377-2.9268,.7497-3.8735-.4508-1.1541-1.4635-1.0835-4.1614,.4863-5.3159,1.9216-1.4132,5.0876,.1243,6.8391,1.1486,2.1858,1.2783,4.2011,3.4588,4.2521,6.1296,.0498,2.6106-1.9674,5.0055-3.9546,6.4842-2.015,1.4992-4.4954,2.446-7.03,2.1389-2.3517-.285-4.8191-1.4616-6.2671-3.3802-1.0128-1.342-1.328-2.6777-1.193-3.9742Zm9.0755,41.4817c-1.4694,.0806-2.8958,.354-4.3436,.5965-.5855,.0981-1.1691,.182-1.7625,.2162-.3018,.0175-1.1056-.091-1.4111-.0968,.0079-.0198,.0122-.029,.0207-.051,.1399-.3628,.5862-1.0264,.9051-1.4201,.9668-1.194,2.2485-2.1298,3.6568-2.7371,1.4185-.6118,2.9683-.9011,4.5069-.9394,.4582-.0115,.9254-.0028,1.3889,.0282,.0875,.0801,.1722,.1629,.2599,.2426,1.1165,1.0166,2.1387,2.3617,3.2745,3.543-2.0642,.5411-4.2972,.4974-6.4954,.6178Zm11.2479-3.5859c-.1144,.1187-.2267,.2393-.3442,.355-.2474-.4282-.4875-.8626-.7565-1.2714-1.246-1.8934-2.965-3.304-5.1879-3.8026-2.0366-1.9413-4.0382-3.897-5.8309-6.0917-4.5698-5.5944-7.7354-12.7022-8.4775-19.9144-.0696-.6752-.1136-1.3653-.13-2.0637,1.8349,2.4706,4.8361,3.9251,7.8538,4.2651,3.2672,.3681,6.4636-1.0057,8.9427-3.0617,2.5708-2.1323,4.6008-5.3599,3.9922-8.808-.5953-3.3725-3.3492-5.8939-6.314-7.3128-2.0534-.9827-4.7678-1.8107-6.9421-.9542,1.7481-.9139,3.7295-1.4246,5.6358-1.3537,2.9981,.1112,5.5282,1.985,7.1932,4.3819,3.637,5.2351,4.0356,12.3252,4.2475,18.495,.1237,3.5985-.0091,7.1528-.6032,10.7095-.6774,4.0566-1.6691,8.0263-2.5762,12.033-.3275,1.4474-.6148,2.9117-.7025,4.3948Zm-44.2971,53.6815c-3.1986,.4889-6.4667,1.0215-9.7127,.9114-1.4854-.0504-2.9308-.453-4.3444-.8871-.7693-.2362-1.5321-.4932-2.2964-.745-.13-.0428-.279-.1142-.4185-.1415-1.4175-.6932-2.7682-1.489-4.0488-2.4136-.0617-.0445-.1226-.0905-.1833-.1366-.0115-.0093-.0123-.01-.0301-.0244-.178-.1439-.3546-.2896-.5265-.441-.3254-.2862-.6319-.5897-.9244-.9094-.0498-.0544-.0966-.1126-.1441-.1699-.0003-.0004-.0004-.0006-.0007-.001-.0269-.0414-.0528-.0835-.0788-.1256,.1746-.0362,.339-.0687,.3341-.0681,.7405-.0949,2.0166-.0827,2.9389-.1323,3.1729-.1702,6.3537-.5661,9.5351-.4005,5.5042,.2865,10.8905,2.1836,15.9029,4.4377-2.0117,.3404-3.9905,.9393-6.0024,1.2469Zm12.6553,6.7871c-1.2026,2.3785-2.4268,4.7461-3.6717,7.1028-2.177,4.1207-4.291,8.4387-7.896,11.5204-.5879,.5026-1.0976,.9104-1.8885,1.3839-.3081,.1846-.5444,.322-.822,.417-.008,.0028-.286,.1223-.3731,.1443-.0048-.0029-.0085-.0052-.0168-.0102,.0095-.0081,.0226-.018,.0495-.0346-.0465-.0007-.0781-.001-.1092-.0013-.3278-.3269-.4604-.6695-.2387-1.2172,.4574-1.13,.9689-2.2739,1.5416-3.3535,1.1283-2.1264,2.6093-4.0578,4.0454-5.9826,1.3899-1.8628,2.8942-3.6401,4.4765-5.3421,1.5816-1.7014,3.2494-3.3193,5.0094-4.8361-.0355,.0698-.0711,.1395-.1065,.2093Zm-.6382-20.516c-1.263-4.3805-2.3588-9.1767-2.2392-13.7662,.0051-.1961,.1007-.8098,.2144-1.1329,.0615,.0165,.1273,.029,.1743,.0482,.3977,.1627,.7352,.4177,1.0288,.7256,.7259,.7612,1.173,1.8684,1.6822,2.7784,.551,.9848,.9738,1.9576,1.2794,3.0469,.6123,2.1827,.8405,4.437,1.0609,6.6854,.2525,2.5758,.4903,5.1444,.5559,7.7333,.0257,1.0155,.0226,2.0311,.0226,3.0467-1.5327-2.9331-2.8551-5.9599-3.7793-9.1655Zm23.4867,41.695c-1.3117,1.2751-2.6643,2.4409-4.4763,2.8976-2.0918,.5271-4.2352,.228-6.2311-.5375-.7489-.2872-1.2837-.769-1.8889-1.2651-.0432-.0355-.0685-.0582-.1019-.0868,.0024-.0094,.0013-.0204,.0023-.0367-.0049,.0188-.0049,.0247-.0058,.0337-.4703-.4027-.0029-.144,.0043-.1022,.0049,.0283,.0028,.048,.0016,.0685,.0106-.0411,.0302-.1019,.0711-.2005,.1211-.2913,.2465-.8138,.3216-.9676,.2741-.5624,.5572-.7878,1.1699-1.1133,.4168-.2215,1.283-.4578,1.9602-.5945,2.1272-.4293,4.3376-.5483,6.5027-.4608,1.4844,.06,2.975,.2705,4.4381,.5883-.5856,.5959-1.1684,1.1945-1.7676,1.7769Zm7.6959-10.7424c-.2939,1.3402-.5742,2.6833-.8545,4.0265-.7258-2.3319-1.3545-4.694-1.8795-7.0815-.9924-4.5129-1.646-9.1309-1.4308-13.7622,.0892-1.9208,.5469-3.778,1.4756-5.4703,.2266-.4131,.5077-.6472,.8606-.9534,.2057-.1785,.4454-.4528,.6857-.6115,.0516-.017,.1264-.0385,.1497-.0168-.0702-.0657,.2266,.1225,.1058,.0407,.3214,.2176,.3527,.1992,.6328,.4854,2.4102,2.4607,2.3682,6.4165,2.1842,9.7433-.12,2.174-.2261,4.3502-.5508,6.5057-.3589,2.3837-.8625,4.7404-1.3787,7.094Zm-40.134,60.7821c-3.1803,.0212-6.6738,.1908-9.6372-1.1364-1.4079-.6306-2.7308-1.4324-4.1093-2.1216-1.3159-.6578-2.6981-1.082-4.0937-1.5291-1.2231-.3919-2.3668-.8249-3.2599-1.7412-.2019-.2072-.2561-.253-.3868-.4469-.0528-.0783-.0997-.167-.1468-.2538,.015,.0126,.0084-.024-.0082-.0627,.0385-.0366,.0774-.0724,.1158-.1094,.088-.0581,.1781-.119,.2713-.168,.0826-.0434,.3366-.1668,.4224-.2117,.0747-.0269,.194-.0712,.2205-.0791,.1623-.0482,.3218-.1038,.4854-.1488,.2336-.0642,.4697-.1185,.7073-.1653,.0709-.0139,.4176-.0619,.4673-.0728,.5041-.0492,1.0114-.067,1.5174-.0397,3.1941,.1725,6.3676,1.2165,9.4182,2.1049,2.8586,.8324,5.6906,1.6951,8.3513,3.0531,1.6934,.8644,3.2728,1.8941,4.7936,3.0114-1.7092,.0528-3.4184,.1055-5.1286,.117Zm24.5213,20.5707c-1.4967,1.8149-2.9272,3.5793-4.7717,5.0685-3.709,2.9947-8.6072,5.1543-13.2904,5.965-2.0881,.3614-4.8506,.3883-6.5215-.6669-.2115-.1336-.2861-.3109-.4203-.4105-.0048-.0173-.0082-.0262-.0119-.037,.0116-.1151,.0269-.2798,.0225-.3117,.1722-.7168,.7325-1.3909,1.2421-1.9081,1.4338-1.4549,3.3504-2.4378,5.2127-3.3391,2.2101-1.0697,4.4469-2.0004,6.7961-2.7246,3.893-1.2003,7.8662-2.03,11.8417-2.8688,.1581,.1957,.3193,.3886,.4763,.585-.194,.2143-.3918,.4254-.5757,.6481Zm4.9754-15.2811c-.3725,2.546-1.1767,5.0392-1.6885,7.5616-.0759,.3741-.2126,.9775-.3333,1.1964-.8818-1.875-1.7076-3.7741-2.3823-5.7367-.8987-2.6139-1.4519-5.2976-1.932-8.0144-.4232-2.3939-.8057-4.9701-.3141-7.3808,.0962-.4716,.2141-.9485,.394-1.3972,.0374-.0606,.2108-.4195,.2022-.4034,.1154-.2163,.2395-.4281,.3715-.6346,.2393-.3743,.4343-.6249,.7717-.9557,.3572-.3503,.5681-.3951,.8242-.5271-.0136-.0054-.0214-.0106-.0415-.0163,.0049,.0014,.0214,.0075,.0431,.0156,.0034-.0017,.0064-.0029,.0097-.0046-.004,.0021-.0043,.0032-.008,.0052,.0872,.0328,.2688,.1022,.3192,.1124,.0889,.0601,.2129,.1429,.2466,.1585,.1412,.1235,.2765,.2583,.4012,.3967,.3692,.4098,.8857,1.3498,1.2192,2.077,.0049,.0104,.1511,.3551,.166,.3845,.0519,.1293,.1035,.2587,.1535,.3888,.2,.5216,.3814,1.0498,.5424,1.5848,.3969,1.3172,.689,2.6705,.8878,4.0316,.3395,2.3244,.4888,4.8243,.1473,7.1577Zm5.7125,44.3837c-1.8647,2.1359-3.8103,4.2074-5.9158,6.1089-3.5288,3.187-8.2684,6.5789-13.1515,6.5775,.3192-.3001,.6976-.5373,1.0216-.8337,.41-.3753,.8012-.7714,1.211-1.1473,1.5866-1.4556,3.2606-2.8066,5.0288-4.0354,3.7868-2.6314,7.8118-4.9607,11.9357-7.0196,.095-.0475,.1923-.0908,.2877-.138-.1402,.1616-.2769,.3266-.4174,.4876Zm11.9412-27.2878c.915-3.6722,2.4101-7.5293,4.7084-10.5856,.0606-.075,.1211-.1507,.1852-.2226,.1291-.1455,.2558-.2925,.3912-.4326,.1296-.1339,.267-.2579,.4012-.387,.075-.0724,.1069-.1086,.1204-.1283,.0213-.0063,.06-.0226,.1424-.0663,.0349-.0184,.1508-.0767,.2344-.1213,.0088-.0025,.0174-.0049,.0265-.0077,.0245-.0009,.0474-.0025,.0711-.0051,.0205,.0151,.0483,.0311,.0807,.0475,.011,.0099,.0108,.0115,.0335,.0302,.0505,.0414,.1003,.0991,.1456,.1536,.1045,.1606,.1969,.3252,.2855,.4951,.0132,.0254,.0154,.0286,.0231,.0426,.0391,.102,.0765,.2053,.1101,.3086,.3383,1.0379,.3772,1.5213,.4262,2.5301,.2365,4.8723-1.3061,9.4548-3.3992,13.9425-1.0784,2.3119-2.2495,4.5866-3.4214,6.8525-.6354,1.2287-1.2958,2.4576-2.0852,3.5842,.0622-5.3739,.2154-10.793,1.5205-16.0304Z"/>
  </g>
</svg>